<?xml version="1.0" encoding="UTF-8"?>
<svg width="340" height="260" viewBox="00 340 260" version="1.1" xmlns="http://www.w3.org/2000/svg" xmlns:xlink="http://www.w3.org/1999/xlink">
    <!-- Generator: Sketch 55.2 (78181) - https://sketchapp.com -->
    <title>Group 17</title>
    <desc>Created with Sketch.</desc>
    <defs>
        <linearGradient x1="25.4409752%" y1="42.6637841%" x2="1.41862032%" y2="40.0933224%" id="linearGradient-1">
            <stop stop-color="#60EFCE" offset="0%"></stop>
            <stop stop-color="#F5F8FA" offset="100%"></stop>
        </linearGradient>
        <linearGradient x1="14.9288688%" y1="46.8867531%" x2="2.67023687%" y2="46.0386978%" id="linearGradient-2">
            <stop stop-color="#34BFEF" offset="0%"></stop>
            <stop stop-color="#F5F8FA" offset="100%"></stop>
        </linearGradient>
        <linearGradient x1="29.8684299%" y1="49.6021952%" x2="0%" y2="48.9471429%" id="linearGradient-3">
            <stop stop-color="#257EC9" offset="0%"></stop>
            <stop stop-color="#F5F8FA" offset="100%"></stop>
        </linearGradient>
    </defs>
    <g id="Page-1" stroke="none" stroke-width="1" fill="none" fill-rule="evenodd">
        <g id="Homepage-Mockup-1440-V1" transform="translate(-907.000000, -2027.000000)">
            <g id="Group-17" transform="translate(901.000000, 2028.000000)">
                <path d="M273.088319,23.8242559 C243.883369,23.8242559 186.980496,33.4490573 125.351585,83.8395206 C84.2656442,117.433163 52.8744464,133.2693 31.1779916,131.347934" id="Line-11-Copy-10" stroke="url(#linearGradient-1)" stroke-width="1.47506297" stroke-linecap="round" stroke-linejoin="round"></path>
                <path d="M274.563382,78.4015858 C233.902003,80.6085312 189.849703,79.5848116 148.060775,112.615173 C118.841926,135.710026 79.7580762,147.634021 30.8092254,148.387158" id="Line-11-Copy-11" stroke="url(#linearGradient-2)" stroke-width="1.47506297" stroke-linecap="round" stroke-linejoin="round"></path>
                <path d="M267.925598,130.766321 C234.902545,132.206517 215.23366,133.856137 156.532415,150.207578 C117.398252,161.108539 75.810584,165.998852 31.7694114,164.878518" id="Line-11-Copy-12" stroke="url(#linearGradient-3)" stroke-width="1.47506297" stroke-linecap="round" stroke-linejoin="round"></path>
                <g id="Group-53" transform="translate(246.537185, 118.228286)" fill-rule="nonzero">
                    <polygon id="Rectangle-Copy-232" fill="#257EC9" points="0.53586272 0.265438336 14.7981659 0.265438336 29.2995907 0.265438336 29.2995907 31.2417608 0.53586272 31.2417608"></polygon>
                    <rect id="Rectangle-Copy-233" fill="#083474" x="13.073898" y="23.8664459" width="3.68765743" height="7.37531486"></rect>
                    <rect id="Rectangle-Copy-276" fill="#083474" x="8.64870907" y="10.5908791" width="2.21259446" height="3.68765743"></rect>
                    <rect id="Rectangle-Copy-277" fill="#083474" x="8.64870907" y="3.21556428" width="2.21259446" height="3.68765743"></rect>
                    <rect id="Rectangle-Copy-279" fill="#083474" x="8.64870907" y="17.2286625" width="2.21259446" height="3.68765743"></rect>
                    <rect id="Rectangle-Copy-280" fill="#083474" x="18.9741499" y="10.5908791" width="2.21259446" height="3.68765743"></rect>
                    <rect id="Rectangle-Copy-282" fill="#083474" x="18.9741499" y="3.21556428" width="2.21259446" height="3.68765743"></rect>
                    <rect id="Rectangle-Copy-283" fill="#083474" x="18.9741499" y="17.2286625" width="2.21259446" height="3.68765743"></rect>
                    <rect id="Rectangle-Copy-285" fill="#083474" x="13.8114295" y="10.5908791" width="2.21259446" height="3.68765743"></rect>
                    <rect id="Rectangle-Copy-286" fill="#083474" x="13.8114295" y="3.21556428" width="2.21259446" height="3.68765743"></rect>
                    <rect id="Rectangle-Copy-288" fill="#083474" x="13.8114295" y="17.2286625" width="2.21259446" height="3.68765743"></rect>
                    <rect id="Rectangle-Copy-289" fill="#083474" x="24.1368703" y="10.5908791" width="2.21259446" height="3.68765743"></rect>
                    <rect id="Rectangle-Copy-291" fill="#083474" x="24.1368703" y="3.21556428" width="2.21259446" height="3.68765743"></rect>
                    <rect id="Rectangle-Copy-292" fill="#083474" x="24.1368703" y="17.2286625" width="2.21259446" height="3.68765743"></rect>
                    <rect id="Rectangle-Copy-293" fill="#083474" x="3.48598866" y="10.5908791" width="2.21259446" height="3.68765743"></rect>
                    <rect id="Rectangle-Copy-294" fill="#083474" x="3.48598866" y="3.21556428" width="2.21259446" height="3.68765743"></rect>
                    <rect id="Rectangle-Copy-295" fill="#083474" x="3.48598866" y="17.2286625" width="2.21259446" height="3.68765743"></rect>
                </g>
                <g id="Group-55" transform="translate(207.448016, 72.501334)" fill-rule="nonzero">
                    <g id="Group-54" transform="translate(0.535863, 0.265438)">
                        <polygon id="Rectangle-Copy-4" fill="#34BFEF" points="7.2475359e-13 7.2475359e-13 13.5153503 7.2475359e-13 27.2572987 7.2475359e-13 27.2572987 30.7990551 7.2475359e-13 30.7990551"></polygon>
                        <rect id="Rectangle-Copy-196" fill="#1F87B9" x="11.7309893" y="23.4659468" width="3.79532007" height="7.33310836"></rect>
                        <rect id="Rectangle-Copy-261" fill="#1F87B9" x="7.59064015" y="9.89969629" width="2.41520368" height="4.0332096"></rect>
                        <rect id="Rectangle-Copy-271" fill="#1F87B9" x="7.59064015" y="2.93324335" width="2.41520368" height="4.0332096"></rect>
                        <rect id="Rectangle-Copy-266" fill="#1F87B9" x="7.59064015" y="16.8661492" width="2.41520368" height="4.0332096"></rect>
                        <rect id="Rectangle-Copy-262" fill="#1F87B9" x="17.2514549" y="9.89969629" width="2.41520368" height="4.0332096"></rect>
                        <rect id="Rectangle-Copy-272" fill="#1F87B9" x="17.2514549" y="2.93324335" width="2.41520368" height="4.0332096"></rect>
                        <rect id="Rectangle-Copy-267" fill="#1F87B9" x="17.2514549" y="16.8661492" width="2.41520368" height="4.0332096"></rect>
                        <rect id="Rectangle-Copy-263" fill="#1F87B9" x="12.4210475" y="9.89969629" width="2.41520368" height="4.0332096"></rect>
                        <rect id="Rectangle-Copy-273" fill="#1F87B9" x="12.4210475" y="2.93324335" width="2.41520368" height="4.0332096"></rect>
                        <rect id="Rectangle-Copy-268" fill="#1F87B9" x="12.4210475" y="16.8661492" width="2.41520368" height="4.0332096"></rect>
                        <rect id="Rectangle-Copy-264" fill="#1F87B9" x="22.0818622" y="9.89969629" width="2.41520368" height="4.0332096"></rect>
                        <rect id="Rectangle-Copy-274" fill="#1F87B9" x="22.0818622" y="2.93324335" width="2.41520368" height="4.0332096"></rect>
                        <rect id="Rectangle-Copy-269" fill="#1F87B9" x="22.0818622" y="16.8661492" width="2.41520368" height="4.0332096"></rect>
                        <rect id="Rectangle-Copy-265" fill="#1F87B9" x="2.76023278" y="9.89969629" width="2.41520368" height="4.0332096"></rect>
                        <rect id="Rectangle-Copy-275" fill="#1F87B9" x="2.76023278" y="2.93324335" width="2.41520368" height="4.0332096"></rect>
                        <rect id="Rectangle-Copy-270" fill="#1F87B9" x="2.76023278" y="16.8661492" width="2.41520368" height="4.0332096"></rect>
                    </g>
                </g>
                <g id="Group-13" transform="translate(171.308974, 26.774382)" fill-rule="nonzero">
                    <polygon id="Rectangle-Copy-234" fill="#60EFCE" points="0.53586272 0.265438336 14.7981659 0.265438336 29.2995907 0.265438336 29.2995907 31.2417608 0.53586272 31.2417608"></polygon>
                    <rect id="Rectangle-Copy-235" fill="#17A080" x="13.073898" y="23.8664459" width="3.68765743" height="7.37531486"></rect>
                    <rect id="Rectangle-Copy-296" fill="#17A080" x="8.64870907" y="10.5908791" width="2.21259446" height="3.68765743"></rect>
                    <rect id="Rectangle-Copy-297" fill="#17A080" x="8.64870907" y="3.21556428" width="2.21259446" height="3.68765743"></rect>
                    <rect id="Rectangle-Copy-298" fill="#17A080" x="8.64870907" y="17.2286625" width="2.21259446" height="3.68765743"></rect>
                    <rect id="Rectangle-Copy-299" fill="#17A080" x="18.9741499" y="10.5908791" width="2.21259446" height="3.68765743"></rect>
                    <rect id="Rectangle-Copy-300" fill="#17A080" x="18.9741499" y="3.21556428" width="2.21259446" height="3.68765743"></rect>
                    <rect id="Rectangle-Copy-301" fill="#17A080" x="18.9741499" y="17.2286625" width="2.21259446" height="3.68765743"></rect>
                    <rect id="Rectangle-Copy-302" fill="#17A080" x="13.8114295" y="10.5908791" width="2.21259446" height="3.68765743"></rect>
                    <rect id="Rectangle-Copy-303" fill="#17A080" x="13.8114295" y="3.21556428" width="2.21259446" height="3.68765743"></rect>
                    <rect id="Rectangle-Copy-304" fill="#17A080" x="13.8114295" y="17.2286625" width="2.21259446" height="3.68765743"></rect>
                    <rect id="Rectangle-Copy-305" fill="#17A080" x="24.1368703" y="10.5908791" width="2.21259446" height="3.68765743"></rect>
                    <rect id="Rectangle-Copy-306" fill="#17A080" x="24.1368703" y="3.21556428" width="2.21259446" height="3.68765743"></rect>
                    <rect id="Rectangle-Copy-307" fill="#17A080" x="24.1368703" y="17.2286625" width="2.21259446" height="3.68765743"></rect>
                    <rect id="Rectangle-Copy-308" fill="#17A080" x="3.48598866" y="10.5908791" width="2.21259446" height="3.68765743"></rect>
                    <rect id="Rectangle-Copy-309" fill="#17A080" x="3.48598866" y="3.21556428" width="2.21259446" height="3.68765743"></rect>
                    <rect id="Rectangle-Copy-310" fill="#17A080" x="3.48598866" y="17.2286625" width="2.21259446" height="3.68765743"></rect>
                </g>
                <path d="M291.526606,187.556246 L31.1779916,187.925012" id="Line-11" stroke="#B2DBFF" stroke-width="1.47506297" stroke-linecap="round" stroke-linejoin="round"></path>
                <path d="M31.1117286,187.556246 L30.8092254,0.939250519" id="Line-3" stroke="#B2DBFF" stroke-width="1.47506297" stroke-linecap="round" stroke-linejoin="round"></path>
                <polygon id="Triangle" fill="#60EFCE" points="185.857935 18.1894423 200.608564 27.0398201 171.844836 27.0398201"></polygon>
                <polygon id="Triangle-Copy-2" fill="#257EC9" points="261.086146 109.643347 275.836776 118.493724 247.073048 118.493724"></polygon>
                <polygon id="Triangle-Copy" fill="#34BFEF" points="221.278357 63.9163944 235.272544 72.7667723 207.983879 72.7667723"></polygon>
                <text id="2009" font-family="SharpGrotesk-Medium20, Sharp Grotesk" font-size="14.7506297" font-weight="500" line-spacing="28.0261965" fill="#B2DBFF">
                    <tspan x="38.3516373" y="205.77181">2009</tspan>
                </text>
                <text id="Opportunity" transform="translate(14.500000, 97.918913) rotate(-90.000000) translate(-14.500000, -97.918913) " font-family="SharpGrotesk-Medium20, Sharp Grotesk" font-size="14.7506297" font-weight="500" line-spacing="28.0261965" fill="#B2DBFF">
                    <tspan x="-31.5" y="101.4189133">Opportunity</tspan>
                </text>
                <text id="2016" font-family="SharpGrotesk-Medium20, Sharp Grotesk" font-size="14.7506297" font-weight="500" line-spacing="28.0261965" fill="#B2DBFF">
                    <tspan x="236.747607" y="205.77181">2016</tspan>
                </text>
                <path d="M292.681148,187.501163 L286.363885,181.183901" id="Line-11-Copy" stroke="#B2DBFF" stroke-width="1.47506297" stroke-linecap="round" stroke-linejoin="round"></path>
                <path d="M292.681148,194.138947 L286.363885,187.821684" id="Line-11-Copy-3" stroke="#B2DBFF" stroke-width="1.47506297" stroke-linecap="round" stroke-linejoin="round" transform="translate(289.522517, 190.980315) scale(1, -1) translate(-289.522517, -190.980315) "></path>
                <path d="M30.7634786,6.31726264 L24.4462158,4.54747351e-13" id="Line-11-Copy" stroke="#B2DBFF" stroke-width="1.47506297" stroke-linecap="round" stroke-linejoin="round" transform="translate(27.604847, 3.158631) rotate(-90.000000) translate(-27.604847, -3.158631) "></path>
                <path d="M37.401262,6.31726264 L31.0839991,0" id="Line-11-Copy-3" stroke="#B2DBFF" stroke-width="1.47506297" stroke-linecap="round" stroke-linejoin="round" transform="translate(34.242631, 3.158631) scale(1, -1) rotate(-270.000000) translate(-34.242631, -3.158631) "></path>
            </g>
        </g>
    </g>
</svg>