<?xml version="1.0" encoding="UTF-8"?>
<svg width="" height="" viewBox="0 0 1440 507" version="1.1" xmlns="http://www.w3.org/2000/svg" xmlns:xlink="http://www.w3.org/1999/xlink">
    <!-- Generator: Sketch 54.1 (76490) - https://sketchapp.com -->
    <title>about-lines-graph</title>
    <desc>Created with Sketch.</desc>
    <defs>
        <linearGradient x1="53.2215332%" y1="50.0934308%" x2="59.4626049%" y2="50.0044276%" id="linearGradient-1">
            <stop stop-color="#0088E0" offset="0%"></stop>
            <stop stop-color="#E7EBEF" stop-opacity="0" offset="100%"></stop>
        </linearGradient>
        <linearGradient x1="52.0083841%" y1="26.3622187%" x2="52.0083841%" y2="71.4881972%" id="linearGradient-2">
            <stop stop-color="#1FB691" offset="0%"></stop>
            <stop stop-color="#0364FF" stop-opacity="0.15" offset="100%"></stop>
        </linearGradient>
        <linearGradient x1="52.0083841%" y1="22.1665228%" x2="52.0083841%" y2="192.434101%" id="linearGradient-3">
            <stop stop-color="#FF003E" stop-opacity="0.199558424" offset="0%"></stop>
            <stop stop-color="#0364FF" stop-opacity="0.15" offset="100%"></stop>
        </linearGradient>
    </defs>
    <g id="Page-1" stroke="none" stroke-width="1" fill="none" fill-rule="evenodd">
        <g id="About-Page-1440-V2" transform="translate(0.000000, -85.000000)">
            <g id="about-lines-graph" transform="translate(-164.000000, 0.000000)">
                <g id="Graph" opacity="0.576939174" transform="translate(0.000000, 83.000000)">
                    <g id="lines" opacity="0.533365885" stroke="url(#linearGradient-1)" stroke-linecap="square" stroke-width="1.27008">
                        <path d="M-1.02318154e-12,3.09073679 L1830.8799,3.09073679" id="6" transform="translate(915.439948, 3.090737) scale(-1, 1) translate(-915.439948, -3.090737) "></path>
                        <path d="M-1.02318154e-12,123.629472 L1830.8799,123.629472" id="5" transform="translate(915.439948, 123.629472) scale(-1, 1) translate(-915.439948, -123.629472) "></path>
                        <path d="M-1.02318154e-12,244.168207 L1830.8799,244.168207" id="4" transform="translate(915.439948, 244.168207) scale(-1, 1) translate(-915.439948, -244.168207) "></path>
                        <path d="M-1.02318154e-12,364.706941 L1830.8799,364.706941" id="3" transform="translate(915.439948, 364.706941) scale(-1, 1) translate(-915.439948, -364.706941) "></path>
                        <path d="M-1.02318154e-12,485.245676 L1830.8799,485.245676" id="2" transform="translate(915.439948, 485.245676) scale(-1, 1) translate(-915.439948, -485.245676) "></path>
                    </g>
                    <g id="green-line" opacity="0.73500279" transform="translate(129.847809, 18.987892)" fill-rule="nonzero">
                        <path d="M3.24271479e-16,449.637635 C77.9186261,449.637635 62.9342749,409.223482 110.884199,409.223482 C139.354466,409.223482 157.335687,356.834764 191.799695,356.834764 C230.759008,356.834764 223.266832,382.280713 266.721451,382.280713 C310.176069,382.280713 348.850392,424.191687 374.608779,424.191687 C400.367166,424.191687 400.367166,403.2362 427.054008,403.2362 C453.74085,403.2362 453.74085,376.293431 491.486718,376.293431 C529.232586,376.293431 527.013654,329.891995 554.420993,329.891995 C581.828333,329.891995 587.386566,356.834764 602.370917,356.834764 C617.355268,356.834764 611.361528,329.891995 641.33023,329.891995 C671.298933,329.891995 671.298933,298.458765 705.76294,296.961944 C740.226948,295.465124 729.932849,227.606959 780.545817,200.103173 C831.158785,172.599386 836.336738,231.548104 893.06733,195.17815 C949.797922,158.808197 959.0447,133.606497 979.976567,120.337125 C1000.90843,107.067754 1002.73809,125.082862 1048.90458,96.3879974 C1095.07107,67.6931329 1096.85451,36.5151775 1114.83573,36.5151775 C1132.81695,36.5151775 1128.32164,58.967485 1156.79191,58.967485 C1185.26218,58.967485 1188.25905,90.4007154 1209.23714,90.4007154 C1230.21523,90.4007154 1244.28976,70.9420489 1260.18393,70.9420489 C1282.66046,70.9420489 1293.14951,97.8848179 1333.60725,96.3879974 C1374.065,94.8911769 1375.80319,74.4909621 1421.03108,74.4909621 C1466.25896,74.4909621 1465.50902,14.606071 1493.97928,14.606071 C1493.97928,32.567917 1491.46873,281.357993 1486.44764,760.976299 L0,760.976299 C0,591.336642 1.08090493e-16,487.557088 3.24271479e-16,449.637635 Z" id="Path-2-Copy" fill="url(#linearGradient-2)" opacity="0.087937128"></path>
                        <path d="M0,449.637635 C77.9186261,449.637635 62.9342749,409.223482 110.884199,409.223482 C139.354466,409.223482 157.335687,356.834764 191.799695,356.834764 C230.759008,356.834764 223.266832,382.280713 266.721451,382.280713 C310.176069,382.280713 348.850392,424.191687 374.608779,424.191687 C400.367166,424.191687 400.367166,403.2362 427.054008,403.2362 C453.74085,403.2362 453.74085,376.293431 491.486718,376.293431 C529.232586,376.293431 527.013654,329.891995 554.420993,329.891995 C581.828333,329.891995 587.386566,356.834764 602.370917,356.834764 C617.355268,356.834764 611.361528,329.891995 641.33023,329.891995 C671.298933,329.891995 671.298933,298.458765 705.76294,296.961944 C740.226948,295.465124 733.858964,232.236529 777.627888,201.56378 C821.396813,170.891031 836.336738,231.548104 893.06733,195.17815 C949.797922,158.808197 959.0447,133.606497 979.976567,120.337125 C1000.90843,107.067754 1002.73809,125.082862 1048.90458,96.3879974 C1095.07107,67.6931329 1096.85451,36.5151775 1114.83573,36.5151775 C1132.81695,36.5151775 1125.57037,58.424284 1154.04064,58.424284 C1182.5109,58.424284 1188.25905,90.4007154 1209.23714,90.4007154 C1230.21523,90.4007154 1244.28976,70.9420489 1260.18393,70.9420489 C1282.66046,70.9420489 1293.14951,97.8848179 1333.60725,96.3879974 C1374.065,94.8911769 1374.57959,71.5335345 1421.03108,73.030355 C1467.48256,74.5271755 1474.2628,-1.38059462e-13 1502.73307,0" id="Path-2" stroke="#1EAF8B" stroke-width="2" opacity="0.38499814" stroke-linecap="round"></path>
                    </g>
                </g>
                <g id="red-line" transform="translate(129.000000, 327.000000)" fill-rule="nonzero">
                    <path d="M1.4592233,276.062824 C79.3916902,276.062824 64.4046773,235.613881 112.363118,235.613881 C140.838443,235.613881 158.822858,183.180067 193.292988,183.180067 C232.259221,183.180067 224.765715,208.64792 268.228052,208.64792 C311.69039,208.64792 350.371582,250.594971 376.134545,250.594971 C401.897507,250.594971 401.897507,229.621446 428.58909,229.621446 C455.280672,229.621446 455.280672,202.655484 493.033245,202.655484 C530.785818,202.655484 528.566491,156.214106 555.978699,156.214106 C583.390907,156.214106 588.950127,183.180067 603.93714,183.180067 C618.924153,183.180067 612.929348,156.214106 642.903374,156.214106 C672.877399,156.214106 672.877399,124.753817 707.347529,123.255708 C741.817659,121.757599 758.39141,78.1754833 801.925855,60.2847756 C845.4603,42.3940678 858.990354,78.795329 915.731022,42.3940678 C972.471691,5.99280662 964.575102,46.7768058 1005.67846,34.3538136 C1046.78182,21.9308213 1065.01071,0 1122.06862,0 C1179.12653,0 1179.12653,42.3940678 1210.34593,42.3940678 C1241.56533,42.3940678 1253.7576,60.2847756 1297.40342,60.2847756 C1354.17632,60.2847756 1354.17632,42.3940678 1400.54656,42.3940678 C1446.9168,42.3940678 1446.7059,89.1737288 1503,89.1737288 C1503,89.1737288 1503,174.121756 1503,344.01781 L1.4592233,344.01781 C0.486407767,298.714486 0.486407767,276.062824 1.4592233,276.062824 Z" id="Path-2" fill="url(#linearGradient-3)" opacity="0.564918155"></path>
                    <path d="M1.4592233,276.062824 C79.3916902,276.062824 64.4046773,235.613881 112.363118,235.613881 C140.838443,235.613881 158.822858,183.180067 193.292988,183.180067 C232.259221,183.180067 224.765715,208.64792 268.228052,208.64792 C311.69039,208.64792 350.371582,250.594971 376.134545,250.594971 C401.897507,250.594971 401.897507,229.621446 428.58909,229.621446 C455.280672,229.621446 455.280672,202.655484 493.033245,202.655484 C530.785818,202.655484 528.566491,156.214106 555.978699,156.214106 C583.390907,156.214106 588.950127,183.180067 603.93714,183.180067 C618.924153,183.180067 612.929348,156.214106 642.903374,156.214106 C672.877399,156.214106 672.877399,124.753817 707.347529,123.255708 C741.817659,121.757599 758.39141,78.1754833 801.925855,60.2847756 C845.4603,42.3940678 858.990354,78.795329 915.731022,42.3940678 C972.471691,5.99280662 964.575102,46.7768058 1005.67846,34.3538136 C1046.78182,21.9308213 1065.01071,0 1122.06862,0 C1179.12653,0 1179.12653,42.3940678 1210.34593,42.3940678 C1241.56533,42.3940678 1253.7576,60.2847756 1297.40342,60.2847756 C1354.17632,60.2847756 1354.17632,42.3940678 1400.54656,42.3940678 C1446.9168,42.3940678 1446.7059,89.1737288 1503,89.1737288" id="Path-2" stroke="#FF003E" stroke-width="2" opacity="0.184105283" stroke-linecap="round"></path>
                </g>
            </g>
        </g>
    </g>
</svg>