
<svg width="992px" height="448px" viewBox="0 0 992 448" version="1.1" xmlns="http://www.w3.org/2000/svg" xmlns:xlink="http://www.w3.org/1999/xlink">
    <defs>
        <linearGradient x1="-5519.92188%" y1="44.5589049%" x2="-5519.92188%" y2="0%" id="linearGradient-1">
            <stop stop-color="#02396E" offset="0%"></stop>
            <stop stop-color="#04235E" offset="100%"></stop>
        </linearGradient>
        <linearGradient x1="50%" y1="0%" x2="50%" y2="100%" id="linearGradient-2">
            <stop stop-color="#052460" offset="0%"></stop>
            <stop stop-color="#1B55B5" offset="52.5680954%"></stop>
            <stop stop-color="#04235E" offset="100%"></stop>
        </linearGradient>
        <linearGradient x1="50%" y1="0%" x2="50%" y2="100%" id="linearGradient-3">
            <stop stop-color="#052460" offset="0%"></stop>
            <stop stop-color="#1B55B5" offset="52.5680954%"></stop>
            <stop stop-color="#04235E" offset="100%"></stop>
        </linearGradient>
        <linearGradient x1="50%" y1="0%" x2="50%" y2="100%" id="linearGradient-4">
            <stop stop-color="#052460" offset="0%"></stop>
            <stop stop-color="#1B55B5" offset="52.5680954%"></stop>
            <stop stop-color="#04235E" offset="100%"></stop>
        </linearGradient>
    </defs>
    <g id="Page-1" stroke="none" stroke-width="1" fill="none" fill-rule="evenodd">
        <g id="explorations-hero">
            <g transform="translate(-12.000000, -3.000000)">
                <g id="plotgrids" stroke-linecap="round" stroke-linejoin="round">
                    <path d="M448,452 L449.119048,0" id="Line-18-Copy-4" stroke="url(#linearGradient-1)" opacity="0.366908482"></path>
                    <path d="M210,452 L211.119048,0" id="Line-18-Copy-5" stroke="url(#linearGradient-1)" opacity="0.366908482"></path>
                    <path d="M91,452 L92.1190476,0" id="Line-18-Copy-7" stroke="url(#linearGradient-1)" opacity="0.366908482"></path>
                    <path d="M329,452 L330.119048,0" id="Line-18-Copy-6" stroke="url(#linearGradient-1)" opacity="0.366908482"></path>
                    <path d="M567,452 L568.119048,0" id="Line-18-Copy-3" stroke="url(#linearGradient-1)" opacity="0.366908482"></path>
                    <path d="M505,599.5 L505,-404.5" id="Line-18-Copy-8" stroke="url(#linearGradient-2)" opacity="0.131277902" transform="translate(505.000000, 97.500000) rotate(-270.000000) translate(-505.000000, -97.500000) "></path>
                    <path d="M504.5,720.5 L504.5,-283.5" id="Line-18-Copy-9" stroke="url(#linearGradient-3)" opacity="0.251395089" transform="translate(504.500000, 218.500000) rotate(-270.000000) translate(-504.500000, -218.500000) "></path>
                    <path d="M502,839.5 L502,-163.5" id="Line-18-Copy-10" stroke="url(#linearGradient-4)" opacity="0.268531436" transform="translate(502.000000, 338.000000) rotate(-270.000000) translate(-502.000000, -338.000000) "></path>
                    <path d="M921,452 L922.119048,0" id="Line-18" stroke="url(#linearGradient-1)" opacity="0.366908482"></path>
                    <path d="M686,452 L687.119048,0" id="Line-18-Copy-2" stroke="url(#linearGradient-1)" opacity="0.366908482"></path>
                    <path d="M805,452 L806.119048,0" id="Line-18-Copy" stroke="url(#linearGradient-1)" opacity="0.366908482"></path>
                </g>
                <g id="plotdots" transform="translate(196.000000, 68.000000)" fill="#1A62DB">
                    <path d="M5,332 C7.76142375,332 10,329.761424 10,327 C10,324.238576 7.76142375,322 5,322 C2.23857625,322 0,324.238576 0,327 C0,329.761424 2.23857625,332 5,332 Z" id="point" opacity="0.0607328869"></path>
                    <path d="M135.5,252 C139.642136,252 143,248.642136 143,244.5 C143,240.357864 139.642136,237 135.5,237 C131.357864,237 128,240.357864 128,244.5 C128,248.642136 131.357864,252 135.5,252 Z" id="point-copy" opacity="0.134835379"></path>
                    <path d="M185.5,200 C187.985281,200 190,197.985281 190,195.5 C190,193.014719 187.985281,191 185.5,191 C183.014719,191 181,193.014719 181,195.5 C181,197.985281 183.014719,200 185.5,200 Z" id="point-copy-9" opacity="0.134835379"></path>
                    <path d="M79.5,256 C81.9852814,256 84,253.985281 84,251.5 C84,249.014719 81.9852814,247 79.5,247 C77.0147186,247 75,249.014719 75,251.5 C75,253.985281 77.0147186,256 79.5,256 Z" id="point-copy-22" opacity="0.0607328869"></path>
                    <path d="M185.5,253 C187.985281,253 190,250.985281 190,248.5 C190,246.014719 187.985281,244 185.5,244 C183.014719,244 181,246.014719 181,248.5 C181,250.985281 183.014719,253 185.5,253 Z" id="point-copy-36" opacity="0.134835379"></path>
                    <path d="M343.5,143 C345.985281,143 348,140.985281 348,138.5 C348,136.014719 345.985281,134 343.5,134 C341.014719,134 339,136.014719 339,138.5 C339,140.985281 341.014719,143 343.5,143 Z" id="point-copy-11" opacity="0.134835379"></path>
                    <path d="M343.5,99 C345.985281,99 348,96.9852814 348,94.5 C348,92.0147186 345.985281,90 343.5,90 C341.014719,90 339,92.0147186 339,94.5 C339,96.9852814 341.014719,99 343.5,99 Z" id="point-copy-27" opacity="0.134835379"></path>
                    <path d="M237.5,199 C239.985281,199 242,196.985281 242,194.5 C242,192.014719 239.985281,190 237.5,190 C235.014719,190 233,192.014719 233,194.5 C233,196.985281 235.014719,199 237.5,199 Z" id="point-copy-23" opacity="0.134835379"></path>
                    <path d="M237.5,155 C239.985281,155 242,152.985281 242,150.5 C242,148.014719 239.985281,146 237.5,146 C235.014719,146 233,148.014719 233,150.5 C233,152.985281 235.014719,155 237.5,155 Z" id="point-copy-28" opacity="0.134835379"></path>
                    <path d="M256.5,170 C260.642136,170 264,166.642136 264,162.5 C264,158.357864 260.642136,155 256.5,155 C252.357864,155 249,158.357864 249,162.5 C249,166.642136 252.357864,170 256.5,170 Z" id="point" opacity="0.134835379"></path>
                    <path d="M290.5,59 C294.642136,59 298,55.6421356 298,51.5 C298,47.3578644 294.642136,44 290.5,44 C286.357864,44 283,47.3578644 283,51.5 C283,55.6421356 286.357864,59 290.5,59 Z" id="point-copy-34" opacity="0.0607328869"></path>
                    <path d="M303.5,247 C307.642136,247 311,243.642136 311,239.5 C311,235.357864 307.642136,232 303.5,232 C299.357864,232 296,235.357864 296,239.5 C296,243.642136 299.357864,247 303.5,247 Z" id="point-copy-35" opacity="0.134835379"></path>
                    <path d="M369.5,113 C373.642136,113 377,109.642136 377,105.5 C377,101.357864 373.642136,98 369.5,98 C365.357864,98 362,101.357864 362,105.5 C362,109.642136 365.357864,113 369.5,113 Z" id="point" opacity="0.215146019"></path>
                    <path d="M108.5,266 C110.985281,266 113,263.985281 113,261.5 C113,259.014719 110.985281,257 108.5,257 C106.014719,257 104,259.014719 104,261.5 C104,263.985281 106.014719,266 108.5,266 Z" id="point-copy-37" opacity="0.134835379"></path>
                    <path d="M348.5,148 C350.985281,148 353,145.985281 353,143.5 C353,141.014719 350.985281,139 348.5,139 C346.014719,139 344,141.014719 344,143.5 C344,145.985281 346.014719,148 348.5,148 Z" id="point-copy-24" opacity="0.134835379"></path>
                    <path d="M334.5,204 C336.985281,204 339,201.985281 339,199.5 C339,197.014719 336.985281,195 334.5,195 C332.014719,195 330,197.014719 330,199.5 C330,201.985281 332.014719,204 334.5,204 Z" id="point-copy-13" opacity="0.134835379"></path>
                    <path d="M216.5,223 C220.642136,223 224,219.642136 224,215.5 C224,211.357864 220.642136,208 216.5,208 C212.357864,208 209,211.357864 209,215.5 C209,219.642136 212.357864,223 216.5,223 Z" id="point-copy-18" opacity="0.215146019"></path>
                    <path d="M386.276743,156.776743 C390.418879,156.776743 393.776743,153.418879 393.776743,149.276743 C393.776743,145.134607 390.418879,141.776743 386.276743,141.776743 C382.134607,141.776743 378.776743,145.134607 378.776743,149.276743 C378.776743,153.418879 382.134607,156.776743 386.276743,156.776743 Z" id="point-copy-3" opacity="0.134835379" transform="translate(386.276743, 149.276743) rotate(164.000000) translate(-386.276743, -149.276743) "></path>
                    <path d="M294.276743,189.776743 C298.418879,189.776743 301.776743,186.418879 301.776743,182.276743 C301.776743,178.134607 298.418879,174.776743 294.276743,174.776743 C290.134607,174.776743 286.776743,178.134607 286.776743,182.276743 C286.776743,186.418879 290.134607,189.776743 294.276743,189.776743 Z" id="point-copy-4" opacity="0.215146019" transform="translate(294.276743, 182.276743) rotate(164.000000) translate(-294.276743, -182.276743) "></path>
                    <path d="M312.276743,110.776743 C316.418879,110.776743 319.776743,107.418879 319.776743,103.276743 C319.776743,99.1346073 316.418879,95.7767429 312.276743,95.7767429 C308.134607,95.7767429 304.776743,99.1346073 304.776743,103.276743 C304.776743,107.418879 308.134607,110.776743 312.276743,110.776743 Z" id="point-copy-5" opacity="0.134835379" transform="translate(312.276743, 103.276743) rotate(164.000000) translate(-312.276743, -103.276743) "></path>
                    <path d="M78.1844953,294.184495 C80.945919,294.184495 83.1844953,291.945919 83.1844953,289.184495 C83.1844953,286.423072 80.945919,284.184495 78.1844953,284.184495 C75.4230715,284.184495 73.1844953,286.423072 73.1844953,289.184495 C73.1844953,291.945919 75.4230715,294.184495 78.1844953,294.184495 Z" id="point-copy-38" opacity="0.134835379" transform="translate(78.184495, 289.184495) rotate(164.000000) translate(-78.184495, -289.184495) "></path>
                    <path d="M391.184495,75.1844953 C393.945919,75.1844953 396.184495,72.945919 396.184495,70.1844953 C396.184495,67.4230715 393.945919,65.1844953 391.184495,65.1844953 C388.423072,65.1844953 386.184495,67.4230715 386.184495,70.1844953 C386.184495,72.945919 388.423072,75.1844953 391.184495,75.1844953 Z" id="point-copy-33" opacity="0.134835379" transform="translate(391.184495, 70.184495) rotate(164.000000) translate(-391.184495, -70.184495) "></path>
                    <path d="M281.184495,144.184495 C283.945919,144.184495 286.184495,141.945919 286.184495,139.184495 C286.184495,136.423072 283.945919,134.184495 281.184495,134.184495 C278.423072,134.184495 276.184495,136.423072 276.184495,139.184495 C276.184495,141.945919 278.423072,144.184495 281.184495,144.184495 Z" id="point-copy-25" opacity="0.134835379" transform="translate(281.184495, 139.184495) rotate(164.000000) translate(-281.184495, -139.184495) "></path>
                    <path d="M297.184495,157.184495 C299.945919,157.184495 302.184495,154.945919 302.184495,152.184495 C302.184495,149.423072 299.945919,147.184495 297.184495,147.184495 C294.423072,147.184495 292.184495,149.423072 292.184495,152.184495 C292.184495,154.945919 294.423072,157.184495 297.184495,157.184495 Z" id="point-copy-31" opacity="0.134835379" transform="translate(297.184495, 152.184495) rotate(164.000000) translate(-297.184495, -152.184495) "></path>
                    <path d="M315.184495,181.184495 C317.945919,181.184495 320.184495,178.945919 320.184495,176.184495 C320.184495,173.423072 317.945919,171.184495 315.184495,171.184495 C312.423072,171.184495 310.184495,173.423072 310.184495,176.184495 C310.184495,178.945919 312.423072,181.184495 315.184495,181.184495 Z" id="point-copy-16" opacity="0.12344215" transform="translate(315.184495, 176.184495) rotate(164.000000) translate(-315.184495, -176.184495) "></path>
                    <path d="M230.184495,110.184495 C232.945919,110.184495 235.184495,107.945919 235.184495,105.184495 C235.184495,102.423072 232.945919,100.184495 230.184495,100.184495 C227.423072,100.184495 225.184495,102.423072 225.184495,105.184495 C225.184495,107.945919 227.423072,110.184495 230.184495,110.184495 Z" id="point-copy-21" opacity="0.12344215" transform="translate(230.184495, 105.184495) rotate(164.000000) translate(-230.184495, -105.184495) "></path>
                    <path d="M46.1844953,300.184495 C48.945919,300.184495 51.1844953,297.945919 51.1844953,295.184495 C51.1844953,292.423072 48.945919,290.184495 46.1844953,290.184495 C43.4230715,290.184495 41.1844953,292.423072 41.1844953,295.184495 C41.1844953,297.945919 43.4230715,300.184495 46.1844953,300.184495 Z" id="point-copy-39" opacity="0.12344215" transform="translate(46.184495, 295.184495) rotate(164.000000) translate(-46.184495, -295.184495) "></path>
                    <path d="M266.184495,216.184495 C268.945919,216.184495 271.184495,213.945919 271.184495,211.184495 C271.184495,208.423072 268.945919,206.184495 266.184495,206.184495 C263.423072,206.184495 261.184495,208.423072 261.184495,211.184495 C261.184495,213.945919 263.423072,216.184495 266.184495,216.184495 Z" id="point-copy-17" opacity="0.12344215" transform="translate(266.184495, 211.184495) rotate(164.000000) translate(-266.184495, -211.184495) "></path>
                    <path d="M160.184495,272.184495 C162.945919,272.184495 165.184495,269.945919 165.184495,267.184495 C165.184495,264.423072 162.945919,262.184495 160.184495,262.184495 C157.423072,262.184495 155.184495,264.423072 155.184495,267.184495 C155.184495,269.945919 157.423072,272.184495 160.184495,272.184495 Z" id="point-copy-26" opacity="0.12344215" transform="translate(160.184495, 267.184495) rotate(164.000000) translate(-160.184495, -267.184495) "></path>
                    <path d="M160.184495,228.184495 C162.945919,228.184495 165.184495,225.945919 165.184495,223.184495 C165.184495,220.423072 162.945919,218.184495 160.184495,218.184495 C157.423072,218.184495 155.184495,220.423072 155.184495,223.184495 C155.184495,225.945919 157.423072,228.184495 160.184495,228.184495 Z" id="point-copy-32" opacity="0.12344215" transform="translate(160.184495, 223.184495) rotate(164.000000) translate(-160.184495, -223.184495) "></path>
                    <path d="M205.276743,261.776743 C209.418879,261.776743 212.776743,258.418879 212.776743,254.276743 C212.776743,250.134607 209.418879,246.776743 205.276743,246.776743 C201.134607,246.776743 197.776743,250.134607 197.776743,254.276743 C197.776743,258.418879 201.134607,261.776743 205.276743,261.776743 Z" id="point-copy-7" opacity="0.12344215" transform="translate(205.276743, 254.276743) rotate(164.000000) translate(-205.276743, -254.276743) "></path>
                    <path d="M230.276743,160.776743 C234.418879,160.776743 237.776743,157.418879 237.776743,153.276743 C237.776743,149.134607 234.418879,145.776743 230.276743,145.776743 C226.134607,145.776743 222.776743,149.134607 222.776743,153.276743 C222.776743,157.418879 226.134607,160.776743 230.276743,160.776743 Z" id="point-copy-8" opacity="0.12344215" transform="translate(230.276743, 153.276743) rotate(164.000000) translate(-230.276743, -153.276743) "></path>
                    <path d="M277.566046,123.066046 C280.051327,123.066046 282.066046,121.051327 282.066046,118.566046 C282.066046,116.080764 280.051327,114.066046 277.566046,114.066046 C275.080764,114.066046 273.066046,116.080764 273.066046,118.566046 C273.066046,121.051327 275.080764,123.066046 277.566046,123.066046 Z" id="point-copy-14" opacity="0.12344215" transform="translate(277.566046, 118.566046) rotate(164.000000) translate(-277.566046, -118.566046) "></path>
                    <path d="M530.5,47 C532.985281,47 535,44.9852814 535,42.5 C535,40.0147186 532.985281,38 530.5,38 C528.014719,38 526,40.0147186 526,42.5 C526,44.9852814 528.014719,47 530.5,47 Z" id="point-copy-10" opacity="0.134835379"></path>
                    <path d="M440.5,97 C442.985281,97 445,94.9852814 445,92.5 C445,90.0147186 442.985281,88 440.5,88 C438.014719,88 436,90.0147186 436,92.5 C436,94.9852814 438.014719,97 440.5,97 Z" id="point-copy-12" opacity="0.134835379"></path>
                    <path d="M440.5,53 C442.985281,53 445,50.9852814 445,48.5 C445,46.0147186 442.985281,44 440.5,44 C438.014719,44 436,46.0147186 436,48.5 C436,50.9852814 438.014719,53 440.5,53 Z" id="point-copy-29" opacity="0.134835379"></path>
                    <path d="M492.5,81 C494.985281,81 497,78.9852814 497,76.5 C497,74.0147186 494.985281,72 492.5,72 C490.014719,72 488,74.0147186 488,76.5 C488,78.9852814 490.014719,81 492.5,81 Z" id="point-copy-19" opacity="0.134835379"></path>
                    <path d="M492.5,37 C494.985281,37 497,34.9852814 497,32.5 C497,30.0147186 494.985281,28 492.5,28 C490.014719,28 488,30.0147186 488,32.5 C488,34.9852814 490.014719,37 492.5,37 Z" id="point-copy-30" opacity="0.0607328869"></path>
                    <path d="M574,10 C576.761424,10 579,7.76142375 579,5 C579,2.23857625 576.761424,0 574,0 C571.238576,0 569,2.23857625 569,5 C569,7.76142375 571.238576,10 574,10 Z" id="point-copy-2" opacity="0.0607328869"></path>
                    <path d="M409.5,124 C413.642136,124 417,120.642136 417,116.5 C417,112.357864 413.642136,109 409.5,109 C405.357864,109 402,112.357864 402,116.5 C402,120.642136 405.357864,124 409.5,124 Z" id="point" opacity="0.134835379"></path>
                    <path d="M423.184495,88.1844953 C425.945919,88.1844953 428.184495,85.945919 428.184495,83.1844953 C428.184495,80.4230715 425.945919,78.1844953 423.184495,78.1844953 C420.423072,78.1844953 418.184495,80.4230715 418.184495,83.1844953 C418.184495,85.945919 420.423072,88.1844953 423.184495,88.1844953 Z" id="point-copy-6" opacity="0.134835379" transform="translate(423.184495, 83.184495) rotate(164.000000) translate(-423.184495, -83.184495) "></path>
                    <path d="M403.184495,222.184495 C405.945919,222.184495 408.184495,219.945919 408.184495,217.184495 C408.184495,214.423072 405.945919,212.184495 403.184495,212.184495 C400.423072,212.184495 398.184495,214.423072 398.184495,217.184495 C398.184495,219.945919 400.423072,222.184495 403.184495,222.184495 Z" id="point-copy-15" opacity="0.134835379" transform="translate(403.184495, 217.184495) rotate(164.000000) translate(-403.184495, -217.184495) "></path>
                    <path d="M473.184495,58.1844953 C475.945919,58.1844953 478.184495,55.945919 478.184495,53.1844953 C478.184495,50.4230715 475.945919,48.1844953 473.184495,48.1844953 C470.423072,48.1844953 468.184495,50.4230715 468.184495,53.1844953 C468.184495,55.945919 470.423072,58.1844953 473.184495,58.1844953 Z" id="point-copy-20" opacity="0.134835379" transform="translate(473.184495, 53.184495) rotate(164.000000) translate(-473.184495, -53.184495) "></path>
                </g>
            </g>
        </g>
    </g>
</svg>