<?xml version="1.0" encoding="UTF-8"?>
<svg width="875px" height="448px" viewBox="0 0 875 448" version="1.1" xmlns="http://www.w3.org/2000/svg" xmlns:xlink="http://www.w3.org/1999/xlink">
    <!-- Generator: Sketch 56.2 (81672) - https://sketch.com -->
    <title>gaps-discovery-hero</title>
    <desc>Created with Sketch.</desc>
    <defs>
        <linearGradient x1="97.1619898%" y1="2.95101713%" x2="9.7785794%" y2="2.95101713%" id="linearGradient-1">
            <stop stop-color="#042965" offset="0%"></stop>
            <stop stop-color="#16489C" offset="48.789887%"></stop>
            <stop stop-color="#04164E" offset="100%"></stop>
        </linearGradient>
    </defs>
    <g id="Page-1" stroke="none" stroke-width="1" fill="none" fill-rule="evenodd">
        <g id="What-Explains-White-Black-Differences-v5" transform="translate(-117.000000, 0.000000)">
            <g id="gaps-discovery-hero" transform="translate(-52.235647, -217.822565)">
                <g id="Group-17" opacity="0.506533668" transform="translate(677.500000, 480.000000) rotate(-4.000000) translate(-677.500000, -480.000000) translate(29.000000, 45.000000)" fill="#0364FF">
                    <ellipse id="Oval" opacity="0.185291109" transform="translate(362.933494, 593.739504) rotate(-6.000000) translate(-362.933494, -593.739504) " cx="362.933494" cy="593.739504" rx="9.4732433" ry="9.45895568"></ellipse>
                    <ellipse id="Oval-Copy-2" opacity="0.437383743" transform="translate(546.430501, 531.719961) rotate(-6.000000) translate(-546.430501, -531.719961) " cx="546.430501" cy="531.719961" rx="13.5332047" ry="13.5127938"></ellipse>
                    <circle id="Oval-Copy-67" opacity="0.437383743" transform="translate(533.174067, 415.324796) rotate(-6.000000) translate(-533.174067, -415.324796) " cx="533.174067" cy="415.324796" r="8.5"></circle>
                    <ellipse id="Oval-Copy-115" opacity="0.437383743" transform="translate(807.036354, 384.832927) rotate(-6.000000) translate(-807.036354, -384.832927) " cx="807.036354" cy="384.832927" rx="13.5332047" ry="13.5127938"></ellipse>
                    <ellipse id="Oval-Copy-33" opacity="0.437383743" transform="translate(925.506086, 591.135027) rotate(-6.000000) translate(-925.506086, -591.135027) " cx="925.506086" cy="591.135027" rx="8.11992283" ry="8.10767629"></ellipse>
                    <ellipse id="Oval-Copy-34" opacity="0.437383743" transform="translate(929.977794, 349.412534) rotate(-6.000000) translate(-929.977794, -349.412534) " cx="929.977794" cy="349.412534" rx="6.76660236" ry="6.75639691"></ellipse>
                    <ellipse id="Oval-Copy-35" opacity="0.0983072917" transform="translate(858.384724, 278.912675) rotate(-6.000000) translate(-858.384724, -278.912675) " cx="858.384724" cy="278.912675" rx="9.4732433" ry="9.45895568"></ellipse>
                    <ellipse id="Oval-Copy-37" opacity="0.437383743" transform="translate(828.309824, 365.444906) rotate(-6.000000) translate(-828.309824, -365.444906) " cx="828.309824" cy="365.444906" rx="10.8265638" ry="10.8102351"></ellipse>
                    <ellipse id="Oval-Copy-5" opacity="0.0735444568" transform="translate(391.454335, 507.329469) rotate(-6.000000) translate(-391.454335, -507.329469) " cx="391.454335" cy="507.329469" rx="17.7584238" ry="17.566632"></ellipse>
                    <circle id="Oval-Copy-90" opacity="0.437383743" transform="translate(503.733002, 531.543865) rotate(-6.000000) translate(-503.733002, -531.543865) " cx="503.733002" cy="531.543865" r="10"></circle>
                    <ellipse id="Oval-Copy-61" opacity="0.437383743" transform="translate(400.823498, 482.803232) rotate(-6.000000) translate(-400.823498, -482.803232) " cx="400.823498" cy="482.803232" rx="13.5" ry="13"></ellipse>
                    <ellipse id="Oval-Copy-65" opacity="0.437383743" transform="translate(557.655470, 476.733984) rotate(-6.000000) translate(-557.655470, -476.733984) " cx="557.65547" cy="476.733984" rx="13.5" ry="13"></ellipse>
                    <circle id="Oval-Copy-63" opacity="0.437383743" transform="translate(337.154821, 524.222916) rotate(-6.000000) translate(-337.154821, -524.222916) " cx="337.154821" cy="524.222916" r="12"></circle>
                    <circle id="Oval-Copy-64" opacity="0.437383743" transform="translate(427.423873, 523.518171) rotate(-6.000000) translate(-427.423873, -523.518171) " cx="427.423873" cy="523.518171" r="12"></circle>
                    <circle id="Oval-Copy-62" opacity="0.437383743" transform="translate(598.021692, 379.038509) rotate(-6.000000) translate(-598.021692, -379.038509) " cx="598.021692" cy="379.038509" r="9.5"></circle>
                    <ellipse id="Oval-Copy-12" opacity="0.437383743" transform="translate(526.029789, 464.174860) rotate(-6.000000) translate(-526.029789, -464.174860) " cx="526.029789" cy="464.17486" rx="5.41328189" ry="5.40511753"></ellipse>
                    <ellipse id="Oval-Copy-92" opacity="0.121535528" transform="translate(534.116277, 429.028069) rotate(-6.000000) translate(-534.116277, -429.028069) " cx="534.116277" cy="429.028069" rx="10.8265638" ry="10.8102351"></ellipse>
                    <ellipse id="Oval-Copy-9" opacity="0.437383743" transform="translate(708.654239, 447.826048) rotate(-6.000000) translate(-708.654239, -447.826048) " cx="708.654239" cy="447.826048" rx="10.8265638" ry="10.8102351"></ellipse>
                    <ellipse id="Oval-Copy-13" opacity="0.437383743" transform="translate(722.705255, 418.942447) rotate(-6.000000) translate(-722.705255, -418.942447) " cx="722.705255" cy="418.942447" rx="17.7584238" ry="17.566632"></ellipse>
                    <ellipse id="Oval-Copy-3" opacity="0.437383743" transform="translate(195.361503, 570.743965) rotate(-6.000000) translate(-195.361503, -570.743965) " cx="195.361503" cy="570.743965" rx="8.11992283" ry="8.03222729"></ellipse>
                    <ellipse id="Oval-Copy-7" opacity="0.12672061" transform="translate(514.408338, 529.731628) rotate(-6.000000) translate(-514.408338, -529.731628) " cx="514.408338" cy="529.731628" rx="17.7584238" ry="17.566632"></ellipse>
                    <ellipse id="Oval-Copy-91" opacity="0.12672061" transform="translate(663.737251, 493.411222) rotate(-6.000000) translate(-663.737251, -493.411222) " cx="663.737251" cy="493.411222" rx="17.7584238" ry="17.566632"></ellipse>
                    <ellipse id="Oval-Copy-14" opacity="0.0281808036" transform="translate(645.829269, 485.812341) rotate(-6.000000) translate(-645.829269, -485.812341) " cx="645.829269" cy="485.812341" rx="17.7584238" ry="17.566632"></ellipse>
                    <ellipse id="Oval-Copy-10" opacity="0.437383743" transform="translate(676.450582, 476.453149) rotate(-6.000000) translate(-676.450582, -476.453149) " cx="676.450582" cy="476.453149" rx="8.11992283" ry="8.10767629"></ellipse>
                    <ellipse id="Oval-Copy-15" opacity="0.437383743" transform="translate(802.520495, 426.527346) rotate(-6.000000) translate(-802.520495, -426.527346) " cx="802.520495" cy="426.527346" rx="2.44408188" ry="2.44286368"></ellipse>
                    <ellipse id="Oval-Copy-4" opacity="0.437383743" transform="translate(279.418054, 539.870920) rotate(-6.000000) translate(-279.418054, -539.870920) " cx="279.418054" cy="539.87092" rx="8.11992283" ry="8.10767629"></ellipse>
                    <ellipse id="Oval-Copy-8" opacity="0.0671735491" transform="translate(598.789634, 498.441508) rotate(-6.000000) translate(-598.789634, -498.441508) " cx="598.789634" cy="498.441508" rx="17.7584238" ry="17.566632"></ellipse>
                    <ellipse id="Oval-Copy-11" opacity="0.437383743" transform="translate(679.192925, 487.607426) rotate(-6.000000) translate(-679.192925, -487.607426) " cx="679.192925" cy="487.607426" rx="6.76660236" ry="6.75639691"></ellipse>
                    <ellipse id="Oval-Copy-11" opacity="0.437383743" transform="translate(264.356190, 603.320161) rotate(166.000000) translate(-264.356190, -603.320161) " cx="264.35619" cy="603.320161" rx="8.1193274" ry="8.03281825"></ellipse>
                    <circle id="Oval-Copy-8" opacity="0.437383743" transform="translate(414.187120, 479.636478) rotate(166.000000) translate(-414.187120, -479.636478) " cx="414.18712" cy="479.636478" r="9"></circle>
                    <ellipse id="Oval-Copy-58" opacity="0.437383743" transform="translate(570.127417, 495.698770) rotate(166.000000) translate(-570.127417, -495.698770) " cx="570.127417" cy="495.69877" rx="17.7571216" ry="17.5679244"></ellipse>
                    <ellipse id="Oval-Copy-66" opacity="0.437383743" transform="translate(636.782748, 474.296276) rotate(166.000000) translate(-636.782748, -474.296276) " cx="636.782748" cy="474.296276" rx="17.7571216" ry="17.5679244"></ellipse>
                    <ellipse id="Oval-Copy-59" opacity="0.437383743" transform="translate(647.399870, 379.806717) rotate(166.000000) translate(-647.399870, -379.806717) " cx="647.39987" cy="379.806717" rx="17.7571216" ry="17.5679244"></ellipse>
                    <ellipse id="Oval-Copy-60" opacity="0.437383743" transform="translate(795.862290, 321.019730) rotate(166.000000) translate(-795.862290, -321.019730) " cx="795.86229" cy="321.01973" rx="17.7571216" ry="17.5679244"></ellipse>
                    <circle id="Oval-Copy-68" opacity="0.437383743" transform="translate(725.880445, 309.625571) rotate(166.000000) translate(-725.880445, -309.625571) " cx="725.880445" cy="309.625571" r="8.5"></circle>
                    <circle id="Oval-Copy-69" opacity="0.437383743" transform="translate(692.919349, 422.601525) rotate(166.000000) translate(-692.919349, -422.601525) " cx="692.919349" cy="422.601525" r="8.5"></circle>
                    <circle id="Oval-Copy-70" opacity="0.437383743" transform="translate(699.755484, 324.840248) rotate(166.000000) translate(-699.755484, -324.840248) " cx="699.755484" cy="324.840248" r="8.5"></circle>
                    <circle id="Oval-Copy-71" opacity="0.437383743" transform="translate(809.843148, 284.421116) rotate(166.000000) translate(-809.843148, -284.421116) " cx="809.843148" cy="284.421116" r="8.5"></circle>
                    <circle id="Oval-Copy-72" opacity="0.437383743" transform="translate(808.197267, 422.643007) rotate(166.000000) translate(-808.197267, -422.643007) " cx="808.197267" cy="422.643007" r="8.5"></circle>
                    <circle id="Oval-Copy-73" opacity="0.437383743" transform="translate(754.133676, 479.009026) rotate(166.000000) translate(-754.133676, -479.009026) " cx="754.133676" cy="479.009026" r="8.5"></circle>
                    <ellipse id="Oval-Copy-4" opacity="0.437383743" transform="translate(667.730798, 325.700687) rotate(166.000000) translate(-667.730798, -325.700687) " cx="667.730798" cy="325.700687" rx="5.41288494" ry="5.4055152"></ellipse>
                    <ellipse id="Oval-Copy-10" opacity="0.160388765" transform="translate(404.887848, 567.262168) rotate(166.000000) translate(-404.887848, -567.262168) " cx="404.887848" cy="567.262168" rx="17.7571216" ry="17.5679244"></ellipse>
                    <ellipse id="Oval-Copy-14" opacity="0.437383743" transform="translate(373.365548, 529.678352) rotate(166.000000) translate(-373.365548, -529.678352) " cx="373.365548" cy="529.678352" rx="3.258697" ry="3.25723081"></ellipse>
                    <ellipse id="Oval-Copy-7" opacity="0.437383743" transform="translate(491.650876, 452.289628) rotate(166.000000) translate(-491.650876, -452.289628) " cx="491.650876" cy="452.289628" rx="17.7571216" ry="17.5679244"></ellipse>
                    <ellipse id="Oval-Copy-3" opacity="0.437383743" transform="translate(749.518069, 278.541639) rotate(166.000000) translate(-749.518069, -278.541639) " cx="749.518069" cy="278.541639" rx="10.8257699" ry="10.8110304"></ellipse>
                    <ellipse id="Oval-Copy-13" opacity="0.208077567" transform="translate(323.593835, 587.583846) rotate(166.000000) translate(-323.593835, -587.583846) " cx="323.593835" cy="587.583846" rx="10.8257699" ry="10.8110304"></ellipse>
                    <ellipse id="Oval-Copy-9" opacity="0.161458333" transform="translate(424.580807, 493.278305) rotate(166.000000) translate(-424.580807, -493.278305) " cx="424.580807" cy="493.278305" rx="8.11932741" ry="8.1082728"></ellipse>
                    <ellipse id="Oval-Copy-12" opacity="0.437383743" transform="translate(462.169273, 476.805182) rotate(166.000000) translate(-462.169273, -476.805182) " cx="462.169273" cy="476.805182" rx="8.1193274" ry="8.03281825"></ellipse>
                    <ellipse id="Oval-Copy-12" opacity="0.17061942" transform="translate(482.011065, 452.791841) rotate(190.000000) translate(-482.011065, -452.791841) " cx="482.011065" cy="452.791841" rx="17.7578979" ry="17.5671542"></ellipse>
                    <ellipse id="Oval-Copy-9" opacity="0.437383743" transform="translate(571.206453, 395.626087) rotate(190.000000) translate(-571.206453, -395.626087) " cx="571.206453" cy="395.626087" rx="10.8262432" ry="10.8105564"></ellipse>
                    <ellipse id="Oval-Copy-13" opacity="0.437383743" transform="translate(301.272317, 511.625428) rotate(190.000000) translate(-301.272317, -511.625428) " cx="301.272317" cy="511.625428" rx="9.47296278" ry="9.45923687"></ellipse>
                    <ellipse id="Oval-Copy-3" opacity="0.437383743" transform="translate(786.922311, 297.613531) rotate(190.000000) translate(-786.922311, -297.613531) " cx="786.922311" cy="297.613531" rx="2.44405801" ry="2.44288769"></ellipse>
                    <ellipse id="Oval-Copy-7" opacity="0.437383743" transform="translate(725.188264, 353.517787) rotate(190.000000) translate(-725.188264, -353.517787) " cx="725.188264" cy="353.517787" rx="10.8262432" ry="10.8105564"></ellipse>
                    <ellipse id="Oval-Copy-14" opacity="0.167154948" transform="translate(374.890839, 466.197532) rotate(190.000000) translate(-374.890839, -466.197532) " cx="374.890839" cy="466.197532" rx="10.8262432" ry="10.8105564"></ellipse>
                    <ellipse id="Oval-Copy-10" opacity="0.100330171" transform="translate(331.371050, 472.325735) rotate(190.000000) translate(-331.371050, -472.325735) " cx="331.37105" cy="472.325735" rx="6.76640199" ry="6.75659776"></ellipse>
                    <ellipse id="Oval-Copy-15" opacity="0.437383743" transform="translate(210.544410, 541.981421) rotate(190.000000) translate(-210.544410, -541.981421) " cx="210.54441" cy="541.981421" rx="2.44405801" ry="2.44288769"></ellipse>
                    <ellipse id="Oval-Copy-4" opacity="0.437383743" transform="translate(628.965993, 357.989297) rotate(190.000000) translate(-628.965993, -357.989297) " cx="628.965993" cy="357.989297" rx="8.11968239" ry="8.10791731"></ellipse>
                    <ellipse id="Oval-Copy-8" opacity="0.437383743" transform="translate(428.999308, 409.580168) rotate(190.000000) translate(-428.999308, -409.580168) " cx="428.999308" cy="409.580168" rx="9.47296278" ry="9.45923687"></ellipse>
                    <ellipse id="Oval-Copy-11" opacity="0.2007766" transform="translate(427.745560, 528.606943) rotate(190.000000) translate(-427.745560, -528.606943) " cx="427.74556" cy="528.606943" rx="9.47296278" ry="9.45923687"></ellipse>
                    <ellipse id="Oval-Copy-11" opacity="0.267694382" transform="translate(629.230162, 612.307894) rotate(190.000000) translate(-629.230162, -612.307894) " cx="629.230162" cy="612.307894" rx="9.47296278" ry="9.45923687"></ellipse>
                    <circle id="Oval-Copy-8" opacity="0.437383743" transform="translate(492.649895, 518.794209) rotate(190.000000) translate(-492.649895, -518.794209) " cx="492.649895" cy="518.794209" r="11.5"></circle>
                    <ellipse id="Oval-Copy-4" opacity="0.437383743" transform="translate(755.212988, 309.430635) rotate(190.000000) translate(-755.212988, -309.430635) " cx="755.212988" cy="309.430635" rx="8.11968239" ry="8.10791731"></ellipse>
                    <ellipse id="Oval-Copy-10" opacity="0.437383743" transform="translate(452.812117, 561.938758) rotate(190.000000) translate(-452.812117, -561.938758) " cx="452.812117" cy="561.938758" rx="8.11968238" ry="8.03246607"></ellipse>
                    <ellipse id="Oval-Copy-14" opacity="0.437383743" transform="translate(490.665552, 545.105180) rotate(190.000000) translate(-490.665552, -545.105180) " cx="490.665552" cy="545.10518" rx="10.8262432" ry="10.8105564"></ellipse>
                    <ellipse id="Oval-Copy-7" opacity="0.170131138" transform="translate(591.447424, 449.587231) rotate(190.000000) translate(-591.447424, -449.587231) " cx="591.447424" cy="449.587231" rx="17.7578979" ry="17.5671542"></ellipse>
                    <ellipse id="Oval-Copy-3" opacity="0.437383743" transform="translate(830.354687, 249.094808) rotate(190.000000) translate(-830.354687, -249.094808) " cx="830.354687" cy="249.094808" rx="10.8262432" ry="10.8105564"></ellipse>
                    <ellipse id="Oval-Copy-13" opacity="0.437383743" transform="translate(425.239262, 600.534289) rotate(190.000000) translate(-425.239262, -600.534289) " cx="425.239262" cy="600.534289" rx="2.44405801" ry="2.44288769"></ellipse>
                    <ellipse id="Oval-Copy-9" opacity="0.437383743" transform="translate(524.207891, 504.512587) rotate(190.000000) translate(-524.207891, -504.512587) " cx="524.207891" cy="504.512587" rx="8.11968239" ry="8.10791731"></ellipse>
                    <ellipse id="Oval-Copy-12" opacity="0.135207403" transform="translate(621.723920, 436.914834) rotate(190.000000) translate(-621.723920, -436.914834) " cx="621.72392" cy="436.914834" rx="9.47296278" ry="9.45923687"></ellipse>
                    <ellipse id="Oval-Copy-12" opacity="0.129092262" transform="translate(587.989022, 532.875243) rotate(166.000000) translate(-587.989022, -532.875243) " cx="587.989022" cy="532.875243" rx="9.47254865" ry="9.4596516"></ellipse>
                    <ellipse id="Oval-Copy-40" opacity="0.280040923" transform="translate(608.365800, 571.031042) rotate(166.000000) translate(-608.365800, -571.031042) " cx="608.3658" cy="571.031042" rx="17.9828066" ry="17.5679244"></ellipse>
                    <ellipse id="Oval-Copy-41" opacity="0.437383743" transform="translate(558.712348, 437.021170) rotate(166.000000) translate(-558.712348, -437.021170) " cx="558.712348" cy="437.02117" rx="9.47254865" ry="9.4596516"></ellipse>
                    <ellipse id="Oval-Copy-42" opacity="0.169666109" transform="translate(683.459598, 390.171595) rotate(166.000000) translate(-683.459598, -390.171595) " cx="683.459598" cy="390.171595" rx="17.5918761" ry="17.5679244"></ellipse>
                    <ellipse id="Oval-Copy-30" opacity="0.437383743" transform="translate(969.289086, 410.126046) rotate(-181.000000) translate(-969.289086, -410.126046) " cx="969.289086" cy="410.126046" rx="5.41337054" ry="5.40502887"></ellipse>
                    <ellipse id="Oval-Copy-31" opacity="0.0839611235" transform="translate(682.825013, 347.229298) rotate(-181.000000) translate(-682.825013, -347.229298) " cx="682.825013" cy="347.229298" rx="13.5334264" ry="13.5125722"></ellipse>
                    <ellipse id="Oval-Copy-32" opacity="0.23328218" transform="translate(488.844147, 613.926294) rotate(-181.000000) translate(-488.844147, -613.926294) " cx="488.844147" cy="613.926294" rx="13.5334264" ry="13.5125722"></ellipse>
                    <ellipse id="Oval-Copy-33" opacity="0.437383743" transform="translate(459.458148, 502.496418) rotate(-181.000000) translate(-459.458148, -502.496418) " cx="459.458148" cy="502.496418" rx="6.76671318" ry="6.75628609"></ellipse>
                    <ellipse id="Oval-Copy-5" opacity="0.107770647" transform="translate(861.171528, 565.647100) rotate(-181.000000) translate(-861.171528, -565.647100) " cx="861.171528" cy="565.6471" rx="17.7587146" ry="17.5663438"></ellipse>
                    <ellipse id="Oval-Copy-12" opacity="0.437383743" transform="translate(718.110105, 589.873701) rotate(-181.000000) translate(-718.110105, -589.873701) " cx="718.110105" cy="589.873701" rx="9.47339845" ry="9.45880053"></ellipse>
                    <ellipse id="Oval-Copy-9" opacity="0.437383743" transform="translate(677.401895, 586.858305) rotate(-181.000000) translate(-677.401895, -586.858305) " cx="677.401895" cy="586.858305" rx="9.47339845" ry="9.45880053"></ellipse>
                    <ellipse id="Oval-Copy-13" opacity="0.437383743" transform="translate(594.794839, 590.134269) rotate(-181.000000) translate(-594.794839, -590.134269) " cx="594.794839" cy="590.134269" rx="5.41337054" ry="5.40502887"></ellipse>
                    <ellipse id="Oval-Copy-7" opacity="0.437383743" transform="translate(768.776269, 560.888531) rotate(-181.000000) translate(-768.776269, -560.888531) " cx="768.776269" cy="560.888531" rx="12" ry="11.5"></ellipse>
                    <ellipse id="Oval-Copy-14" opacity="0.114490327" transform="translate(632.721505, 592.658563) rotate(-181.000000) translate(-632.721505, -592.658563) " cx="632.721505" cy="592.658563" rx="10.8267411" ry="10.8100577"></ellipse>
                    <ellipse id="Oval-Copy-10" opacity="0.437383743" transform="translate(547.424536, 581.495400) rotate(-181.000000) translate(-547.424536, -581.495400) " cx="547.424536" cy="581.4954" rx="2.4440951" ry="2.44285043"></ellipse>
                    <ellipse id="Oval-Copy-4" opacity="0.217424665" transform="translate(983.327821, 550.676237) rotate(-181.000000) translate(-983.327821, -550.676237) " cx="983.327821" cy="550.676237" rx="10.8267411" ry="10.8100577"></ellipse>
                    <ellipse id="Oval-Copy-8" opacity="0.147763207" transform="translate(743.305781, 583.845735) rotate(-181.000000) translate(-743.305781, -583.845735) " cx="743.305781" cy="583.845735" rx="17.7587146" ry="17.5663438"></ellipse>
                    <ellipse id="Oval-Copy-11" opacity="0.437383743" transform="translate(643.200039, 532.185274) rotate(-181.000000) translate(-643.200039, -532.185274) " cx="643.200039" cy="532.185274" rx="2.4440951" ry="2.44285043"></ellipse>
                    <ellipse id="Oval-Copy-11" opacity="0.0434570312" transform="translate(1011.394701, 494.902533) rotate(-9.000000) translate(-1011.394701, -494.902533) " cx="1011.3947" cy="494.902533" rx="17.7580534" ry="17.5669999"></ellipse>
                    <ellipse id="Oval-Copy-8" opacity="0.437383743" transform="translate(852.911615, 582.159257) rotate(-9.000000) translate(-852.911615, -582.159257) " cx="852.911615" cy="582.159257" rx="9.47304572" ry="9.45915381"></ellipse>
                    <ellipse id="Oval-Copy-10" opacity="0.132045201" transform="translate(940.470330, 550.910526) rotate(-9.000000) translate(-940.470330, -550.910526) " cx="940.47033" cy="550.910526" rx="17.7580534" ry="17.5669999"></ellipse>
                    <ellipse id="Oval-Copy-14" opacity="0.437383743" transform="translate(894.782963, 557.152118) rotate(-9.000000) translate(-894.782963, -557.152118) " cx="894.782963" cy="557.152118" rx="10.826338" ry="10.8104615"></ellipse>
                    <ellipse id="Oval-Copy-7" opacity="0.193452381" transform="translate(790.550903, 645.981144) rotate(-9.000000) translate(-790.550903, -645.981144) " cx="790.550903" cy="645.981144" rx="17.7580534" ry="17.5669999"></ellipse>
                    <ellipse id="Oval-Copy-13" opacity="0.166573661" transform="translate(925.112729, 480.440402) rotate(-9.000000) translate(-925.112729, -480.440402) " cx="925.112729" cy="480.440402" rx="13.6600411" ry="13.5130769"></ellipse>
                    <ellipse id="Oval-Copy-9" opacity="0.15187872" transform="translate(816.900529, 567.958324) rotate(-9.000000) translate(-816.900529, -567.958324) " cx="816.900529" cy="567.958324" rx="17.7580534" ry="17.5669999"></ellipse>
                    <ellipse id="Oval-Copy-12" opacity="0.125790551" transform="translate(772.127560, 573.054172) rotate(-9.000000) translate(-772.127560, -573.054172) " cx="772.12756" cy="573.054172" rx="10.826338" ry="10.8104615"></ellipse>
                    <ellipse id="Oval-Copy-12" opacity="0.0561058408" transform="translate(780.567420, 631.169606) rotate(15.000000) translate(-780.567420, -631.169606) " cx="780.56742" cy="631.169606" rx="17.75689" ry="17.5681541"></ellipse>
                    <circle id="Oval-Copy-9" opacity="0.201892671" transform="translate(826.417966, 619.407063) rotate(15.000000) translate(-826.417966, -619.407063) " cx="826.417966" cy="619.407063" r="10"></circle>
                    <ellipse id="Oval-Copy-13" opacity="0.249279204" transform="translate(943.536378, 560.685870) rotate(15.000000) translate(-943.536378, -560.685870) " cx="943.536378" cy="560.68587" rx="17.75689" ry="17.5681541"></ellipse>
                    <ellipse id="Oval-Copy-14" opacity="0.0973074777" transform="translate(889.140723, 613.677615) rotate(15.000000) translate(-889.140723, -613.677615) " cx="889.140723" cy="613.677615" rx="17.75689" ry="17.5681541"></ellipse>
                    <ellipse id="Oval-Copy-10" opacity="0.071358817" transform="translate(934.395551, 622.088803) rotate(15.000000) translate(-934.395551, -622.088803) " cx="934.395551" cy="622.088803" rx="10.8256287" ry="10.8111717"></ellipse>
                    <ellipse id="Oval-Copy-11" opacity="0.437383743" transform="translate(1012.613815, 576.381393) rotate(15.000000) translate(-1012.613815, -576.381393) " cx="1012.61382" cy="576.381393" rx="9.47242514" ry="9.45977527"></ellipse>
                    <ellipse id="Oval-Copy-11" opacity="0.437383743" transform="translate(882.291486, 448.194526) rotate(15.000000) translate(-882.291486, -448.194526) " cx="882.291486" cy="448.194526" rx="2.44401223" ry="2.44293366"></ellipse>
                    <ellipse id="Oval-Copy-8" opacity="0.0786597842" transform="translate(769.921333, 598.323890) rotate(15.000000) translate(-769.921333, -598.323890) " cx="769.921333" cy="598.32389" rx="17.75689" ry="17.5681541"></ellipse>
                    <ellipse id="Oval-Copy-15" opacity="0.437383743" transform="translate(916.897866, 421.174072) rotate(15.000000) translate(-916.897866, -421.174072) " cx="916.897866" cy="421.174072" rx="2.44401223" ry="2.44293366"></ellipse>
                    <ellipse id="Oval-Copy-10" opacity="0.437383743" transform="translate(820.080031, 520.675162) rotate(15.000000) translate(-820.080031, -520.675162) " cx="820.080031" cy="520.675162" rx="8.11922155" ry="8.1083788"></ellipse>
                    <circle id="Oval-Copy-14" opacity="0.437383743" transform="translate(851.803313, 493.284409) rotate(15.000000) translate(-851.803313, -493.284409) " cx="851.803313" cy="493.284409" r="9.5"></circle>
                    <ellipse id="Oval-Copy-7" opacity="0.037016369" transform="translate(690.898218, 639.988826) rotate(15.000000) translate(-690.898218, -639.988826) " cx="690.898218" cy="639.988826" rx="17.75689" ry="17.5681541"></ellipse>
                    <ellipse id="Oval-Copy-13" opacity="0.0360165551" transform="translate(818.591886, 455.623761) rotate(15.000000) translate(-818.591886, -455.623761) " cx="818.591886" cy="455.623761" rx="12.1788323" ry="12.1625682"></ellipse>
                    <ellipse id="Oval-Copy-9" opacity="0.0904947917" transform="translate(712.698798, 532.870401) rotate(15.000000) translate(-712.698798, -532.870401) " cx="712.698798" cy="532.870401" rx="6.76601796" ry="6.75698234"></ellipse>
                    <circle id="Oval-Copy-12" opacity="0.287527902" transform="translate(699.625346, 554.335035) rotate(15.000000) translate(-699.625346, -554.335035) " cx="699.625346" cy="554.335035" r="12.5"></circle>
                    <ellipse id="Oval-Copy-12" opacity="0.135904948" transform="translate(665.416609, 527.603049) rotate(-9.000000) translate(-665.416609, -527.603049) " cx="665.416609" cy="527.603049" rx="17.7580534" ry="17.5669999"></ellipse>
                    <ellipse id="Oval-Copy-94" opacity="0.437383743" transform="translate(708.216071, 398.009492) rotate(-9.000000) translate(-708.216071, -398.009492) " cx="708.216071" cy="398.009492" rx="17.7580534" ry="17.5669999"></ellipse>
                    <circle id="Oval-Copy-89" opacity="0.437383743" transform="translate(873.845634, 284.908098) rotate(-9.000000) translate(-873.845634, -284.908098) " cx="873.845634" cy="284.908098" r="13"></circle>
                    <ellipse id="Oval-Copy-39" opacity="0.437383743" transform="translate(659.374050, 438.980703) rotate(-9.000000) translate(-659.374050, -438.980703) " cx="659.37405" cy="438.980703" rx="9.47304572" ry="9.45915381"></ellipse>
                    <ellipse id="Oval-Copy-43" opacity="0.0573846726" transform="translate(844.273562, 400.386054) rotate(-9.000000) translate(-844.273562, -400.386054) " cx="844.273562" cy="400.386054" rx="17.9837503" ry="17.567"></ellipse>
                    <ellipse id="Oval-Copy-44" opacity="0.437383743" transform="translate(911.185323, 291.278521) rotate(-9.000000) translate(-911.185323, -291.278521) " cx="911.185323" cy="291.278521" rx="8.11975347" ry="8.10784612"></ellipse>
                    <ellipse id="Oval-Copy-45" opacity="0.437383743" transform="translate(533.120598, 557.619748) rotate(-9.000000) translate(-533.120598, -557.619748) " cx="533.120598" cy="557.619748" rx="12.1796302" ry="12.1617692"></ellipse>
                    <ellipse id="Oval-Copy-40" opacity="0.0567103795" transform="translate(638.126158, 490.338136) rotate(-9.000000) translate(-638.126158, -490.338136) " cx="638.126158" cy="490.338136" rx="17.5927992" ry="17.5669999"></ellipse>
                    <ellipse id="Oval-Copy-31" opacity="0.437383743" transform="translate(845.368157, 527.468423) rotate(-206.000000) translate(-845.368157, -527.468423) " cx="845.368157" cy="527.468423" rx="10.8235402" ry="10.8132627"></ellipse>
                    <ellipse id="Oval-Copy-32" opacity="0.437383743" transform="translate(635.407517, 410.982676) rotate(-206.000000) translate(-635.407517, -410.982676) " cx="635.407517" cy="410.982676" rx="17.5882529" ry="17.5715519"></ellipse>
                    <ellipse id="Oval-Copy-33" opacity="0.437383743" transform="translate(495.872275, 477.884545) rotate(-206.000000) translate(-495.872275, -477.884545) " cx="495.872275" cy="477.884545" rx="9.4705977" ry="9.46160485"></ellipse>
                    <ellipse id="Oval-Copy-5" opacity="0.437383743" transform="translate(960.316632, 349.272227) rotate(-206.000000) translate(-960.316632, -349.272227) " cx="960.316632" cy="349.272227" rx="2.4438566" ry="2.44308984"></ellipse>
                    <ellipse id="Oval-Copy-12" opacity="0.437383743" transform="translate(881.980901, 505.305795) rotate(-206.000000) translate(-881.980901, -505.305795) " cx="881.980901" cy="505.305795" rx="5.41177012" ry="5.40663134"></ellipse>
                    <ellipse id="Oval-Copy-9" opacity="0.437383743" transform="translate(846.480150, 459.134389) rotate(-206.000000) translate(-846.480150, -459.134389) " cx="846.48015" cy="459.134389" rx="9.4705977" ry="9.46160485"></ellipse>
                    <ellipse id="Oval-Copy-13" opacity="0.0460379464" transform="translate(735.646730, 501.700212) rotate(-206.000000) translate(-735.646730, -501.700212) " cx="735.64673" cy="501.700212" rx="9.4705977" ry="9.46160485"></ellipse>
                    <ellipse id="Oval-Copy-7" opacity="0.266834077" transform="translate(922.100965, 406.978893) rotate(-206.000000) translate(-922.100965, -406.978893) " cx="922.100965" cy="406.978893" rx="17.7534643" ry="17.5715519"></ellipse>
                    <ellipse id="Oval-Copy-14" opacity="0.437383743" transform="translate(809.551996, 489.075054) rotate(-206.000000) translate(-809.551996, -489.075054) " cx="809.551996" cy="489.075054" rx="13.656511" ry="13.5165784"></ellipse>
                    <circle id="Oval-Copy-10" opacity="0.437383743" transform="translate(766.603030, 505.209283) rotate(-206.000000) translate(-766.603030, -505.209283) " cx="766.60303" cy="505.209283" r="9.5"></circle>
                    <ellipse id="Oval-Copy-88" opacity="0.437383743" transform="translate(620.396073, 509.120789) rotate(-206.000000) translate(-620.396073, -509.120789) " cx="620.396073" cy="509.120789" rx="13.5294253" ry="13.5165784"></ellipse>
                    <ellipse id="Oval-Copy-87" opacity="0.437383743" transform="translate(745.067747, 530.828762) rotate(-206.000000) translate(-745.067747, -530.828762) " cx="745.067747" cy="530.828762" rx="17.7534643" ry="17.5715519"></ellipse>
                    <ellipse id="Oval-Copy-15" opacity="0.437383743" transform="translate(654.329063, 589.082860) rotate(-206.000000) translate(-654.329063, -589.082860) " cx="654.329063" cy="589.08286" rx="8.11765517" ry="8.10994701"></ellipse>
                    <ellipse id="Oval-Copy-8" opacity="0.437383743" transform="translate(843.388636, 405.392936) rotate(-206.000000) translate(-843.388636, -405.392936) " cx="843.388636" cy="405.392936" rx="6.76471264" ry="6.75828918"></ellipse>
                    <ellipse id="Oval-Copy-11" opacity="0.437383743" transform="translate(764.014553, 468.670959) rotate(-206.000000) translate(-764.014553, -468.670959) " cx="764.014553" cy="468.670959" rx="17.7534643" ry="17.5715519"></ellipse>
                    <circle id="Oval-Copy-74" opacity="0.164876302" transform="translate(478.164753, 476.263526) rotate(-206.000000) translate(-478.164753, -476.263526) " cx="478.164753" cy="476.263526" r="17"></circle>
                    <circle id="Oval-Copy-83" opacity="0.437383743" transform="translate(451.840344, 533.822248) rotate(-206.000000) translate(-451.840344, -533.822248) " cx="451.840344" cy="533.822248" r="9.5"></circle>
                    <circle id="Oval-Copy-84" opacity="0.437383743" transform="translate(716.473611, 476.642846) rotate(-206.000000) translate(-716.473611, -476.642846) " cx="716.473611" cy="476.642846" r="9.5"></circle>
                    <circle id="Oval-Copy-85" opacity="0.437383743" transform="translate(777.024554, 327.503370) rotate(-206.000000) translate(-777.024554, -327.503370) " cx="777.024554" cy="327.50337" r="9.5"></circle>
                    <circle id="Oval-Copy-86" opacity="0.437383743" transform="translate(542.528175, 598.806610) rotate(-206.000000) translate(-542.528175, -598.806610) " cx="542.528175" cy="598.80661" r="9.5"></circle>
                    <ellipse id="Oval-Copy-75" opacity="0.437383743" transform="translate(630.391939, 434.543871) rotate(-206.000000) translate(-630.391939, -434.543871) " cx="630.391939" cy="434.543871" rx="23" ry="22.5"></ellipse>
                    <ellipse id="Oval-Copy-76" opacity="0.313871838" transform="translate(704.221036, 335.707979) rotate(-206.000000) translate(-704.221036, -335.707979) " cx="704.221036" cy="335.707979" rx="15.5" ry="15"></ellipse>
                    <ellipse id="Oval-Copy-77" opacity="0.437383743" transform="translate(771.399541, 306.823754) rotate(-206.000000) translate(-771.399541, -306.823754) " cx="771.399541" cy="306.823754" rx="15.5" ry="15"></ellipse>
                    <ellipse id="Oval-Copy-78" opacity="0.437383743" transform="translate(442.566789, 479.305698) rotate(-206.000000) translate(-442.566789, -479.305698) " cx="442.566789" cy="479.305698" rx="15.5" ry="15"></ellipse>
                    <ellipse id="Oval-Copy-79" opacity="0.437383743" transform="translate(352.726356, 500.443121) rotate(-206.000000) translate(-352.726356, -500.443121) " cx="352.726356" cy="500.443121" rx="11" ry="10.5"></ellipse>
                    <ellipse id="Oval-Copy-80" opacity="0.437383743" transform="translate(361.174422, 551.657184) rotate(-206.000000) translate(-361.174422, -551.657184) " cx="361.174422" cy="551.657184" rx="11" ry="10.5"></ellipse>
                    <ellipse id="Oval-Copy-81" opacity="0.437383743" transform="translate(433.061489, 455.437385) rotate(-206.000000) translate(-433.061489, -455.437385) " cx="433.061489" cy="455.437385" rx="11" ry="10.5"></ellipse>
                    <ellipse id="Oval-Copy-82" opacity="0.437383743" transform="translate(538.733522, 463.829136) rotate(-206.000000) translate(-538.733522, -463.829136) " cx="538.733522" cy="463.829136" rx="11" ry="10.5"></ellipse>
                    <ellipse id="Oval-Copy-8" opacity="0.157900856" transform="translate(1003.571611, 380.823218) rotate(-34.000000) translate(-1003.571611, -380.823218) " cx="1003.57161" cy="380.823218" rx="9.46883787" ry="9.46336606"></ellipse>
                    <ellipse id="Oval-Copy-4" opacity="0.0814964658" transform="translate(775.712019, 601.880181) rotate(-34.000000) translate(-775.712019, -601.880181) " cx="775.712019" cy="601.880181" rx="17.7501653" ry="17.5748228"></ellipse>
                    <ellipse id="Oval-Copy-14" opacity="0.437383743" transform="translate(1020.820764, 335.238697) rotate(-34.000000) translate(-1020.820764, -335.238697) " cx="1020.82076" cy="335.238697" rx="2.44370667" ry="2.44324012"></ellipse>
                    <ellipse id="Oval-Copy-7" opacity="0.126836868" transform="translate(970.013610, 471.979061) rotate(-34.000000) translate(-970.013610, -471.979061) " cx="970.01361" cy="471.979061" rx="17.7501653" ry="17.5748228"></ellipse>
                    <ellipse id="Oval-Copy-13" opacity="0.437383743" transform="translate(1033.300085, 280.338578) rotate(-34.000000) translate(-1033.300085, -280.338578) " cx="1033.30008" cy="280.338578" rx="8.1161467" ry="8.03597247"></ellipse>
                    <ellipse id="Oval-Copy-9" opacity="0.437383743" transform="translate(880.076931, 346.142274) rotate(-34.000000) translate(-880.076931, -346.142274) " cx="880.076931" cy="346.142274" rx="10.821529" ry="10.8152755"></ellipse>
                    <ellipse id="Oval-Copy-12" opacity="0.437383743" transform="translate(861.452164, 429.922394) rotate(-34.000000) translate(-861.452164, -429.922394) " cx="861.452164" cy="429.922394" rx="14" ry="13.5"></ellipse>
                    <ellipse id="Oval-Copy-12" opacity="0.190917969" transform="translate(952.798571, 447.234573) rotate(-10.000000) translate(-952.798571, -447.234573) " cx="952.798571" cy="447.234573" rx="10.8262432" ry="10.8105564"></ellipse>
                    <ellipse id="Oval-Copy-9" opacity="0.0815197173" transform="translate(983.509783, 421.767680) rotate(-10.000000) translate(-983.509783, -421.767680) " cx="983.509783" cy="421.76768" rx="8.11968239" ry="8.10791731"></ellipse>
                    <ellipse id="Oval-Copy-13" opacity="0.437383743" transform="translate(995.832887, 309.434955) rotate(-10.000000) translate(-995.832887, -309.434955) " cx="995.832887" cy="309.434955" rx="3.25874401" ry="3.25718359"></ellipse>
                    <ellipse id="Oval-Copy-7" opacity="0.100144159" transform="translate(981.650342, 525.152719) rotate(-10.000000) translate(-981.650342, -525.152719) " cx="981.650342" cy="525.152719" rx="17.7578979" ry="17.5671542"></ellipse>
                    <ellipse id="Oval-Copy-8" opacity="0.437383743" transform="translate(1036.562694, 448.659009) rotate(-10.000000) translate(-1036.562694, -448.659009) " cx="1036.56269" cy="448.659009" rx="17.7578979" ry="17.5671542"></ellipse>
                    <ellipse id="Oval-Copy-11" opacity="0.211356027" transform="translate(984.106991, 252.093567) rotate(-10.000000) translate(-984.106991, -252.093567) " cx="984.106991" cy="252.093567" rx="10.8262432" ry="10.8105564"></ellipse>
                    <ellipse id="Oval-Copy-8" opacity="0.0677780878" transform="translate(911.805471, 417.190768) rotate(-10.000000) translate(-911.805471, -417.190768) " cx="911.805471" cy="417.190768" rx="17.7578979" ry="17.5671542"></ellipse>
                    <ellipse id="Oval-Copy-15" opacity="0.217471168" transform="translate(998.657050, 211.356298) rotate(-10.000000) translate(-998.657050, -211.356298) " cx="998.65705" cy="211.356298" rx="6.76640199" ry="6.75659776"></ellipse>
                    <ellipse id="Oval-Copy-10" opacity="0.181547619" transform="translate(956.626661, 350.011701) rotate(-10.000000) translate(-956.626661, -350.011701) " cx="956.626661" cy="350.011701" rx="17.7578979" ry="17.5671542"></ellipse>
                    <ellipse id="Oval-Copy-14" opacity="0.108561198" transform="translate(923.019719, 374.242316) rotate(-10.000000) translate(-923.019719, -374.242316) " cx="923.019719" cy="374.242316" rx="10.8262432" ry="10.8105564"></ellipse>
                    <ellipse id="Oval-Copy-7" opacity="0.115187872" transform="translate(877.161232, 508.598285) rotate(-10.000000) translate(-877.161232, -508.598285) " cx="877.161232" cy="508.598285" rx="17.7578979" ry="17.5671542"></ellipse>
                    <ellipse id="Oval-Copy-13" opacity="0.437383743" transform="translate(841.095226, 314.353687) rotate(-10.000000) translate(-841.095226, -314.353687) " cx="841.095226" cy="314.353687" rx="8.11968238" ry="8.03246607"></ellipse>
                    <ellipse id="Oval-Copy-9" opacity="0.437383743" transform="translate(877.542979, 398.494658) rotate(-10.000000) translate(-877.542979, -398.494658) " cx="877.542979" cy="398.494658" rx="17.7578979" ry="17.5671542"></ellipse>
                    <ellipse id="Oval-Copy-12" opacity="0.437383743" transform="translate(754.940559, 366.461267) rotate(-10.000000) translate(-754.940559, -366.461267) " cx="754.940559" cy="366.461267" rx="13.532804" ry="13.5131955"></ellipse>
                    <ellipse id="Oval-Copy-93" opacity="0.0891927083" transform="translate(717.794370, 385.787499) rotate(-10.000000) translate(-717.794370, -385.787499) " cx="717.79437" cy="385.787499" rx="13.532804" ry="13.5131955"></ellipse>
                    <ellipse id="Oval-Copy-12" opacity="0.437383743" transform="translate(773.610462, 403.788692) rotate(-34.000000) translate(-773.610462, -403.788692) " cx="773.610462" cy="403.788692" rx="10.821529" ry="10.8152755"></ellipse>
                    <ellipse id="Oval-Copy-39" opacity="0.218563988" transform="translate(708.682070, 501.756264) rotate(-34.000000) translate(-708.682070, -501.756264) " cx="708.68207" cy="501.756264" rx="11.5" ry="11"></ellipse>
                </g>
                <path d="M156.735647,675.322565 L939.735647,209.322565" id="Line-3-Copy" stroke="url(#linearGradient-1)" stroke-width="3" stroke-linecap="square"></path>
            </g>
        </g>
    </g>
</svg>