<svg width="559px" height="354px" viewBox="0 0 559 354" version="1.1" xmlns="http://www.w3.org/2000/svg" xmlns:xlink="http://www.w3.org/1999/xlink">
    <g id="Page-1" stroke="none" stroke-width="1" fill="none" fill-rule="evenodd">
        <g id="in-the-news-hero" transform="translate(-214.000000, -50.000000)">
            <g id="in-the-news" transform="translate(214.000000, 50.000000)">
                <path d="M485.013804,158.027016 L485.136073,157.626345 L487.746196,157.588788 L489.605837,158.179013 L490.878228,158.375753 L491.465483,157.09694 L490.584601,155.818133 L490.584601,154.73606 L489.116458,153.457247 L487.844072,150.112669 L488.627079,146.866456 L488.529203,145.587649 L487.746196,144.800685 C487.746196,144.800685 488.627079,143.816987 488.627079,143.423508 C488.627079,143.030023 488.920706,142.144696 488.920706,142.144696 L490.095222,141.357738 L491.269732,140.374034 L491.563359,140.964259 L490.682477,141.947956 L489.89947,144.210466 L490.095222,144.899055 L491.171856,145.095794 L491.465483,148.440378 L490.193098,149.030596 L490.388849,151.194737 L490.682477,151.096367 L491.367608,149.91593 L492.346372,150.997997 L491.367608,151.784961 L491.171856,153.850732 L492.737875,155.916503 L495.086901,156.211612 L496.065665,155.719763 L498.02521,158.265067 L498.847613,158.591404 L499.269939,158.779515 L499.357068,159.964279 L498.892772,161.849167 L497.931935,164.394556 L497.661975,167.710327 L498.552181,170.53425 L499.862522,169.368283 L500.969252,166.339084 L500.689689,164.276008 L500.942819,161.485547 L502.71068,159.185967 L503.177119,157.227919 L502.876027,156.889466 L504.091501,154.440951 L504.228906,151.481345 L504.0921,151.04686 L502.721239,146.571346 L502.133978,146.866456 L499.980704,145.390909 L498.90407,142.538175 L497.729554,140.374034 L496.359293,139.783816 L495.086901,137.619675 L495.38898,136.340862 L495.697986,136.64757 L496.359293,138.013154 L498.316815,139.783816 L501.253096,141.160998 L503.699997,141.554477 L503.797873,142.439805 L503.308494,143.030023 L503.504246,144.702315 L503.993625,144.702315 L505.266017,143.226769 L505.755396,140.275664 L507.419291,137.816415 L509.278937,133.881613 L509.964068,130.537035 L509.572565,129.848441 L509.474689,124.142977 L508.495925,122.077213 L507.810794,122.569061 L506.146899,122.765801 L505.853272,122.470692 L506.538408,121.880467 L507.810794,120.70003 L507.848973,120.034437 L508.176197,119.982264 L508.887434,120.306551 L511.334336,119.617957 L514.857877,118.43752 L516.423891,117.847295 L520.730439,114.601087 L523.079465,112.830426 L525.134863,110.666285 L522.590085,109.682588 L521.807079,110.567916 L520.045308,112.240207 L515.249381,114.601087 L513.879113,114.502718 L512.900355,114.109239 L512.215218,114.502718 L510.844957,116.07664 L509.964068,116.863598 L509.181062,117.060337 L508.98531,116.273379 L510.15982,115.191306 L509.677555,114.169991 L510.291679,114.30983 L513.291858,112.240207 L515.445132,110.272806 L516.619642,108.993994 L517.109027,109.387473 L518.772916,108.502145 L521.904955,107.813557 L526.170109,105.689127 L526.7009,105.551034 L528.462653,104.960822 L529.930796,103.780385 L530.615927,102.698312 L531.398934,102.796681 L533.161346,101.861785 L533.47568,101.634779 L534.726724,101.02602 L534.433096,99.6488434 L534.922475,98.7635096 L536.684246,97.8781819 L537.173625,99.7472131 L536.879998,100.82928 L535.411854,101.714614 L535.411854,102.304833 L536.58637,101.419505 L538.935396,98.6651398 L541.284422,97.4847029 L543.829199,96.5993691 L543.633448,95.1238229 L543.046193,93.3531614 L541.871677,91.8776091 L540.795043,91.3857603 L539.522651,91.4841301 L539.229024,91.7792393 L539.816278,92.5661973 L540.697167,92.0743486 L541.969553,93.0580521 L542.458938,94.7303378 L541.382298,95.8124111 L540.012036,96.4026296 L537.858762,96.1075203 L535.50973,92.4678275 L534.139469,90.8939116 L533.062829,90.8939116 L532.377698,91.3857603 L531.203182,89.8118383 L531.398934,88.9265106 L532.867077,85.7786665 L531.117809,83.0934633 L530.774928,82.7940216 L531.301058,82.1389737 L531.961123,80.1363954 L532.186996,79.4553587 L532.867077,75.6465522 L532.964953,72.9905629 L533.845841,72.203605 L533.25858,70.2362039 L535.118227,68.0720634 L536.096991,68.9573912 L536.879998,68.6622819 L540.109912,66.7932506 L540.305664,65.0225891 L542.067434,64.7274799 L543.046193,63.1535578 L542.948317,62.1698604 L542.752565,60.3008291 L543.241944,59.5138711 L543.046193,58.8252768 L542.263186,57.9399491 L543.535572,57.1529911 L544.612212,59.1203921 L545.493094,58.9236466 L545.688846,59.7106106 L545.688846,60.6943081 L546.863362,60.7926778 L547.156989,59.1203921 L547.450617,58.7269071 L546.471859,57.8415794 L547.059113,56.9562486 L548.527257,56.0709184 L549.114512,55.1855877 L550.191146,55.0872179 C550.191146,55.0872179 550.386903,56.3660283 550.778407,56.3660283 C551.16991,56.3660283 551.561413,56.3660283 551.561413,56.3660283 L554.497694,53.0214472 L556.553092,51.1524165 L557.727608,50.7589363 L559,47.9062057 L559,46.7257651 L557.629732,44.4632543 L556.455217,43.1844439 L554.791328,43.2828143 L555.084955,43.9714043 L554.987079,44.2665142 L554.497694,44.2665142 L552.735929,42.8893341 L552.638053,39.9382331 L552.148668,38.7577925 L548.527257,38.7577925 L543.046193,20.5593364 L541.871677,19.9691167 L538.250265,18.4935663 L537.369377,18.3951959 L536.292743,19.4772662 L533.845841,21.2479271 L533.845841,21.8381468 L533.356456,22.3299974 L531.692567,21.9365172 L530.909554,20.5593364 L530.909554,19.8707464 L530.126548,19.7723766 L529.343535,19.7723766 L528.07115,22.3299974 L526.309379,27.7403492 L525.232739,30.6914502 L525.330621,33.6425511 L525.428496,34.5278812 L524.939111,36.2001718 L524.449732,36.7903921 L524.449732,40.4300831 L525.624248,41.9056335 L524.74336,44.3648845 L523.17734,47.2176151 L522.687961,50.5621962 L522.687961,52.136117 L521.771449,51.8866944 L520.911393,51.9585975 L520.392687,52.2375658 L519.849556,52.2344868 L519.458053,53.2181873 L519.06655,52.9230774 L518.479289,52.3328571 L517.598406,53.5132971 L517.569061,56.5752907 L517.011763,56.7590801 L501.120425,60.8648822 L500.743828,61.1062976 L496.163541,62.3665999 L493.423006,63.2519276 L491.465483,63.1535578 L488.137699,63.9405219 L486.272113,64.6986736 L484.809909,65.8095532 L483.537524,67.2850994 L481.873629,69.5476096 L480.111858,72.3019747 L479.230969,74.0726362 L478.839466,74.564485 L475.31593,77.9090624 L475.413806,79.4829845 L475.903185,80.1715788 L476.979819,80.6634275 L478.05646,80.6634275 L478.05646,81.5487552 L477.371329,82.827568 L477.56708,83.7128958 L478.447963,84.9917085 L478.350087,86.368885 L477.175571,87.0574793 L475.903185,87.0574793 L474.924421,88.2379163 L473.847787,90.2053173 L472.575395,91.2873906 L469.443363,91.5824998 L467.877344,92.2710881 L466.604952,93.0580521 L465.626194,92.9596824 L464.451678,92.1727183 L460.634515,92.2710881 L458.676992,92.5661973 L456.230085,93.3531614 L453.587431,94.2384891 L451.825661,95.3205624 L453.000177,99.0586249 L454.076811,99.1569947 L454.859823,101.02602 L454.957699,101.616244 L454.272562,102.206463 L453.000177,103.878755 L452.706549,104.862452 L451.532033,105.944525 L450.455399,106.633114 L449.868138,107.616817 L449.085132,108.305405 L448.220499,108.990197 L447.611588,109.306123 L444.289204,112.732056 L443.506192,113.027165 L440.961947,114.858068 L440.344154,114.790622 L436.654866,117.257077 L434.30584,118.634259 L432.250442,120.89677 L429.80354,123.25765 L427.846018,123.749498 L426.084247,124.044608 L422.756457,125.61853 L421.484071,125.716899 L419.428673,123.847868 L416.296635,124.241353 L414.730621,123.356019 L413.289021,122.534042 L412.591642,122.33636 L412.675223,121.978837 L412.773099,121.093509 L414.045485,118.830999 L415.256708,117.773521 L415.122125,114.699457 L416.08901,113.727692 L416.749318,113.519014 L416.883896,111.354874 L417.813716,109.510444 L418.449909,109.879327 L418.547784,110.272806 L419.03717,110.371176 L420.21168,109.780958 L420.015928,103.977124 L418.058405,98.9602491 L416.688138,93.4515311 L415.22,91.4841301 L413.653981,90.4020568 L412.675223,91.0906511 L410.326191,92.1727183 L409.151681,95.2221926 L407.487786,97.4847029 L406.802656,97.8781819 L405.921767,97.4847029 C405.921767,97.4847029 404.355754,96.5993691 404.45363,96.2058901 C404.551506,95.8124111 404.747257,93.1564219 404.747257,93.1564219 L406.802656,92.3694578 L407.292035,90.303687 L407.683538,88.7297711 L409.151681,87.7460675 L408.95593,81.647125 L407.977165,80.2699485 L407.194159,79.7780937 L406.70478,78.499287 L407.194159,78.0074383 L408.172917,78.2041778 L408.270793,77.2204742 L406.802656,75.8432917 L406.019643,74.2693757 L404.45363,74.2693757 L401.713095,73.3840419 L398.385311,71.3182712 L396.721416,71.3182712 L396.329912,71.7117562 L395.742651,71.4166409 L393.883011,70.0394645 L392.12124,71.1215317 L390.359469,72.4987142 L390.555221,74.6628547 L391.142476,74.8595942 L392.414867,75.1547035 L392.708495,75.6465522 L391.142476,76.138407 L389.576463,76.3351465 L388.695574,77.4172137 L388.499823,78.6960265 L388.695574,79.679724 L388.891326,83.0243075 L386.738052,84.3031203 L386.346548,84.2047445 L386.346548,81.647125 L387.129555,80.1715788 L387.521064,78.6960265 L387.031679,78.2041778 L385.857169,78.6960265 L385.269908,81.253646 L383.606019,81.9422342 L382.529379,83.1226773 L382.431503,83.7128958 L382.823007,84.2047445 L382.431503,85.7786665 L381.061236,86.0737758 L381.061236,86.7623701 L381.550621,88.2379163 L380.865484,91.9759788 L379.886726,94.4352286 L380.278229,97.2879634 L380.571857,97.9765516 L380.082478,99.4521039 L379.886726,99.9439526 L379.690974,101.616244 L381.844249,105.255931 L383.606019,109.190733 L384.486902,112.141838 L383.997523,114.994566 L383.410268,118.634259 L381.942124,121.782097 L381.746373,123.454389 L379.773315,125.331696 L379.152966,125.815038 L377.439824,126.798973 L376.167433,127.97941 L375.482302,128.176149 L374.601413,127.585931 L372.742063,127.044666 L372.221625,127.162897 L372.056636,126.602233 L371.567257,125.028311 L370.78425,122.765801 L369.805486,121.683728 L368.924604,120.109812 L368.783191,116.769792 L368.602254,116.113168 L368.826728,114.305978 L367.847964,111.551613 L367.45646,107.813557 L366.77133,106.338004 L367.358585,104.468973 L367.847964,102.698312 L368.728852,101.124396 L368.337343,99.0586249 L367.945839,96.8944844 L368.239467,95.8124111 L369.413983,94.3368588 L369.511859,92.664567 L369.02248,91.8776091 L369.413983,90.303687 L369.70761,88.336286 L371.371505,84.8933388 L373.133276,80.7617973 L373.231152,79.3846147 L373.0354,78.7943962 L372.546015,79.0895055 L370.001238,82.9259378 L368.337343,85.3851875 L367.162833,86.4672608 L366.673454,87.8444373 L365.792565,88.336286 L365.107435,89.5167291 L364.226546,89.3199896 L364.12867,88.2379163 L364.911683,86.7623701 L366.184069,83.9096352 L367.260709,82.9259378 L367.927495,81.5315287 L368.271004,80.9885966 L370.196989,76.7286255 L370.78425,74.2693757 L371.95876,71.6133804 L372.448139,71.5150107 L373.133276,72.4987142 L373.524779,72.4987142 L376.265309,71.0231619 L377.146197,72.0068655 L377.439824,72.1052352 L378.222831,71.4166409 L378.907962,69.5476096 L380.376105,69.0557609 L384.584778,68.6622819 L385.759293,67.0883599 L388.891326,66.9899901 L392.414867,67.7769542 L393.491502,67.7769542 L395.449024,66.8916204 L396.819292,66.9899901 L398.091683,66.5965112 L400.342833,66.8916204 L400.832212,67.0883599 L401.615219,66.8916204 L400.832212,66.3014019 L400.049206,65.9079229 L398.091683,64.0388917 L398.091683,59.8089804 L397.210795,59.5138711 L396.525664,60.2024594 L392.806371,61.1861568 L391.631855,61.4812722 L389.87009,60.9894173 L389.576463,60.7926778 L389.576463,57.3497306 L388.695574,57.2513609 L387.129555,58.0383189 L384.389026,59.2187619 L380.376105,59.4155014 L378.320707,60.1040896 L375.873805,62.2682301 L374.895041,62.8584486 L374.20991,62.8584486 L373.426904,63.3503034 L372.448139,63.0551881 L371.469381,62.2682301 L370.588493,62.8584486 L368.239467,62.9568184 L366.575572,61.2845327 L365.69469,59.4155014 L364.813807,58.7269071 L362.856285,58.1366886 L361.486017,58.1366886 L360.703011,57.3497306 L358.549736,59.1203921 L357.962475,59.8089804 L357.473096,59.5138711 L357.668848,57.9399491 L359.136991,55.9725481 L359.430619,54.4969976 L360.800886,54.0051477 L361.681769,52.136117 L363.932919,51.5458967 L364.12867,50.9556764 L363.44354,50.2670863 L360.605135,50.5621962 L357.962475,52.0377467 L356.592214,53.4149274 L355.809201,54.4969976 L354.732567,54.9888476 L353.558051,56.7595085 L353.460176,57.5464701 L350.817522,58.8252768 L349.349379,60.0057199 L345.727967,60.5959383 L345.336458,60.9894173 L345.336458,61.5796419 L343.183184,62.9568184 L341.519289,63.4486732 L341.085623,63.8018453 L340.469567,64.058467 L340.149027,64.8258496 L339.463897,64.7274799 L339.072387,64.0388917 L337.408498,63.5470429 L336.723362,63.6454127 L335.646728,64.2356311 L335.059467,63.8421522 L335.450976,62.6617091 L336.625486,60.7926778 L337.310617,60.1040896 L336.136107,59.2187619 L334.863715,59.7106106 L333.101944,60.8910476 L328.599644,62.8584486 L326.837873,63.2519276 L325.076109,62.9568184 L324.481728,62.4224052 L324.218354,62.0861007 L326.544246,60.3008291 L327.327259,60.2024594 L330.067788,57.1529911 L331.144428,56.6611381 L332.514689,54.3002575 L333.982833,52.136117 L335.842479,50.5621962 L338.733309,49.3410039 L344.331097,46.8698166 L346.715765,45.7519302 L347.086356,44.3648845 L344.398246,44.5904333 L343.966197,45.2502147 L343.574687,45.2502147 L342.498053,43.381184 L337.114865,43.5779241 L336.52761,44.0697741 L335.940355,44.0697741 L335.646728,43.2828143 L335.157342,42.200744 L333.591329,42.4958538 L331.633807,44.4632543 L330.655043,44.9551048 L328.795396,44.9551048 L327.229383,44.3648845 L327.229383,43.0860742 L326.44637,42.9877038 L326.152743,43.2828143 L324.586723,42.4958538 L324.293096,40.7251929 L323.412214,41.0203034 L323.118586,41.6105237 L321.650443,41.3154132 L318.420528,39.8398628 L316.071503,38.2659426 L314.309732,38.2659426 L313.526725,37.6757223 L312.156458,38.0692025 L311.471327,38.7577925 L311.275575,39.5447529 L308.339295,39.5447529 L308.339295,38.2659426 L304.522126,38.0692025 L304.326374,37.1838723 L301.390087,37.1838723 L300.411329,36.2001718 L299.53044,32.4621105 L299.041061,29.1175294 L297.866551,28.6256794 L296.496284,28.3305689 L296.104781,28.4289393 L295.909029,33.445811 L277.665584,33.4243487 L277.001535,33.3955399 L259.792742,33.0523308 L248.536992,32.6588506 L232.485309,31.8718902 L217.381737,30.7255601 L216.604457,30.4326092 L198.032923,28.7240492 L180.317345,26.5599086 L162.601773,24.1006577 L143.026548,20.8544469 L131.868674,18.7886761 L112.056388,14.5701219 L111.376276,14.4724695 L103.507862,12.9341197 L103.071629,12.6896143 L93.8927462,10.6239634 L79.9943372,7.18101256 L67.857699,3.73806108 L62.6702683,2.55762108 L56.7977015,0.885330337 L54.1550471,0 L53.4699139,0.491850194 L53.2741616,0.983700327 L54.7423032,3.93480119 L55.4274364,5.508722 L54.3507993,7.67286251 L54.3507993,9.05004322 L54.7423032,9.93537338 L54.2529229,11.0174436 L54.5465515,12.984844 L55.1338077,13.7718045 L55.0359319,14.5587649 L54.1550471,14.6571346 L53.7635426,13.4766946 L53.07841,12.0011441 L52.0017723,11.1158134 L52.1975246,9.83700302 L53.5677903,9.54189318 L53.3720381,8.45982292 L53.1762858,7.77123226 L51.9038965,8.55819267 L51.1208875,9.24678272 L51.1208875,10.7223338 L49.7506224,10.8207035 L47.6952222,10.2304832 L45.933452,9.34515307 L44.0738047,8.95167287 L41.3332739,7.67286251 L39.375752,6.4924219 L37.7118582,4.91850169 L36.2437166,3.14784078 L34.9713273,2.85273093 L33.6010616,8.55819267 L34.6776986,10.5255937 L34.6776986,15.3457253 L34.2861941,17.1163856 L35.1670796,21.4446672 L36.8309734,23.1169578 L34.1883183,23.5104374 L34.0904419,25.7729482 L35.6564599,26.4615389 L34.6776986,28.9207893 L33.0138048,29.1175294 L32.8180526,30.8881903 L34.1883183,32.6588506 L32.915929,34.2327714 L31.5456633,38.1675722 L29.5881414,44.2665142 L27.6306189,48.2013156 L24.59646,56.7595085 L20.6814156,65.0225891 L15.7876106,72.6954537 L14.6130971,74.4661152 L14.1237168,79.679724 L13.3407078,83.3194168 L14.9803621,85.46585 L14.6888834,86.0517481 L13.7322123,88.9265106 L13.6343359,93.4515311 L10.5023005,100.632541 L8.64265505,102.206463 L8.4469028,102.895051 L7.37026513,103.386906 L6.48938032,105.944525 L6,107.911926 L7.66389381,110.469546 L8.64265505,113.027165 L9.32778762,115.191306 L9.13203537,119.126108 L8.05539831,120.995139 L7.66389381,124.536462 L7.07663706,126.798973 L8.15327413,129.159853 L9.81716794,131.914212 L11.1874337,134.865316 L11.9704421,137.324566 L11.7746904,139.291967 L11.5789382,139.587076 L11.5789382,140.865883 L15.0046016,144.702315 L14.7109735,146.177867 L14.319469,147.55505 L13.9279645,148.735487 L14.0258404,153.752362 L15.2982297,156.014873 L16.4727432,157.588788 L18.136637,157.883904 L18.7238937,159.55619 L18.0387612,161.72033 L16.7663712,162.704034 L16.0812387,162.704034 L15.5918584,165.064914 L15.8854864,166.835575 L17.8430089,169.491564 L18.8217695,172.737778 L19.7026544,175.590507 L20.4856634,177.459538 L22.5410617,181.000861 L23.4219465,182.574777 L23.7155751,184.345439 L24.6943358,184.935657 L24.6943358,186.411209 L24.2049555,187.591652 L23.1283184,191.919934 L22.8346897,193.10037 L24.3028319,194.772662 L26.8476105,195.067771 L29.5881414,196.149845 L31.9371678,197.428652 L33.698938,197.428652 L35.4607076,199.297683 L37.026725,202.248787 L37.7118582,203.625964 L40.0608846,204.904777 L42.9971677,205.396625 L43.8780525,206.675438 L44.269557,208.642839 L43.3886722,209.036318 L43.5844244,209.626537 L45.5419475,210.118385 L47.2058413,210.216761 L48.9676116,213.06949 L51.3166398,215.627109 L51.8060201,217.004292 L53.3720381,219.561911 L53.5677903,221.529312 L53.5677903,227.234776 L53.8614184,228.316843 L59.9297393,229.202177 L71.8706198,230.874463 L80.2908344,231.467565 L80.8997097,231.922004 L79.3092064,233.235343 L79.1134548,234.120677 L79.4070822,234.710895 L90.8585836,241.203317 L98.1992945,245.826707 L107.106018,251.040322 L117.285134,257.139264 L124.723721,258.614816 L139.937242,260.260748 L140.908837,260.749001 L150.269383,261.959394 L151.052389,255.860451 L161.133629,257.434373 L168.675093,258.418789 L169.257335,258.418071 L170.431838,258.713168 L171.99787,260.483817 L172.878758,263.139831 L175.717169,264.517013 L176.500176,266.484414 L180.80673,271.30455 L181.589737,272.288248 L184.623893,273.567061 L185.30903,274.845867 L186.287788,275.436092 L186.581416,277.108378 L188.538938,281.04318 L188.538938,285.961685 L189.909206,288.814414 L194.411505,293.536174 L197.543544,294.814987 L198.620178,295.995424 L198.620178,296.388909 L200.969204,297.766085 L202.14372,298.159564 L203.220354,298.848158 L204.786373,299.438377 L206.254516,297.962825 L208.897169,294.224768 L209.484424,291.962252 L210.854692,289.994857 L213.007966,289.109523 L215.748495,288.027456 L217.608142,289.404632 L222.110442,289.798111 L226.221238,290.486706 L227.787257,291.765512 L227.787257,292.454107 L229.353277,294.323138 L232.974694,297.569346 L233.07257,298.45468 L234.149204,299.635116 L234.638583,302.192736 L237.868497,309.668861 L237.770622,310.849298 L240.315399,312.42322 L242.468673,316.456392 L244.524071,319.112381 L246.481594,319.899345 L247.460352,321.276522 L246.677346,323.932517 L247.068849,324.522735 L247.851861,324.916214 L247.65611,326.981985 L247.2646,327.375464 L247.65611,328.752647 L249.613626,329.93309 L250.396639,333.867886 L251.669025,336.228772 L256.269206,338.294543 L259.401239,338.983131 L261.946016,340.852162 L263.903539,341.245641 L264.686551,340.950532 L268.014335,341.63912 L271.440001,344 L273.299648,342.819563 L273.886903,341.934229 L272.810269,340.261937 L272.223008,336.523881 L271.146374,332.29397 L270.656994,330.818417 L271.146374,328.064058 L271.831504,325.703178 L272.614511,322.948813 L273.495399,319.604236 L272.125132,318.423793 L272.712393,317.243356 L275.159294,317.04661 L277.50832,313.702033 L279.563718,313.308554 L283.08726,311.144413 L284.163894,310.25908 L287.981063,308.193309 L291.406723,306.717756 L294.636637,304.750362 L296.300532,303.471549 L299.726192,300.225335 L300.509205,299.733486 L301.78159,298.848158 L303.34761,297.667715 L303.934865,296.487278 L309.905308,293.732913 L313.335066,292.768335 L313.723494,292.69052 L316.560888,291.765512 L321.454691,291.568773 L327.718762,293.732913 L331.633807,294.421508 L333.884957,293.536174 L335.842479,294.224768 L337.800002,294.814987 L338.289381,293.536174 L336.331858,292.847586 L334.765839,293.142695 L333.101944,292.158997 C333.101944,292.158997 333.199826,291.372033 333.591329,291.273664 C333.982833,291.175294 335.450976,290.683445 335.450976,290.683445 L336.52761,291.568773 L337.60425,290.978554 L339.561773,291.372033 L340.442655,292.847586 L340.638407,294.224768 L343.378936,294.421508 L344.455576,295.503575 L343.966197,296.487278 L343.183184,296.979127 L344.161948,297.962825 L349.251503,300.126965 L351.404777,299.340007 L351.992038,297.864455 L353.558051,297.470976 L354.634691,296.585648 L355.417698,297.175867 L355.907077,298.946528 L354.536816,299.438377 L354.928319,299.831856 L356.983717,299.044898 L358.353985,296.979127 L358.843364,296.684018 L357.570972,296.487278 L358.060351,295.503575 L357.962475,294.618247 L359.234867,294.323138 L359.919998,293.536174 L360.311501,294.028023 C360.311501,294.028023 360.213625,295.897054 360.703011,295.897054 C361.19239,295.897054 363.247788,296.290539 363.247788,296.290539 L365.69469,297.470976 L366.281944,298.35631 L368.043715,298.35631 L368.728852,298.946528 L370.099114,297.077497 L370.099114,296.192163 L369.316107,296.192163 L367.260709,294.519877 L363.737167,294.028023 L361.779645,292.650846 L362.464781,290.978554 L363.835043,291.175294 L363.932919,290.781815 L362.856285,290.191596 L362.856285,289.896481 L364.813807,289.896481 L365.890441,288.027456 L365.107435,286.847013 L364.911683,285.174721 L364.030795,285.273091 L362.856285,286.551904 L362.464781,288.125826 L360.605135,287.732341 L360.017874,286.650273 L361.094514,285.46983 L362.317962,284.387769 L362.776015,284.074222 L363.44354,283.600799 L365.009559,281.04318 L366.086193,281.535028 L370.196989,280.354591 L371.469381,280.551331 L372.350264,281.04318 L375.482302,281.04318 L375.636242,280.278815 L376.265309,280.157852 L377.929204,280.157852 L378.320707,280.256222 L379.103713,278.58393 L379.984602,275.927941 L381.354869,276.32142 L383.21451,279.961112 L383.21451,280.551331 L381.550621,281.731774 L383.21451,281.928513 L386.569908,280.36291 L386.980598,280.432467 L389.087077,280.059482 L392.708495,278.780669 L396.329912,278.48556 L398.972566,278.092081 L403.572741,279.174148 L408.466551,281.535028 L409.445309,282.420362 L411.20708,283.10895 L412.185838,284.289393 L412.38159,285.961685 L414.339112,285.174721 L416.688138,285.174721 L418.841418,283.994284 L421.092568,281.830144 L422.952209,281.928513 L423.245842,281.239919 L422.756457,280.649701 L422.854333,279.469264 L425.30124,278.977409 L426.867254,278.977409 L428.629024,279.862743 L431.173802,280.74807 L432.641945,283.010581 L434.30584,283.600799 L434.990971,285.66657 L437.046369,286.650273 L438.025133,288.224195 L439.199643,288.617674 L442.331682,289.404632 L443.114688,291.273664 L444.974335,293.536174 L444.974335,299.340007 L444.093453,302.192736 L444.289204,303.865028 L445.072211,306.816132 L446.148851,309.275382 L446.63823,308.980273 L447.519112,306.225908 L445.953099,305.635689 L445.757342,305.24221 L446.736106,304.848731 L449.476635,305.43895 L449.574511,306.422647 L447.616988,309.767231 L446.344603,311.242783 L448.497877,313.505293 L450.06389,315.374325 L451.825661,318.620532 L453.587431,320.981412 L454.859823,324.030887 L455.936457,324.227626 L456.915222,322.948813 L457.991856,323.637408 L459.557875,326.096657 L459.949378,328.260798 L461.809025,330.916787 L462.298404,330.129829 L464.64743,330.326569 L466.800704,331.703745 L468.856102,334.851589 L469.345487,336.91736 L469.541239,338.688022 L470.22637,339.27824 L471.009382,339.573349 L472.47752,338.983131 L473.358408,337.999427 L475.707434,337.901057 L477.56708,337.01573 L479.230969,335.048329 L478.937342,333.867886 L478.74159,332.392339 L479.133094,331.211896 L478.937342,330.031459 L480.405485,329.244495 L480.601237,327.178725 L480.209734,326.096657 L479.916106,318.817272 L479.133094,314.193882 L476.392564,309.177012 L474.23929,305.635689 L472.673271,302.389475 L470.9115,300.61882 L469.149736,296.093793 L469.639115,295.306835 L470.324245,294.519877 L469.345487,292.749216 L466.898586,290.486706 L463.962299,287.142122 L461.711149,283.30569 L458.481241,277.600232 L456.223122,271.672089 L454.851395,267.218737 L454.839916,266.677527 L454.370444,262.844728 L455.740706,256.745785 L456.621594,254.18816 L456.327961,252.614244 L458.346754,248.814601 L458.037797,247.992107 L458.383359,247.400629 L459.655751,246.613671 L462.689913,243.269087 L462.102652,241.301686 L463.864423,241.203317 L466.017697,239.137546 L466.996461,238.645697 L468.366723,236.579926 L470.030618,234.907635 L471.30301,232.743494 L472.771147,232.350015 L473.456284,230.677723 L474.435042,230.185875 L474.728669,226.349442 L476.294689,222.61138 L479.576895,219.289992 L479.746582,218.801344 L483.048139,217.987989 L485.886549,217.69288 L486.180177,216.217328 L487.354687,212.282526 L489.410085,209.429797 L493.32513,206.183589 L496.457168,204.708037 L498.121057,204.314558 L498.806194,204.609667 L499.589201,204.609667 L501.448847,201.658563 L502.623363,199.494422 L501.840351,199.789538 L500.470089,201.166714 L500.07858,200.183017 L497.533802,200.183017 L498.708318,196.346584 L498.218939,195.559626 L497.044423,195.559626 L497.044423,194.969402 L496.848672,194.182444 L497.82743,194.969402 L498.708318,195.067771 L500.176456,195.264511 L502.427612,194.280814 L503.210618,192.510152 L503.602122,191.231339 L505.168141,190.444381 L505.363892,187.886762 L504.874513,187.493283 L506.342651,187.394913 L505.951147,186.01773 L504.48301,184.542178 L502.329736,180.607376 L501.294429,177.748289 L500.737192,177.185592 L498.552986,173.527347 L495.040803,174.55317 L494.088914,173.643892 L495.634633,172.803368 L495.336882,171.267441 L494.263366,170.181041 L494.189781,169.321903 L492.808772,168.38307 L492.754912,167.40003 L494.385968,167.457801 L494.520255,166.615275 L493.775918,166.134701 L494.065895,164.960063 L493.233575,164.289164 L493.499661,161.435261 L492.974095,160.705052 L491.042467,160.460113 L489.739367,159.18929 L486.799054,158.616018 L485.013804,158.027016 Z M463,347.535209 L464.555558,347.197183 L465.385183,347.070424 L466.318523,345.84507 L467.822223,345 L468.651854,345.253525 L469.740742,345.422537 L470,345.971829 L467.770378,346.605633 L465.074074,347.366196 L463.570373,348 L463,347.535209 Z M471,344.328411 L471.728157,345 L473.378643,343.656829 L476.582523,340.97048 L478.81553,338.490772 L480.320387,334.254611 L480.902913,333.169741 L481,331 L480.563104,331.309961 L479.980583,333.11808 L479.106791,336.062724 L477.165044,339.420668 L474.54369,342.10701 L472.504856,343.346861 L471,344.328411 Z M504,196.903931 L505.811324,195.414846 L508.018865,193.877726 L509.094338,193.493449 L509.207545,192.292577 L508.754717,188.641922 L507.735848,187.248912 L507.283014,186.14411 L507.792452,186 L509.716983,189.266378 L510,191.908294 L509.886793,193.925766 L507.509434,194.838424 L505.5283,196.279475 L504.735852,197 L504,196.903931 Z M542.266663,101.423077 L543.53333,100.73076 L543.800005,99 L544.400002,99.1153827 L545,101.423077 L544.266671,101.884607 L542,102 L542.266663,101.423077 Z M538,103.225815 L539.199994,101 L540.039998,101 L541,102.258067 L539.740002,103.129034 L538.600002,104 L538,103.225815 Z M544,61.0555552 L545.325582,60 L546.511631,60.7222241 L547,62.3888931 L545.534884,63 L544,61.0555552 Z M548,58.846584 L549.269229,59.9944564 C549.269229,59.9944564 550.192306,60.0443574 550.192306,59.8447285 C550.192306,59.6450996 550.365382,58.5970417 550.365382,58.5970417 L551,58.0979694 L550.423074,57 L548.980769,57.4491693 L548,58.846584 Z M493,157.292687 L494.024384,158.804883 L494.170725,159.878051 L495.195118,161 C495.195118,161 496,160.463413 496,160.268292 C496,160.073172 495.341467,158.414636 495.341467,158.414636 L494.682926,157 L493,157.292687 Z M350,45.4594586 L351.056606,44.4864879 L352.311323,44.1081097 L355.415093,42.2702707 L356.735841,42 L357,42.2162198 L354.028303,44.6486511 L352.113207,45.5675661 L350.924527,46 L350,45.4594586 Z M402.473686,65.293108 L402.789473,66.8965524 L404.36842,67 L405,66.2241365 C405,66.2241365 404.960527,65.293108 404.802633,65.189654 C404.644734,65.0862063 404.013159,64 404.013159,64 L402.947372,64.1551714 L402.157894,64.258619 L402,64.9827587 L402.473686,65.293108 Z M49,4.18724155 L50.123597,4.11234604 L50.3932596,4.74896204 L51.2471924,4 L52.5505626,4 L53,4.71151151 L52.1460666,5.49791899 L52.5056218,5.87240255 L52.1011258,6.80860152 L51.3370801,6.99583843 C51.3370801,6.99583843 50.8426964,7.03328897 50.8426964,6.88349749 C50.8426964,6.73370601 51.651689,5.685161 51.651689,5.685161 L50.7078685,5.42302348 L50.5280936,6.09708955 L50.123597,6.39667251 L49.2696625,5.3481275 L49,4.18724155 Z M275.240003,341 L274.913338,336.615662 L273.32667,332.181495 L273,327.846979 L273.886667,322.76513 L275.800005,318.530257 L277.806664,315.192175 L279.626669,313 L280,313.149471 L277.246668,317.234879 L274.726673,321.270471 L273.560002,325.355873 L273.373337,328.54449 L273.886667,332.330967 L275.380002,336.765133 L275.66,339.953737 L275.753332,340.850541 L275.240003,341 Z M27.1578948,201 L28,201.542857 L27.8947375,202 L25.7894739,201.971429 L25.4210526,201.542857 L25,201.028571 L27.1578948,201 Z M28,201.489792 L28.6185568,201 L30.4329897,202.591832 L32,203.510193 L31.5463916,204 L29.2371135,203.81632 L28.4123715,202.591832 L28,201.489792 Z M41,212.784617 L42.1379284,214.123076 L42.6551755,214.676925 L43.6379348,215 L44,214.16923 L43.3793116,213.153845 L41.6724155,212 L41,212.092307 L41,212.784617 Z M39.4186025,218 L40.953489,219.772729 L42,220.863643 L40.744183,221 L39.6279085,220.318186 C39.6279085,220.318186 39,219.5 39,219.272726 C39,219.04546 39,218.045454 39,218.045454 L39.4186025,218 Z" id="US-Mainland" fill="#042864" fill-rule="nonzero" opacity="0.812709263"></path>
                <g id="map-hotspots" transform="translate(0.000000, 46.000000)" fill="#1A62DB">
                    <circle id="Oval-Copy-22" opacity="0.147949219" cx="179" cy="215" r="11"></circle>
                    <circle id="Oval-Copy-23" opacity="0.0592680432" cx="192.5" cy="46.5" r="13.5"></circle>
                    <circle id="Oval-Copy-24" opacity="0.0717773438" cx="282" cy="19" r="19"></circle>
                    <circle id="Oval-Copy-25" opacity="0.142089844" cx="96.5" cy="193.5" r="13.5"></circle>
                    <circle id="Oval-Copy-26" opacity="0.08" cx="530.5" cy="27.5" r="21.5"></circle>
                    <circle id="Oval-Copy-27" opacity="0.125976562" cx="356" cy="238" r="20"></circle>
                    <circle id="Oval-Copy-28" opacity="0.120419457" cx="82.5" cy="180.5" r="17.5"></circle>
                    <circle id="Oval-Copy-29" opacity="0.0668480283" cx="20" cy="34" r="20"></circle>
                    <circle id="Oval-Copy-30" opacity="0.15280878" cx="126.5" cy="142.5" r="5.5"></circle>
                    <circle id="Oval-Copy-31" opacity="0.0861932664" cx="71.5" cy="80.5" r="11.5"></circle>
                    <circle id="Oval-Copy-32" opacity="0.0861932664" cx="405.5" cy="197.5" r="11.5"></circle>
                    <!--<circle id="Oval-Copy-33" opacity="0.106538318" cx="520" cy="50" r="16"></circle>-->
                    <circle id="Oval-Copy-34" opacity="0.106538318" cx="478" cy="168" r="16"></circle>
                    <circle id="Oval-Copy-35" opacity="0.0861932664" cx="451.5" cy="198.5" r="10.5"></circle>
                    <circle id="Oval-Copy-36" opacity="0.0708007812" cx="432.5" cy="79.5" r="10.5"></circle>
                    <circle id="Oval-Copy-37" opacity="0.0861932664" cx="76.5" cy="128.5" r="6.5"></circle>
                    <circle id="Oval-Copy-38" opacity="0.0861932664" cx="13.5" cy="88.5" r="6.5"></circle>
                    <circle id="Oval-Copy-39" opacity="0.104282924" cx="493.5" cy="92.5" r="10.5"></circle>
                    <!--<circle id="Oval-Copy-40" opacity="0.114025298" cx="258" cy="279" r="29"></circle>-->
                    <circle id="Oval-Copy-41" opacity="0.0518508185" cx="238" cy="148" r="20"></circle>
                    <circle id="Oval-Copy-42" opacity="0.0861932664" cx="313" cy="244" r="6"></circle>
                    <circle id="Oval-Copy-43" opacity="0.0861932664" cx="370" cy="28" r="6"></circle>
                </g>
            </g>
        </g>
    </g>
</svg>