<svg width="1242" height="432" viewBox="0 0 1242 432" fill="none" xmlns="http://www.w3.org/2000/svg">
<g opacity="0.8">
<g opacity="0.8">
<line opacity="0.3" y1="-0.5" x2="863.897" y2="-0.5" transform="matrix(0.439155 -0.898411 0.989651 -0.143493 126.655 561.374)" stroke="#103289"/>
<line opacity="0.3" y1="-0.5" x2="863.897" y2="-0.5" transform="matrix(0.439155 -0.898411 0.989651 -0.143493 250.089 543.478)" stroke="#103289"/>
<line opacity="0.3" y1="-0.5" x2="863.897" y2="-0.5" transform="matrix(0.439155 -0.898411 0.989651 -0.143493 371.707 525.844)" stroke="#103289"/>
<line opacity="0.3" y1="-0.5" x2="863.897" y2="-0.5" transform="matrix(0.439155 -0.898411 0.989651 -0.143493 493.325 508.21)" stroke="#103289"/>
<line opacity="0.3" y1="-0.5" x2="863.897" y2="-0.5" transform="matrix(0.439155 -0.898411 0.989651 -0.143493 861.81 454.783)" stroke="#103289"/>
<line opacity="0.3" y1="-0.5" x2="863.897" y2="-0.5" transform="matrix(0.439155 -0.898411 0.989651 -0.143493 738.376 472.679)" stroke="#103289"/>
<line opacity="0.3" y1="-0.5" x2="867.565" y2="-0.5" transform="matrix(0.989651 -0.143493 -0.439155 0.898411 230.37 114.58)" stroke="#103289"/>
<line opacity="0.3" y1="-0.5" x2="867.565" y2="-0.5" transform="matrix(0.989651 -0.143493 -0.439155 0.898411 78.938 424.374)" stroke="#103289"/>
<line opacity="0.3" y1="-0.5" x2="863.897" y2="-0.5" transform="matrix(0.439155 -0.898411 0.989651 -0.143493 5.03735 579.009)" stroke="#103289"/>
<line y1="-0.5" x2="863.897" y2="-0.5" transform="matrix(0.439155 -0.898411 0.989651 -0.143493 617.564 488.665)" stroke="#103289"/>
<line y1="-0.5" x2="863.897" y2="-0.5" transform="matrix(-0.989652 0.143493 0.439155 -0.898411 1013.04 141.955)" stroke="#103289"/>
</g>
<circle r="68.9598" transform="matrix(0.831839 0.107655 -0.693045 0.903406 460.785 427.392)" fill="#066CD0" fill-opacity="0.3"/>
<circle r="68.7098" transform="matrix(0.831839 0.107655 -0.693045 0.903406 460.785 427.392)" stroke="#1A4C7E" stroke-opacity="0.2" stroke-width="0.5"/>
<circle r="71.6118" transform="matrix(0.831839 0.107655 -0.693045 0.903406 593.729 256.172)" fill="#066CD0" fill-opacity="0.3"/>
<circle r="71.3618" transform="matrix(0.831839 0.107655 -0.693045 0.903406 593.729 256.172)" stroke="#1A4C7E" stroke-opacity="0.2" stroke-width="0.5"/>
<ellipse rx="24.3603" ry="24.3603" transform="matrix(0.831839 0.107655 -0.693045 0.903406 370.657 286.958)" fill="#066CD0" fill-opacity="0.3"/>
<path d="M390.713 289.554C381.484 301.584 365.024 310.173 353.947 308.74C342.871 307.306 341.373 296.392 350.601 284.363C359.829 272.333 376.29 263.744 387.367 265.177C398.443 266.611 399.941 277.524 390.713 289.554Z" stroke="#1A4C7E" stroke-opacity="0.2" stroke-width="0.5"/>
<circle r="23.1768" transform="matrix(0.831839 0.107655 -0.693045 0.903406 246.816 384.153)" fill="#066CD0" fill-opacity="0.3"/>
<circle r="22.9268" transform="matrix(0.831839 0.107655 -0.693045 0.903406 246.816 384.153)" stroke="#1A4C7E" stroke-opacity="0.2" stroke-width="0.5"/>
<circle r="25.9343" transform="matrix(0.831839 0.107655 -0.693045 0.903406 402.205 433.702)" fill="#066CD0" fill-opacity="0.3"/>
<circle r="25.6843" transform="matrix(0.831839 0.107655 -0.693045 0.903406 402.205 433.702)" stroke="#1A4C7E" stroke-opacity="0.2" stroke-width="0.5"/>
<circle r="22.7201" transform="matrix(0.831839 0.107655 -0.693045 0.903406 511.548 300.555)" fill="#066CD0" fill-opacity="0.3"/>
<circle r="22.4701" transform="matrix(0.831839 0.107655 -0.693045 0.903406 511.548 300.555)" stroke="#1A4C7E" stroke-opacity="0.2" stroke-width="0.5"/>
<ellipse rx="33.9757" ry="33.9757" transform="matrix(0.831839 0.107655 -0.693045 0.903406 723.809 79.3515)" fill="#24BAEE" fill-opacity="0.3"/>
<path d="M751.863 82.9823C738.955 99.8093 715.929 111.825 700.435 109.82C684.941 107.814 682.846 92.5478 695.755 75.7208C708.663 58.8938 731.688 46.8783 747.182 48.8835C762.676 50.8887 764.772 66.1552 751.863 82.9823Z" stroke="#1A4C7E" stroke-opacity="0.2" stroke-width="0.5"/>
<circle r="26.1846" transform="matrix(0.831839 0.107655 -0.693045 0.903406 678.928 116.474)" fill="#24BAEE" fill-opacity="0.3"/>
<circle r="25.9346" transform="matrix(0.831839 0.107655 -0.693045 0.903406 678.928 116.474)" stroke="#1A4C7E" stroke-opacity="0.2" stroke-width="0.5"/>
<circle r="46.0116" transform="matrix(0.831839 0.107655 -0.693045 0.903406 873.163 66.521)" fill="#12F492" fill-opacity="0.3"/>
<circle r="45.7616" transform="matrix(0.831839 0.107655 -0.693045 0.903406 873.163 66.521)" stroke="#1A4C7E" stroke-opacity="0.2" stroke-width="0.5"/>
<circle r="24.0786" transform="matrix(0.831839 0.107655 -0.693045 0.903406 867.048 29.9047)" fill="#12F492" fill-opacity="0.3"/>
<circle r="23.8286" transform="matrix(0.831839 0.107655 -0.693045 0.903406 867.048 29.9047)" stroke="#1A4C7E" stroke-opacity="0.2" stroke-width="0.5"/>
<circle r="24.0786" transform="matrix(0.831839 0.107655 -0.693045 0.903406 1001.33 123.62)" fill="#12F492" fill-opacity="0.3"/>
<circle r="23.8286" transform="matrix(0.831839 0.107655 -0.693045 0.903406 1001.33 123.62)" stroke="#1A4C7E" stroke-opacity="0.2" stroke-width="0.5"/>
<circle r="16.7518" transform="matrix(0.74887 0.208289 -0.78196 0.885635 795.999 183.99)" fill="#AFC0C6" fill-opacity="0.3"/>
<circle r="16.5018" transform="matrix(0.74887 0.208289 -0.78196 0.885635 795.999 183.99)" stroke="#1A4C7E" stroke-opacity="0.2" stroke-width="0.5"/>
<circle r="16.7518" transform="matrix(0.74887 0.208289 -0.78196 0.885635 822.644 220.324)" fill="#AFC0C6" fill-opacity="0.3"/>
<circle r="16.5018" transform="matrix(0.74887 0.208289 -0.78196 0.885635 822.644 220.324)" stroke="#1A4C7E" stroke-opacity="0.2" stroke-width="0.5"/>
<circle r="23.1685" transform="matrix(0.74887 0.208289 -0.78196 0.885635 751.403 268.052)" fill="#AFC0C6" fill-opacity="0.3"/>
<circle r="22.9185" transform="matrix(0.74887 0.208289 -0.78196 0.885635 751.403 268.052)" stroke="#1A4C7E" stroke-opacity="0.2" stroke-width="0.5"/>
</g>
</svg>
