<svg width="858" height="432" viewBox="0 0 858 432" fill="none" xmlns="http://www.w3.org/2000/svg">
<g opacity="0.6">
<path fill-rule="evenodd" clip-rule="evenodd" d="M543.884 69.6338C550.701 71.5718 557.798 67.6167 559.736 60.7998C561.674 53.9829 557.719 46.8856 550.902 44.9476C544.085 43.0096 536.988 46.9647 535.05 53.7816C533.112 60.5985 537.067 67.6958 543.884 69.6338ZM641.498 116.117C648.315 118.055 655.412 114.1 657.35 107.283C659.288 100.467 655.333 93.3693 648.516 91.4313C641.699 89.4933 634.602 93.4484 632.664 100.265C630.726 107.082 634.681 114.179 641.498 116.117ZM515.577 111.932C513.639 118.748 506.541 122.704 499.724 120.766C492.908 118.828 488.952 111.73 490.89 104.913C491.018 104.465 491.168 104.028 491.339 103.605C488.155 106.746 483.417 108.131 478.807 106.82C471.99 104.882 468.035 97.785 469.973 90.9681C471.911 84.1512 479.008 80.1961 485.825 82.1341C492.642 84.0721 496.597 91.1693 494.659 97.9862C494.532 98.4351 494.382 98.8716 494.211 99.2948C497.395 96.1532 502.133 94.7689 506.743 96.0794C513.559 98.0174 517.515 105.115 515.577 111.932ZM366.831 128.201C364.893 135.018 357.795 138.973 350.978 137.035C344.162 135.097 340.206 128 342.144 121.183C344.082 114.366 351.18 110.411 357.997 112.349C364.813 114.287 368.769 121.384 366.831 128.201ZM448.593 190.49C455.41 192.428 462.507 188.473 464.445 181.656C466.383 174.839 462.428 167.742 455.611 165.804C448.794 163.866 441.697 167.821 439.759 174.638C437.821 181.455 441.776 188.552 448.593 190.49ZM431.907 181.656C429.969 188.473 422.872 192.428 416.055 190.49C409.238 188.552 405.283 181.455 407.221 174.638C409.159 167.821 416.256 163.866 423.073 165.804C429.89 167.742 433.845 174.839 431.907 181.656ZM281.253 248.594C288.07 250.532 295.168 246.577 297.106 239.76C299.044 232.943 295.089 225.846 288.272 223.908C281.455 221.97 274.357 225.925 272.419 232.742C270.481 239.559 274.437 246.656 281.253 248.594ZM25.1786 532.605C23.2406 539.422 16.1433 543.377 9.32642 541.439C2.50953 539.501 -1.4456 532.404 0.492408 525.587C2.43041 518.77 9.52766 514.815 16.3446 516.753C23.1615 518.691 27.1166 525.788 25.1786 532.605ZM432.324 239.298C439.141 241.236 446.238 237.281 448.176 230.464C450.114 223.647 446.159 216.55 439.342 214.612C432.525 212.674 425.428 216.629 423.49 223.446C421.552 230.262 425.507 237.36 432.324 239.298ZM406.341 286.244C404.403 293.061 397.306 297.016 390.489 295.078C383.672 293.14 379.717 286.042 381.655 279.226C383.593 272.409 390.69 268.454 397.507 270.392C404.324 272.33 408.279 279.427 406.341 286.244ZM462.538 255.567C469.355 257.505 476.452 253.55 478.39 246.733C480.328 239.916 476.373 232.819 469.556 230.881C462.739 228.943 455.642 232.898 453.704 239.715C451.766 246.532 455.721 253.629 462.538 255.567ZM534.17 316.458C532.232 323.275 525.135 327.23 518.318 325.292C511.501 323.354 507.546 316.257 509.484 309.44C511.422 302.623 518.519 298.668 525.336 300.606C532.153 302.544 536.108 309.641 534.17 316.458ZM581.07 213.732C587.887 215.67 594.984 211.715 596.922 204.898C598.86 198.081 594.905 190.984 588.088 189.046C581.271 187.108 574.174 191.063 572.236 197.88C570.298 204.697 574.253 211.794 581.07 213.732Z" fill="url(#paint0_linear)"/>
<line opacity="0.6" x1="19.5799" y1="346.064" x2="851.388" y2="62.7873" stroke="url(#paint1_linear)" stroke-width="4"/>
</g>
<defs>
<linearGradient id="paint0_linear" x1="729.497" y1="16.5005" x2="166.664" y2="377.151" gradientUnits="userSpaceOnUse">
<stop stop-color="#0080FC"/>
<stop offset="1" stop-color="#051640"/>
</linearGradient>
<linearGradient id="paint1_linear" x1="851.623" y1="56.0063" x2="33.0447" y2="342.086" gradientUnits="userSpaceOnUse">
<stop stop-color="#0180FC"/>
<stop offset="1" stop-color="#051642"/>
</linearGradient>
</defs>
</svg>
