<svg width="660" height="617" viewBox="0 0 660 617" fill="none" xmlns="http://www.w3.org/2000/svg">
<g opacity="0.7">
<line y1="-0.384722" x2="86.0147" y2="-0.384722" transform="matrix(-0.987688 0.156434 0.431771 -0.901983 356.74 49.4064)" stroke="url(#paint0_linear)" stroke-width="0.769445"/>
<line y1="-0.384722" x2="73.5287" y2="-0.384722" transform="matrix(-0.987688 0.156434 0.431771 -0.901983 281.085 204.808)" stroke="url(#paint1_linear)" stroke-width="0.769445"/>
<line y1="-0.384722" x2="36.0707" y2="-0.384722" transform="matrix(-0.987688 0.156434 0.431771 -0.901983 248.722 272.414)" stroke="url(#paint2_linear)" stroke-width="0.769445"/>
<line y1="-0.384722" x2="36.0707" y2="-0.384722" transform="matrix(-0.987688 0.156434 0.431771 -0.901983 228.355 314.96)" stroke="url(#paint3_linear)" stroke-width="0.769445"/>
<line y1="-0.384722" x2="36.0707" y2="-0.384722" transform="matrix(-0.987688 0.156434 0.431771 -0.901983 200.468 373.154)" stroke="url(#paint4_linear)" stroke-width="0.769445"/>
<line y1="-0.384722" x2="86.0147" y2="-0.384722" transform="matrix(-0.987688 0.156434 0.431771 -0.901983 342.963 78.1875)" stroke="url(#paint5_linear)" stroke-width="0.769445"/>
<line y1="-0.384722" x2="88.7894" y2="-0.384722" transform="matrix(-0.987688 0.156434 0.431771 -0.901983 267.898 232.354)" stroke="url(#paint6_linear)" stroke-width="0.769445"/>
<line y1="-0.384722" x2="88.7894" y2="-0.384722" transform="matrix(-0.987688 0.156434 0.431771 -0.901983 234.944 301.195)" stroke="url(#paint7_linear)" stroke-width="0.769445"/>
<line y1="-0.384722" x2="88.7894" y2="-0.384722" transform="matrix(-0.987688 0.156434 0.431771 -0.901983 207.621 358.23)" stroke="url(#paint8_linear)" stroke-width="0.769445"/>
<line y1="-0.384722" x2="88.7894" y2="-0.384722" transform="matrix(-0.987688 0.156434 0.431771 -0.901983 214.411 344.088)" stroke="url(#paint9_linear)" stroke-width="0.769445"/>
<line y1="-0.384722" x2="88.7894" y2="-0.384722" transform="matrix(-0.987688 0.156434 0.431771 -0.901983 187.456 400.399)" stroke="url(#paint10_linear)" stroke-width="0.769445"/>
<line y1="-0.384722" x2="288.566" y2="-0.384722" transform="matrix(0.987688 -0.156434 -0.431771 0.901983 224.304 331.363)" stroke="url(#paint11_linear)" stroke-width="0.769445"/>
<line y1="-0.384722" x2="238.621" y2="-0.384722" transform="matrix(0.987688 -0.156434 -0.431771 0.901983 264.464 247.466)" stroke="url(#paint12_linear)" stroke-width="0.769445"/>
<line y1="-0.384722" x2="88.7894" y2="-0.384722" transform="matrix(0.987688 -0.156434 -0.431771 0.901983 290.818 192.412)" stroke="url(#paint13_linear)" stroke-width="0.769445"/>
<line y1="-0.384722" x2="48.5567" y2="-0.384722" transform="matrix(0.987688 -0.156434 -0.431771 0.901983 179.017 428.615)" stroke="url(#paint14_linear)" stroke-width="0.769445"/>
<line y1="-0.384722" x2="219.199" y2="-0.384722" transform="matrix(0.987688 -0.156434 -0.431771 0.901983 131.029 528.859)" stroke="url(#paint15_linear)" stroke-width="0.769445"/>
<line y1="-0.384722" x2="88.7894" y2="-0.384722" transform="matrix(0.987688 -0.156434 -0.431771 0.901983 151.423 486.258)" stroke="url(#paint16_linear)" stroke-width="0.769445"/>
<line y1="-0.384722" x2="301.052" y2="-0.384722" transform="matrix(0.987688 -0.156434 -0.431771 0.901983 103.502 586.366)" stroke="url(#paint17_linear)" stroke-width="0.769445"/>
<line y1="-0.384722" x2="88.7894" y2="-0.384722" transform="matrix(0.987688 -0.156434 -0.431771 0.901983 303.996 164.883)" stroke="url(#paint18_linear)" stroke-width="0.769445"/>
<line y1="-0.384722" x2="88.7894" y2="-0.384722" transform="matrix(0.987688 -0.156434 -0.431771 0.901983 192.627 400.18)" stroke="url(#paint19_linear)" stroke-width="0.769445"/>
<line y1="-0.384722" x2="231.685" y2="-0.384722" transform="matrix(0.987688 -0.156434 -0.431771 0.901983 144.208 501.33)" stroke="url(#paint20_linear)" stroke-width="0.769445"/>
<line y1="-0.384722" x2="88.7894" y2="-0.384722" transform="matrix(0.987688 -0.156434 -0.431771 0.901983 165.099 457.687)" stroke="url(#paint21_linear)" stroke-width="0.769445"/>
<line y1="-0.384722" x2="301.052" y2="-0.384722" transform="matrix(0.987688 -0.156434 -0.431771 0.901983 117.253 557.64)" stroke="url(#paint22_linear)" stroke-width="0.769445"/>
<line y1="-0.384722" x2="117.923" y2="-0.384722" transform="matrix(0.987688 -0.156434 -0.431771 0.901983 324.362 122.337)" stroke="url(#paint23_linear)" stroke-width="0.769445"/>
<line y1="-0.384722" x2="88.7894" y2="-0.384722" transform="matrix(0.987688 -0.156434 -0.431771 0.901983 297.407 178.648)" stroke="url(#paint24_linear)" stroke-width="0.769445"/>
<line y1="-0.384722" x2="145.67" y2="-0.384722" transform="matrix(0.987688 -0.156434 -0.431771 0.901983 185.605 414.849)" stroke="url(#paint25_linear)" stroke-width="0.769445"/>
<line y1="-0.384722" x2="88.7894" y2="-0.384722" transform="matrix(0.987688 -0.156434 -0.431771 0.901983 137.618 515.094)" stroke="url(#paint26_linear)" stroke-width="0.769445"/>
<line y1="-0.384722" x2="108.212" y2="-0.384722" transform="matrix(0.987688 -0.156434 -0.431771 0.901983 158.51 471.452)" stroke="url(#paint27_linear)" stroke-width="0.769445"/>
<line y1="-0.384722" x2="16.648" y2="-0.384722" transform="matrix(0.987688 -0.156434 -0.431771 0.901983 110.064 572.657)" stroke="url(#paint28_linear)" stroke-width="0.769445"/>
<line y1="-0.384722" x2="88.7894" y2="-0.384722" transform="matrix(0.987688 -0.156434 -0.431771 0.901983 310.585 151.118)" stroke="url(#paint29_linear)" stroke-width="0.769445"/>
<line y1="-0.384722" x2="153.994" y2="-0.384722" transform="matrix(0.987688 -0.156434 -0.431771 0.901983 199.217 386.416)" stroke="url(#paint30_linear)" stroke-width="0.769445"/>
<line y1="-0.384722" x2="104.05" y2="-0.384722" transform="matrix(0.987688 -0.156434 -0.431771 0.901983 172.261 442.726)" stroke="url(#paint31_linear)" stroke-width="0.769445"/>
<line y1="-0.384722" x2="172.029" y2="-0.384722" transform="matrix(0.987688 -0.156434 -0.431771 0.901983 123.842 543.875)" stroke="url(#paint32_linear)" stroke-width="0.769445"/>
<line y1="-0.384722" x2="151.219" y2="-0.384722" transform="matrix(0.987688 -0.156434 -0.431771 0.901983 94.1455 600.621)" stroke="url(#paint33_linear)" stroke-width="0.769445"/>
<line y1="-0.384722" x2="88.7894" y2="-0.384722" transform="matrix(0.987688 -0.156434 -0.431771 0.901983 338.14 93.5555)" stroke="url(#paint34_linear)" stroke-width="0.769445"/>
<circle r="2.11597" transform="matrix(-0.987688 0.156434 0.431771 -0.901983 270.59 63.39)" fill="#2CD2A5"/>
<circle r="2.11597" transform="matrix(-0.987688 0.156434 0.431771 -0.901983 210.238 216.368)" fill="#2CD2A5"/>
<circle r="2.11597" transform="matrix(-0.987688 0.156434 0.431771 -0.901983 179.15 246.742)" fill="#2CD2A5"/>
<circle r="2.11597" transform="matrix(-0.987688 0.156434 0.431771 -0.901983 214.873 278.114)" fill="#2CD2A5"/>
<circle r="2.11597" transform="matrix(-0.987688 0.156434 0.431771 -0.901983 194.506 320.66)" fill="#2CD2A5"/>
<circle r="2.11597" transform="matrix(-0.987688 0.156434 0.431771 -0.901983 166.088 378.76)" fill="#2CD2A5"/>
<circle r="2.11597" transform="matrix(-0.987688 0.156434 0.431771 -0.901983 258.414 91.9176)" fill="#2CD2A5"/>
<circle r="2.11597" transform="matrix(-0.987688 0.156434 0.431771 -0.901983 147.655 315.359)" fill="#2CD2A5"/>
<circle r="2.11597" transform="matrix(-0.987688 0.156434 0.431771 -0.901983 120.413 372.204)" fill="#2CD2A5"/>
<circle r="2.11597" transform="matrix(-0.987688 0.156434 0.431771 -0.901983 127.122 358.252)" fill="#2CD2A5"/>
<circle r="2.11597" transform="matrix(-0.987688 0.156434 0.431771 -0.901983 100.166 414.563)" fill="#2CD2A5"/>
<circle r="2.11597" transform="matrix(0.987688 -0.156434 -0.431771 0.901983 498.221 210.104)" fill="#006AFF"/>
<circle r="2.11597" transform="matrix(0.987688 -0.156434 -0.431771 0.901983 507.39 286.187)" fill="#006AFF"/>
<circle r="2.11597" transform="matrix(0.987688 -0.156434 -0.431771 0.901983 380.698 177.838)" fill="#006AFF"/>
<circle r="2.11597" transform="matrix(0.987688 -0.156434 -0.431771 0.901983 226.74 420.786)" fill="#006AFF"/>
<circle r="2.11597" transform="matrix(0.987688 -0.156434 -0.431771 0.901983 346.744 494.355)" fill="#006AFF"/>
<circle r="2.11597" transform="matrix(0.987688 -0.156434 -0.431771 0.901983 239.876 472.021)" fill="#006AFF"/>
<circle r="2.11597" transform="matrix(0.987688 -0.156434 -0.431771 0.901983 399.68 539.117)" fill="#006AFF"/>
<circle r="2.11597" transform="matrix(0.987688 -0.156434 -0.431771 0.901983 393.876 150.308)" fill="#006AFF"/>
<circle r="2.11597" transform="matrix(0.987688 -0.156434 -0.431771 0.901983 282.506 385.606)" fill="#006AFF"/>
<circle r="2.11597" transform="matrix(0.987688 -0.156434 -0.431771 0.901983 372.187 464.855)" fill="#006AFF"/>
<circle r="2.11597" transform="matrix(0.987688 -0.156434 -0.431771 0.901983 253.664 443.219)" fill="#006AFF"/>
<circle r="2.11597" transform="matrix(0.987688 -0.156434 -0.431771 0.901983 413.431 510.391)" fill="#006AFF"/>
<circle r="2.11597" transform="matrix(0.987688 -0.156434 -0.431771 0.901983 438.908 103.855)" fill="#006AFF"/>
<circle r="2.11597" transform="matrix(0.987688 -0.156434 -0.431771 0.901983 387.287 164.073)" fill="#006AFF"/>
<circle r="2.11597" transform="matrix(0.987688 -0.156434 -0.431771 0.901983 328.695 391.847)" fill="#006AFF"/>
<circle r="2.11597" transform="matrix(0.987688 -0.156434 -0.431771 0.901983 226.088 500.823)" fill="#006AFF"/>
<circle r="2.11597" transform="matrix(0.987688 -0.156434 -0.431771 0.901983 265.973 454.093)" fill="#006AFF"/>
<circle r="2.11597" transform="matrix(0.987688 -0.156434 -0.431771 0.901983 125.951 569.802)" fill="#006AFF"/>
<circle r="2.11597" transform="matrix(0.987688 -0.156434 -0.431771 0.901983 400.465 136.543)" fill="#006AFF"/>
<circle r="2.11597" transform="matrix(0.987688 -0.156434 -0.431771 0.901983 351.898 361.894)" fill="#006AFF"/>
<circle r="2.11597" transform="matrix(0.987688 -0.156434 -0.431771 0.901983 274.245 426.235)" fill="#006AFF"/>
<circle r="2.11597" transform="matrix(0.987688 -0.156434 -0.431771 0.901983 292.967 516.75)" fill="#006AFF"/>
<circle r="2.11597" transform="matrix(0.987688 -0.156434 -0.431771 0.901983 242.948 576.713)" fill="#006AFF"/>
<circle r="2.11597" transform="matrix(0.987688 -0.156434 -0.431771 0.901983 428.02 78.9809)" fill="#006AFF"/>
<g opacity="0.8">
<circle r="2.11597" transform="matrix(0.987688 -0.156434 -0.431771 0.901983 358.219 49.7535)" fill="#1F44A1"/>
<circle r="2.11597" transform="matrix(0.987688 -0.156434 -0.431771 0.901983 237.793 301.326)" fill="#1F44A1"/>
<circle r="2.11597" transform="matrix(0.987688 -0.156434 -0.431771 0.901983 297.119 177.392)" fill="#1F44A1"/>
<g filter="url(#filter0_f)">
<circle r="2.11597" transform="matrix(0.987688 -0.156434 -0.431771 0.901983 176.694 428.964)" fill="#1F44A1"/>
</g>
<circle r="2.11597" transform="matrix(0.987688 -0.156434 -0.431771 0.901983 337.851 92.3001)" fill="#1F44A1"/>
<circle r="2.11597" transform="matrix(0.987688 -0.156434 -0.431771 0.901983 217.426 343.872)" fill="#1F44A1"/>
<circle r="2.11597" transform="matrix(0.987688 -0.156434 -0.431771 0.901983 277.343 218.703)" fill="#1F44A1"/>
<circle r="2.11597" transform="matrix(0.987688 -0.156434 -0.431771 0.901983 270.818 232.466)" fill="#1F44A1"/>
<circle r="2.11597" transform="matrix(0.987688 -0.156434 -0.431771 0.901983 156.328 471.51)" fill="#1F44A1"/>
<circle r="2.11597" transform="matrix(0.987688 -0.156434 -0.431771 0.901983 197.059 386.418)" fill="#1F44A1"/>
<circle r="2.11597" transform="matrix(0.987688 -0.156434 -0.431771 0.901983 257.568 260.015)" fill="#1F44A1"/>
<circle r="2.11597" transform="matrix(0.987688 -0.156434 -0.431771 0.901983 135.96 514.056)" fill="#1F44A1"/>
<circle r="2.11597" transform="matrix(0.987688 -0.156434 -0.431771 0.901983 101.817 585.383)" fill="#1F44A1"/>
<circle r="2.11597" transform="matrix(0.987688 -0.156434 -0.431771 0.901983 344.44 78.5352)" fill="#1F44A1"/>
<circle r="2.11597" transform="matrix(0.987688 -0.156434 -0.431771 0.901983 224.015 330.107)" fill="#1F44A1"/>
<circle r="2.11597" transform="matrix(0.987688 -0.156434 -0.431771 0.901983 283.932 204.939)" fill="#1F44A1"/>
<g filter="url(#filter1_f)">
<circle r="2.11597" transform="matrix(0.987688 -0.156434 -0.431771 0.901983 162.917 457.745)" fill="#1F44A1"/>
</g>
<circle r="2.11597" transform="matrix(0.987688 -0.156434 -0.431771 0.901983 324.074 121.081)" fill="#1F44A1"/>
<circle r="2.11597" transform="matrix(0.987688 -0.156434 -0.431771 0.901983 203.649 372.653)" fill="#1F44A1"/>
<circle r="2.11597" transform="matrix(0.987688 -0.156434 -0.431771 0.901983 264.157 246.25)" fill="#1F44A1"/>
<circle r="2.11597" transform="matrix(0.987688 -0.156434 -0.431771 0.901983 142.55 500.291)" fill="#1F44A1"/>
<circle r="2.11597" transform="matrix(0.987688 -0.156434 -0.431771 0.901983 108.407 571.618)" fill="#1F44A1"/>
<circle r="2.11597" transform="matrix(0.987688 -0.156434 -0.431771 0.901983 303.708 163.627)" fill="#1F44A1"/>
<g filter="url(#filter2_f)">
<circle r="2.11597" transform="matrix(0.987688 -0.156434 -0.431771 0.901983 183.283 415.199)" fill="#1F44A1"/>
</g>
<circle r="2.11597" transform="matrix(0.987688 -0.156434 -0.431771 0.901983 244.382 287.561)" fill="#1F44A1"/>
<circle r="2.11597" transform="matrix(0.987688 -0.156434 -0.431771 0.901983 122.183 542.837)" fill="#1F44A1"/>
<circle r="2.11597" transform="matrix(0.987688 -0.156434 -0.431771 0.901983 231.204 315.091)" fill="#1F44A1"/>
<circle r="2.11597" transform="matrix(0.987688 -0.156434 -0.431771 0.901983 290.53 191.157)" fill="#1F44A1"/>
<g filter="url(#filter3_f)">
<circle r="2.11597" transform="matrix(0.987688 -0.156434 -0.431771 0.901983 170.104 442.729)" fill="#1F44A1"/>
</g>
<circle r="2.11597" transform="matrix(0.987688 -0.156434 -0.431771 0.901983 210.836 357.637)" fill="#1F44A1"/>
<circle r="2.11597" transform="matrix(0.987688 -0.156434 -0.431771 0.901983 149.739 485.275)" fill="#1F44A1"/>
<circle r="2.11597" transform="matrix(0.987688 -0.156434 -0.431771 0.901983 115.594 556.602)" fill="#1F44A1"/>
<circle r="2.11597" transform="matrix(0.987688 -0.156434 -0.431771 0.901983 310.896 148.611)" fill="#1F44A1"/>
<circle r="2.11597" transform="matrix(0.987688 -0.156434 -0.431771 0.901983 190.471 400.183)" fill="#1F44A1"/>
<circle r="2.11597" transform="matrix(0.987688 -0.156434 -0.431771 0.901983 251.571 272.545)" fill="#1F44A1"/>
<circle r="2.11597" transform="matrix(0.987688 -0.156434 -0.431771 0.901983 129.372 527.821)" fill="#1F44A1"/>
<circle r="2.11597" transform="matrix(0.987688 -0.156434 -0.431771 0.901983 95.2281 599.148)" fill="#1F44A1"/>
<circle r="2.11597" transform="matrix(0.987688 -0.156434 -0.431771 0.901983 317.641 134.651)" fill="#1F44A1"/>
<circle r="2.11597" transform="matrix(0.987688 -0.156434 -0.431771 0.901983 351.786 63.3238)" fill="#1F44A1"/>
<circle r="2.11597" transform="matrix(0.987688 -0.156434 -0.431771 0.901983 330.828 107.105)" fill="#1F44A1"/>
</g>
</g>
<defs>
<filter id="filter0_f" x="173.258" y="425.872" width="6.87127" height="6.1831" filterUnits="userSpaceOnUse" color-interpolation-filters="sRGB">
<feFlood flood-opacity="0" result="BackgroundImageFix"/>
<feBlend mode="normal" in="SourceGraphic" in2="BackgroundImageFix" result="shape"/>
<feGaussianBlur stdDeviation="0.577084" result="effect1_foregroundBlur"/>
</filter>
<filter id="filter1_f" x="159.865" y="455.038" width="6.10183" height="5.41365" filterUnits="userSpaceOnUse" color-interpolation-filters="sRGB">
<feFlood flood-opacity="0" result="BackgroundImageFix"/>
<feBlend mode="normal" in="SourceGraphic" in2="BackgroundImageFix" result="shape"/>
<feGaussianBlur stdDeviation="0.384722" result="effect1_foregroundBlur"/>
</filter>
<filter id="filter2_f" x="179.847" y="412.107" width="6.87127" height="6.1831" filterUnits="userSpaceOnUse" color-interpolation-filters="sRGB">
<feFlood flood-opacity="0" result="BackgroundImageFix"/>
<feBlend mode="normal" in="SourceGraphic" in2="BackgroundImageFix" result="shape"/>
<feGaussianBlur stdDeviation="0.577084" result="effect1_foregroundBlur"/>
</filter>
<filter id="filter3_f" x="167.053" y="440.022" width="6.10183" height="5.41365" filterUnits="userSpaceOnUse" color-interpolation-filters="sRGB">
<feFlood flood-opacity="0" result="BackgroundImageFix"/>
<feBlend mode="normal" in="SourceGraphic" in2="BackgroundImageFix" result="shape"/>
<feGaussianBlur stdDeviation="0.384722" result="effect1_foregroundBlur"/>
</filter>
<linearGradient id="paint0_linear" x1="86.0147" y1="-2.49999" x2="-1.33981" y2="-1.5969" gradientUnits="userSpaceOnUse">
<stop stop-color="#2CD2A5"/>
<stop offset="1" stop-color="#F5F7F7" stop-opacity="0"/>
</linearGradient>
<linearGradient id="paint1_linear" x1="73.5287" y1="-2.49999" x2="-1.14747" y2="-1.84004" gradientUnits="userSpaceOnUse">
<stop stop-color="#2CD2A5"/>
<stop offset="1" stop-color="#F5F7F7" stop-opacity="0"/>
</linearGradient>
<linearGradient id="paint2_linear" x1="36.0707" y1="-2.49999" x2="-0.565084" y2="-2.34116" gradientUnits="userSpaceOnUse">
<stop stop-color="#2CD2A5"/>
<stop offset="1" stop-color="#F5F7F7" stop-opacity="0"/>
</linearGradient>
<linearGradient id="paint3_linear" x1="36.0707" y1="-2.49999" x2="-0.565084" y2="-2.34116" gradientUnits="userSpaceOnUse">
<stop stop-color="#2CD2A5"/>
<stop offset="1" stop-color="#F5F7F7" stop-opacity="0"/>
</linearGradient>
<linearGradient id="paint4_linear" x1="36.0707" y1="-2.49999" x2="-0.565084" y2="-2.34116" gradientUnits="userSpaceOnUse">
<stop stop-color="#2CD2A5"/>
<stop offset="1" stop-color="#051745" stop-opacity="0"/>
</linearGradient>
<linearGradient id="paint5_linear" x1="86.0147" y1="-2.49999" x2="-1.33981" y2="-1.5969" gradientUnits="userSpaceOnUse">
<stop stop-color="#2CD2A5"/>
<stop offset="1" stop-color="#F5F7F7" stop-opacity="0"/>
</linearGradient>
<linearGradient id="paint6_linear" x1="88.7894" y1="-2.49999" x2="-1.3824" y2="-1.5377" gradientUnits="userSpaceOnUse">
<stop stop-color="#2CD2A5"/>
<stop offset="1" stop-color="#F5F7F7" stop-opacity="0"/>
</linearGradient>
<linearGradient id="paint7_linear" x1="88.7894" y1="-2.49999" x2="-1.3824" y2="-1.5377" gradientUnits="userSpaceOnUse">
<stop stop-color="#2CD2A5"/>
<stop offset="1" stop-color="#F5F7F7" stop-opacity="0"/>
</linearGradient>
<linearGradient id="paint8_linear" x1="88.7894" y1="-2.49999" x2="-1.3824" y2="-1.5377" gradientUnits="userSpaceOnUse">
<stop stop-color="#2CD2A5"/>
<stop offset="1" stop-color="#051745" stop-opacity="0"/>
</linearGradient>
<linearGradient id="paint9_linear" x1="88.7894" y1="-2.49999" x2="-1.3824" y2="-1.5377" gradientUnits="userSpaceOnUse">
<stop stop-color="#2CD2A5"/>
<stop offset="1" stop-color="#051745" stop-opacity="0"/>
</linearGradient>
<linearGradient id="paint10_linear" x1="88.7894" y1="-2.49999" x2="-1.3824" y2="-1.5377" gradientUnits="userSpaceOnUse">
<stop stop-color="#2CD2A5"/>
<stop offset="1" stop-color="#051745" stop-opacity="0"/>
</linearGradient>
<linearGradient id="paint11_linear" x1="288.566" y1="-5.99981" x2="0.110527" y2="1.03343" gradientUnits="userSpaceOnUse">
<stop stop-color="#006AFF"/>
<stop offset="1" stop-color="#061D55"/>
</linearGradient>
<linearGradient id="paint12_linear" x1="238.622" y1="-5.99981" x2="0.0465763" y2="-1.18957" gradientUnits="userSpaceOnUse">
<stop stop-color="#006AFF"/>
<stop offset="1" stop-color="#061D55"/>
</linearGradient>
<linearGradient id="paint13_linear" x1="88.7895" y1="-5.99981" x2="-0.0137588" y2="-5.33358" gradientUnits="userSpaceOnUse">
<stop stop-color="#006AFF"/>
<stop offset="1" stop-color="#061D55"/>
</linearGradient>
<linearGradient id="paint14_linear" x1="48.5568" y1="-5.99981" x2="-0.00944025" y2="-5.80055" gradientUnits="userSpaceOnUse">
<stop stop-color="#006AFF"/>
<stop offset="1" stop-color="#061D55" stop-opacity="0"/>
</linearGradient>
<linearGradient id="paint15_linear" x1="219.199" y1="-5.99981" x2="0.0288769" y2="-1.9405" gradientUnits="userSpaceOnUse">
<stop stop-color="#006AFF"/>
<stop offset="1" stop-color="#061D55"/>
</linearGradient>
<linearGradient id="paint16_linear" x1="88.7895" y1="-5.99981" x2="-0.0137588" y2="-5.33358" gradientUnits="userSpaceOnUse">
<stop stop-color="#006AFF"/>
<stop offset="1" stop-color="#051949" stop-opacity="0"/>
</linearGradient>
<linearGradient id="paint17_linear" x1="301.052" y1="-5.99981" x2="0.131116" y2="1.65484" gradientUnits="userSpaceOnUse">
<stop stop-color="#006AFF"/>
<stop offset="1" stop-color="#061D55"/>
</linearGradient>
<linearGradient id="paint18_linear" x1="88.7895" y1="-5.99981" x2="-0.0137588" y2="-5.33358" gradientUnits="userSpaceOnUse">
<stop stop-color="#006AFF"/>
<stop offset="1" stop-color="#061D55"/>
</linearGradient>
<linearGradient id="paint19_linear" x1="88.7895" y1="-5.99981" x2="-0.0137588" y2="-5.33358" gradientUnits="userSpaceOnUse">
<stop stop-color="#006AFF"/>
<stop offset="1" stop-color="#061D55" stop-opacity="0"/>
</linearGradient>
<linearGradient id="paint20_linear" x1="231.685" y1="-5.99981" x2="0.0398292" y2="-1.46506" gradientUnits="userSpaceOnUse">
<stop stop-color="#006AFF"/>
<stop offset="1" stop-color="#051949" stop-opacity="0"/>
</linearGradient>
<linearGradient id="paint21_linear" x1="88.7895" y1="-5.99981" x2="-0.0137588" y2="-5.33358" gradientUnits="userSpaceOnUse">
<stop stop-color="#006AFF"/>
<stop offset="1" stop-color="#061D55" stop-opacity="0"/>
</linearGradient>
<linearGradient id="paint22_linear" x1="301.052" y1="-5.99981" x2="0.131116" y2="1.65484" gradientUnits="userSpaceOnUse">
<stop stop-color="#006AFF"/>
<stop offset="1" stop-color="#061D55"/>
</linearGradient>
<linearGradient id="paint23_linear" x1="117.924" y1="-5.99981" x2="-0.0132029" y2="-4.82469" gradientUnits="userSpaceOnUse">
<stop stop-color="#006AFF"/>
<stop offset="1" stop-color="#F5F7F7" stop-opacity="0"/>
</linearGradient>
<linearGradient id="paint24_linear" x1="88.7895" y1="-5.99981" x2="-0.0137588" y2="-5.33358" gradientUnits="userSpaceOnUse">
<stop stop-color="#006AFF"/>
<stop offset="1" stop-color="#061D55"/>
</linearGradient>
<linearGradient id="paint25_linear" x1="145.67" y1="-5.99981" x2="-0.00870331" y2="-4.20673" gradientUnits="userSpaceOnUse">
<stop stop-color="#006AFF"/>
<stop offset="1" stop-color="#061D55" stop-opacity="0"/>
</linearGradient>
<linearGradient id="paint26_linear" x1="88.7895" y1="-5.99981" x2="-0.0137588" y2="-5.33358" gradientUnits="userSpaceOnUse">
<stop stop-color="#006AFF"/>
<stop offset="1" stop-color="#051949" stop-opacity="0"/>
</linearGradient>
<linearGradient id="paint27_linear" x1="108.212" y1="-5.99981" x2="-0.0138123" y2="-5.01025" gradientUnits="userSpaceOnUse">
<stop stop-color="#006AFF"/>
<stop offset="1" stop-color="#061D55" stop-opacity="0"/>
</linearGradient>
<linearGradient id="paint28_linear" x1="16.648" y1="-5.99981" x2="-0.003484" y2="-5.97638" gradientUnits="userSpaceOnUse">
<stop stop-color="#006AFF"/>
<stop offset="1" stop-color="#F5F7F7" stop-opacity="0"/>
</linearGradient>
<linearGradient id="paint29_linear" x1="88.7895" y1="-5.99981" x2="-0.0137588" y2="-5.33358" gradientUnits="userSpaceOnUse">
<stop stop-color="#006AFF"/>
<stop offset="1" stop-color="#061D55"/>
</linearGradient>
<linearGradient id="paint30_linear" x1="153.994" y1="-5.99981" x2="-0.00645851" y2="-3.99599" gradientUnits="userSpaceOnUse">
<stop stop-color="#006AFF"/>
<stop offset="1" stop-color="#061D55" stop-opacity="0"/>
</linearGradient>
<linearGradient id="paint31_linear" x1="104.05" y1="-5.99981" x2="-0.0139373" y2="-5.0849" gradientUnits="userSpaceOnUse">
<stop stop-color="#006AFF"/>
<stop offset="1" stop-color="#061D55" stop-opacity="0"/>
</linearGradient>
<linearGradient id="paint32_linear" x1="172.03" y1="-5.99981" x2="5.58759e-06" y2="-3.49924" gradientUnits="userSpaceOnUse">
<stop stop-color="#006AFF"/>
<stop offset="1" stop-color="#061D55"/>
</linearGradient>
<linearGradient id="paint33_linear" x1="151.22" y1="-5.99981" x2="-0.00725633" y2="-4.06753" gradientUnits="userSpaceOnUse">
<stop stop-color="#006AFF"/>
<stop offset="1" stop-color="#F5F7F7" stop-opacity="0"/>
</linearGradient>
<linearGradient id="paint34_linear" x1="88.7895" y1="-5.99981" x2="-0.0137588" y2="-5.33358" gradientUnits="userSpaceOnUse">
<stop stop-color="#006AFF"/>
<stop offset="1" stop-color="#F5F7F7" stop-opacity="0"/>
</linearGradient>
</defs>
</svg>
