<?xml version="1.0" standalone="no"?>
<!DOCTYPE svg PUBLIC "-//W3C//DTD SVG 20010904//EN"
 "http://www.w3.org/TR/2001/REC-SVG-20010904/DTD/svg10.dtd">
<svg version="1.0" xmlns="http://www.w3.org/2000/svg"
 width="1024.000000pt" height="1024.000000pt" viewBox="0 0 1024.000000 1024.000000"
 preserveAspectRatio="xMidYMid meet">
<metadata>
Created by potrace 1.11, written by Peter Selinger 2001-2013
</metadata>
<g transform="translate(0.000000,1024.000000) scale(0.100000,-0.100000)"
fill="#000000" stroke="none">
<path d="M739 10066 c-3 -3 -84 -15 -126 -18 -7 -1 -13 -6 -13 -11 0 -6 -3 -8
-6 -4 -9 9 -97 -48 -131 -86 -33 -36 -69 -97 -65 -109 1 -5 -2 -8 -6 -8 -4 0
-8 -8 -9 -17 0 -10 -4 -36 -7 -58 -4 -23 -8 -2124 -10 -4670 -2 -4582 -2
-4631 17 -4685 11 -30 29 -68 40 -85 47 -71 139 -134 222 -150 22 -5 490 -9
1040 -11 550 -1 2296 -5 3880 -9 1584 -3 3116 -7 3405 -8 475 -1 530 1 580 17
106 33 196 121 231 225 29 83 10 240 -36 299 -68 88 -159 146 -246 157 -82 10
-120 11 -125 3 -3 -5 -10 -6 -15 -2 -14 8 -194 8 -208 0 -6 -4 -11 -4 -11 1 0
4 -708 9 -1573 10 -3825 4 -5217 9 -5217 16 0 5 -6 5 -12 0 -17 -10 -128 -10
-128 0 0 5 -5 5 -12 1 -17 -10 -448 -11 -448 -1 0 5 -5 5 -11 1 -9 -5 -232 -8
-249 -3 -3 1 -9 1 -15 -1 -8 -1 -245 0 -270 2 -5 0 -14 -1 -20 -2 -5 -1 -34
-2 -63 -1 l-53 1 1 4443 c0 2443 -1 4453 -3 4467 -13 73 -54 145 -118 203 -32
29 -63 53 -69 53 -5 1 -12 3 -15 4 -3 1 -8 3 -12 5 -5 1 -15 5 -23 8 -8 4 -27
8 -42 11 -15 3 -32 7 -36 10 -5 3 -11 4 -13 2z"/>
<path d="M8988 9947 c-26 -9 -67 -53 -69 -74 -7 -78 12 -113 73 -137 18 -7 39
-12 46 -10 6 1 16 2 22 3 5 0 25 16 45 35 32 31 34 38 31 82 -3 41 -9 53 -39
79 -36 32 -67 38 -109 22z"/>
<path d="M7848 9476 c-69 -27 -96 -43 -128 -75 -40 -40 -84 -126 -76 -147 3
-8 2 -14 -3 -14 -4 0 -7 -19 -6 -42 9 -171 134 -291 296 -284 215 10 339 237
232 425 -14 23 -33 50 -42 60 -19 19 -74 55 -81 54 -3 -1 -10 3 -17 8 -23 20
-138 30 -175 15z"/>
<path d="M8750 9235 c-40 -13 -80 -65 -80 -104 0 -32 32 -86 60 -101 37 -20
76 -20 108 0 37 23 64 70 58 102 -3 13 -5 28 -5 34 -2 20 -46 64 -69 69 -12 2
-25 6 -30 8 -4 2 -23 -1 -42 -8z"/>
<path d="M6391 8903 c-12 -8 -21 -12 -21 -9 0 14 -42 -38 -62 -75 -51 -99 25
-232 140 -243 37 -3 101 20 130 47 84 78 61 227 -43 279 -38 19 -118 20 -144
1z"/>
<path d="M6604 8374 c-27 -7 -51 -13 -54 -14 -6 0 -58 -43 -88 -72 -28 -28
-64 -93 -55 -102 4 -3 2 -6 -3 -6 -18 0 -19 -132 -2 -163 6 -12 11 -24 11 -27
-3 -33 80 -125 139 -153 62 -29 153 -33 219 -8 131 50 210 200 176 336 -39
152 -195 248 -343 209z"/>
<path d="M8571 8179 c-100 -61 -55 -211 64 -211 60 0 113 71 101 135 -6 31
-51 85 -74 88 -43 6 -67 3 -91 -12z"/>
<path d="M7748 8184 c-3 -3 -12 -7 -20 -8 -67 -12 -148 -81 -180 -154 -31 -69
-30 -181 1 -242 13 -25 29 -48 35 -52 6 -4 7 -8 2 -8 -5 0 9 -14 30 -31 34
-27 53 -38 124 -68 20 -8 97 -6 135 4 70 18 165 88 165 121 0 7 4 14 8 14 16
0 37 85 37 150 -1 109 -61 201 -163 251 -41 20 -161 36 -174 23z"/>
<path d="M5294 7738 c-3 -5 -12 -7 -20 -4 -7 3 -16 1 -19 -4 -4 -6 -13 -10
-21 -10 -18 0 -34 -12 -84 -63 -98 -97 -109 -245 -28 -372 28 -42 98 -89 164
-107 49 -14 160 -8 173 9 3 5 12 9 20 11 37 8 97 66 129 124 18 31 35 100 34
133 -3 82 -41 169 -95 214 -41 36 -110 72 -124 66 -7 -2 -13 -1 -13 3 0 12
-109 11 -116 0z"/>
<path d="M6985 7673 c-85 -26 -175 -96 -217 -169 -33 -58 -58 -134 -45 -134 9
0 9 -2 0 -8 -7 -5 -11 -33 -9 -82 2 -61 8 -88 34 -141 119 -247 437 -304 626
-112 37 37 82 110 78 126 -1 4 3 7 10 7 6 0 9 3 6 6 -4 3 -2 20 4 37 11 35 17
167 8 167 -3 0 -6 9 -7 20 -4 45 -56 136 -106 185 -105 102 -248 139 -382 98z"/>
<path d="M4388 7343 c-16 -2 -28 -8 -28 -13 0 -5 -8 -11 -17 -14 -28 -9 -66
-74 -70 -117 -17 -179 208 -263 308 -115 30 45 38 120 15 163 -15 31 -61 83
-73 84 -5 1 -18 5 -31 10 -23 9 -54 10 -104 2z"/>
<path d="M6100 7198 c-49 -13 -100 -37 -100 -48 0 -6 -5 -10 -11 -10 -14 0
-61 -56 -78 -94 -20 -45 -24 -64 -24 -126 0 -83 10 -113 57 -175 40 -52 58
-65 126 -92 184 -72 382 71 376 272 -1 57 -32 155 -48 155 -5 0 -8 5 -8 10 0
18 -52 60 -107 86 -57 27 -128 36 -183 22z"/>
<path d="M7980 7137 c-16 -15 -31 -35 -31 -43 -1 -7 -2 -24 -3 -36 -7 -81 94
-143 164 -101 48 28 64 75 51 144 -2 12 -37 46 -58 58 -37 19 -89 10 -123 -22z"/>
<path d="M4700 6491 c-42 -10 -100 -35 -100 -43 0 -4 -5 -8 -11 -8 -20 0 -70
-63 -96 -120 -60 -131 -6 -290 124 -367 23 -13 51 -25 62 -26 12 -1 21 -4 21
-7 0 -3 27 -5 61 -3 91 4 167 43 227 117 22 28 51 105 47 126 -2 11 0 20 4 20
19 0 -6 117 -34 166 -29 49 -110 124 -134 124 -10 0 -21 4 -27 10 -12 12 -108
19 -144 11z"/>
<path d="M5607 6465 c-31 -6 -57 -9 -57 -7 0 2 -7 -1 -15 -8 -8 -7 -15 -9 -15
-6 0 4 -10 1 -22 -6 -13 -7 -25 -12 -28 -13 -20 -1 -127 -73 -167 -112 -179
-172 -227 -429 -123 -658 73 -161 248 -297 415 -321 61 -9 159 -10 200 -1 17
3 43 9 59 12 16 3 34 9 40 13 6 3 17 7 24 8 28 5 127 71 177 119 70 66 143
178 137 208 -1 4 3 7 8 7 5 0 9 3 8 8 -1 4 4 30 10 57 48 192 -11 397 -153
540 -63 62 -168 130 -217 139 -7 2 -32 8 -55 15 -60 17 -159 19 -226 6z"/>
<path d="M3349 6407 c-53 -26 -91 -90 -91 -153 0 -87 86 -172 170 -168 80 3
142 51 162 125 39 145 -106 263 -241 196z"/>
<path d="M6607 6416 c-90 -26 -137 -122 -108 -223 10 -33 33 -61 76 -89 33
-21 134 -26 153 -7 8 7 17 11 21 9 9 -6 52 49 67 84 19 45 11 113 -18 157 -42
63 -117 90 -191 69z"/>
<path d="M7146 6323 c-27 -9 -64 -31 -82 -48 -19 -18 -35 -30 -37 -28 -2 2
-15 -18 -28 -44 -13 -27 -26 -50 -29 -53 -8 -8 -11 -31 -12 -95 -2 -106 63
-215 153 -257 89 -43 194 -41 269 5 44 27 112 96 104 108 -3 5 -1 9 4 9 10 0
32 69 35 110 3 52 -16 124 -46 174 -17 28 -35 53 -39 54 -5 2 -14 10 -21 17
-55 54 -185 77 -271 48z"/>
<path d="M3950 6168 c-33 -12 -70 -55 -71 -85 -1 -12 -2 -29 -3 -35 -3 -17 24
-60 49 -78 68 -51 161 -9 171 77 10 82 -70 149 -146 121z"/>
<path d="M8141 5738 c-45 -24 -86 -108 -60 -123 5 -4 9 -13 9 -21 0 -8 11 -27
25 -42 46 -50 151 -28 176 36 15 39 5 97 -23 127 -29 31 -91 42 -127 23z"/>
<path d="M4400 5729 c-106 -31 -180 -92 -227 -187 -24 -50 -28 -68 -28 -147 1
-77 5 -98 28 -147 39 -79 137 -165 212 -185 34 -9 168 -11 184 -3 9 4 36 17
61 28 122 56 191 174 186 314 -4 85 -5 89 -34 148 -18 39 -102 140 -102 124 0
-3 -12 3 -27 13 -16 11 -41 24 -56 31 -40 17 -155 23 -197 11z"/>
<path d="M6787 5623 c-3 -2 -13 -6 -24 -8 -10 -2 -18 -4 -18 -5 0 -1 -7 -3
-15 -5 -74 -14 -206 -122 -241 -196 -43 -89 -50 -114 -54 -189 -8 -178 82
-328 244 -408 72 -36 79 -37 180 -37 90 0 114 4 161 25 125 55 223 165 255
286 15 57 19 188 7 209 -4 6 -8 18 -9 29 -6 38 -68 139 -109 178 -89 85 -170
119 -291 123 -45 2 -84 1 -86 -2z"/>
<path d="M3304 5145 c-27 -12 -72 -55 -58 -55 4 0 2 -6 -3 -12 -22 -29 2 -108
39 -132 40 -25 84 -26 120 -2 43 28 58 62 52 111 -9 72 -86 118 -150 90z"/>
<path d="M5218 5055 c-1 -1 -23 -5 -48 -8 -46 -6 -111 -25 -120 -36 -3 -3 -22
-15 -42 -25 -49 -25 -119 -95 -153 -151 -67 -114 -84 -226 -54 -345 31 -125
91 -209 205 -286 42 -29 151 -67 170 -60 7 3 16 1 18 -3 7 -11 124 -5 159 8
15 6 27 8 27 5 0 -3 28 10 62 28 77 41 198 158 198 191 0 7 4 17 10 23 5 5 19
44 29 86 41 160 -6 328 -123 440 -38 37 -131 100 -143 96 -4 -1 -17 3 -29 9
-11 7 -43 15 -70 18 -27 4 -59 8 -71 10 -12 2 -23 2 -25 0z"/>
<path d="M3790 4773 c-84 -18 -79 -17 -123 -36 -77 -33 -227 -150 -227 -177 0
-4 -4 -10 -8 -12 -18 -7 -61 -78 -87 -143 -53 -133 -63 -269 -30 -395 19 -72
60 -164 87 -194 10 -11 18 -23 18 -27 0 -17 114 -120 170 -154 56 -34 141 -69
200 -83 33 -8 218 -8 250 0 296 70 496 306 505 598 6 199 -78 373 -248 515
-120 100 -336 146 -507 108z"/>
<path d="M1790 4730 c0 -6 -5 -10 -10 -10 -39 0 -71 -91 -51 -144 13 -32 66
-66 104 -66 73 0 128 76 104 146 -6 21 -24 46 -38 56 -28 21 -109 34 -109 18z"/>
<path d="M2618 4626 c-242 -90 -305 -402 -114 -574 173 -156 439 -100 541 113
25 52 29 71 29 148 -1 49 -5 92 -10 95 -5 4 -11 16 -12 27 -4 21 -48 87 -83
124 -12 13 -52 37 -88 54 -86 40 -178 45 -263 13z"/>
<path d="M6170 4317 c-71 -29 -90 -39 -131 -76 -44 -39 -93 -121 -104 -177 -6
-31 -7 -119 -1 -144 20 -89 83 -179 156 -224 76 -47 179 -63 257 -41 23 7 43
11 45 10 9 -10 118 77 150 120 48 63 62 110 62 210 0 74 -3 86 -37 148 -53 96
-94 133 -187 167 -53 20 -170 24 -210 7z"/>
<path d="M1887 3884 c-1 -1 -14 -5 -29 -8 -14 -2 -37 -10 -51 -18 -33 -17 -80
-75 -72 -88 3 -5 2 -10 -3 -10 -16 0 -4 -110 14 -139 39 -59 125 -99 174 -81
3 1 13 3 22 5 26 5 73 41 92 70 20 31 37 123 25 131 -5 3 -9 13 -9 22 0 21
-51 82 -68 82 -7 0 -12 4 -12 8 0 8 -77 32 -83 26z"/>
<path d="M3160 3705 c0 -5 -27 -10 -60 -11 -33 -1 -66 -6 -73 -12 -8 -7 -16
-9 -19 -6 -4 3 -23 -3 -45 -14 -21 -11 -41 -20 -45 -21 -5 -1 -16 -9 -26 -18
-10 -10 -29 -27 -43 -39 -91 -78 -140 -188 -141 -314 -1 -136 37 -233 129
-325 182 -182 479 -167 643 32 22 26 40 53 40 59 0 6 6 17 14 23 7 6 21 45 31
86 38 161 -4 314 -117 426 -40 40 -111 87 -144 95 -16 4 -34 10 -39 15 -6 4
-29 9 -50 11 -22 2 -43 8 -47 13 -5 7 -8 7 -8 0z"/>
<path d="M4757 3659 c-57 -28 -112 -78 -122 -109 -4 -11 -10 -20 -14 -20 -18
0 -38 -180 -22 -205 3 -5 6 -12 6 -15 4 -26 39 -83 68 -111 60 -58 121 -84
202 -83 113 0 206 58 255 159 37 76 35 181 -5 254 -26 46 -101 124 -123 127
-4 0 -15 4 -24 8 -9 4 -25 9 -35 11 -10 2 -20 4 -23 6 -3 1 -29 2 -58 3 -39 1
-67 -6 -105 -25z"/>
<path d="M4009 3065 c-3 -2 -18 -6 -34 -9 -17 -2 -31 -5 -32 -6 -2 -2 -6 -3
-10 -4 -33 -7 -131 -67 -171 -105 -51 -48 -112 -133 -112 -155 0 -6 -5 -17
-12 -24 -7 -7 -8 -12 -4 -12 5 0 4 -6 -2 -13 -12 -14 -25 -102 -23 -162 2 -97
52 -223 115 -288 75 -77 155 -129 216 -143 14 -3 36 -8 50 -11 27 -6 165 -6
190 0 52 13 100 31 100 39 0 4 8 8 18 8 34 1 137 95 184 170 119 191 83 445
-86 597 -86 77 -176 113 -297 119 -47 2 -88 2 -90 -1z"/>
<path d="M6284 3037 c-103 -85 -88 -235 29 -291 41 -19 56 -22 95 -14 50 9
112 45 112 66 0 6 4 12 9 12 5 0 13 15 17 33 18 83 -6 154 -69 199 -24 18 -47
23 -94 24 -55 1 -66 -2 -99 -29z"/>
<path d="M4900 2742 c-16 -14 -27 -28 -24 -33 3 -5 0 -9 -6 -9 -15 0 -10 -79
7 -106 22 -35 75 -58 116 -50 37 7 86 53 88 84 1 9 2 24 3 32 3 26 -22 67 -53
90 -39 27 -93 24 -131 -8z"/>
<path d="M1632 2747 c-35 -13 -78 -58 -94 -97 -25 -64 2 -162 55 -200 134 -94
308 26 266 183 -9 35 -79 119 -96 116 -5 -1 -10 0 -13 1 -22 8 -91 7 -118 -3z"/>
<path d="M2638 2704 c-3 -2 -14 -6 -24 -8 -46 -10 -74 -19 -74 -25 0 -3 -12
-12 -28 -18 -55 -25 -118 -96 -156 -177 -29 -62 -40 -168 -24 -239 31 -138
155 -260 298 -292 121 -27 258 14 351 107 191 192 136 502 -110 621 -53 25
-79 31 -146 34 -45 1 -84 0 -87 -3z"/>
<path d="M3353 2134 c-47 -24 -82 -62 -93 -103 -27 -100 24 -192 119 -216 107
-28 200 38 209 149 4 46 0 62 -22 100 -44 75 -139 106 -213 70z"/>
<path d="M4315 1593 c-32 -7 -72 -72 -69 -112 5 -65 38 -100 100 -108 60 -8
107 32 121 102 5 27 -23 88 -48 103 -22 14 -74 21 -104 15z"/>
<path d="M2278 1341 c-105 -66 -102 -223 5 -286 103 -60 223 -9 253 109 19 76
-31 168 -105 194 -57 20 -103 15 -153 -17z"/>
</g>
</svg>
