<?xml version="1.0" encoding="UTF-8"?>
<svg width="509px" height="456px" viewBox="0 0 509 456" version="1.1" xmlns="http://www.w3.org/2000/svg" xmlns:xlink="http://www.w3.org/1999/xlink">
    <!-- Generator: Sketch 56.2 (81672) - https://sketch.com -->
    <title>Distribution Chart</title>
    <desc>Created with Sketch.</desc>
    <g id="Page-1" stroke="none" stroke-width="1" fill="none" fill-rule="evenodd">
        <g id="methods-graphics-1-v2" transform="translate(-458.000000, -850.000000)">
            <g id="Distribution-Chart" transform="translate(459.000000, 851.000000)">
                <path d="M0.748046875,319.705078 C64.6553321,320.103455 102.488991,317.226502 114.249023,311.074219 C146.707031,294.09375 161.178151,249.662134 176.113281,186.278066 C204.202053,67.0704878 211.161895,53 224.498047,53" id="Shape" stroke="#068451" stroke-width="2"></path>
                <path d="M0.337890625,319.123518 C68.8134515,319.905976 109.390555,316.535925 122.0692,309.013364 C164.340543,283.932709 164.09868,265.949849 186.133691,222.923635 C232.066243,133.234097 240.114046,133.234097 252.337891,133.234097" id="Path-Copy-11" stroke="#0066FF" stroke-width="2"></path>
                <path d="M223.453125,319.556132 C285.192441,320.053806 321.942116,317.226502 333.702148,311.074219 C366.160156,294.09375 380.631276,249.662134 395.566406,186.278066 C423.655178,67.0704878 431.161895,53 444.498047,53" id="Path-Copy-14" stroke="#068451" stroke-width="2" transform="translate(333.975586, 186.306000) scale(-1, 1) translate(-333.975586, -186.306000) "></path>
                <path d="M251.649902,320.059865 C314.233339,322.726298 355.30518,318.491497 374.865423,307.35546 C411.369184,286.573142 418.607297,264.732567 440.593212,221.97081 C486.423422,132.832816 495.715501,133.234065 507.912109,133.234065" id="Path-Copy-12" stroke="#0066FF" stroke-width="2" transform="translate(379.781006, 227.033302) scale(-1, 1) translate(-379.781006, -227.033302) "></path>
                <path d="M279.406087,320.832538 C350.200358,322.227924 387.215983,319.147135 401.423665,314.03125 C430.351315,303.615016 443.368365,273.644617 452.269368,228.435547 C470.627388,135.193359 470.627388,135.193359 482.265462,85.6445312 C493.903536,36.0957031 498.642578,17.8886719 507.912109,17.8886719" id="Shape" stroke="#06234E" stroke-width="2" transform="translate(393.659098, 169.528672) scale(-1, 1) translate(-393.659098, -169.528672) "></path>
                <path d="M107.984,385.642 L107.984,394 L106.122,394 L106.122,385.642 L103.378,385.642 L103.378,384.018 L110.84,384.018 L110.84,385.642 L107.984,385.642 Z M114.22,394 L112.456,394 L112.456,383.22 L114.22,383.22 L114.22,387.35 C114.71,386.37 115.62,385.754 116.894,385.754 C118.84,385.754 119.806,386.986 119.806,388.988 L119.806,394 L117.958,394 L117.958,389.492 C117.958,388.218 117.51,387.35 116.18,387.35 C114.892,387.35 114.22,388.344 114.22,389.786 L114.22,394 Z M121.814,394 L121.814,385.95 L123.298,385.95 L123.536,387.84 C123.858,386.51 124.684,385.88 126.21,385.88 L126.756,385.88 L126.756,387.742 L125.958,387.742 C125.314,387.742 124.838,387.826 124.502,387.994 C123.83,388.316 123.62,389.016 123.62,390.276 L123.62,394 L121.814,394 Z M135.568,391.62 C135.106,393.258 133.804,394.21 131.69,394.21 C128.974,394.21 127.644,392.642 127.644,390.15 L127.644,389.954 C127.644,389.086 127.812,388.372 128.148,387.728 C128.82,386.468 130.052,385.754 131.746,385.754 C133.132,385.754 134.112,386.23 134.756,387 C135.4,387.77 135.68,388.764 135.68,389.8 L135.68,390.654 L129.464,390.654 C129.618,391.97 130.43,392.698 131.76,392.698 C132.74,392.698 133.314,392.32 133.594,391.62 L135.568,391.62 Z M131.76,387.21 C130.486,387.21 129.688,387.938 129.478,389.212 L133.846,389.212 C133.72,387.98 133.048,387.21 131.76,387.21 Z M140.698,394.21 C138.22,394.21 137.016,393.216 136.778,391.34 L138.766,391.34 C138.934,392.292 139.592,392.67 140.74,392.67 C141.916,392.67 142.378,392.278 142.378,391.634 C142.378,391.396 142.28,391.2 142.07,391.074 C141.664,390.836 140.964,390.738 140.194,390.626 C139.466,390.514 138.724,390.388 138.122,390.066 C137.52,389.744 137.142,389.198 137.142,388.302 C137.142,386.818 138.248,385.754 140.46,385.754 C142.77,385.754 143.82,386.748 144.044,388.358 L142.168,388.358 C142.042,387.574 141.51,387.224 140.446,387.224 C139.298,387.224 138.948,387.63 138.948,388.19 C138.948,388.428 139.046,388.624 139.256,388.75 C139.662,388.988 140.376,389.086 141.146,389.198 C141.874,389.31 142.616,389.436 143.218,389.758 C143.82,390.08 144.198,390.626 144.198,391.522 C144.198,393.076 143.078,394.21 140.698,394.21 Z M147.382,394 L145.618,394 L145.618,383.22 L147.382,383.22 L147.382,387.35 C147.872,386.37 148.782,385.754 150.056,385.754 C152.002,385.754 152.968,386.986 152.968,388.988 L152.968,394 L151.12,394 L151.12,389.492 C151.12,388.218 150.672,387.35 149.342,387.35 C148.054,387.35 147.382,388.344 147.382,389.786 L147.382,394 Z M158.672,394.21 C156.068,394.21 154.612,392.768 154.612,390.136 L154.612,389.926 C154.612,389.03 154.794,388.26 155.144,387.644 C155.844,386.412 157.09,385.754 158.672,385.754 C159.484,385.754 160.17,385.908 160.772,386.244 C162.004,386.902 162.732,388.148 162.732,389.926 L162.732,390.136 C162.732,391.018 162.564,391.746 162.228,392.348 C161.528,393.566 160.31,394.21 158.672,394.21 Z M158.672,392.6 C160.058,392.6 160.87,391.704 160.87,390.108 L160.87,389.926 C160.87,388.274 160.016,387.322 158.686,387.322 C157.37,387.322 156.488,388.218 156.488,389.926 L156.488,390.108 C156.488,391.704 157.3,392.6 158.672,392.6 Z M164.46,394 L164.46,383.22 L166.294,383.22 L166.294,394 L164.46,394 Z M174.14,392.32 C173.706,393.412 172.796,394.168 171.354,394.168 C169.296,394.168 167.938,392.726 167.938,390.01 L167.938,389.814 C167.938,388.932 168.092,388.19 168.386,387.588 C168.974,386.384 170.038,385.768 171.41,385.768 C172.74,385.768 173.622,386.342 174.084,387.336 L174.084,383.22 L175.862,383.22 L175.862,394 L174.336,394 L174.14,392.32 Z M171.914,392.586 C173.286,392.586 174.126,391.592 174.126,389.996 L174.126,389.856 C174.126,388.302 173.314,387.294 171.984,387.294 C170.598,387.294 169.828,388.232 169.828,389.842 L169.828,389.996 C169.828,391.718 170.696,392.586 171.914,392.586 Z M182.076,394 L182.076,392.236 L184.12,392.236 L184.12,387.028 L182.594,387.028 L182.594,385.614 C183.812,385.516 184.274,385.068 184.442,384.018 L185.954,384.018 L185.954,392.236 L187.942,392.236 L187.942,394 L182.076,394 Z M194.044,387.868 L194.044,386.314 L200.162,386.314 L200.162,387.868 L194.044,387.868 Z M194.044,391.536 L194.044,389.968 L200.162,389.968 L200.162,391.536 L194.044,391.536 Z M212.844,390.57 L206.74,390.57 L206.74,388.736 L212.844,388.736 L212.844,390.57 Z M218.66,394.21 C215.972,394.21 214.502,392.628 214.502,389.464 L214.502,388.638 C214.502,385.502 216.014,383.836 218.66,383.836 C219.5,383.836 220.214,384.004 220.858,384.382 C222.118,385.11 222.832,386.524 222.832,388.624 L222.832,389.464 C222.832,390.514 222.65,391.382 222.314,392.096 C221.614,393.496 220.354,394.21 218.66,394.21 Z M218.66,392.53 C220.158,392.53 220.886,391.48 220.886,389.38 L220.886,388.708 C220.886,386.65 220.186,385.502 218.66,385.502 C217.106,385.502 216.434,386.65 216.434,388.708 L216.434,389.394 C216.434,391.438 217.106,392.53 218.66,392.53 Z M225.862,394.168 C224.966,394.168 224.63,393.86 224.63,392.936 C224.63,392.012 225.05,391.718 225.862,391.718 C226.688,391.718 227.094,392.012 227.094,392.936 C227.094,393.818 226.688,394.168 225.862,394.168 Z M229.676,394 C230.124,392.446 230.852,390.822 231.664,389.338 C232.476,387.84 233.316,386.58 233.988,385.768 L228.556,385.768 L228.556,384.018 L236.172,384.018 L236.172,385.362 C235.36,386.342 234.492,387.784 233.708,389.394 C232.924,390.99 232.266,392.628 231.93,394 L229.676,394 Z M241.148,394.196 C238.488,394.196 237.242,392.88 237.228,390.78 L237.228,390.752 L239.216,390.752 L239.216,390.822 C239.216,391.816 239.93,392.558 241.246,392.558 C242.52,392.558 243.374,391.858 243.374,390.542 C243.374,389.31 242.646,388.638 241.428,388.638 C240.308,388.638 239.734,389.1 239.342,389.744 L239.272,389.828 L237.326,389.31 L238.026,384.018 L244.9,384.018 C244.9,384.774 244.802,385.18 244.48,385.39 C244.144,385.614 243.556,385.656 242.52,385.656 L239.468,385.656 L239.146,388.022 C239.692,387.476 240.448,387.098 241.68,387.098 C242.436,387.098 243.052,387.252 243.584,387.532 C244.648,388.134 245.25,389.198 245.25,390.612 C245.25,391.34 245.082,391.97 244.746,392.516 C244.088,393.58 242.856,394.196 241.148,394.196 Z" id="Threshold1=-0.75" fill="#0031A3" fill-rule="nonzero"></path>
                <path d="M185.984,445.642 L185.984,454 L184.122,454 L184.122,445.642 L181.378,445.642 L181.378,444.018 L188.84,444.018 L188.84,445.642 L185.984,445.642 Z M192.22,454 L190.456,454 L190.456,443.22 L192.22,443.22 L192.22,447.35 C192.71,446.37 193.62,445.754 194.894,445.754 C196.84,445.754 197.806,446.986 197.806,448.988 L197.806,454 L195.958,454 L195.958,449.492 C195.958,448.218 195.51,447.35 194.18,447.35 C192.892,447.35 192.22,448.344 192.22,449.786 L192.22,454 Z M199.814,454 L199.814,445.95 L201.298,445.95 L201.536,447.84 C201.858,446.51 202.684,445.88 204.21,445.88 L204.756,445.88 L204.756,447.742 L203.958,447.742 C203.314,447.742 202.838,447.826 202.502,447.994 C201.83,448.316 201.62,449.016 201.62,450.276 L201.62,454 L199.814,454 Z M213.568,451.62 C213.106,453.258 211.804,454.21 209.69,454.21 C206.974,454.21 205.644,452.642 205.644,450.15 L205.644,449.954 C205.644,449.086 205.812,448.372 206.148,447.728 C206.82,446.468 208.052,445.754 209.746,445.754 C211.132,445.754 212.112,446.23 212.756,447 C213.4,447.77 213.68,448.764 213.68,449.8 L213.68,450.654 L207.464,450.654 C207.618,451.97 208.43,452.698 209.76,452.698 C210.74,452.698 211.314,452.32 211.594,451.62 L213.568,451.62 Z M209.76,447.21 C208.486,447.21 207.688,447.938 207.478,449.212 L211.846,449.212 C211.72,447.98 211.048,447.21 209.76,447.21 Z M218.698,454.21 C216.22,454.21 215.016,453.216 214.778,451.34 L216.766,451.34 C216.934,452.292 217.592,452.67 218.74,452.67 C219.916,452.67 220.378,452.278 220.378,451.634 C220.378,451.396 220.28,451.2 220.07,451.074 C219.664,450.836 218.964,450.738 218.194,450.626 C217.466,450.514 216.724,450.388 216.122,450.066 C215.52,449.744 215.142,449.198 215.142,448.302 C215.142,446.818 216.248,445.754 218.46,445.754 C220.77,445.754 221.82,446.748 222.044,448.358 L220.168,448.358 C220.042,447.574 219.51,447.224 218.446,447.224 C217.298,447.224 216.948,447.63 216.948,448.19 C216.948,448.428 217.046,448.624 217.256,448.75 C217.662,448.988 218.376,449.086 219.146,449.198 C219.874,449.31 220.616,449.436 221.218,449.758 C221.82,450.08 222.198,450.626 222.198,451.522 C222.198,453.076 221.078,454.21 218.698,454.21 Z M225.382,454 L223.618,454 L223.618,443.22 L225.382,443.22 L225.382,447.35 C225.872,446.37 226.782,445.754 228.056,445.754 C230.002,445.754 230.968,446.986 230.968,448.988 L230.968,454 L229.12,454 L229.12,449.492 C229.12,448.218 228.672,447.35 227.342,447.35 C226.054,447.35 225.382,448.344 225.382,449.786 L225.382,454 Z M236.672,454.21 C234.068,454.21 232.612,452.768 232.612,450.136 L232.612,449.926 C232.612,449.03 232.794,448.26 233.144,447.644 C233.844,446.412 235.09,445.754 236.672,445.754 C237.484,445.754 238.17,445.908 238.772,446.244 C240.004,446.902 240.732,448.148 240.732,449.926 L240.732,450.136 C240.732,451.018 240.564,451.746 240.228,452.348 C239.528,453.566 238.31,454.21 236.672,454.21 Z M236.672,452.6 C238.058,452.6 238.87,451.704 238.87,450.108 L238.87,449.926 C238.87,448.274 238.016,447.322 236.686,447.322 C235.37,447.322 234.488,448.218 234.488,449.926 L234.488,450.108 C234.488,451.704 235.3,452.6 236.672,452.6 Z M242.46,454 L242.46,443.22 L244.294,443.22 L244.294,454 L242.46,454 Z M252.14,452.32 C251.706,453.412 250.796,454.168 249.354,454.168 C247.296,454.168 245.938,452.726 245.938,450.01 L245.938,449.814 C245.938,448.932 246.092,448.19 246.386,447.588 C246.974,446.384 248.038,445.768 249.41,445.768 C250.74,445.768 251.622,446.342 252.084,447.336 L252.084,443.22 L253.862,443.22 L253.862,454 L252.336,454 L252.14,452.32 Z M249.914,452.586 C251.286,452.586 252.126,451.592 252.126,449.996 L252.126,449.856 C252.126,448.302 251.314,447.294 249.984,447.294 C248.598,447.294 247.828,448.232 247.828,449.842 L247.828,449.996 C247.828,451.718 248.696,452.586 249.914,452.586 Z M260.16,454 L260.16,452.656 C260.16,451.662 260.58,450.962 261.252,450.416 C261.91,449.87 262.736,449.478 263.548,449.128 C264.024,448.918 264.43,448.736 264.836,448.526 C265.648,448.134 266.18,447.672 266.18,446.972 C266.18,445.936 265.522,445.432 264.262,445.432 C262.876,445.432 262.148,446.132 262.148,447.392 L262.148,447.714 L260.272,447.714 L260.272,447.308 C260.272,445.04 261.7,443.85 264.29,443.85 C265.116,443.85 265.816,443.976 266.376,444.242 C267.496,444.774 268.084,445.698 268.084,446.874 C268.084,447.868 267.678,448.568 267.034,449.114 C266.376,449.646 265.592,450.038 264.808,450.388 C264.402,450.57 263.996,450.766 263.618,450.934 C262.89,451.312 262.372,451.704 262.302,452.306 L268.07,452.306 L268.07,454 L260.16,454 Z M274.382,447.868 L274.382,446.314 L280.5,446.314 L280.5,447.868 L274.382,447.868 Z M274.382,451.536 L274.382,449.968 L280.5,449.968 L280.5,451.536 L274.382,451.536 Z M291.138,454.21 C288.45,454.21 286.98,452.628 286.98,449.464 L286.98,448.638 C286.98,445.502 288.492,443.836 291.138,443.836 C291.978,443.836 292.692,444.004 293.336,444.382 C294.596,445.11 295.31,446.524 295.31,448.624 L295.31,449.464 C295.31,450.514 295.128,451.382 294.792,452.096 C294.092,453.496 292.832,454.21 291.138,454.21 Z M291.138,452.53 C292.636,452.53 293.364,451.48 293.364,449.38 L293.364,448.708 C293.364,446.65 292.664,445.502 291.138,445.502 C289.584,445.502 288.912,446.65 288.912,448.708 L288.912,449.394 C288.912,451.438 289.584,452.53 291.138,452.53 Z M298.34,454.168 C297.444,454.168 297.108,453.86 297.108,452.936 C297.108,452.012 297.528,451.718 298.34,451.718 C299.166,451.718 299.572,452.012 299.572,452.936 C299.572,453.818 299.166,454.168 298.34,454.168 Z M305.57,454.21 C302.882,454.21 301.412,452.628 301.412,449.464 L301.412,448.638 C301.412,445.502 302.924,443.836 305.57,443.836 C306.41,443.836 307.124,444.004 307.768,444.382 C309.028,445.11 309.742,446.524 309.742,448.624 L309.742,449.464 C309.742,450.514 309.56,451.382 309.224,452.096 C308.524,453.496 307.264,454.21 305.57,454.21 Z M305.57,452.53 C307.068,452.53 307.796,451.48 307.796,449.38 L307.796,448.708 C307.796,446.65 307.096,445.502 305.57,445.502 C304.016,445.502 303.344,446.65 303.344,448.708 L303.344,449.394 C303.344,451.438 304.016,452.53 305.57,452.53 Z M315.166,454.196 C312.506,454.196 311.26,452.88 311.246,450.78 L311.246,450.752 L313.234,450.752 L313.234,450.822 C313.234,451.816 313.948,452.558 315.264,452.558 C316.538,452.558 317.392,451.858 317.392,450.542 C317.392,449.31 316.664,448.638 315.446,448.638 C314.326,448.638 313.752,449.1 313.36,449.744 L313.29,449.828 L311.344,449.31 L312.044,444.018 L318.918,444.018 C318.918,444.774 318.82,445.18 318.498,445.39 C318.162,445.614 317.574,445.656 316.538,445.656 L313.486,445.656 L313.164,448.022 C313.71,447.476 314.466,447.098 315.698,447.098 C316.454,447.098 317.07,447.252 317.602,447.532 C318.666,448.134 319.268,449.198 319.268,450.612 C319.268,451.34 319.1,451.97 318.764,452.516 C318.106,453.58 316.874,454.196 315.166,454.196 Z" id="Threshold2=0.05" fill="#0031A3" fill-rule="nonzero"></path>
                <path d="M301.984,385.642 L301.984,394 L300.122,394 L300.122,385.642 L297.378,385.642 L297.378,384.018 L304.84,384.018 L304.84,385.642 L301.984,385.642 Z M308.22,394 L306.456,394 L306.456,383.22 L308.22,383.22 L308.22,387.35 C308.71,386.37 309.62,385.754 310.894,385.754 C312.84,385.754 313.806,386.986 313.806,388.988 L313.806,394 L311.958,394 L311.958,389.492 C311.958,388.218 311.51,387.35 310.18,387.35 C308.892,387.35 308.22,388.344 308.22,389.786 L308.22,394 Z M315.814,394 L315.814,385.95 L317.298,385.95 L317.536,387.84 C317.858,386.51 318.684,385.88 320.21,385.88 L320.756,385.88 L320.756,387.742 L319.958,387.742 C319.314,387.742 318.838,387.826 318.502,387.994 C317.83,388.316 317.62,389.016 317.62,390.276 L317.62,394 L315.814,394 Z M329.568,391.62 C329.106,393.258 327.804,394.21 325.69,394.21 C322.974,394.21 321.644,392.642 321.644,390.15 L321.644,389.954 C321.644,389.086 321.812,388.372 322.148,387.728 C322.82,386.468 324.052,385.754 325.746,385.754 C327.132,385.754 328.112,386.23 328.756,387 C329.4,387.77 329.68,388.764 329.68,389.8 L329.68,390.654 L323.464,390.654 C323.618,391.97 324.43,392.698 325.76,392.698 C326.74,392.698 327.314,392.32 327.594,391.62 L329.568,391.62 Z M325.76,387.21 C324.486,387.21 323.688,387.938 323.478,389.212 L327.846,389.212 C327.72,387.98 327.048,387.21 325.76,387.21 Z M334.698,394.21 C332.22,394.21 331.016,393.216 330.778,391.34 L332.766,391.34 C332.934,392.292 333.592,392.67 334.74,392.67 C335.916,392.67 336.378,392.278 336.378,391.634 C336.378,391.396 336.28,391.2 336.07,391.074 C335.664,390.836 334.964,390.738 334.194,390.626 C333.466,390.514 332.724,390.388 332.122,390.066 C331.52,389.744 331.142,389.198 331.142,388.302 C331.142,386.818 332.248,385.754 334.46,385.754 C336.77,385.754 337.82,386.748 338.044,388.358 L336.168,388.358 C336.042,387.574 335.51,387.224 334.446,387.224 C333.298,387.224 332.948,387.63 332.948,388.19 C332.948,388.428 333.046,388.624 333.256,388.75 C333.662,388.988 334.376,389.086 335.146,389.198 C335.874,389.31 336.616,389.436 337.218,389.758 C337.82,390.08 338.198,390.626 338.198,391.522 C338.198,393.076 337.078,394.21 334.698,394.21 Z M341.382,394 L339.618,394 L339.618,383.22 L341.382,383.22 L341.382,387.35 C341.872,386.37 342.782,385.754 344.056,385.754 C346.002,385.754 346.968,386.986 346.968,388.988 L346.968,394 L345.12,394 L345.12,389.492 C345.12,388.218 344.672,387.35 343.342,387.35 C342.054,387.35 341.382,388.344 341.382,389.786 L341.382,394 Z M352.672,394.21 C350.068,394.21 348.612,392.768 348.612,390.136 L348.612,389.926 C348.612,389.03 348.794,388.26 349.144,387.644 C349.844,386.412 351.09,385.754 352.672,385.754 C353.484,385.754 354.17,385.908 354.772,386.244 C356.004,386.902 356.732,388.148 356.732,389.926 L356.732,390.136 C356.732,391.018 356.564,391.746 356.228,392.348 C355.528,393.566 354.31,394.21 352.672,394.21 Z M352.672,392.6 C354.058,392.6 354.87,391.704 354.87,390.108 L354.87,389.926 C354.87,388.274 354.016,387.322 352.686,387.322 C351.37,387.322 350.488,388.218 350.488,389.926 L350.488,390.108 C350.488,391.704 351.3,392.6 352.672,392.6 Z M358.46,394 L358.46,383.22 L360.294,383.22 L360.294,394 L358.46,394 Z M368.14,392.32 C367.706,393.412 366.796,394.168 365.354,394.168 C363.296,394.168 361.938,392.726 361.938,390.01 L361.938,389.814 C361.938,388.932 362.092,388.19 362.386,387.588 C362.974,386.384 364.038,385.768 365.41,385.768 C366.74,385.768 367.622,386.342 368.084,387.336 L368.084,383.22 L369.862,383.22 L369.862,394 L368.336,394 L368.14,392.32 Z M365.914,392.586 C367.286,392.586 368.126,391.592 368.126,389.996 L368.126,389.856 C368.126,388.302 367.314,387.294 365.984,387.294 C364.598,387.294 363.828,388.232 363.828,389.842 L363.828,389.996 C363.828,391.718 364.696,392.586 365.914,392.586 Z M380.164,394.196 C377.308,394.196 376.118,393.118 376.118,390.836 L376.118,390.556 L377.994,390.556 L377.994,390.738 C377.994,391.998 378.652,392.544 380.136,392.544 C381.466,392.544 382.292,391.928 382.292,390.976 C382.292,389.968 381.648,389.716 380.43,389.716 L379.254,389.716 L379.254,388.274 L380.43,388.274 C381.634,388.274 382.166,387.812 382.166,386.93 C382.166,386.062 381.522,385.488 380.192,385.488 C378.862,385.488 378.12,386.188 378.12,387.238 L378.12,387.392 L376.272,387.392 L376.272,387.168 C376.272,385.138 377.672,383.85 380.248,383.85 C382.712,383.85 384.084,385.012 384.084,386.72 C384.084,387.812 383.636,388.512 382.74,388.89 C383.692,389.226 384.252,389.954 384.252,391.186 C384.252,391.788 384.098,392.306 383.776,392.754 C383.118,393.678 381.914,394.196 380.164,394.196 Z M390.676,387.868 L390.676,386.314 L396.794,386.314 L396.794,387.868 L390.676,387.868 Z M390.676,391.536 L390.676,389.968 L396.794,389.968 L396.794,391.536 L390.676,391.536 Z M403.022,394 L403.022,392.236 L405.066,392.236 L405.066,387.028 L403.54,387.028 L403.54,385.614 C404.758,385.516 405.22,385.068 405.388,384.018 L406.9,384.018 L406.9,392.236 L408.888,392.236 L408.888,394 L403.022,394 Z M411.554,394.168 C410.658,394.168 410.322,393.86 410.322,392.936 C410.322,392.012 410.742,391.718 411.554,391.718 C412.38,391.718 412.786,392.012 412.786,392.936 C412.786,393.818 412.38,394.168 411.554,394.168 Z M418.784,394.21 C416.096,394.21 414.626,392.628 414.626,389.464 L414.626,388.638 C414.626,385.502 416.138,383.836 418.784,383.836 C419.624,383.836 420.338,384.004 420.982,384.382 C422.242,385.11 422.956,386.524 422.956,388.624 L422.956,389.464 C422.956,390.514 422.774,391.382 422.438,392.096 C421.738,393.496 420.478,394.21 418.784,394.21 Z M418.784,392.53 C420.282,392.53 421.01,391.48 421.01,389.38 L421.01,388.708 C421.01,386.65 420.31,385.502 418.784,385.502 C417.23,385.502 416.558,386.65 416.558,388.708 L416.558,389.394 C416.558,391.438 417.23,392.53 418.784,392.53 Z" id="Threshold3=1.0" fill="#0031A3" fill-rule="nonzero"></path>
                <path d="M0,327.5 L504.337891,327.5" id="Line" stroke="#8E8E8E" stroke-linecap="square"></path>
                <path d="M257.732,343.18 C256.747995,343.18 255.980003,342.792004 255.428,342.016 C254.875997,341.239996 254.6,340.132007 254.6,338.692 C254.6,337.315993 254.887997,336.260004 255.464,335.524 C256.040003,334.787996 256.795995,334.42 257.732,334.42 C258.668005,334.42 259.421997,334.787996 259.994,335.524 C260.566003,336.260004 260.852,337.315993 260.852,338.692 C260.852,340.132007 260.576003,341.239996 260.024,342.016 C259.471997,342.792004 258.708005,343.18 257.732,343.18 Z M256.16,341.332 C256.520002,341.956003 257.043997,342.268 257.732,342.268 C258.420003,342.268 258.943998,341.954003 259.304,341.326 C259.664002,340.697997 259.844,339.816006 259.844,338.68 C259.844,337.607995 259.660002,336.782003 259.292,336.202 C258.923998,335.621997 258.404003,335.332 257.732,335.332 C257.059997,335.332 256.540002,335.619997 256.172,336.196 C255.803998,336.772003 255.62,337.599995 255.62,338.68 C255.62,339.816006 255.799998,340.699997 256.16,341.332 Z" id="0" fill="#8E8E8E" fill-rule="nonzero"></path>
                <path d="M0.748046875,319.705078 C102.633464,319.621745 160.323568,317.693359 173.818359,313.919922 C203.170063,305.712546 215.763059,273.533289 224.664063,228.324219 C243.022082,135.082031 243.022082,135.082031 254.660156,85.5332031 C266.29823,35.984375 270.443359,17.8886719 279.712891,17.8886719" id="Path-Copy-8" stroke="#06234E" stroke-width="2"></path>
                <path d="M174,0.493403694 L174,373.834247" id="Line-8" stroke="#64CFF2" stroke-width="2" stroke-linecap="round" stroke-linejoin="round"></path>
                <path d="M250,0.493166287 L250,432.287221" id="Line-8-Copy" stroke="#64CFF2" stroke-width="2" stroke-linecap="round" stroke-linejoin="round"></path>
                <path d="M355,0.493403694 L355,373.834247" id="Line-8-Copy-2" stroke="#64CFF2" stroke-width="2" stroke-linecap="round" stroke-linejoin="round"></path>
            </g>
        </g>
    </g>
</svg>