<?xml version="1.0" encoding="UTF-8"?>
<svg width="612px" height="218px" viewBox="0 0 612 218" version="1.1" xmlns="http://www.w3.org/2000/svg" xmlns:xlink="http://www.w3.org/1999/xlink">
    <!-- Generator: Sketch 56.2 (81672) - https://sketch.com -->
    <title>Distribution Table</title>
    <desc>Created with Sketch.</desc>
    <g id="Page-1" stroke="none" stroke-width="1" fill="none" fill-rule="evenodd">
        <g id="methods-graphics-1-v2" transform="translate(-409.000000, -612.000000)">
            <g id="Distribution-Table" transform="translate(409.000000, 612.000000)">
                <rect id="Rectangle-Copy-4" stroke="#64CFF2" stroke-width="2" x="1" y="109" width="122" height="54"></rect>
                <rect id="Rectangle-Copy-12" stroke="#64CFF2" stroke-width="2" x="1" y="1" width="122" height="54"></rect>
                <rect id="Rectangle-Copy-5" stroke="#64CFF2" stroke-width="2" x="123" y="109" width="122" height="54"></rect>
                <rect id="Rectangle-Copy-13" stroke="#64CFF2" stroke-width="2" x="123" y="1" width="122" height="54"></rect>
                <rect id="Rectangle-Copy-6" stroke="#64CFF2" stroke-width="2" x="245" y="109" width="122" height="54"></rect>
                <rect id="Rectangle-Copy-14" stroke="#64CFF2" stroke-width="2" x="245" y="1" width="122" height="54"></rect>
                <rect id="Rectangle-Copy-7" stroke="#64CFF2" stroke-width="2" x="367" y="109" width="122" height="54"></rect>
                <rect id="Rectangle-Copy-20" stroke="#64CFF2" stroke-width="2" x="489" y="109" width="122" height="54"></rect>
                <rect id="Rectangle-Copy-15" stroke="#64CFF2" stroke-width="2" x="367" y="1" width="122" height="54"></rect>
                <rect id="Rectangle-Copy-21" stroke="#64CFF2" stroke-width="2" x="489" y="1" width="122" height="54"></rect>
                <rect id="Rectangle-Copy-8" stroke="#64CFF2" stroke-width="2" x="1" y="163" width="122" height="54"></rect>
                <rect id="Rectangle-Copy-16" stroke="#64CFF2" stroke-width="2" x="1" y="55" width="122" height="54"></rect>
                <rect id="Rectangle-Copy-9" stroke="#64CFF2" stroke-width="2" x="123" y="163" width="122" height="54"></rect>
                <rect id="Rectangle-Copy-17" stroke="#64CFF2" stroke-width="2" x="123" y="55" width="122" height="54"></rect>
                <rect id="Rectangle-Copy-10" stroke="#64CFF2" stroke-width="2" x="245" y="163" width="122" height="54"></rect>
                <rect id="Rectangle-Copy-18" stroke="#64CFF2" stroke-width="2" x="245" y="55" width="122" height="54"></rect>
                <rect id="Rectangle-Copy-11" stroke="#64CFF2" stroke-width="2" x="367" y="163" width="122" height="54"></rect>
                <rect id="Rectangle-Copy-22" stroke="#64CFF2" stroke-width="2" x="489" y="163" width="122" height="54"></rect>
                <rect id="Rectangle-Copy-19" stroke="#64CFF2" stroke-width="2" x="367" y="55" width="122" height="54"></rect>
                <rect id="Rectangle-Copy-23" stroke="#64CFF2" stroke-width="2" x="489" y="55" width="122" height="54"></rect>
                <path d="M36.966,23.018 L40.466,23.018 C41.278,23.018 42.006,23.186 42.678,23.508 C44.022,24.18 44.876,25.496 44.876,27.596 L44.876,28.436 C44.876,29.472 44.694,30.312 44.316,30.984 C43.546,32.328 42.202,33 40.536,33 L36.966,33 L36.966,23.018 Z M38.786,24.6 L38.786,31.39 L40.452,31.39 C41.992,31.39 43.028,30.382 43.028,28.268 L43.028,27.736 C43.028,25.622 41.964,24.6 40.382,24.6 L38.786,24.6 Z M47.354,24.082 C46.472,24.082 46.136,23.788 46.136,22.864 C46.136,21.968 46.542,21.66 47.354,21.66 C48.166,21.66 48.572,21.968 48.572,22.864 C48.572,23.732 48.18,24.082 47.354,24.082 Z M46.402,33 L46.402,24.95 L48.264,24.95 L48.264,33 L46.402,33 Z M53.318,33.21 C50.84,33.21 49.636,32.216 49.398,30.34 L51.386,30.34 C51.554,31.292 52.212,31.67 53.36,31.67 C54.536,31.67 54.998,31.278 54.998,30.634 C54.998,30.396 54.9,30.2 54.69,30.074 C54.284,29.836 53.584,29.738 52.814,29.626 C52.086,29.514 51.344,29.388 50.742,29.066 C50.14,28.744 49.762,28.198 49.762,27.302 C49.762,25.818 50.868,24.754 53.08,24.754 C55.39,24.754 56.44,25.748 56.664,27.358 L54.788,27.358 C54.662,26.574 54.13,26.224 53.066,26.224 C51.918,26.224 51.568,26.63 51.568,27.19 C51.568,27.428 51.666,27.624 51.876,27.75 C52.282,27.988 52.996,28.086 53.766,28.198 C54.494,28.31 55.236,28.436 55.838,28.758 C56.44,29.08 56.818,29.626 56.818,30.522 C56.818,32.076 55.698,33.21 53.318,33.21 Z M62.67,33 L61.634,33 C60.878,33 60.29,32.888 59.898,32.706 C59.086,32.3 58.834,31.418 58.834,29.78 L58.834,26.574 L57.266,26.574 L57.266,25.02 L57.98,25.02 C58.246,25.02 58.428,24.992 58.554,24.936 C58.82,24.81 58.904,24.502 58.946,23.844 C58.96,23.494 58.974,23.018 58.974,22.78 L60.542,22.78 L60.542,24.95 L62.67,24.95 L62.67,26.574 L60.542,26.574 L60.542,29.472 C60.542,30.004 60.584,30.396 60.654,30.662 C60.78,31.194 61.2,31.292 62.096,31.292 L62.67,31.292 L62.67,33 Z M63.972,33 L63.972,24.95 L65.456,24.95 L65.694,26.84 C66.016,25.51 66.842,24.88 68.368,24.88 L68.914,24.88 L68.914,26.742 L68.116,26.742 C67.472,26.742 66.996,26.826 66.66,26.994 C65.988,27.316 65.778,28.016 65.778,29.276 L65.778,33 L63.972,33 Z M71.252,24.082 C70.37,24.082 70.034,23.788 70.034,22.864 C70.034,21.968 70.44,21.66 71.252,21.66 C72.064,21.66 72.47,21.968 72.47,22.864 C72.47,23.732 72.078,24.082 71.252,24.082 Z M70.3,33 L70.3,24.95 L72.162,24.95 L72.162,33 L70.3,33 Z M77.594,33.21 C75.018,33.21 73.548,31.768 73.548,29.136 L73.548,28.926 C73.548,28.03 73.73,27.26 74.08,26.644 C74.794,25.412 76.054,24.754 77.608,24.754 C79.834,24.754 81.36,25.804 81.542,28.156 L81.542,28.184 L79.624,28.184 L79.624,28.142 C79.456,26.882 78.742,26.322 77.622,26.322 C76.334,26.322 75.452,27.218 75.452,28.926 L75.452,29.108 C75.452,30.704 76.264,31.6 77.608,31.6 C78.784,31.6 79.456,30.984 79.638,29.752 L79.638,29.738 L81.556,29.738 L81.556,29.78 C81.374,32.16 79.82,33.21 77.594,33.21 Z M87.506,33 L86.47,33 C85.714,33 85.126,32.888 84.734,32.706 C83.922,32.3 83.67,31.418 83.67,29.78 L83.67,26.574 L82.102,26.574 L82.102,25.02 L82.816,25.02 C83.082,25.02 83.264,24.992 83.39,24.936 C83.656,24.81 83.74,24.502 83.782,23.844 C83.796,23.494 83.81,23.018 83.81,22.78 L85.378,22.78 L85.378,24.95 L87.506,24.95 L87.506,26.574 L85.378,26.574 L85.378,29.472 C85.378,30.004 85.42,30.396 85.49,30.662 C85.616,31.194 86.036,31.292 86.932,31.292 L87.506,31.292 L87.506,33 Z" id="District" fill="#0031A3" fill-rule="nonzero"></path>
                <path d="M160.966,33 L160.966,23.018 L162.814,23.018 L162.814,31.278 L167.63,31.278 L167.63,33 L160.966,33 Z M176.38,30.62 C175.918,32.258 174.616,33.21 172.502,33.21 C169.786,33.21 168.456,31.642 168.456,29.15 L168.456,28.954 C168.456,28.086 168.624,27.372 168.96,26.728 C169.632,25.468 170.864,24.754 172.558,24.754 C173.944,24.754 174.924,25.23 175.568,26 C176.212,26.77 176.492,27.764 176.492,28.8 L176.492,29.654 L170.276,29.654 C170.43,30.97 171.242,31.698 172.572,31.698 C173.552,31.698 174.126,31.32 174.406,30.62 L176.38,30.62 Z M172.572,26.21 C171.298,26.21 170.5,26.938 170.29,28.212 L174.658,28.212 C174.532,26.98 173.86,26.21 172.572,26.21 Z M179.894,33 L176.73,24.95 L178.648,24.95 L180.734,30.718 L182.904,24.95 L184.836,24.95 L181.532,33 L179.894,33 Z M192.956,30.62 C192.494,32.258 191.192,33.21 189.078,33.21 C186.362,33.21 185.032,31.642 185.032,29.15 L185.032,28.954 C185.032,28.086 185.2,27.372 185.536,26.728 C186.208,25.468 187.44,24.754 189.134,24.754 C190.52,24.754 191.5,25.23 192.144,26 C192.788,26.77 193.068,27.764 193.068,28.8 L193.068,29.654 L186.852,29.654 C187.006,30.97 187.818,31.698 189.148,31.698 C190.128,31.698 190.702,31.32 190.982,30.62 L192.956,30.62 Z M189.148,26.21 C187.874,26.21 187.076,26.938 186.866,28.212 L191.234,28.212 C191.108,26.98 190.436,26.21 189.148,26.21 Z M194.454,33 L194.454,22.22 L196.288,22.22 L196.288,33 L194.454,33 Z M201.902,33 L201.902,31.236 L203.946,31.236 L203.946,26.028 L202.42,26.028 L202.42,24.614 C203.638,24.516 204.1,24.068 204.268,23.018 L205.78,23.018 L205.78,31.236 L207.768,31.236 L207.768,33 L201.902,33 Z" id="Level1" fill="#0031A3" fill-rule="nonzero"></path>
                <path d="M281.966,33 L281.966,23.018 L283.814,23.018 L283.814,31.278 L288.63,31.278 L288.63,33 L281.966,33 Z M297.38,30.62 C296.918,32.258 295.616,33.21 293.502,33.21 C290.786,33.21 289.456,31.642 289.456,29.15 L289.456,28.954 C289.456,28.086 289.624,27.372 289.96,26.728 C290.632,25.468 291.864,24.754 293.558,24.754 C294.944,24.754 295.924,25.23 296.568,26 C297.212,26.77 297.492,27.764 297.492,28.8 L297.492,29.654 L291.276,29.654 C291.43,30.97 292.242,31.698 293.572,31.698 C294.552,31.698 295.126,31.32 295.406,30.62 L297.38,30.62 Z M293.572,26.21 C292.298,26.21 291.5,26.938 291.29,28.212 L295.658,28.212 C295.532,26.98 294.86,26.21 293.572,26.21 Z M300.894,33 L297.73,24.95 L299.648,24.95 L301.734,30.718 L303.904,24.95 L305.836,24.95 L302.532,33 L300.894,33 Z M313.956,30.62 C313.494,32.258 312.192,33.21 310.078,33.21 C307.362,33.21 306.032,31.642 306.032,29.15 L306.032,28.954 C306.032,28.086 306.2,27.372 306.536,26.728 C307.208,25.468 308.44,24.754 310.134,24.754 C311.52,24.754 312.5,25.23 313.144,26 C313.788,26.77 314.068,27.764 314.068,28.8 L314.068,29.654 L307.852,29.654 C308.006,30.97 308.818,31.698 310.148,31.698 C311.128,31.698 311.702,31.32 311.982,30.62 L313.956,30.62 Z M310.148,26.21 C308.874,26.21 308.076,26.938 307.866,28.212 L312.234,28.212 C312.108,26.98 311.436,26.21 310.148,26.21 Z M315.454,33 L315.454,22.22 L317.288,22.22 L317.288,33 L315.454,33 Z M322.986,33 L322.986,31.656 C322.986,30.662 323.406,29.962 324.078,29.416 C324.736,28.87 325.562,28.478 326.374,28.128 C326.85,27.918 327.256,27.736 327.662,27.526 C328.474,27.134 329.006,26.672 329.006,25.972 C329.006,24.936 328.348,24.432 327.088,24.432 C325.702,24.432 324.974,25.132 324.974,26.392 L324.974,26.714 L323.098,26.714 L323.098,26.308 C323.098,24.04 324.526,22.85 327.116,22.85 C327.942,22.85 328.642,22.976 329.202,23.242 C330.322,23.774 330.91,24.698 330.91,25.874 C330.91,26.868 330.504,27.568 329.86,28.114 C329.202,28.646 328.418,29.038 327.634,29.388 C327.228,29.57 326.822,29.766 326.444,29.934 C325.716,30.312 325.198,30.704 325.128,31.306 L330.896,31.306 L330.896,33 L322.986,33 Z" id="Level2" fill="#0031A3" fill-rule="nonzero"></path>
                <path d="M403.966,33 L403.966,23.018 L405.814,23.018 L405.814,31.278 L410.63,31.278 L410.63,33 L403.966,33 Z M419.38,30.62 C418.918,32.258 417.616,33.21 415.502,33.21 C412.786,33.21 411.456,31.642 411.456,29.15 L411.456,28.954 C411.456,28.086 411.624,27.372 411.96,26.728 C412.632,25.468 413.864,24.754 415.558,24.754 C416.944,24.754 417.924,25.23 418.568,26 C419.212,26.77 419.492,27.764 419.492,28.8 L419.492,29.654 L413.276,29.654 C413.43,30.97 414.242,31.698 415.572,31.698 C416.552,31.698 417.126,31.32 417.406,30.62 L419.38,30.62 Z M415.572,26.21 C414.298,26.21 413.5,26.938 413.29,28.212 L417.658,28.212 C417.532,26.98 416.86,26.21 415.572,26.21 Z M422.894,33 L419.73,24.95 L421.648,24.95 L423.734,30.718 L425.904,24.95 L427.836,24.95 L424.532,33 L422.894,33 Z M435.956,30.62 C435.494,32.258 434.192,33.21 432.078,33.21 C429.362,33.21 428.032,31.642 428.032,29.15 L428.032,28.954 C428.032,28.086 428.2,27.372 428.536,26.728 C429.208,25.468 430.44,24.754 432.134,24.754 C433.52,24.754 434.5,25.23 435.144,26 C435.788,26.77 436.068,27.764 436.068,28.8 L436.068,29.654 L429.852,29.654 C430.006,30.97 430.818,31.698 432.148,31.698 C433.128,31.698 433.702,31.32 433.982,30.62 L435.956,30.62 Z M432.148,26.21 C430.874,26.21 430.076,26.938 429.866,28.212 L434.234,28.212 C434.108,26.98 433.436,26.21 432.148,26.21 Z M437.454,33 L437.454,22.22 L439.288,22.22 L439.288,33 L437.454,33 Z M448.99,33.196 C446.134,33.196 444.944,32.118 444.944,29.836 L444.944,29.556 L446.82,29.556 L446.82,29.738 C446.82,30.998 447.478,31.544 448.962,31.544 C450.292,31.544 451.118,30.928 451.118,29.976 C451.118,28.968 450.474,28.716 449.256,28.716 L448.08,28.716 L448.08,27.274 L449.256,27.274 C450.46,27.274 450.992,26.812 450.992,25.93 C450.992,25.062 450.348,24.488 449.018,24.488 C447.688,24.488 446.946,25.188 446.946,26.238 L446.946,26.392 L445.098,26.392 L445.098,26.168 C445.098,24.138 446.498,22.85 449.074,22.85 C451.538,22.85 452.91,24.012 452.91,25.72 C452.91,26.812 452.462,27.512 451.566,27.89 C452.518,28.226 453.078,28.954 453.078,30.186 C453.078,30.788 452.924,31.306 452.602,31.754 C451.944,32.678 450.74,33.196 448.99,33.196 Z" id="Level3" fill="#0031A3" fill-rule="nonzero"></path>
                <path d="M525.966,33 L525.966,23.018 L527.814,23.018 L527.814,31.278 L532.63,31.278 L532.63,33 L525.966,33 Z M541.38,30.62 C540.918,32.258 539.616,33.21 537.502,33.21 C534.786,33.21 533.456,31.642 533.456,29.15 L533.456,28.954 C533.456,28.086 533.624,27.372 533.96,26.728 C534.632,25.468 535.864,24.754 537.558,24.754 C538.944,24.754 539.924,25.23 540.568,26 C541.212,26.77 541.492,27.764 541.492,28.8 L541.492,29.654 L535.276,29.654 C535.43,30.97 536.242,31.698 537.572,31.698 C538.552,31.698 539.126,31.32 539.406,30.62 L541.38,30.62 Z M537.572,26.21 C536.298,26.21 535.5,26.938 535.29,28.212 L539.658,28.212 C539.532,26.98 538.86,26.21 537.572,26.21 Z M544.894,33 L541.73,24.95 L543.648,24.95 L545.734,30.718 L547.904,24.95 L549.836,24.95 L546.532,33 L544.894,33 Z M557.956,30.62 C557.494,32.258 556.192,33.21 554.078,33.21 C551.362,33.21 550.032,31.642 550.032,29.15 L550.032,28.954 C550.032,28.086 550.2,27.372 550.536,26.728 C551.208,25.468 552.44,24.754 554.134,24.754 C555.52,24.754 556.5,25.23 557.144,26 C557.788,26.77 558.068,27.764 558.068,28.8 L558.068,29.654 L551.852,29.654 C552.006,30.97 552.818,31.698 554.148,31.698 C555.128,31.698 555.702,31.32 555.982,30.62 L557.956,30.62 Z M554.148,26.21 C552.874,26.21 552.076,26.938 551.866,28.212 L556.234,28.212 C556.108,26.98 555.436,26.21 554.148,26.21 Z M559.454,33 L559.454,22.22 L561.288,22.22 L561.288,33 L559.454,33 Z M575.33,30.76 L573.65,30.76 L573.65,33 L571.816,33 L571.816,30.76 L566.72,30.76 L566.72,29.472 L572.04,23.018 L573.65,23.018 L573.65,29.22 L575.33,29.22 L575.33,30.76 Z M571.816,29.22 L571.816,25.594 L568.778,29.22 L571.816,29.22 Z" id="Level4" fill="#0031A3" fill-rule="nonzero"></path>
                <path d="M159.708,84.564 L157.902,84.564 L157.902,87 L156.544,87 L156.544,84.564 L151.252,84.564 L151.252,83.584 L156.698,77.046 L157.902,77.046 L157.902,83.402 L159.708,83.402 L159.708,84.564 Z M156.544,83.402 L156.544,78.978 L152.82,83.402 L156.544,83.402 Z M164.622,87.196 C162.018,87.196 160.828,85.894 160.814,83.906 L160.814,83.864 L162.284,83.864 L162.284,83.934 C162.284,85.11 163.096,85.978 164.692,85.978 C166.176,85.978 167.254,85.166 167.254,83.584 C167.254,82.086 166.316,81.316 164.902,81.316 C163.614,81.316 162.872,81.918 162.424,82.632 L162.354,82.716 L160.94,82.324 L161.64,77.046 L168.248,77.046 C168.248,77.424 168.192,77.69 168.122,77.858 C167.94,78.208 167.478,78.278 166.428,78.278 L162.704,78.278 L162.312,81.274 C162.9,80.63 163.726,80.168 165.07,80.168 C165.798,80.168 166.414,80.308 166.946,80.588 C168.038,81.134 168.64,82.184 168.64,83.626 C168.64,84.382 168.472,85.012 168.15,85.544 C167.478,86.608 166.26,87.196 164.622,87.196 Z M174.828,82.856 C174.828,81.442 175.024,80.322 175.402,79.398 C176.172,77.564 177.53,76.626 179.168,76.458 L179.168,77.732 C178.608,77.802 178.118,78.04 177.67,78.418 C176.788,79.188 176.256,80.616 176.256,82.898 L176.256,83.22 C176.256,84.34 176.396,85.25 176.634,86.006 C177.138,87.49 178.062,88.232 179.168,88.344 L179.168,89.632 C178.328,89.562 177.572,89.296 176.914,88.82 C175.598,87.882 174.828,86.104 174.828,83.304 L174.828,82.856 Z M188.744,87.196 C185.972,87.196 184.782,86.146 184.782,83.878 L184.782,83.612 L186.182,83.612 L186.182,83.808 C186.182,85.306 186.966,85.964 188.73,85.964 C190.312,85.964 191.278,85.222 191.278,84.102 C191.278,82.884 190.536,82.52 189.122,82.52 L187.792,82.52 L187.792,81.428 L189.122,81.428 C190.508,81.428 191.138,80.854 191.138,79.818 C191.138,78.824 190.354,78.11 188.8,78.11 C187.218,78.11 186.336,78.978 186.336,80.196 L186.336,80.35 L184.964,80.35 L184.964,80.154 C184.964,78.18 186.35,76.892 188.842,76.892 C191.25,76.892 192.552,78.04 192.552,79.678 C192.552,80.826 192.076,81.554 191.082,81.89 C192.132,82.212 192.734,82.954 192.734,84.242 C192.734,84.83 192.58,85.334 192.258,85.782 C191.642,86.678 190.438,87.196 188.744,87.196 Z M193.882,87 L193.882,85.684 L195.996,85.684 L195.996,79.748 L194.386,79.748 L194.386,78.684 C195.548,78.628 196.052,78.138 196.234,77.046 L197.354,77.046 L197.354,85.684 L199.468,85.684 L199.468,87 L193.882,87 Z M202.31,80.952 C201.022,80.952 200.266,80.238 200.266,79.006 L200.266,78.922 C200.266,77.606 201.162,76.906 202.324,76.906 C203.542,76.906 204.368,77.648 204.368,78.922 L204.368,79.006 C204.368,80.21 203.584,80.952 202.31,80.952 Z M200.28,87 C200.406,86.832 200.63,86.552 200.952,86.16 C201.596,85.348 202.464,84.228 203.444,82.954 C204.438,81.694 205.418,80.406 206.286,79.3 C207.154,78.194 207.784,77.368 208.022,77.046 L209.548,77.046 C209.422,77.214 209.184,77.494 208.89,77.9 C208.246,78.712 207.392,79.832 206.412,81.106 C205.432,82.366 204.466,83.654 203.598,84.76 C202.758,85.866 202.114,86.678 201.876,87 L200.28,87 Z M202.31,80.042 C202.982,80.042 203.388,79.608 203.388,78.964 L203.388,78.922 C203.388,78.208 202.926,77.816 202.324,77.816 C201.736,77.816 201.26,78.194 201.26,78.922 L201.26,78.964 C201.26,79.636 201.666,80.042 202.31,80.042 Z M207.49,87.168 C206.216,87.168 205.46,86.468 205.46,85.236 L205.46,85.138 C205.46,83.822 206.356,83.136 207.504,83.136 C208.736,83.136 209.548,83.864 209.548,85.138 L209.548,85.236 C209.548,86.44 208.764,87.168 207.49,87.168 Z M207.504,86.272 C208.176,86.272 208.568,85.838 208.568,85.194 L208.568,85.138 C208.568,84.438 208.12,84.032 207.504,84.032 C206.916,84.032 206.44,84.41 206.44,85.138 L206.44,85.194 C206.44,85.852 206.846,86.272 207.504,86.272 Z M210.696,88.344 C211.256,88.288 211.746,88.064 212.18,87.686 C213.062,86.916 213.608,85.474 213.608,83.22 L213.608,82.898 C213.608,81.75 213.496,80.854 213.23,80.098 C212.726,78.628 211.816,77.9 210.696,77.746 L210.696,76.458 C211.522,76.556 212.25,76.822 212.908,77.312 C214.224,78.264 215.036,80.056 215.036,82.856 L215.036,83.304 C215.036,84.69 214.854,85.852 214.476,86.748 C213.748,88.582 212.404,89.506 210.696,89.632 L210.696,88.344 Z" id="45(31%)" fill="#068451" fill-rule="nonzero"></path>
                <path d="M282.75,83.92 C282.75,84.578 282.596,85.138 282.274,85.642 C281.63,86.636 280.468,87.21 278.872,87.21 C276.058,87.21 274.728,85.586 274.728,82.422 L274.728,81.736 C274.728,78.6 276.338,76.878 279.04,76.878 C281.042,76.878 282.414,77.872 282.596,79.706 L281.196,79.706 C281.028,78.656 280.286,78.124 278.998,78.11 C277.122,78.11 276.17,79.454 276.17,81.778 L276.17,82.408 C276.674,81.414 277.766,80.77 279.292,80.77 C279.95,80.77 280.524,80.896 281.056,81.12 C282.106,81.61 282.75,82.534 282.75,83.92 Z M278.858,85.95 C280.342,85.95 281.322,85.152 281.322,83.864 C281.322,83.388 281.21,83.01 281,82.73 C280.566,82.17 279.838,81.932 278.97,81.932 C278.48,81.932 278.046,82.03 277.668,82.198 C276.898,82.548 276.422,83.164 276.31,83.92 C276.632,85.25 277.388,85.95 278.858,85.95 Z M292.256,84.564 L290.45,84.564 L290.45,87 L289.092,87 L289.092,84.564 L283.8,84.564 L283.8,83.584 L289.246,77.046 L290.45,77.046 L290.45,83.402 L292.256,83.402 L292.256,84.564 Z M289.092,83.402 L289.092,78.978 L285.368,83.402 L289.092,83.402 Z M298.094,82.856 C298.094,81.442 298.29,80.322 298.668,79.398 C299.438,77.564 300.796,76.626 302.434,76.458 L302.434,77.732 C301.874,77.802 301.384,78.04 300.936,78.418 C300.054,79.188 299.522,80.616 299.522,82.898 L299.522,83.22 C299.522,84.34 299.662,85.25 299.9,86.006 C300.404,87.49 301.328,88.232 302.434,88.344 L302.434,89.632 C301.594,89.562 300.838,89.296 300.18,88.82 C298.864,87.882 298.094,86.104 298.094,83.304 L298.094,82.856 Z M311.73,84.564 L309.924,84.564 L309.924,87 L308.566,87 L308.566,84.564 L303.274,84.564 L303.274,83.584 L308.72,77.046 L309.924,77.046 L309.924,83.402 L311.73,83.402 L311.73,84.564 Z M308.566,83.402 L308.566,78.978 L304.842,83.402 L308.566,83.402 Z M316.644,87.196 C314.04,87.196 312.85,85.894 312.836,83.906 L312.836,83.864 L314.306,83.864 L314.306,83.934 C314.306,85.11 315.118,85.978 316.714,85.978 C318.198,85.978 319.276,85.166 319.276,83.584 C319.276,82.086 318.338,81.316 316.924,81.316 C315.636,81.316 314.894,81.918 314.446,82.632 L314.376,82.716 L312.962,82.324 L313.662,77.046 L320.27,77.046 C320.27,77.424 320.214,77.69 320.144,77.858 C319.962,78.208 319.5,78.278 318.45,78.278 L314.726,78.278 L314.334,81.274 C314.922,80.63 315.748,80.168 317.092,80.168 C317.82,80.168 318.436,80.308 318.968,80.588 C320.06,81.134 320.662,82.184 320.662,83.626 C320.662,84.382 320.494,85.012 320.172,85.544 C319.5,86.608 318.282,87.196 316.644,87.196 Z M323.91,80.952 C322.622,80.952 321.866,80.238 321.866,79.006 L321.866,78.922 C321.866,77.606 322.762,76.906 323.924,76.906 C325.142,76.906 325.968,77.648 325.968,78.922 L325.968,79.006 C325.968,80.21 325.184,80.952 323.91,80.952 Z M321.88,87 C322.006,86.832 322.23,86.552 322.552,86.16 C323.196,85.348 324.064,84.228 325.044,82.954 C326.038,81.694 327.018,80.406 327.886,79.3 C328.754,78.194 329.384,77.368 329.622,77.046 L331.148,77.046 C331.022,77.214 330.784,77.494 330.49,77.9 C329.846,78.712 328.992,79.832 328.012,81.106 C327.032,82.366 326.066,83.654 325.198,84.76 C324.358,85.866 323.714,86.678 323.476,87 L321.88,87 Z M323.91,80.042 C324.582,80.042 324.988,79.608 324.988,78.964 L324.988,78.922 C324.988,78.208 324.526,77.816 323.924,77.816 C323.336,77.816 322.86,78.194 322.86,78.922 L322.86,78.964 C322.86,79.636 323.266,80.042 323.91,80.042 Z M329.09,87.168 C327.816,87.168 327.06,86.468 327.06,85.236 L327.06,85.138 C327.06,83.822 327.956,83.136 329.104,83.136 C330.336,83.136 331.148,83.864 331.148,85.138 L331.148,85.236 C331.148,86.44 330.364,87.168 329.09,87.168 Z M329.104,86.272 C329.776,86.272 330.168,85.838 330.168,85.194 L330.168,85.138 C330.168,84.438 329.72,84.032 329.104,84.032 C328.516,84.032 328.04,84.41 328.04,85.138 L328.04,85.194 C328.04,85.852 328.446,86.272 329.104,86.272 Z M332.296,88.344 C332.856,88.288 333.346,88.064 333.78,87.686 C334.662,86.916 335.208,85.474 335.208,83.22 L335.208,82.898 C335.208,81.75 335.096,80.854 334.83,80.098 C334.326,78.628 333.416,77.9 332.296,77.746 L332.296,76.458 C333.122,76.556 333.85,76.822 334.508,77.312 C335.824,78.264 336.636,80.056 336.636,82.856 L336.636,83.304 C336.636,84.69 336.454,85.852 336.076,86.748 C335.348,88.582 334.004,89.506 332.296,89.632 L332.296,88.344 Z" id="64(45%)" fill="#068451" fill-rule="nonzero"></path>
                <path d="M401.522,87.196 C398.75,87.196 397.56,86.146 397.56,83.878 L397.56,83.612 L398.96,83.612 L398.96,83.808 C398.96,85.306 399.744,85.964 401.508,85.964 C403.09,85.964 404.056,85.222 404.056,84.102 C404.056,82.884 403.314,82.52 401.9,82.52 L400.57,82.52 L400.57,81.428 L401.9,81.428 C403.286,81.428 403.916,80.854 403.916,79.818 C403.916,78.824 403.132,78.11 401.578,78.11 C399.996,78.11 399.114,78.978 399.114,80.196 L399.114,80.35 L397.742,80.35 L397.742,80.154 C397.742,78.18 399.128,76.892 401.62,76.892 C404.028,76.892 405.33,78.04 405.33,79.678 C405.33,80.826 404.854,81.554 403.86,81.89 C404.91,82.212 405.512,82.954 405.512,84.242 C405.512,84.83 405.358,85.334 405.036,85.782 C404.42,86.678 403.216,87.196 401.522,87.196 Z M415.074,84.564 L413.268,84.564 L413.268,87 L411.91,87 L411.91,84.564 L406.618,84.564 L406.618,83.584 L412.064,77.046 L413.268,77.046 L413.268,83.402 L415.074,83.402 L415.074,84.564 Z M411.91,83.402 L411.91,78.978 L408.186,83.402 L411.91,83.402 Z M420.912,82.856 C420.912,81.442 421.108,80.322 421.486,79.398 C422.256,77.564 423.614,76.626 425.252,76.458 L425.252,77.732 C424.692,77.802 424.202,78.04 423.754,78.418 C422.872,79.188 422.34,80.616 422.34,82.898 L422.34,83.22 C422.34,84.34 422.48,85.25 422.718,86.006 C423.222,87.49 424.146,88.232 425.252,88.344 L425.252,89.632 C424.412,89.562 423.656,89.296 422.998,88.82 C421.682,87.882 420.912,86.104 420.912,83.304 L420.912,82.856 Z M426.428,87 L426.428,86.006 C426.428,84.998 426.862,84.284 427.534,83.724 C428.206,83.164 429.06,82.758 429.9,82.366 C430.39,82.142 430.852,81.904 431.286,81.68 C432.154,81.232 432.742,80.7 432.742,79.888 C432.742,78.726 431.972,78.082 430.474,78.082 C428.864,78.082 427.968,78.908 427.968,80.406 L427.968,80.728 L426.582,80.728 L426.582,80.35 C426.582,78.082 427.996,76.892 430.488,76.892 C432.896,76.892 434.156,78.096 434.156,79.818 C434.156,80.77 433.75,81.442 433.106,81.988 C432.462,82.52 431.664,82.926 430.852,83.304 C430.39,83.528 429.928,83.752 429.522,83.976 C428.682,84.424 428.08,84.956 428.01,85.74 L434.198,85.74 L434.198,87 L426.428,87 Z M443.214,84.564 L441.408,84.564 L441.408,87 L440.05,87 L440.05,84.564 L434.758,84.564 L434.758,83.584 L440.204,77.046 L441.408,77.046 L441.408,83.402 L443.214,83.402 L443.214,84.564 Z M440.05,83.402 L440.05,78.978 L436.326,83.402 L440.05,83.402 Z M446.112,80.952 C444.824,80.952 444.068,80.238 444.068,79.006 L444.068,78.922 C444.068,77.606 444.964,76.906 446.126,76.906 C447.344,76.906 448.17,77.648 448.17,78.922 L448.17,79.006 C448.17,80.21 447.386,80.952 446.112,80.952 Z M444.082,87 C444.208,86.832 444.432,86.552 444.754,86.16 C445.398,85.348 446.266,84.228 447.246,82.954 C448.24,81.694 449.22,80.406 450.088,79.3 C450.956,78.194 451.586,77.368 451.824,77.046 L453.35,77.046 C453.224,77.214 452.986,77.494 452.692,77.9 C452.048,78.712 451.194,79.832 450.214,81.106 C449.234,82.366 448.268,83.654 447.4,84.76 C446.56,85.866 445.916,86.678 445.678,87 L444.082,87 Z M446.112,80.042 C446.784,80.042 447.19,79.608 447.19,78.964 L447.19,78.922 C447.19,78.208 446.728,77.816 446.126,77.816 C445.538,77.816 445.062,78.194 445.062,78.922 L445.062,78.964 C445.062,79.636 445.468,80.042 446.112,80.042 Z M451.292,87.168 C450.018,87.168 449.262,86.468 449.262,85.236 L449.262,85.138 C449.262,83.822 450.158,83.136 451.306,83.136 C452.538,83.136 453.35,83.864 453.35,85.138 L453.35,85.236 C453.35,86.44 452.566,87.168 451.292,87.168 Z M451.306,86.272 C451.978,86.272 452.37,85.838 452.37,85.194 L452.37,85.138 C452.37,84.438 451.922,84.032 451.306,84.032 C450.718,84.032 450.242,84.41 450.242,85.138 L450.242,85.194 C450.242,85.852 450.648,86.272 451.306,86.272 Z M454.498,88.344 C455.058,88.288 455.548,88.064 455.982,87.686 C456.864,86.916 457.41,85.474 457.41,83.22 L457.41,82.898 C457.41,81.75 457.298,80.854 457.032,80.098 C456.528,78.628 455.618,77.9 454.498,77.746 L454.498,76.458 C455.324,76.556 456.052,76.822 456.71,77.312 C458.026,78.264 458.838,80.056 458.838,82.856 L458.838,83.304 C458.838,84.69 458.656,85.852 458.278,86.748 C457.55,88.582 456.206,89.506 454.498,89.632 L454.498,88.344 Z" id="34(24%)" fill="#068451" fill-rule="nonzero"></path>
                <path d="M279.522,141.196 C276.75,141.196 275.56,140.146 275.56,137.878 L275.56,137.612 L276.96,137.612 L276.96,137.808 C276.96,139.306 277.744,139.964 279.508,139.964 C281.09,139.964 282.056,139.222 282.056,138.102 C282.056,136.884 281.314,136.52 279.9,136.52 L278.57,136.52 L278.57,135.428 L279.9,135.428 C281.286,135.428 281.916,134.854 281.916,133.818 C281.916,132.824 281.132,132.11 279.578,132.11 C277.996,132.11 277.114,132.978 277.114,134.196 L277.114,134.35 L275.742,134.35 L275.742,134.154 C275.742,132.18 277.128,130.892 279.62,130.892 C282.028,130.892 283.33,132.04 283.33,133.678 C283.33,134.826 282.854,135.554 281.86,135.89 C282.91,136.212 283.512,136.954 283.512,138.242 C283.512,138.83 283.358,139.334 283.036,139.782 C282.42,140.678 281.216,141.196 279.522,141.196 Z M285.738,141 C286.144,139.39 286.886,137.696 287.754,136.114 C288.594,134.532 289.49,133.216 290.19,132.348 L284.38,132.348 L284.38,131.046 L291.842,131.046 L291.842,132.068 C291.52,132.46 291.198,132.908 290.848,133.44 C290.134,134.504 289.448,135.778 288.804,137.122 C288.16,138.466 287.67,139.796 287.404,141 L285.738,141 Z M297.554,136.856 C297.554,135.442 297.75,134.322 298.128,133.398 C298.898,131.564 300.256,130.626 301.894,130.458 L301.894,131.732 C301.334,131.802 300.844,132.04 300.396,132.418 C299.514,133.188 298.982,134.616 298.982,136.898 L298.982,137.22 C298.982,138.34 299.122,139.25 299.36,140.006 C299.864,141.49 300.788,142.232 301.894,142.344 L301.894,143.632 C301.054,143.562 300.298,143.296 299.64,142.82 C298.324,141.882 297.554,140.104 297.554,137.304 L297.554,136.856 Z M307.004,141.196 C304.232,141.196 303.042,140.146 303.042,137.878 L303.042,137.612 L304.442,137.612 L304.442,137.808 C304.442,139.306 305.226,139.964 306.99,139.964 C308.572,139.964 309.538,139.222 309.538,138.102 C309.538,136.884 308.796,136.52 307.382,136.52 L306.052,136.52 L306.052,135.428 L307.382,135.428 C308.768,135.428 309.398,134.854 309.398,133.818 C309.398,132.824 308.614,132.11 307.06,132.11 C305.478,132.11 304.596,132.978 304.596,134.196 L304.596,134.35 L303.224,134.35 L303.224,134.154 C303.224,132.18 304.61,130.892 307.102,130.892 C309.51,130.892 310.812,132.04 310.812,133.678 C310.812,134.826 310.336,135.554 309.342,135.89 C310.392,136.212 310.994,136.954 310.994,138.242 C310.994,138.83 310.84,139.334 310.518,139.782 C309.902,140.678 308.698,141.196 307.004,141.196 Z M320.556,138.564 L318.75,138.564 L318.75,141 L317.392,141 L317.392,138.564 L312.1,138.564 L312.1,137.584 L317.546,131.046 L318.75,131.046 L318.75,137.402 L320.556,137.402 L320.556,138.564 Z M317.392,137.402 L317.392,132.978 L313.668,137.402 L317.392,137.402 Z M323.454,134.952 C322.166,134.952 321.41,134.238 321.41,133.006 L321.41,132.922 C321.41,131.606 322.306,130.906 323.468,130.906 C324.686,130.906 325.512,131.648 325.512,132.922 L325.512,133.006 C325.512,134.21 324.728,134.952 323.454,134.952 Z M321.424,141 C321.55,140.832 321.774,140.552 322.096,140.16 C322.74,139.348 323.608,138.228 324.588,136.954 C325.582,135.694 326.562,134.406 327.43,133.3 C328.298,132.194 328.928,131.368 329.166,131.046 L330.692,131.046 C330.566,131.214 330.328,131.494 330.034,131.9 C329.39,132.712 328.536,133.832 327.556,135.106 C326.576,136.366 325.61,137.654 324.742,138.76 C323.902,139.866 323.258,140.678 323.02,141 L321.424,141 Z M323.454,134.042 C324.126,134.042 324.532,133.608 324.532,132.964 L324.532,132.922 C324.532,132.208 324.07,131.816 323.468,131.816 C322.88,131.816 322.404,132.194 322.404,132.922 L322.404,132.964 C322.404,133.636 322.81,134.042 323.454,134.042 Z M328.634,141.168 C327.36,141.168 326.604,140.468 326.604,139.236 L326.604,139.138 C326.604,137.822 327.5,137.136 328.648,137.136 C329.88,137.136 330.692,137.864 330.692,139.138 L330.692,139.236 C330.692,140.44 329.908,141.168 328.634,141.168 Z M328.648,140.272 C329.32,140.272 329.712,139.838 329.712,139.194 L329.712,139.138 C329.712,138.438 329.264,138.032 328.648,138.032 C328.06,138.032 327.584,138.41 327.584,139.138 L327.584,139.194 C327.584,139.852 327.99,140.272 328.648,140.272 Z M331.84,142.344 C332.4,142.288 332.89,142.064 333.324,141.686 C334.206,140.916 334.752,139.474 334.752,137.22 L334.752,136.898 C334.752,135.75 334.64,134.854 334.374,134.098 C333.87,132.628 332.96,131.9 331.84,131.746 L331.84,130.458 C332.666,130.556 333.394,130.822 334.052,131.312 C335.368,132.264 336.18,134.056 336.18,136.856 L336.18,137.304 C336.18,138.69 335.998,139.852 335.62,140.748 C334.892,142.582 333.548,143.506 331.84,143.632 L331.84,142.344 Z" id="37(34%)" fill="#0066FF" fill-rule="nonzero"></path>
                <path d="M402.522,141.196 C399.75,141.196 398.56,140.146 398.56,137.878 L398.56,137.612 L399.96,137.612 L399.96,137.808 C399.96,139.306 400.744,139.964 402.508,139.964 C404.09,139.964 405.056,139.222 405.056,138.102 C405.056,136.884 404.314,136.52 402.9,136.52 L401.57,136.52 L401.57,135.428 L402.9,135.428 C404.286,135.428 404.916,134.854 404.916,133.818 C404.916,132.824 404.132,132.11 402.578,132.11 C400.996,132.11 400.114,132.978 400.114,134.196 L400.114,134.35 L398.742,134.35 L398.742,134.154 C398.742,132.18 400.128,130.892 402.62,130.892 C405.028,130.892 406.33,132.04 406.33,133.678 C406.33,134.826 405.854,135.554 404.86,135.89 C405.91,136.212 406.512,136.954 406.512,138.242 C406.512,138.83 406.358,139.334 406.036,139.782 C405.42,140.678 404.216,141.196 402.522,141.196 Z M411.762,141.196 C408.99,141.196 407.8,140.146 407.8,137.878 L407.8,137.612 L409.2,137.612 L409.2,137.808 C409.2,139.306 409.984,139.964 411.748,139.964 C413.33,139.964 414.296,139.222 414.296,138.102 C414.296,136.884 413.554,136.52 412.14,136.52 L410.81,136.52 L410.81,135.428 L412.14,135.428 C413.526,135.428 414.156,134.854 414.156,133.818 C414.156,132.824 413.372,132.11 411.818,132.11 C410.236,132.11 409.354,132.978 409.354,134.196 L409.354,134.35 L407.982,134.35 L407.982,134.154 C407.982,132.18 409.368,130.892 411.86,130.892 C414.268,130.892 415.57,132.04 415.57,133.678 C415.57,134.826 415.094,135.554 414.1,135.89 C415.15,136.212 415.752,136.954 415.752,138.242 C415.752,138.83 415.598,139.334 415.276,139.782 C414.66,140.678 413.456,141.196 411.762,141.196 Z M421.94,136.856 C421.94,135.442 422.136,134.322 422.514,133.398 C423.284,131.564 424.642,130.626 426.28,130.458 L426.28,131.732 C425.72,131.802 425.23,132.04 424.782,132.418 C423.9,133.188 423.368,134.616 423.368,136.898 L423.368,137.22 C423.368,138.34 423.508,139.25 423.746,140.006 C424.25,141.49 425.174,142.232 426.28,142.344 L426.28,143.632 C425.44,143.562 424.684,143.296 424.026,142.82 C422.71,141.882 421.94,140.104 421.94,137.304 L421.94,136.856 Z M431.39,141.196 C428.618,141.196 427.428,140.146 427.428,137.878 L427.428,137.612 L428.828,137.612 L428.828,137.808 C428.828,139.306 429.612,139.964 431.376,139.964 C432.958,139.964 433.924,139.222 433.924,138.102 C433.924,136.884 433.182,136.52 431.768,136.52 L430.438,136.52 L430.438,135.428 L431.768,135.428 C433.154,135.428 433.784,134.854 433.784,133.818 C433.784,132.824 433,132.11 431.446,132.11 C429.864,132.11 428.982,132.978 428.982,134.196 L428.982,134.35 L427.61,134.35 L427.61,134.154 C427.61,132.18 428.996,130.892 431.488,130.892 C433.896,130.892 435.198,132.04 435.198,133.678 C435.198,134.826 434.722,135.554 433.728,135.89 C434.778,136.212 435.38,136.954 435.38,138.242 C435.38,138.83 435.226,139.334 434.904,139.782 C434.288,140.678 433.084,141.196 431.39,141.196 Z M436.528,141 L436.528,139.684 L438.642,139.684 L438.642,133.748 L437.032,133.748 L437.032,132.684 C438.194,132.628 438.698,132.138 438.88,131.046 L440,131.046 L440,139.684 L442.114,139.684 L442.114,141 L436.528,141 Z M444.956,134.952 C443.668,134.952 442.912,134.238 442.912,133.006 L442.912,132.922 C442.912,131.606 443.808,130.906 444.97,130.906 C446.188,130.906 447.014,131.648 447.014,132.922 L447.014,133.006 C447.014,134.21 446.23,134.952 444.956,134.952 Z M442.926,141 C443.052,140.832 443.276,140.552 443.598,140.16 C444.242,139.348 445.11,138.228 446.09,136.954 C447.084,135.694 448.064,134.406 448.932,133.3 C449.8,132.194 450.43,131.368 450.668,131.046 L452.194,131.046 C452.068,131.214 451.83,131.494 451.536,131.9 C450.892,132.712 450.038,133.832 449.058,135.106 C448.078,136.366 447.112,137.654 446.244,138.76 C445.404,139.866 444.76,140.678 444.522,141 L442.926,141 Z M444.956,134.042 C445.628,134.042 446.034,133.608 446.034,132.964 L446.034,132.922 C446.034,132.208 445.572,131.816 444.97,131.816 C444.382,131.816 443.906,132.194 443.906,132.922 L443.906,132.964 C443.906,133.636 444.312,134.042 444.956,134.042 Z M450.136,141.168 C448.862,141.168 448.106,140.468 448.106,139.236 L448.106,139.138 C448.106,137.822 449.002,137.136 450.15,137.136 C451.382,137.136 452.194,137.864 452.194,139.138 L452.194,139.236 C452.194,140.44 451.41,141.168 450.136,141.168 Z M450.15,140.272 C450.822,140.272 451.214,139.838 451.214,139.194 L451.214,139.138 C451.214,138.438 450.766,138.032 450.15,138.032 C449.562,138.032 449.086,138.41 449.086,139.138 L449.086,139.194 C449.086,139.852 449.492,140.272 450.15,140.272 Z M453.342,142.344 C453.902,142.288 454.392,142.064 454.826,141.686 C455.708,140.916 456.254,139.474 456.254,137.22 L456.254,136.898 C456.254,135.75 456.142,134.854 455.876,134.098 C455.372,132.628 454.462,131.9 453.342,131.746 L453.342,130.458 C454.168,130.556 454.896,130.822 455.554,131.312 C456.87,132.264 457.682,134.056 457.682,136.856 L457.682,137.304 C457.682,138.69 457.5,139.852 457.122,140.748 C456.394,142.582 455.05,143.506 453.342,143.632 L453.342,142.344 Z" id="33(31%)" fill="#0066FF" fill-rule="nonzero"></path>
                <path d="M278.522,195.196 C275.75,195.196 274.56,194.146 274.56,191.878 L274.56,191.612 L275.96,191.612 L275.96,191.808 C275.96,193.306 276.744,193.964 278.508,193.964 C280.09,193.964 281.056,193.222 281.056,192.102 C281.056,190.884 280.314,190.52 278.9,190.52 L277.57,190.52 L277.57,189.428 L278.9,189.428 C280.286,189.428 280.916,188.854 280.916,187.818 C280.916,186.824 280.132,186.11 278.578,186.11 C276.996,186.11 276.114,186.978 276.114,188.196 L276.114,188.35 L274.742,188.35 L274.742,188.154 C274.742,186.18 276.128,184.892 278.62,184.892 C281.028,184.892 282.33,186.04 282.33,187.678 C282.33,188.826 281.854,189.554 280.86,189.89 C281.91,190.212 282.512,190.954 282.512,192.242 C282.512,192.83 282.358,193.334 282.036,193.782 C281.42,194.678 280.216,195.196 278.522,195.196 Z M292.074,192.564 L290.268,192.564 L290.268,195 L288.91,195 L288.91,192.564 L283.618,192.564 L283.618,191.584 L289.064,185.046 L290.268,185.046 L290.268,191.402 L292.074,191.402 L292.074,192.564 Z M288.91,191.402 L288.91,186.978 L285.186,191.402 L288.91,191.402 Z M297.912,190.856 C297.912,189.442 298.108,188.322 298.486,187.398 C299.256,185.564 300.614,184.626 302.252,184.458 L302.252,185.732 C301.692,185.802 301.202,186.04 300.754,186.418 C299.872,187.188 299.34,188.616 299.34,190.898 L299.34,191.22 C299.34,192.34 299.48,193.25 299.718,194.006 C300.222,195.49 301.146,196.232 302.252,196.344 L302.252,197.632 C301.412,197.562 300.656,197.296 299.998,196.82 C298.682,195.882 297.912,194.104 297.912,191.304 L297.912,190.856 Z M307.362,195.196 C304.59,195.196 303.4,194.146 303.4,191.878 L303.4,191.612 L304.8,191.612 L304.8,191.808 C304.8,193.306 305.584,193.964 307.348,193.964 C308.93,193.964 309.896,193.222 309.896,192.102 C309.896,190.884 309.154,190.52 307.74,190.52 L306.41,190.52 L306.41,189.428 L307.74,189.428 C309.126,189.428 309.756,188.854 309.756,187.818 C309.756,186.824 308.972,186.11 307.418,186.11 C305.836,186.11 304.954,186.978 304.954,188.196 L304.954,188.35 L303.582,188.35 L303.582,188.154 C303.582,186.18 304.968,184.892 307.46,184.892 C309.868,184.892 311.17,186.04 311.17,187.678 C311.17,188.826 310.694,189.554 309.7,189.89 C310.75,190.212 311.352,190.954 311.352,192.242 C311.352,192.83 311.198,193.334 310.876,193.782 C310.26,194.678 309.056,195.196 307.362,195.196 Z M316.868,195.21 C314.208,195.21 312.78,193.586 312.78,190.422 L312.78,189.736 C312.78,186.6 314.222,184.878 316.868,184.878 C317.708,184.878 318.422,185.06 319.038,185.438 C320.27,186.194 320.97,187.622 320.97,189.722 L320.97,190.422 C320.97,193.586 319.388,195.21 316.868,195.21 Z M316.868,193.95 C318.59,193.95 319.528,192.746 319.528,190.366 L319.528,189.792 C319.528,187.468 318.646,186.124 316.868,186.124 C315.034,186.124 314.208,187.468 314.208,189.792 L314.208,190.38 C314.208,192.704 315.034,193.95 316.868,193.95 Z M324.288,188.952 C323,188.952 322.244,188.238 322.244,187.006 L322.244,186.922 C322.244,185.606 323.14,184.906 324.302,184.906 C325.52,184.906 326.346,185.648 326.346,186.922 L326.346,187.006 C326.346,188.21 325.562,188.952 324.288,188.952 Z M322.258,195 C322.384,194.832 322.608,194.552 322.93,194.16 C323.574,193.348 324.442,192.228 325.422,190.954 C326.416,189.694 327.396,188.406 328.264,187.3 C329.132,186.194 329.762,185.368 330,185.046 L331.526,185.046 C331.4,185.214 331.162,185.494 330.868,185.9 C330.224,186.712 329.37,187.832 328.39,189.106 C327.41,190.366 326.444,191.654 325.576,192.76 C324.736,193.866 324.092,194.678 323.854,195 L322.258,195 Z M324.288,188.042 C324.96,188.042 325.366,187.608 325.366,186.964 L325.366,186.922 C325.366,186.208 324.904,185.816 324.302,185.816 C323.714,185.816 323.238,186.194 323.238,186.922 L323.238,186.964 C323.238,187.636 323.644,188.042 324.288,188.042 Z M329.468,195.168 C328.194,195.168 327.438,194.468 327.438,193.236 L327.438,193.138 C327.438,191.822 328.334,191.136 329.482,191.136 C330.714,191.136 331.526,191.864 331.526,193.138 L331.526,193.236 C331.526,194.44 330.742,195.168 329.468,195.168 Z M329.482,194.272 C330.154,194.272 330.546,193.838 330.546,193.194 L330.546,193.138 C330.546,192.438 330.098,192.032 329.482,192.032 C328.894,192.032 328.418,192.41 328.418,193.138 L328.418,193.194 C328.418,193.852 328.824,194.272 329.482,194.272 Z M332.674,196.344 C333.234,196.288 333.724,196.064 334.158,195.686 C335.04,194.916 335.586,193.474 335.586,191.22 L335.586,190.898 C335.586,189.75 335.474,188.854 335.208,188.098 C334.704,186.628 333.794,185.9 332.674,185.746 L332.674,184.458 C333.5,184.556 334.228,184.822 334.886,185.312 C336.202,186.264 337.014,188.056 337.014,190.856 L337.014,191.304 C337.014,192.69 336.832,193.852 336.454,194.748 C335.726,196.582 334.382,197.506 332.674,197.632 L332.674,196.344 Z" id="34(30%)" fill="#033074" fill-rule="nonzero"></path>
                <path d="M400.592,195.196 C397.988,195.196 396.798,193.894 396.784,191.906 L396.784,191.864 L398.254,191.864 L398.254,191.934 C398.254,193.11 399.066,193.978 400.662,193.978 C402.146,193.978 403.224,193.166 403.224,191.584 C403.224,190.086 402.286,189.316 400.872,189.316 C399.584,189.316 398.842,189.918 398.394,190.632 L398.324,190.716 L396.91,190.324 L397.61,185.046 L404.218,185.046 C404.218,185.424 404.162,185.69 404.092,185.858 C403.91,186.208 403.448,186.278 402.398,186.278 L398.674,186.278 L398.282,189.274 C398.87,188.63 399.696,188.168 401.04,188.168 C401.768,188.168 402.384,188.308 402.916,188.588 C404.008,189.134 404.61,190.184 404.61,191.626 C404.61,192.382 404.442,193.012 404.12,193.544 C403.448,194.608 402.23,195.196 400.592,195.196 Z M414.004,191.92 C414.004,192.578 413.85,193.138 413.528,193.642 C412.884,194.636 411.722,195.21 410.126,195.21 C407.312,195.21 405.982,193.586 405.982,190.422 L405.982,189.736 C405.982,186.6 407.592,184.878 410.294,184.878 C412.296,184.878 413.668,185.872 413.85,187.706 L412.45,187.706 C412.282,186.656 411.54,186.124 410.252,186.11 C408.376,186.11 407.424,187.454 407.424,189.778 L407.424,190.408 C407.928,189.414 409.02,188.77 410.546,188.77 C411.204,188.77 411.778,188.896 412.31,189.12 C413.36,189.61 414.004,190.534 414.004,191.92 Z M410.112,193.95 C411.596,193.95 412.576,193.152 412.576,191.864 C412.576,191.388 412.464,191.01 412.254,190.73 C411.82,190.17 411.092,189.932 410.224,189.932 C409.734,189.932 409.3,190.03 408.922,190.198 C408.152,190.548 407.676,191.164 407.564,191.92 C407.886,193.25 408.642,193.95 410.112,193.95 Z M420.22,190.856 C420.22,189.442 420.416,188.322 420.794,187.398 C421.564,185.564 422.922,184.626 424.56,184.458 L424.56,185.732 C424,185.802 423.51,186.04 423.062,186.418 C422.18,187.188 421.648,188.616 421.648,190.898 L421.648,191.22 C421.648,192.34 421.788,193.25 422.026,194.006 C422.53,195.49 423.454,196.232 424.56,196.344 L424.56,197.632 C423.72,197.562 422.964,197.296 422.306,196.82 C420.99,195.882 420.22,194.104 420.22,191.304 L420.22,190.856 Z M433.856,192.564 L432.05,192.564 L432.05,195 L430.692,195 L430.692,192.564 L425.4,192.564 L425.4,191.584 L430.846,185.046 L432.05,185.046 L432.05,191.402 L433.856,191.402 L433.856,192.564 Z M430.692,191.402 L430.692,186.978 L426.968,191.402 L430.692,191.402 Z M439.022,195.21 C436.362,195.21 434.934,193.586 434.934,190.422 L434.934,189.736 C434.934,186.6 436.376,184.878 439.022,184.878 C439.862,184.878 440.576,185.06 441.192,185.438 C442.424,186.194 443.124,187.622 443.124,189.722 L443.124,190.422 C443.124,193.586 441.542,195.21 439.022,195.21 Z M439.022,193.95 C440.744,193.95 441.682,192.746 441.682,190.366 L441.682,189.792 C441.682,187.468 440.8,186.124 439.022,186.124 C437.188,186.124 436.362,187.468 436.362,189.792 L436.362,190.38 C436.362,192.704 437.188,193.95 439.022,193.95 Z M446.442,188.952 C445.154,188.952 444.398,188.238 444.398,187.006 L444.398,186.922 C444.398,185.606 445.294,184.906 446.456,184.906 C447.674,184.906 448.5,185.648 448.5,186.922 L448.5,187.006 C448.5,188.21 447.716,188.952 446.442,188.952 Z M444.412,195 C444.538,194.832 444.762,194.552 445.084,194.16 C445.728,193.348 446.596,192.228 447.576,190.954 C448.57,189.694 449.55,188.406 450.418,187.3 C451.286,186.194 451.916,185.368 452.154,185.046 L453.68,185.046 C453.554,185.214 453.316,185.494 453.022,185.9 C452.378,186.712 451.524,187.832 450.544,189.106 C449.564,190.366 448.598,191.654 447.73,192.76 C446.89,193.866 446.246,194.678 446.008,195 L444.412,195 Z M446.442,188.042 C447.114,188.042 447.52,187.608 447.52,186.964 L447.52,186.922 C447.52,186.208 447.058,185.816 446.456,185.816 C445.868,185.816 445.392,186.194 445.392,186.922 L445.392,186.964 C445.392,187.636 445.798,188.042 446.442,188.042 Z M451.622,195.168 C450.348,195.168 449.592,194.468 449.592,193.236 L449.592,193.138 C449.592,191.822 450.488,191.136 451.636,191.136 C452.868,191.136 453.68,191.864 453.68,193.138 L453.68,193.236 C453.68,194.44 452.896,195.168 451.622,195.168 Z M451.636,194.272 C452.308,194.272 452.7,193.838 452.7,193.194 L452.7,193.138 C452.7,192.438 452.252,192.032 451.636,192.032 C451.048,192.032 450.572,192.41 450.572,193.138 L450.572,193.194 C450.572,193.852 450.978,194.272 451.636,194.272 Z M454.828,196.344 C455.388,196.288 455.878,196.064 456.312,195.686 C457.194,194.916 457.74,193.474 457.74,191.22 L457.74,190.898 C457.74,189.75 457.628,188.854 457.362,188.098 C456.858,186.628 455.948,185.9 454.828,185.746 L454.828,184.458 C455.654,184.556 456.382,184.822 457.04,185.312 C458.356,186.264 459.168,188.056 459.168,190.856 L459.168,191.304 C459.168,192.69 458.986,193.852 458.608,194.748 C457.88,196.582 456.536,197.506 454.828,197.632 L454.828,196.344 Z" id="56(40%)" fill="#033074" fill-rule="nonzero"></path>
                <path d="M531.858,87.21 C529.198,87.21 527.77,85.586 527.77,82.422 L527.77,81.736 C527.77,78.6 529.212,76.878 531.858,76.878 C532.698,76.878 533.412,77.06 534.028,77.438 C535.26,78.194 535.96,79.622 535.96,81.722 L535.96,82.422 C535.96,85.586 534.378,87.21 531.858,87.21 Z M531.858,85.95 C533.58,85.95 534.518,84.746 534.518,82.366 L534.518,81.792 C534.518,79.468 533.636,78.124 531.858,78.124 C530.024,78.124 529.198,79.468 529.198,81.792 L529.198,82.38 C529.198,84.704 530.024,85.95 531.858,85.95 Z M542.218,82.856 C542.218,81.442 542.414,80.322 542.792,79.398 C543.562,77.564 544.92,76.626 546.558,76.458 L546.558,77.732 C545.998,77.802 545.508,78.04 545.06,78.418 C544.178,79.188 543.646,80.616 543.646,82.898 L543.646,83.22 C543.646,84.34 543.786,85.25 544.024,86.006 C544.528,87.49 545.452,88.232 546.558,88.344 L546.558,89.632 C545.718,89.562 544.962,89.296 544.304,88.82 C542.988,87.882 542.218,86.104 542.218,83.304 L542.218,82.856 Z M552.004,87.21 C549.344,87.21 547.916,85.586 547.916,82.422 L547.916,81.736 C547.916,78.6 549.358,76.878 552.004,76.878 C552.844,76.878 553.558,77.06 554.174,77.438 C555.406,78.194 556.106,79.622 556.106,81.722 L556.106,82.422 C556.106,85.586 554.524,87.21 552.004,87.21 Z M552.004,85.95 C553.726,85.95 554.664,84.746 554.664,82.366 L554.664,81.792 C554.664,79.468 553.782,78.124 552.004,78.124 C550.17,78.124 549.344,79.468 549.344,81.792 L549.344,82.38 C549.344,84.704 550.17,85.95 552.004,85.95 Z M559.424,80.952 C558.136,80.952 557.38,80.238 557.38,79.006 L557.38,78.922 C557.38,77.606 558.276,76.906 559.438,76.906 C560.656,76.906 561.482,77.648 561.482,78.922 L561.482,79.006 C561.482,80.21 560.698,80.952 559.424,80.952 Z M557.394,87 C557.52,86.832 557.744,86.552 558.066,86.16 C558.71,85.348 559.578,84.228 560.558,82.954 C561.552,81.694 562.532,80.406 563.4,79.3 C564.268,78.194 564.898,77.368 565.136,77.046 L566.662,77.046 C566.536,77.214 566.298,77.494 566.004,77.9 C565.36,78.712 564.506,79.832 563.526,81.106 C562.546,82.366 561.58,83.654 560.712,84.76 C559.872,85.866 559.228,86.678 558.99,87 L557.394,87 Z M559.424,80.042 C560.096,80.042 560.502,79.608 560.502,78.964 L560.502,78.922 C560.502,78.208 560.04,77.816 559.438,77.816 C558.85,77.816 558.374,78.194 558.374,78.922 L558.374,78.964 C558.374,79.636 558.78,80.042 559.424,80.042 Z M564.604,87.168 C563.33,87.168 562.574,86.468 562.574,85.236 L562.574,85.138 C562.574,83.822 563.47,83.136 564.618,83.136 C565.85,83.136 566.662,83.864 566.662,85.138 L566.662,85.236 C566.662,86.44 565.878,87.168 564.604,87.168 Z M564.618,86.272 C565.29,86.272 565.682,85.838 565.682,85.194 L565.682,85.138 C565.682,84.438 565.234,84.032 564.618,84.032 C564.03,84.032 563.554,84.41 563.554,85.138 L563.554,85.194 C563.554,85.852 563.96,86.272 564.618,86.272 Z M567.81,88.344 C568.37,88.288 568.86,88.064 569.294,87.686 C570.176,86.916 570.722,85.474 570.722,83.22 L570.722,82.898 C570.722,81.75 570.61,80.854 570.344,80.098 C569.84,78.628 568.93,77.9 567.81,77.746 L567.81,76.458 C568.636,76.556 569.364,76.822 570.022,77.312 C571.338,78.264 572.15,80.056 572.15,82.856 L572.15,83.304 C572.15,84.69 571.968,85.852 571.59,86.748 C570.862,88.582 569.518,89.506 567.81,89.632 L567.81,88.344 Z" id="0(0%)" fill="#068451" fill-rule="nonzero"></path>
                <path d="M522.434,141 L522.434,139.684 L524.548,139.684 L524.548,133.748 L522.938,133.748 L522.938,132.684 C524.1,132.628 524.604,132.138 524.786,131.046 L525.906,131.046 L525.906,139.684 L528.02,139.684 L528.02,141 L522.434,141 Z M529.574,141 C529.98,139.39 530.722,137.696 531.59,136.114 C532.43,134.532 533.326,133.216 534.026,132.348 L528.216,132.348 L528.216,131.046 L535.678,131.046 L535.678,132.068 C535.356,132.46 535.034,132.908 534.684,133.44 C533.97,134.504 533.284,135.778 532.64,137.122 C531.996,138.466 531.506,139.796 531.24,141 L529.574,141 Z M541.39,136.856 C541.39,135.442 541.586,134.322 541.964,133.398 C542.734,131.564 544.092,130.626 545.73,130.458 L545.73,131.732 C545.17,131.802 544.68,132.04 544.232,132.418 C543.35,133.188 542.818,134.616 542.818,136.898 L542.818,137.22 C542.818,138.34 542.958,139.25 543.196,140.006 C543.7,141.49 544.624,142.232 545.73,142.344 L545.73,143.632 C544.89,143.562 544.134,143.296 543.476,142.82 C542.16,141.882 541.39,140.104 541.39,137.304 L541.39,136.856 Z M546.752,141 L546.752,139.684 L548.866,139.684 L548.866,133.748 L547.256,133.748 L547.256,132.684 C548.418,132.628 548.922,132.138 549.104,131.046 L550.224,131.046 L550.224,139.684 L552.338,139.684 L552.338,141 L546.752,141 Z M561.228,137.92 C561.228,138.578 561.074,139.138 560.752,139.642 C560.108,140.636 558.946,141.21 557.35,141.21 C554.536,141.21 553.206,139.586 553.206,136.422 L553.206,135.736 C553.206,132.6 554.816,130.878 557.518,130.878 C559.52,130.878 560.892,131.872 561.074,133.706 L559.674,133.706 C559.506,132.656 558.764,132.124 557.476,132.11 C555.6,132.11 554.648,133.454 554.648,135.778 L554.648,136.408 C555.152,135.414 556.244,134.77 557.77,134.77 C558.428,134.77 559.002,134.896 559.534,135.12 C560.584,135.61 561.228,136.534 561.228,137.92 Z M557.336,139.95 C558.82,139.95 559.8,139.152 559.8,137.864 C559.8,137.388 559.688,137.01 559.478,136.73 C559.044,136.17 558.316,135.932 557.448,135.932 C556.958,135.932 556.524,136.03 556.146,136.198 C555.376,136.548 554.9,137.164 554.788,137.92 C555.11,139.25 555.866,139.95 557.336,139.95 Z M564.504,134.952 C563.216,134.952 562.46,134.238 562.46,133.006 L562.46,132.922 C562.46,131.606 563.356,130.906 564.518,130.906 C565.736,130.906 566.562,131.648 566.562,132.922 L566.562,133.006 C566.562,134.21 565.778,134.952 564.504,134.952 Z M562.474,141 C562.6,140.832 562.824,140.552 563.146,140.16 C563.79,139.348 564.658,138.228 565.638,136.954 C566.632,135.694 567.612,134.406 568.48,133.3 C569.348,132.194 569.978,131.368 570.216,131.046 L571.742,131.046 C571.616,131.214 571.378,131.494 571.084,131.9 C570.44,132.712 569.586,133.832 568.606,135.106 C567.626,136.366 566.66,137.654 565.792,138.76 C564.952,139.866 564.308,140.678 564.07,141 L562.474,141 Z M564.504,134.042 C565.176,134.042 565.582,133.608 565.582,132.964 L565.582,132.922 C565.582,132.208 565.12,131.816 564.518,131.816 C563.93,131.816 563.454,132.194 563.454,132.922 L563.454,132.964 C563.454,133.636 563.86,134.042 564.504,134.042 Z M569.684,141.168 C568.41,141.168 567.654,140.468 567.654,139.236 L567.654,139.138 C567.654,137.822 568.55,137.136 569.698,137.136 C570.93,137.136 571.742,137.864 571.742,139.138 L571.742,139.236 C571.742,140.44 570.958,141.168 569.684,141.168 Z M569.698,140.272 C570.37,140.272 570.762,139.838 570.762,139.194 L570.762,139.138 C570.762,138.438 570.314,138.032 569.698,138.032 C569.11,138.032 568.634,138.41 568.634,139.138 L568.634,139.194 C568.634,139.852 569.04,140.272 569.698,140.272 Z M572.89,142.344 C573.45,142.288 573.94,142.064 574.374,141.686 C575.256,140.916 575.802,139.474 575.802,137.22 L575.802,136.898 C575.802,135.75 575.69,134.854 575.424,134.098 C574.92,132.628 574.01,131.9 572.89,131.746 L572.89,130.458 C573.716,130.556 574.444,130.822 575.102,131.312 C576.418,132.264 577.23,134.056 577.23,136.856 L577.23,137.304 C577.23,138.69 577.048,139.852 576.67,140.748 C575.942,142.582 574.598,143.506 572.89,143.632 L572.89,142.344 Z" id="17(16%)" fill="#0066FF" fill-rule="nonzero"></path>
                <path d="M518.588,195 L518.588,194.006 C518.588,192.998 519.022,192.284 519.694,191.724 C520.366,191.164 521.22,190.758 522.06,190.366 C522.55,190.142 523.012,189.904 523.446,189.68 C524.314,189.232 524.902,188.7 524.902,187.888 C524.902,186.726 524.132,186.082 522.634,186.082 C521.024,186.082 520.128,186.908 520.128,188.406 L520.128,188.728 L518.742,188.728 L518.742,188.35 C518.742,186.082 520.156,184.892 522.648,184.892 C525.056,184.892 526.316,186.096 526.316,187.818 C526.316,188.77 525.91,189.442 525.266,189.988 C524.622,190.52 523.824,190.926 523.012,191.304 C522.55,191.528 522.088,191.752 521.682,191.976 C520.842,192.424 520.24,192.956 520.17,193.74 L526.358,193.74 L526.358,195 L518.588,195 Z M531.496,195.196 C528.724,195.196 527.534,194.146 527.534,191.878 L527.534,191.612 L528.934,191.612 L528.934,191.808 C528.934,193.306 529.718,193.964 531.482,193.964 C533.064,193.964 534.03,193.222 534.03,192.102 C534.03,190.884 533.288,190.52 531.874,190.52 L530.544,190.52 L530.544,189.428 L531.874,189.428 C533.26,189.428 533.89,188.854 533.89,187.818 C533.89,186.824 533.106,186.11 531.552,186.11 C529.97,186.11 529.088,186.978 529.088,188.196 L529.088,188.35 L527.716,188.35 L527.716,188.154 C527.716,186.18 529.102,184.892 531.594,184.892 C534.002,184.892 535.304,186.04 535.304,187.678 C535.304,188.826 534.828,189.554 533.834,189.89 C534.884,190.212 535.486,190.954 535.486,192.242 C535.486,192.83 535.332,193.334 535.01,193.782 C534.394,194.678 533.19,195.196 531.496,195.196 Z M541.674,190.856 C541.674,189.442 541.87,188.322 542.248,187.398 C543.018,185.564 544.376,184.626 546.014,184.458 L546.014,185.732 C545.454,185.802 544.964,186.04 544.516,186.418 C543.634,187.188 543.102,188.616 543.102,190.898 L543.102,191.22 C543.102,192.34 543.242,193.25 543.48,194.006 C543.984,195.49 544.908,196.232 546.014,196.344 L546.014,197.632 C545.174,197.562 544.418,197.296 543.76,196.82 C542.444,195.882 541.674,194.104 541.674,191.304 L541.674,190.856 Z M547.19,195 L547.19,194.006 C547.19,192.998 547.624,192.284 548.296,191.724 C548.968,191.164 549.822,190.758 550.662,190.366 C551.152,190.142 551.614,189.904 552.048,189.68 C552.916,189.232 553.504,188.7 553.504,187.888 C553.504,186.726 552.734,186.082 551.236,186.082 C549.626,186.082 548.73,186.908 548.73,188.406 L548.73,188.728 L547.344,188.728 L547.344,188.35 C547.344,186.082 548.758,184.892 551.25,184.892 C553.658,184.892 554.918,186.096 554.918,187.818 C554.918,188.77 554.512,189.442 553.868,189.988 C553.224,190.52 552.426,190.926 551.614,191.304 C551.152,191.528 550.69,191.752 550.284,191.976 C549.444,192.424 548.842,192.956 548.772,193.74 L554.96,193.74 L554.96,195 L547.19,195 Z M560.378,195.21 C557.718,195.21 556.29,193.586 556.29,190.422 L556.29,189.736 C556.29,186.6 557.732,184.878 560.378,184.878 C561.218,184.878 561.932,185.06 562.548,185.438 C563.78,186.194 564.48,187.622 564.48,189.722 L564.48,190.422 C564.48,193.586 562.898,195.21 560.378,195.21 Z M560.378,193.95 C562.1,193.95 563.038,192.746 563.038,190.366 L563.038,189.792 C563.038,187.468 562.156,186.124 560.378,186.124 C558.544,186.124 557.718,187.468 557.718,189.792 L557.718,190.38 C557.718,192.704 558.544,193.95 560.378,193.95 Z M567.798,188.952 C566.51,188.952 565.754,188.238 565.754,187.006 L565.754,186.922 C565.754,185.606 566.65,184.906 567.812,184.906 C569.03,184.906 569.856,185.648 569.856,186.922 L569.856,187.006 C569.856,188.21 569.072,188.952 567.798,188.952 Z M565.768,195 C565.894,194.832 566.118,194.552 566.44,194.16 C567.084,193.348 567.952,192.228 568.932,190.954 C569.926,189.694 570.906,188.406 571.774,187.3 C572.642,186.194 573.272,185.368 573.51,185.046 L575.036,185.046 C574.91,185.214 574.672,185.494 574.378,185.9 C573.734,186.712 572.88,187.832 571.9,189.106 C570.92,190.366 569.954,191.654 569.086,192.76 C568.246,193.866 567.602,194.678 567.364,195 L565.768,195 Z M567.798,188.042 C568.47,188.042 568.876,187.608 568.876,186.964 L568.876,186.922 C568.876,186.208 568.414,185.816 567.812,185.816 C567.224,185.816 566.748,186.194 566.748,186.922 L566.748,186.964 C566.748,187.636 567.154,188.042 567.798,188.042 Z M572.978,195.168 C571.704,195.168 570.948,194.468 570.948,193.236 L570.948,193.138 C570.948,191.822 571.844,191.136 572.992,191.136 C574.224,191.136 575.036,191.864 575.036,193.138 L575.036,193.236 C575.036,194.44 574.252,195.168 572.978,195.168 Z M572.992,194.272 C573.664,194.272 574.056,193.838 574.056,193.194 L574.056,193.138 C574.056,192.438 573.608,192.032 572.992,192.032 C572.404,192.032 571.928,192.41 571.928,193.138 L571.928,193.194 C571.928,193.852 572.334,194.272 572.992,194.272 Z M576.184,196.344 C576.744,196.288 577.234,196.064 577.668,195.686 C578.55,194.916 579.096,193.474 579.096,191.22 L579.096,190.898 C579.096,189.75 578.984,188.854 578.718,188.098 C578.214,186.628 577.304,185.9 576.184,185.746 L576.184,184.458 C577.01,184.556 577.738,184.822 578.396,185.312 C579.712,186.264 580.524,188.056 580.524,190.856 L580.524,191.304 C580.524,192.69 580.342,193.852 579.964,194.748 C579.236,196.582 577.892,197.506 576.184,197.632 L576.184,196.344 Z" id="23(20%)" fill="#033074" fill-rule="nonzero"></path>
                <path d="M155.588,141 L155.588,140.006 C155.588,138.998 156.022,138.284 156.694,137.724 C157.366,137.164 158.22,136.758 159.06,136.366 C159.55,136.142 160.012,135.904 160.446,135.68 C161.314,135.232 161.902,134.7 161.902,133.888 C161.902,132.726 161.132,132.082 159.634,132.082 C158.024,132.082 157.128,132.908 157.128,134.406 L157.128,134.728 L155.742,134.728 L155.742,134.35 C155.742,132.082 157.156,130.892 159.648,130.892 C162.056,130.892 163.316,132.096 163.316,133.818 C163.316,134.77 162.91,135.442 162.266,135.988 C161.622,136.52 160.824,136.926 160.012,137.304 C159.55,137.528 159.088,137.752 158.682,137.976 C157.842,138.424 157.24,138.956 157.17,139.74 L163.358,139.74 L163.358,141 L155.588,141 Z M164.604,141 L164.604,139.684 L166.718,139.684 L166.718,133.748 L165.108,133.748 L165.108,132.684 C166.27,132.628 166.774,132.138 166.956,131.046 L168.076,131.046 L168.076,139.684 L170.19,139.684 L170.19,141 L164.604,141 Z M175.972,136.856 C175.972,135.442 176.168,134.322 176.546,133.398 C177.316,131.564 178.674,130.626 180.312,130.458 L180.312,131.732 C179.752,131.802 179.262,132.04 178.814,132.418 C177.932,133.188 177.4,134.616 177.4,136.898 L177.4,137.22 C177.4,138.34 177.54,139.25 177.778,140.006 C178.282,141.49 179.206,142.232 180.312,142.344 L180.312,143.632 C179.472,143.562 178.716,143.296 178.058,142.82 C176.742,141.882 175.972,140.104 175.972,137.304 L175.972,136.856 Z M181.334,141 L181.334,139.684 L183.448,139.684 L183.448,133.748 L181.838,133.748 L181.838,132.684 C183,132.628 183.504,132.138 183.686,131.046 L184.806,131.046 L184.806,139.684 L186.92,139.684 L186.92,141 L181.334,141 Z M191.596,141.21 C189.398,141.21 188.082,140.258 187.872,138.256 L189.3,138.256 C189.454,139.404 190.336,139.964 191.596,139.978 C193.486,139.978 194.354,138.662 194.354,136.324 L194.354,135.862 C193.822,136.8 192.758,137.374 191.274,137.374 C190.602,137.374 190,137.276 189.468,137.052 C188.404,136.618 187.732,135.722 187.732,134.28 C187.732,133.608 187.886,133.048 188.222,132.516 C188.866,131.48 190.056,130.878 191.596,130.878 C192.59,130.878 193.374,131.088 193.976,131.48 C195.194,132.306 195.726,133.776 195.726,135.666 L195.726,136.352 C195.726,139.46 194.368,141.21 191.596,141.21 Z M191.54,136.268 C191.988,136.268 192.394,136.198 192.772,136.044 C193.542,135.75 194.102,135.19 194.284,134.532 C194.046,132.978 193.234,132.11 191.624,132.11 C190.14,132.11 189.174,132.922 189.174,134.294 C189.174,135.666 190.168,136.268 191.54,136.268 Z M199.002,134.952 C197.714,134.952 196.958,134.238 196.958,133.006 L196.958,132.922 C196.958,131.606 197.854,130.906 199.016,130.906 C200.234,130.906 201.06,131.648 201.06,132.922 L201.06,133.006 C201.06,134.21 200.276,134.952 199.002,134.952 Z M196.972,141 C197.098,140.832 197.322,140.552 197.644,140.16 C198.288,139.348 199.156,138.228 200.136,136.954 C201.13,135.694 202.11,134.406 202.978,133.3 C203.846,132.194 204.476,131.368 204.714,131.046 L206.24,131.046 C206.114,131.214 205.876,131.494 205.582,131.9 C204.938,132.712 204.084,133.832 203.104,135.106 C202.124,136.366 201.158,137.654 200.29,138.76 C199.45,139.866 198.806,140.678 198.568,141 L196.972,141 Z M199.002,134.042 C199.674,134.042 200.08,133.608 200.08,132.964 L200.08,132.922 C200.08,132.208 199.618,131.816 199.016,131.816 C198.428,131.816 197.952,132.194 197.952,132.922 L197.952,132.964 C197.952,133.636 198.358,134.042 199.002,134.042 Z M204.182,141.168 C202.908,141.168 202.152,140.468 202.152,139.236 L202.152,139.138 C202.152,137.822 203.048,137.136 204.196,137.136 C205.428,137.136 206.24,137.864 206.24,139.138 L206.24,139.236 C206.24,140.44 205.456,141.168 204.182,141.168 Z M204.196,140.272 C204.868,140.272 205.26,139.838 205.26,139.194 L205.26,139.138 C205.26,138.438 204.812,138.032 204.196,138.032 C203.608,138.032 203.132,138.41 203.132,139.138 L203.132,139.194 C203.132,139.852 203.538,140.272 204.196,140.272 Z M207.388,142.344 C207.948,142.288 208.438,142.064 208.872,141.686 C209.754,140.916 210.3,139.474 210.3,137.22 L210.3,136.898 C210.3,135.75 210.188,134.854 209.922,134.098 C209.418,132.628 208.508,131.9 207.388,131.746 L207.388,130.458 C208.214,130.556 208.942,130.822 209.6,131.312 C210.916,132.264 211.728,134.056 211.728,136.856 L211.728,137.304 C211.728,138.69 211.546,139.852 211.168,140.748 C210.44,142.582 209.096,143.506 207.388,143.632 L207.388,142.344 Z" id="21(19%)" fill="#0066FF" fill-rule="nonzero"></path>
                <path d="M165.858,195.21 C163.198,195.21 161.77,193.586 161.77,190.422 L161.77,189.736 C161.77,186.6 163.212,184.878 165.858,184.878 C166.698,184.878 167.412,185.06 168.028,185.438 C169.26,186.194 169.96,187.622 169.96,189.722 L169.96,190.422 C169.96,193.586 168.378,195.21 165.858,195.21 Z M165.858,193.95 C167.58,193.95 168.518,192.746 168.518,190.366 L168.518,189.792 C168.518,187.468 167.636,186.124 165.858,186.124 C164.024,186.124 163.198,187.468 163.198,189.792 L163.198,190.38 C163.198,192.704 164.024,193.95 165.858,193.95 Z M176.218,190.856 C176.218,189.442 176.414,188.322 176.792,187.398 C177.562,185.564 178.92,184.626 180.558,184.458 L180.558,185.732 C179.998,185.802 179.508,186.04 179.06,186.418 C178.178,187.188 177.646,188.616 177.646,190.898 L177.646,191.22 C177.646,192.34 177.786,193.25 178.024,194.006 C178.528,195.49 179.452,196.232 180.558,196.344 L180.558,197.632 C179.718,197.562 178.962,197.296 178.304,196.82 C176.988,195.882 176.218,194.104 176.218,191.304 L176.218,190.856 Z M186.004,195.21 C183.344,195.21 181.916,193.586 181.916,190.422 L181.916,189.736 C181.916,186.6 183.358,184.878 186.004,184.878 C186.844,184.878 187.558,185.06 188.174,185.438 C189.406,186.194 190.106,187.622 190.106,189.722 L190.106,190.422 C190.106,193.586 188.524,195.21 186.004,195.21 Z M186.004,193.95 C187.726,193.95 188.664,192.746 188.664,190.366 L188.664,189.792 C188.664,187.468 187.782,186.124 186.004,186.124 C184.17,186.124 183.344,187.468 183.344,189.792 L183.344,190.38 C183.344,192.704 184.17,193.95 186.004,193.95 Z M193.424,188.952 C192.136,188.952 191.38,188.238 191.38,187.006 L191.38,186.922 C191.38,185.606 192.276,184.906 193.438,184.906 C194.656,184.906 195.482,185.648 195.482,186.922 L195.482,187.006 C195.482,188.21 194.698,188.952 193.424,188.952 Z M191.394,195 C191.52,194.832 191.744,194.552 192.066,194.16 C192.71,193.348 193.578,192.228 194.558,190.954 C195.552,189.694 196.532,188.406 197.4,187.3 C198.268,186.194 198.898,185.368 199.136,185.046 L200.662,185.046 C200.536,185.214 200.298,185.494 200.004,185.9 C199.36,186.712 198.506,187.832 197.526,189.106 C196.546,190.366 195.58,191.654 194.712,192.76 C193.872,193.866 193.228,194.678 192.99,195 L191.394,195 Z M193.424,188.042 C194.096,188.042 194.502,187.608 194.502,186.964 L194.502,186.922 C194.502,186.208 194.04,185.816 193.438,185.816 C192.85,185.816 192.374,186.194 192.374,186.922 L192.374,186.964 C192.374,187.636 192.78,188.042 193.424,188.042 Z M198.604,195.168 C197.33,195.168 196.574,194.468 196.574,193.236 L196.574,193.138 C196.574,191.822 197.47,191.136 198.618,191.136 C199.85,191.136 200.662,191.864 200.662,193.138 L200.662,193.236 C200.662,194.44 199.878,195.168 198.604,195.168 Z M198.618,194.272 C199.29,194.272 199.682,193.838 199.682,193.194 L199.682,193.138 C199.682,192.438 199.234,192.032 198.618,192.032 C198.03,192.032 197.554,192.41 197.554,193.138 L197.554,193.194 C197.554,193.852 197.96,194.272 198.618,194.272 Z M201.81,196.344 C202.37,196.288 202.86,196.064 203.294,195.686 C204.176,194.916 204.722,193.474 204.722,191.22 L204.722,190.898 C204.722,189.75 204.61,188.854 204.344,188.098 C203.84,186.628 202.93,185.9 201.81,185.746 L201.81,184.458 C202.636,184.556 203.364,184.822 204.022,185.312 C205.338,186.264 206.15,188.056 206.15,190.856 L206.15,191.304 C206.15,192.69 205.968,193.852 205.59,194.748 C204.862,196.582 203.518,197.506 201.81,197.632 L201.81,196.344 Z" id="0(0%)" fill="#033074" fill-rule="nonzero"></path>
                <g id="Group" transform="translate(51.000000, 71.000000)">
                    <circle id="Oval" fill="#068451" cx="11.5" cy="11.5" r="11.5"></circle>
                    <path d="M8.378,16 L8.378,14.236 L10.422,14.236 L10.422,9.028 L8.896,9.028 L8.896,7.614 C10.114,7.516 10.576,7.068 10.744,6.018 L12.256,6.018 L12.256,14.236 L14.244,14.236 L14.244,16 L8.378,16 Z" id="1" fill="#FFFFFF" fill-rule="nonzero"></path>
                </g>
                <g id="Group-Copy" transform="translate(51.000000, 124.000000)">
                    <circle id="Oval" fill="#0066FF" cx="11.5" cy="11.5" r="11.5"></circle>
                    <path d="M7.462,16 L7.462,14.656 C7.462,13.662 7.882,12.962 8.554,12.416 C9.212,11.87 10.038,11.478 10.85,11.128 C11.326,10.918 11.732,10.736 12.138,10.526 C12.95,10.134 13.482,9.672 13.482,8.972 C13.482,7.936 12.824,7.432 11.564,7.432 C10.178,7.432 9.45,8.132 9.45,9.392 L9.45,9.714 L7.574,9.714 L7.574,9.308 C7.574,7.04 9.002,5.85 11.592,5.85 C12.418,5.85 13.118,5.976 13.678,6.242 C14.798,6.774 15.386,7.698 15.386,8.874 C15.386,9.868 14.98,10.568 14.336,11.114 C13.678,11.646 12.894,12.038 12.11,12.388 C11.704,12.57 11.298,12.766 10.92,12.934 C10.192,13.312 9.674,13.704 9.604,14.306 L15.372,14.306 L15.372,16 L7.462,16 Z" id="2" fill="#FFFFFF" fill-rule="nonzero"></path>
                </g>
                <g id="Group-Copy-2" transform="translate(51.000000, 178.000000)">
                    <circle id="Oval" fill="#033074" cx="11.5" cy="11.5" r="11.5"></circle>
                    <path d="M11.466,16.196 C8.61,16.196 7.42,15.118 7.42,12.836 L7.42,12.556 L9.296,12.556 L9.296,12.738 C9.296,13.998 9.954,14.544 11.438,14.544 C12.768,14.544 13.594,13.928 13.594,12.976 C13.594,11.968 12.95,11.716 11.732,11.716 L10.556,11.716 L10.556,10.274 L11.732,10.274 C12.936,10.274 13.468,9.812 13.468,8.93 C13.468,8.062 12.824,7.488 11.494,7.488 C10.164,7.488 9.422,8.188 9.422,9.238 L9.422,9.392 L7.574,9.392 L7.574,9.168 C7.574,7.138 8.974,5.85 11.55,5.85 C14.014,5.85 15.386,7.012 15.386,8.72 C15.386,9.812 14.938,10.512 14.042,10.89 C14.994,11.226 15.554,11.954 15.554,13.186 C15.554,13.788 15.4,14.306 15.078,14.754 C14.42,15.678 13.216,16.196 11.466,16.196 Z" id="3" fill="#FFFFFF" fill-rule="nonzero"></path>
                </g>
            </g>
        </g>
    </g>
</svg>