<?xml version="1.0" encoding="UTF-8"?>
<svg width="654px" height="181px" viewBox="0 0 654 181" version="1.1" xmlns="http://www.w3.org/2000/svg" xmlns:xlink="http://www.w3.org/1999/xlink">
    <!-- Generator: Sketch 56.2 (81672) - https://sketch.com -->
    <title>Group 2 Copy</title>
    <desc>Created with Sketch.</desc>
    <g id="Page-1" stroke="none" stroke-width="1" fill="none" fill-rule="evenodd">
        <g id="Artboard" transform="translate(-20.000000, -31.000000)">
            <g id="Group-2-Copy" transform="translate(20.000000, 21.000000)">
                <rect id="Rectangle" fill="#DDF1FF" x="11" y="32" width="315" height="27"></rect>
                <rect id="Rectangle-Copy" fill="#9ACBED" x="326" y="32" width="105" height="27"></rect>
                <rect id="Rectangle-Copy-2" fill="#59A9DF" x="431" y="32" width="106" height="27"></rect>
                <rect id="Rectangle-Copy-3" fill="#1483CF" x="537" y="32" width="105" height="27"></rect>
                <path d="M0.64,22.2 L0.64,20.968 C0.64,20.264 0.768,19.64 1.024,19.128 C1.536,18.104 2.4,17.368 3.216,16.696 C3.584,16.424 3.888,16.136 4.208,15.864 C4.832,15.32 5.232,14.744 5.232,13.992 L5.232,13.592 C5.232,12.536 4.848,12.024 3.76,12.024 C2.752,12.024 2.256,12.504 2.256,13.464 L2.256,15.032 L0.72,15.032 L0.72,13.416 C0.72,11.608 1.856,10.664 3.792,10.664 C5.76,10.664 6.784,11.704 6.784,13.544 L6.784,13.944 C6.784,14.52 6.688,15.016 6.448,15.448 C6,16.28 5.264,16.92 4.512,17.544 C4.144,17.848 3.808,18.136 3.472,18.456 C2.8,19.08 2.352,19.784 2.352,20.744 L6.8,20.744 L6.8,22.2 L0.64,22.2 Z M11.8331429,22.36 C9.8171429,22.36 8.6171429,21.256 8.6171429,18.84 L8.6171429,14.216 C8.6171429,11.88 9.8491429,10.664 11.8491429,10.664 C13.8491429,10.664 15.0651429,11.864 15.0651429,14.216 L15.0651429,18.84 C15.0651429,21.24 13.8651429,22.36 11.8331429,22.36 Z M11.8491429,20.952 C13.0011429,20.952 13.5131429,20.2 13.5131429,18.744 L13.5131429,14.28 C13.5131429,12.808 13.0171429,12.024 11.8331429,12.024 C10.6491429,12.024 10.1691429,12.824 10.1691429,14.28 L10.1691429,18.744 C10.1691429,20.2 10.6651429,20.952 11.8491429,20.952 Z M20.3222858,22.36 C18.3062858,22.36 17.1062858,21.256 17.1062858,18.84 L17.1062858,14.216 C17.1062858,11.88 18.3382858,10.664 20.3382858,10.664 C22.3382858,10.664 23.5542858,11.864 23.5542858,14.216 L23.5542858,18.84 C23.5542858,21.24 22.3542858,22.36 20.3222858,22.36 Z M20.3382858,20.952 C21.4902858,20.952 22.0022858,20.2 22.0022858,18.744 L22.0022858,14.28 C22.0022858,12.808 21.5062858,12.024 20.3222858,12.024 C19.1382858,12.024 18.6582858,12.824 18.6582858,14.28 L18.6582858,18.744 C18.6582858,20.2 19.1542858,20.952 20.3382858,20.952 Z" id="200" fill="#0031A3" fill-rule="nonzero"></path>
                <path d="M316.76,22.36 C314.744,22.36 313.656,21.528 313.656,19.304 L313.656,18.312 L315.24,18.312 L315.24,19.16 C315.24,20.472 315.592,20.968 316.776,20.968 C317.928,20.968 318.28,20.28 318.28,19.064 L318.28,17.144 C318.28,16.136 317.768,15.608 316.872,15.608 C316.056,15.608 315.624,16.04 315.32,16.648 C315.32,16.648 315.208,16.952 315.192,16.968 L313.704,16.552 L314.28,10.792 L319.624,10.792 L319.624,10.856 C319.624,11.256 319.576,11.576 319.496,11.768 C319.352,12.152 318.936,12.216 318.072,12.216 L315.56,12.216 C315.544,12.536 315.496,12.888 315.448,13.32 C315.368,14.136 315.288,14.968 315.224,15.528 C315.608,14.824 316.2,14.184 317.4,14.232 C319.048,14.184 319.832,15.352 319.832,17.064 L319.832,19.208 C319.832,21.288 318.792,22.36 316.76,22.36 Z M324.913143,22.36 C322.897143,22.36 321.697143,21.256 321.697143,18.84 L321.697143,14.216 C321.697143,11.88 322.929143,10.664 324.929143,10.664 C326.929143,10.664 328.145143,11.864 328.145143,14.216 L328.145143,18.84 C328.145143,21.24 326.945143,22.36 324.913143,22.36 Z M324.929143,20.952 C326.081143,20.952 326.593143,20.2 326.593143,18.744 L326.593143,14.28 C326.593143,12.808 326.097143,12.024 324.913143,12.024 C323.729143,12.024 323.249143,12.824 323.249143,14.28 L323.249143,18.744 C323.249143,20.2 323.745143,20.952 324.929143,20.952 Z M333.402286,22.36 C331.386286,22.36 330.186286,21.256 330.186286,18.84 L330.186286,14.216 C330.186286,11.88 331.418286,10.664 333.418286,10.664 C335.418286,10.664 336.634286,11.864 336.634286,14.216 L336.634286,18.84 C336.634286,21.24 335.434286,22.36 333.402286,22.36 Z M333.418286,20.952 C334.570286,20.952 335.082286,20.2 335.082286,18.744 L335.082286,14.28 C335.082286,12.808 334.586286,12.024 333.402286,12.024 C332.218286,12.024 331.738286,12.824 331.738286,14.28 L331.738286,18.744 C331.738286,20.2 332.234286,20.952 333.418286,20.952 Z" id="500" fill="#0031A3" fill-rule="nonzero"></path>
                <path d="M426.168,18.84 C426.168,21.24 424.936,22.36 422.904,22.36 C420.888,22.36 419.752,21.256 419.752,18.84 L419.752,14.216 C419.752,11.88 420.824,10.664 423.048,10.664 C425,10.664 426.056,11.72 426.056,13.656 L426.056,14.008 L424.504,14.008 L424.504,13.752 C424.504,12.616 424.056,12.024 423,12.024 C421.752,12.024 421.24,12.824 421.24,14.28 L421.24,16.6 C421.608,15.784 422.296,15.16 423.496,15.16 C425.112,15.16 426.168,16.12 426.168,18.216 L426.168,18.84 Z M422.92,20.952 C424.072,20.952 424.632,20.216 424.632,18.744 L424.632,18.28 C424.632,17.288 424.184,16.52 422.936,16.52 C421.88,16.52 421.288,17.208 421.24,18.2 L421.24,18.744 C421.24,20.2 421.736,20.952 422.92,20.952 Z M431.185143,22.36 C429.169143,22.36 427.969143,21.256 427.969143,18.84 L427.969143,14.216 C427.969143,11.88 429.201143,10.664 431.201143,10.664 C433.201143,10.664 434.417143,11.864 434.417143,14.216 L434.417143,18.84 C434.417143,21.24 433.217143,22.36 431.185143,22.36 Z M431.201143,20.952 C432.353143,20.952 432.865143,20.2 432.865143,18.744 L432.865143,14.28 C432.865143,12.808 432.369143,12.024 431.185143,12.024 C430.001143,12.024 429.521143,12.824 429.521143,14.28 L429.521143,18.744 C429.521143,20.2 430.017143,20.952 431.201143,20.952 Z M439.674286,22.36 C437.658286,22.36 436.458286,21.256 436.458286,18.84 L436.458286,14.216 C436.458286,11.88 437.690286,10.664 439.690286,10.664 C441.690286,10.664 442.906286,11.864 442.906286,14.216 L442.906286,18.84 C442.906286,21.24 441.706286,22.36 439.674286,22.36 Z M439.690286,20.952 C440.842286,20.952 441.354286,20.2 441.354286,18.744 L441.354286,14.28 C441.354286,12.808 440.858286,12.024 439.674286,12.024 C438.490286,12.024 438.010286,12.824 438.010286,14.28 L438.010286,18.744 C438.010286,20.2 438.506286,20.952 439.690286,20.952 Z" id="600" fill="#0031A3" fill-rule="nonzero"></path>
                <path d="M527.36,22.2 C527.616,20.808 527.904,19.544 528.224,18.408 C528.864,16.136 529.648,14.216 530.672,12.264 L526.4,12.264 L526.4,10.792 L532.256,10.792 L532.256,12.056 C531.696,13.144 531.2,14.184 530.8,15.24 C529.968,17.336 529.424,19.512 529.04,22.2 L527.36,22.2 Z M536.889143,22.36 C534.873143,22.36 533.673143,21.256 533.673143,18.84 L533.673143,14.216 C533.673143,11.88 534.905143,10.664 536.905143,10.664 C538.905143,10.664 540.121143,11.864 540.121143,14.216 L540.121143,18.84 C540.121143,21.24 538.921143,22.36 536.889143,22.36 Z M536.905143,20.952 C538.057143,20.952 538.569143,20.2 538.569143,18.744 L538.569143,14.28 C538.569143,12.808 538.073143,12.024 536.889143,12.024 C535.705143,12.024 535.225143,12.824 535.225143,14.28 L535.225143,18.744 C535.225143,20.2 535.721143,20.952 536.905143,20.952 Z M545.378286,22.36 C543.362286,22.36 542.162286,21.256 542.162286,18.84 L542.162286,14.216 C542.162286,11.88 543.394286,10.664 545.394286,10.664 C547.394286,10.664 548.610286,11.864 548.610286,14.216 L548.610286,18.84 C548.610286,21.24 547.410286,22.36 545.378286,22.36 Z M545.394286,20.952 C546.546286,20.952 547.058286,20.2 547.058286,18.744 L547.058286,14.28 C547.058286,12.808 546.562286,12.024 545.378286,12.024 C544.194286,12.024 543.714286,12.824 543.714286,14.28 L543.714286,18.744 C543.714286,20.2 544.210286,20.952 545.394286,20.952 Z" id="700" fill="#0031A3" fill-rule="nonzero"></path>
                <path d="M633.792,22.36 C631.712,22.36 630.64,21.24 630.64,19.608 L630.64,18.424 C630.64,17.416 631.168,16.6 632,16.232 C631.232,15.896 630.832,15.208 630.832,14.136 L630.832,13.368 C630.832,11.784 631.872,10.664 633.808,10.664 C635.744,10.664 636.816,11.784 636.816,13.368 L636.816,14.136 C636.816,15.128 636.368,15.848 635.6,16.216 C636.432,16.584 636.96,17.352 636.96,18.424 L636.96,19.608 C636.96,21.24 635.856,22.36 633.792,22.36 Z M633.92,15.592 C634.864,15.592 635.312,14.84 635.312,14.088 L635.312,13.544 C635.312,12.584 634.832,12.024 633.824,12.024 C632.832,12.024 632.32,12.568 632.32,13.56 L632.32,14.104 C632.32,14.84 632.736,15.592 633.68,15.592 L633.92,15.592 Z M633.792,20.952 C634.848,20.952 635.424,20.344 635.424,19.448 L635.424,18.424 C635.424,17.656 634.896,16.904 633.904,16.904 L633.664,16.904 C633.344,16.904 633.072,16.984 632.864,17.128 C632.416,17.448 632.192,17.928 632.192,18.424 L632.192,19.448 C632.192,20.312 632.736,20.952 633.792,20.952 Z M642.009143,22.36 C639.993143,22.36 638.793143,21.256 638.793143,18.84 L638.793143,14.216 C638.793143,11.88 640.025143,10.664 642.025143,10.664 C644.025143,10.664 645.241143,11.864 645.241143,14.216 L645.241143,18.84 C645.241143,21.24 644.041143,22.36 642.009143,22.36 Z M642.025143,20.952 C643.177143,20.952 643.689143,20.2 643.689143,18.744 L643.689143,14.28 C643.689143,12.808 643.193143,12.024 642.009143,12.024 C640.825143,12.024 640.345143,12.824 640.345143,14.28 L640.345143,18.744 C640.345143,20.2 640.841143,20.952 642.025143,20.952 Z M650.498286,22.36 C648.482286,22.36 647.282286,21.256 647.282286,18.84 L647.282286,14.216 C647.282286,11.88 648.514286,10.664 650.514286,10.664 C652.514286,10.664 653.730286,11.864 653.730286,14.216 L653.730286,18.84 C653.730286,21.24 652.530286,22.36 650.498286,22.36 Z M650.514286,20.952 C651.666286,20.952 652.178286,20.2 652.178286,18.744 L652.178286,14.28 C652.178286,12.808 651.682286,12.024 650.498286,12.024 C649.314286,12.024 648.834286,12.824 648.834286,14.28 L648.834286,18.744 C648.834286,20.2 649.330286,20.952 650.514286,20.952 Z" id="800" fill="#0031A3" fill-rule="nonzero"></path>
                <path d="M145.942,87.3999996 L145.942,77.4459996 L147.314,77.4459996 L147.314,86.1259996 L152.41,86.1259996 L152.41,87.3999996 L145.942,87.3999996 Z M161.216,85.0199996 C160.754,86.6719996 159.41,87.6099996 157.422,87.6099996 C154.762,87.6099996 153.432,86.0419996 153.432,83.5499996 L153.432,83.3819996 C153.432,82.5419996 153.6,81.8139996 153.922,81.1699996 C154.58,79.9099996 155.812,79.1819996 157.464,79.1819996 C158.346,79.1819996 159.074,79.3639996 159.634,79.7419996 C160.782,80.4979996 161.328,81.7719996 161.328,83.2139996 L161.328,83.8579996 L154.776,83.8579996 C154.874,85.5099996 155.826,86.4619996 157.478,86.4619996 C158.64,86.4619996 159.452,85.9579996 159.746,85.0199996 L161.216,85.0199996 Z M157.478,80.2879996 C155.938,80.2879996 154.958,81.2259996 154.79,82.7799996 L159.97,82.7799996 C159.858,81.2539996 159.018,80.2879996 157.478,80.2879996 Z M165.192,87.3999996 L161.93,79.4059996 L163.358,79.4059996 L165.836,85.7899996 L168.398,79.4059996 L169.826,79.4059996 L166.424,87.3999996 L165.192,87.3999996 Z M178.17,85.0199996 C177.708,86.6719996 176.364,87.6099996 174.376,87.6099996 C171.716,87.6099996 170.386,86.0419996 170.386,83.5499996 L170.386,83.3819996 C170.386,82.5419996 170.554,81.8139996 170.876,81.1699996 C171.534,79.9099996 172.766,79.1819996 174.418,79.1819996 C175.3,79.1819996 176.028,79.3639996 176.588,79.7419996 C177.736,80.4979996 178.282,81.7719996 178.282,83.2139996 L178.282,83.8579996 L171.73,83.8579996 C171.828,85.5099996 172.78,86.4619996 174.432,86.4619996 C175.594,86.4619996 176.406,85.9579996 176.7,85.0199996 L178.17,85.0199996 Z M174.432,80.2879996 C172.892,80.2879996 171.912,81.2259996 171.744,82.7799996 L176.924,82.7799996 C176.812,81.2539996 175.972,80.2879996 174.432,80.2879996 Z M179.976,87.3999996 L179.976,76.6899996 L181.334,76.6899996 L181.334,87.3999996 L179.976,87.3999996 Z M187.326,87.3999996 L187.326,86.0839996 L189.44,86.0839996 L189.44,80.1479996 L187.83,80.1479996 L187.83,79.0839996 C188.992,79.0279996 189.496,78.5379996 189.678,77.4459996 L190.798,77.4459996 L190.798,86.0839996 L192.912,86.0839996 L192.912,87.3999996 L187.326,87.3999996 Z M120.714,103.275999 C120.042,103.275999 119.776,102.953999 119.776,102.015999 C119.776,100.811999 120.266,100.041999 121.33,99.7479992 L121.498,100.335999 C120.938,100.517999 120.644,100.937999 120.588,101.609999 C120.658,101.595999 120.756,101.581999 120.826,101.581999 C121.358,101.581999 121.582,101.735999 121.582,102.393999 C121.582,103.037999 121.316,103.275999 120.714,103.275999 Z M123.346,103.275999 C122.674,103.275999 122.408,102.953999 122.408,102.015999 C122.408,100.811999 122.898,100.041999 123.962,99.7479992 L124.13,100.335999 C123.57,100.517999 123.276,100.937999 123.234,101.609999 C123.304,101.595999 123.388,101.581999 123.458,101.581999 C123.99,101.581999 124.214,101.735999 124.214,102.393999 C124.214,103.037999 123.948,103.275999 123.346,103.275999 Z M126.44,109.799999 L126.44,99.8459992 L130.192,99.8459992 C132.782,99.8459992 133.86,100.741999 133.86,102.393999 C133.86,103.625999 133.314,104.353999 132.25,104.703999 C133.412,105.025999 134.056,105.725999 134.056,107.013999 C134.056,108.819999 132.88,109.799999 130.29,109.799999 L126.44,109.799999 Z M130.248,104.143999 C131.718,104.157999 132.516,103.667999 132.516,102.519999 C132.516,101.483999 131.844,100.979999 130.234,100.979999 L127.77,100.979999 L127.77,104.143999 L130.248,104.143999 Z M127.77,105.263999 L127.77,108.623999 L130.136,108.623999 C131.956,108.623999 132.67,108.035999 132.67,106.915999 C132.67,105.753999 131.83,105.263999 130.164,105.263999 L127.77,105.263999 Z M143.24,107.419999 C142.778,109.071999 141.434,110.009999 139.446,110.009999 C136.786,110.009999 135.456,108.441999 135.456,105.949999 L135.456,105.781999 C135.456,104.941999 135.624,104.213999 135.946,103.569999 C136.604,102.309999 137.836,101.581999 139.488,101.581999 C140.37,101.581999 141.098,101.763999 141.658,102.141999 C142.806,102.897999 143.352,104.171999 143.352,105.613999 L143.352,106.257999 L136.8,106.257999 C136.898,107.909999 137.85,108.861999 139.502,108.861999 C140.664,108.861999 141.476,108.357999 141.77,107.419999 L143.24,107.419999 Z M139.502,102.687999 C137.962,102.687999 136.982,103.625999 136.814,105.179999 L141.994,105.179999 C141.882,103.653999 141.042,102.687999 139.502,102.687999 Z M145.046,109.799999 L145.046,99.0899992 L146.404,99.0899992 L146.404,109.799999 L145.046,109.799999 Z M152.102,110.009999 C149.554,110.009999 148.098,108.511999 148.098,105.935999 L148.098,105.753999 C148.098,104.857999 148.28,104.129999 148.616,103.485999 C149.316,102.253999 150.562,101.581999 152.102,101.581999 C152.886,101.581999 153.572,101.749999 154.174,102.085999 C155.392,102.743999 156.106,103.989999 156.106,105.753999 L156.106,105.935999 C156.106,106.803999 155.938,107.517999 155.616,108.133999 C154.944,109.351999 153.74,110.009999 152.102,110.009999 Z M152.102,108.791999 C153.768,108.791999 154.72,107.727999 154.72,105.907999 L154.72,105.753999 C154.72,103.891999 153.656,102.757999 152.102,102.757999 C150.562,102.757999 149.484,103.821999 149.484,105.753999 L149.484,105.907999 C149.484,107.727999 150.45,108.791999 152.102,108.791999 Z M162.798,103.807999 L160.404,109.799999 L159.158,109.799999 L156.96,101.805999 L158.304,101.805999 L159.956,108.077999 L162.364,101.805999 L163.288,101.805999 L165.514,108.063999 L167.446,101.805999 L168.776,101.805999 L166.228,109.799999 L165.01,109.799999 L162.798,103.807999 Z M174.67,109.799999 L174.67,99.8459992 L178.422,99.8459992 C181.012,99.8459992 182.09,100.741999 182.09,102.393999 C182.09,103.625999 181.544,104.353999 180.48,104.703999 C181.642,105.025999 182.286,105.725999 182.286,107.013999 C182.286,108.819999 181.11,109.799999 178.52,109.799999 L174.67,109.799999 Z M178.478,104.143999 C179.948,104.157999 180.746,103.667999 180.746,102.519999 C180.746,101.483999 180.074,100.979999 178.464,100.979999 L176,100.979999 L176,104.143999 L178.478,104.143999 Z M176,105.263999 L176,108.623999 L178.366,108.623999 C180.186,108.623999 180.9,108.035999 180.9,106.915999 C180.9,105.753999 180.06,105.263999 178.394,105.263999 L176,105.263999 Z M189.86,107.811999 C189.3,109.043999 188.068,110.009999 186.29,110.009999 C184.568,110.009999 183.672,109.169999 183.672,107.881999 C183.672,107.041999 184.064,106.369999 184.708,105.977999 C184.932,105.823999 185.156,105.725999 185.394,105.627999 C185.884,105.459999 186.556,105.319999 187.62,105.165999 C189.034,104.955999 189.804,104.829999 189.804,104.073999 C189.804,103.205999 189.23,102.659999 187.732,102.659999 C186.15,102.659999 185.38,103.429999 185.31,104.549999 L183.924,104.549999 C183.966,103.961999 184.148,103.457999 184.442,103.009999 C185.058,102.113999 186.15,101.581999 187.676,101.581999 C190.168,101.581999 191.12,102.631999 191.12,104.283999 L191.12,109.799999 L190.014,109.799999 L189.86,107.811999 Z M186.71,108.931999 C187.634,108.931999 188.404,108.567999 188.95,107.979999 C189.51,107.391999 189.818,106.691999 189.818,106.019999 L189.818,105.431999 C189.468,105.725999 188.796,105.879999 187.914,106.033999 C186.696,106.215999 186.178,106.355999 185.73,106.649999 C185.352,106.887999 185.156,107.237999 185.156,107.713999 C185.156,108.469999 185.66,108.931999 186.71,108.931999 Z M196.3,110.009999 C194.032,110.009999 192.73,109.043999 192.506,107.181999 L193.976,107.181999 C194.144,108.329999 195.068,108.847999 196.328,108.847999 C197.812,108.847999 198.358,108.245999 198.358,107.489999 C198.358,107.167999 198.246,106.943999 198.022,106.789999 C197.56,106.467999 196.776,106.355999 195.936,106.243999 C195.208,106.131999 194.452,105.991999 193.85,105.697999 C193.248,105.375999 192.856,104.871999 192.856,104.003999 C192.856,103.555999 192.968,103.149999 193.192,102.799999 C193.668,102.043999 194.592,101.581999 196.034,101.581999 C198.204,101.581999 199.324,102.561999 199.534,104.115999 L198.148,104.115999 C198.022,103.163999 197.308,102.687999 196.02,102.687999 C194.648,102.687999 194.2,103.275999 194.2,103.933999 C194.2,104.227999 194.312,104.465999 194.55,104.633999 C195.026,104.927999 195.796,105.039999 196.636,105.165999 C197.364,105.277999 198.12,105.417999 198.722,105.711999 C199.324,106.033999 199.702,106.523999 199.702,107.405999 C199.702,107.895999 199.576,108.329999 199.338,108.721999 C198.848,109.505999 197.882,110.009999 196.3,110.009999 Z M202.026,100.783999 C201.326,100.783999 201.06,100.531999 201.06,99.8179992 C201.06,99.1039992 201.382,98.8519992 202.026,98.8519992 C202.67,98.8519992 202.978,99.1039992 202.978,99.8179992 C202.978,100.517999 202.67,100.783999 202.026,100.783999 Z M201.312,109.799999 L201.312,101.805999 L202.698,101.805999 L202.698,109.799999 L201.312,109.799999 Z M208.396,110.009999 C205.862,110.009999 204.406,108.511999 204.406,105.935999 L204.406,105.753999 C204.406,104.857999 204.588,104.129999 204.938,103.485999 C205.638,102.253999 206.884,101.581999 208.41,101.581999 C210.524,101.581999 212.008,102.617999 212.246,104.843999 L212.246,104.871999 L210.832,104.871999 L210.832,104.843999 C210.608,103.415999 209.74,102.757999 208.424,102.757999 C206.884,102.757999 205.806,103.821999 205.806,105.753999 L205.806,105.907999 C205.806,107.727999 206.772,108.791999 208.41,108.791999 C209.796,108.791999 210.608,108.091999 210.846,106.705999 L210.846,106.691999 L212.26,106.691999 L212.26,106.719999 C212.022,108.987999 210.538,110.009999 208.396,110.009999 Z M213.898,102.659999 C214.444,102.477999 214.738,102.057999 214.794,101.399999 C214.724,101.413999 214.668,101.427999 214.57,101.427999 C214.038,101.427999 213.8,101.273999 213.8,100.601999 C213.8,99.9579992 214.08,99.7339992 214.682,99.7339992 C215.34,99.7339992 215.62,100.055999 215.62,100.993999 C215.62,102.197999 215.13,102.953999 214.066,103.247999 L213.898,102.659999 Z M216.53,102.659999 C217.09,102.477999 217.384,102.057999 217.44,101.399999 C217.37,101.413999 217.286,101.427999 217.216,101.427999 C216.684,101.427999 216.446,101.273999 216.446,100.601999 C216.446,99.9579992 216.712,99.7339992 217.328,99.7339992 C217.986,99.7339992 218.252,100.055999 218.252,100.993999 C218.252,102.197999 217.762,102.953999 216.698,103.247999 L216.53,102.659999 Z" id="Level1“BelowBasic”" fill="#0031A3" fill-rule="nonzero"></path>
                <path d="M139.6896,137.3328 L143.2896,137.3328 C144.1248,137.3328 144.8736,137.5056 145.5648,137.8368 C146.9472,138.528 147.8256,139.8816 147.8256,142.0416 L147.8256,142.9056 C147.8256,143.9712 147.6384,144.8352 147.2496,145.5264 C146.4576,146.9088 145.0752,147.6 143.3616,147.6 L139.6896,147.6 L139.6896,137.3328 Z M141.5616,138.96 L141.5616,145.944 L143.2752,145.944 C144.8592,145.944 145.9248,144.9072 145.9248,142.7328 L145.9248,142.1856 C145.9248,140.0112 144.8304,138.96 143.2032,138.96 L141.5616,138.96 Z M150.3744,138.4272 C149.4672,138.4272 149.1216,138.1248 149.1216,137.1744 C149.1216,136.2528 149.5392,135.936 150.3744,135.936 C151.2096,135.936 151.6272,136.2528 151.6272,137.1744 C151.6272,138.0672 151.224,138.4272 150.3744,138.4272 Z M149.3952,147.6 L149.3952,139.32 L151.3104,139.32 L151.3104,147.6 L149.3952,147.6 Z M159.1152,145.872 C158.6688,146.9952 157.7328,147.7728 156.2496,147.7728 C154.1328,147.7728 152.736,146.2896 152.736,143.496 L152.736,143.2944 C152.736,142.3872 152.8944,141.624 153.1968,141.0048 C153.8016,139.7664 154.896,139.1328 156.3072,139.1328 C157.6752,139.1328 158.5824,139.7232 159.0576,140.7456 L159.0576,136.512 L160.8864,136.512 L160.8864,147.6 L159.3168,147.6 L159.1152,145.872 Z M156.8256,146.1456 C158.2368,146.1456 159.1008,145.1232 159.1008,143.4816 L159.1008,143.3376 C159.1008,141.7392 158.2656,140.7024 156.8976,140.7024 C155.472,140.7024 154.68,141.6672 154.68,143.3232 L154.68,143.4816 C154.68,145.2528 155.5728,146.1456 156.8256,146.1456 Z M169.08,147.6 L167.1792,147.6 L167.1792,139.32 L168.7776,139.32 L168.9504,140.976 C169.3968,139.8384 170.3328,139.1184 171.7584,139.1184 C173.76,139.1184 174.8256,140.4432 174.8256,142.5024 L174.8256,147.6 L172.9248,147.6 L172.9248,142.9632 C172.9248,141.6096 172.4928,140.76 171.1392,140.76 C169.728,140.76 169.08,141.7392 169.08,143.28 L169.08,147.6 Z M180.384,147.816 C177.7056,147.816 176.208,146.3328 176.208,143.6256 L176.208,143.4096 C176.208,142.488 176.3952,141.696 176.7552,141.0624 C177.4752,139.7952 178.7568,139.1184 180.384,139.1184 C181.2192,139.1184 181.9248,139.2768 182.544,139.6224 C183.8112,140.2992 184.56,141.5808 184.56,143.4096 L184.56,143.6256 C184.56,144.5328 184.3872,145.2816 184.0416,145.9008 C183.3216,147.1536 182.0688,147.816 180.384,147.816 Z M180.384,146.16 C181.8096,146.16 182.6448,145.2384 182.6448,143.5968 L182.6448,143.4096 C182.6448,141.7104 181.7664,140.7312 180.3984,140.7312 C179.0448,140.7312 178.1376,141.6528 178.1376,143.4096 L178.1376,143.5968 C178.1376,145.2384 178.9728,146.16 180.384,146.16 Z M190.6656,147.6 L189.6,147.6 C188.8224,147.6 188.2176,147.4848 187.8144,147.2976 C186.9792,146.88 186.72,145.9728 186.72,144.288 L186.72,140.9904 L185.1072,140.9904 L185.1072,139.392 L185.8416,139.392 C186.1152,139.392 186.3024,139.3632 186.432,139.3056 C186.7056,139.176 186.792,138.8592 186.8352,138.1824 C186.8496,137.8224 186.864,137.3328 186.864,137.088 L188.4768,137.088 L188.4768,139.32 L190.6656,139.32 L190.6656,140.9904 L188.4768,140.9904 L188.4768,143.9712 C188.4768,144.5184 188.52,144.9216 188.592,145.1952 C188.7216,145.7424 189.1536,145.8432 190.0752,145.8432 L190.6656,145.8432 L190.6656,147.6 Z M198.2976,147.6 L196.4112,147.6 L196.4112,139.32 L197.9952,139.32 L198.168,140.832 C198.6144,139.7952 199.4784,139.1184 200.7888,139.1184 C202.2144,139.1184 203.0352,139.7664 203.3952,140.8464 C203.8128,139.7808 204.72,139.1184 206.0736,139.1184 C208.0176,139.1184 209.0112,140.3568 209.0112,142.416 L209.0112,147.6 L207.1248,147.6 L207.1248,142.9344 C207.1248,141.624 206.664,140.76 205.3968,140.76 C204.1584,140.76 203.6688,141.6528 203.6688,142.9056 L203.6688,147.6 L201.7968,147.6 L201.7968,142.8624 C201.7968,142.4736 201.7536,142.128 201.6384,141.7968 C201.4512,141.1632 200.976,140.76 200.112,140.76 C198.8736,140.76 198.2976,141.7392 198.2976,143.1648 L198.2976,147.6 Z M218.5296,145.152 C218.0544,146.8368 216.7152,147.816 214.5408,147.816 C211.7472,147.816 210.3792,146.2032 210.3792,143.64 L210.3792,143.4384 C210.3792,142.5456 210.552,141.8112 210.8976,141.1488 C211.5888,139.8528 212.856,139.1184 214.5984,139.1184 C216.024,139.1184 217.032,139.608 217.6944,140.4 C218.3568,141.192 218.6448,142.2144 218.6448,143.28 L218.6448,144.1584 L212.2512,144.1584 C212.4096,145.512 213.2448,146.2608 214.6128,146.2608 C215.6208,146.2608 216.2112,145.872 216.4992,145.152 L218.5296,145.152 Z M214.6128,140.616 C213.3024,140.616 212.4816,141.3648 212.2656,142.6752 L216.7584,142.6752 C216.6288,141.408 215.9376,140.616 214.6128,140.616 Z M227.976,145.152 C227.5008,146.8368 226.1616,147.816 223.9872,147.816 C221.1936,147.816 219.8256,146.2032 219.8256,143.64 L219.8256,143.4384 C219.8256,142.5456 219.9984,141.8112 220.344,141.1488 C221.0352,139.8528 222.3024,139.1184 224.0448,139.1184 C225.4704,139.1184 226.4784,139.608 227.1408,140.4 C227.8032,141.192 228.0912,142.2144 228.0912,143.28 L228.0912,144.1584 L221.6976,144.1584 C221.856,145.512 222.6912,146.2608 224.0592,146.2608 C225.0672,146.2608 225.6576,145.872 225.9456,145.152 L227.976,145.152 Z M224.0592,140.616 C222.7488,140.616 221.928,141.3648 221.712,142.6752 L226.2048,142.6752 C226.0752,141.408 225.384,140.616 224.0592,140.616 Z M234.0816,147.6 L233.016,147.6 C232.2384,147.6 231.6336,147.4848 231.2304,147.2976 C230.3952,146.88 230.136,145.9728 230.136,144.288 L230.136,140.9904 L228.5232,140.9904 L228.5232,139.392 L229.2576,139.392 C229.5312,139.392 229.7184,139.3632 229.848,139.3056 C230.1216,139.176 230.208,138.8592 230.2512,138.1824 C230.2656,137.8224 230.28,137.3328 230.28,137.088 L231.8928,137.088 L231.8928,139.32 L234.0816,139.32 L234.0816,140.9904 L231.8928,140.9904 L231.8928,143.9712 C231.8928,144.5184 231.936,144.9216 232.008,145.1952 C232.1376,145.7424 232.5696,145.8432 233.4912,145.8432 L234.0816,145.8432 L234.0816,147.6 Z M243.1536,151.3584 C242.1168,151.3584 241.3248,151.272 240.7632,151.0992 C239.64,150.768 239.2944,150.1632 239.2944,149.3856 C239.2944,148.4928 239.8416,147.8448 241.152,147.5424 C240.0288,147.384 239.5392,146.8224 239.5392,145.9872 C239.5392,145.1376 240.1728,144.576 241.3248,144.3312 C240.1872,143.9712 239.6256,143.1936 239.6256,141.984 C239.6256,140.328 240.864,139.4352 242.8368,139.3056 L243.2544,139.2768 C243.744,139.2336 244.0896,139.1904 244.3344,139.0896 C244.7952,138.9168 244.9104,138.528 244.9104,137.736 L244.9104,137.6064 L247.0992,137.6064 L247.0992,137.88 C247.0992,139.2048 246.4368,139.5648 244.6656,139.5792 C246.2064,139.7952 247.0416,140.7312 247.0416,141.984 L247.0416,142.0416 C247.0416,143.7984 245.6448,144.864 243.2976,144.864 L243.168,144.864 C242.592,144.864 242.1744,144.8784 241.8864,144.936 C241.3104,145.0368 241.1808,145.1952 241.1808,145.4688 C241.1808,145.8576 241.5264,146.016 242.5056,146.016 L244.176,146.016 C246.4944,146.016 247.5024,146.9664 247.5024,148.4496 C247.5024,150.264 246.1344,151.3584 243.2544,151.3584 L243.1536,151.3584 Z M243.2976,143.5248 C244.5504,143.5248 245.1552,143.0352 245.1552,142.056 L245.1552,142.0128 C245.1552,140.8608 244.3488,140.472 243.3264,140.472 C242.304,140.472 241.512,140.9616 241.512,142.0272 L241.512,142.0704 C241.512,143.0352 242.1744,143.5248 243.2976,143.5248 Z M243.2688,149.8032 C244.9824,149.8032 245.7456,149.3424 245.7456,148.5504 C245.7456,147.9744 245.3136,147.6 244.104,147.6 L242.6208,147.6 C241.5984,147.7008 241.152,148.1472 241.152,148.7232 L241.152,148.752 C241.152,149.2704 241.6704,149.8032 242.9664,149.8032 L243.2688,149.8032 Z M248.4384,147.6 L248.4384,139.32 L249.9648,139.32 L250.2096,141.264 C250.5408,139.896 251.3904,139.248 252.96,139.248 L253.5216,139.248 L253.5216,141.1632 L252.7008,141.1632 C252.0384,141.1632 251.5488,141.2496 251.2032,141.4224 C250.512,141.7536 250.296,142.4736 250.296,143.7696 L250.296,147.6 L248.4384,147.6 Z M260.1312,145.944 C259.5696,147.024 258.4608,147.816 256.7472,147.816 C254.9472,147.816 254.04,146.952 254.04,145.5984 C254.04,144.6768 254.4432,143.9856 255.12,143.568 C255.3504,143.4096 255.5952,143.2944 255.8256,143.2224 C256.3152,143.0496 256.9344,142.9344 257.9712,142.776 C259.4544,142.5888 260.0448,142.3872 260.0448,141.7104 C260.0448,141.0192 259.5984,140.5872 258.3024,140.5872 C256.9344,140.5872 256.3152,141.1776 256.2576,142.2432 L254.3136,142.2432 C254.4432,140.3568 255.8256,139.1184 258.2016,139.1184 C259.1088,139.1184 259.8,139.2336 260.3472,139.4784 C261.4272,139.9392 261.8592,140.8176 261.8592,142.0128 L261.8592,147.6 L260.3328,147.6 L260.1312,145.944 Z M257.3952,146.3616 C257.9424,146.3616 258.4032,146.232 258.8064,145.9872 C259.6128,145.4832 260.0592,144.648 260.0592,143.856 L260.0592,143.4096 C259.7136,143.6544 259.1376,143.8272 258.3888,143.9424 C257.3808,144.1008 256.9776,144.216 256.5888,144.4608 C256.2576,144.6768 256.0992,144.9648 256.0992,145.3248 C256.0992,146.016 256.5312,146.3616 257.3952,146.3616 Z M269.6208,145.872 C269.1744,146.9952 268.2384,147.7728 266.7552,147.7728 C264.6384,147.7728 263.2416,146.2896 263.2416,143.496 L263.2416,143.2944 C263.2416,142.3872 263.4,141.624 263.7024,141.0048 C264.3072,139.7664 265.4016,139.1328 266.8128,139.1328 C268.1808,139.1328 269.088,139.7232 269.5632,140.7456 L269.5632,136.512 L271.392,136.512 L271.392,147.6 L269.8224,147.6 L269.6208,145.872 Z M267.3312,146.1456 C268.7424,146.1456 269.6064,145.1232 269.6064,143.4816 L269.6064,143.3376 C269.6064,141.7392 268.7712,140.7024 267.4032,140.7024 C265.9776,140.7024 265.1856,141.6672 265.1856,143.3232 L265.1856,143.4816 C265.1856,145.2528 266.0784,146.1456 267.3312,146.1456 Z M280.9248,145.152 C280.4496,146.8368 279.1104,147.816 276.936,147.816 C274.1424,147.816 272.7744,146.2032 272.7744,143.64 L272.7744,143.4384 C272.7744,142.5456 272.9472,141.8112 273.2928,141.1488 C273.984,139.8528 275.2512,139.1184 276.9936,139.1184 C278.4192,139.1184 279.4272,139.608 280.0896,140.4 C280.752,141.192 281.04,142.2144 281.04,143.28 L281.04,144.1584 L274.6464,144.1584 C274.8048,145.512 275.64,146.2608 277.008,146.2608 C278.016,146.2608 278.6064,145.872 278.8944,145.152 L280.9248,145.152 Z M277.008,140.616 C275.6976,140.616 274.8768,141.3648 274.6608,142.6752 L279.1536,142.6752 C279.024,141.408 278.3328,140.616 277.008,140.616 Z M288.7872,144.072 L282.5088,144.072 L282.5088,142.1856 L288.7872,142.1856 L288.7872,144.072 Z M290.472,147.6 L290.472,136.512 L292.3584,136.512 L292.3584,147.6 L290.472,147.6 Z M301.8912,145.152 C301.416,146.8368 300.0768,147.816 297.9024,147.816 C295.1088,147.816 293.7408,146.2032 293.7408,143.64 L293.7408,143.4384 C293.7408,142.5456 293.9136,141.8112 294.2592,141.1488 C294.9504,139.8528 296.2176,139.1184 297.96,139.1184 C299.3856,139.1184 300.3936,139.608 301.056,140.4 C301.7184,141.192 302.0064,142.2144 302.0064,143.28 L302.0064,144.1584 L295.6128,144.1584 C295.7712,145.512 296.6064,146.2608 297.9744,146.2608 C298.9824,146.2608 299.5728,145.872 299.8608,145.152 L301.8912,145.152 Z M297.9744,140.616 C296.664,140.616 295.8432,141.3648 295.6272,142.6752 L300.12,142.6752 C299.9904,141.408 299.2992,140.616 297.9744,140.616 Z M305.5056,147.6 L302.2512,139.32 L304.224,139.32 L306.3696,145.2528 L308.6016,139.32 L310.5888,139.32 L307.1904,147.6 L305.5056,147.6 Z M318.9408,145.152 C318.4656,146.8368 317.1264,147.816 314.952,147.816 C312.1584,147.816 310.7904,146.2032 310.7904,143.64 L310.7904,143.4384 C310.7904,142.5456 310.9632,141.8112 311.3088,141.1488 C312,139.8528 313.2672,139.1184 315.0096,139.1184 C316.4352,139.1184 317.4432,139.608 318.1056,140.4 C318.768,141.192 319.056,142.2144 319.056,143.28 L319.056,144.1584 L312.6624,144.1584 C312.8208,145.512 313.656,146.2608 315.024,146.2608 C316.032,146.2608 316.6224,145.872 316.9104,145.152 L318.9408,145.152 Z M315.024,140.616 C313.7136,140.616 312.8928,141.3648 312.6768,142.6752 L317.1696,142.6752 C317.04,141.408 316.3488,140.616 315.024,140.616 Z M320.4816,147.6 L320.4816,136.512 L322.368,136.512 L322.368,147.6 L320.4816,147.6 Z M190.8384,166.752 C190.3632,168.4368 189.024,169.416 186.8496,169.416 C184.056,169.416 182.688,167.8032 182.688,165.24 L182.688,165.0384 C182.688,164.1456 182.8608,163.4112 183.2064,162.7488 C183.8976,161.4528 185.1648,160.7184 186.9072,160.7184 C188.3328,160.7184 189.3408,161.208 190.0032,162 C190.6656,162.792 190.9536,163.8144 190.9536,164.88 L190.9536,165.7584 L184.56,165.7584 C184.7184,167.112 185.5536,167.8608 186.9216,167.8608 C187.9296,167.8608 188.52,167.472 188.808,166.752 L190.8384,166.752 Z M186.9216,162.216 C185.6112,162.216 184.7904,162.9648 184.5744,164.2752 L189.0672,164.2752 C188.9376,163.008 188.2464,162.216 186.9216,162.216 Z M195.2736,166.2336 L193.2,169.2 L190.9104,169.2 L194.208,164.8656 L191.256,160.92 L193.4736,160.92 L195.288,163.5552 L197.16,160.92 L199.3488,160.92 L196.3536,164.8512 L199.5504,169.2 L197.3328,169.2 L195.2736,166.2336 Z M204.9072,169.3728 C203.5392,169.3728 202.632,168.7536 202.1424,167.7456 L202.1424,172.0512 L200.3136,172.0512 L200.3136,160.92 L201.8832,160.92 L202.0848,162.6048 C202.5312,161.4672 203.496,160.7184 204.936,160.7184 C207.096,160.7184 208.464,162.2448 208.464,165.0384 L208.464,165.24 C208.464,166.1472 208.3056,166.896 208.0032,167.5152 C207.3984,168.7536 206.2896,169.3728 204.9072,169.3728 Z M204.3168,167.7744 C205.728,167.7744 206.5488,166.8528 206.5488,165.2112 L206.5488,165.0384 C206.5488,163.2672 205.656,162.3312 204.36,162.3312 C202.992,162.3312 202.0992,163.368 202.0992,165.0096 L202.0992,165.1536 C202.0992,166.752 202.9488,167.7744 204.3168,167.7744 Z M217.8528,166.752 C217.3776,168.4368 216.0384,169.416 213.864,169.416 C211.0704,169.416 209.7024,167.8032 209.7024,165.24 L209.7024,165.0384 C209.7024,164.1456 209.8752,163.4112 210.2208,162.7488 C210.912,161.4528 212.1792,160.7184 213.9216,160.7184 C215.3472,160.7184 216.3552,161.208 217.0176,162 C217.68,162.792 217.968,163.8144 217.968,164.88 L217.968,165.7584 L211.5744,165.7584 C211.7328,167.112 212.568,167.8608 213.936,167.8608 C214.944,167.8608 215.5344,167.472 215.8224,166.752 L217.8528,166.752 Z M213.936,162.216 C212.6256,162.216 211.8048,162.9648 211.5888,164.2752 L216.0816,164.2752 C215.952,163.008 215.2608,162.216 213.936,162.216 Z M223.3104,169.416 C220.6608,169.416 219.1488,167.9328 219.1488,165.2256 L219.1488,165.0096 C219.1488,164.088 219.336,163.296 219.696,162.6624 C220.4304,161.3952 221.7264,160.7184 223.3248,160.7184 C225.6144,160.7184 227.184,161.7984 227.3712,164.2176 L227.3712,164.2464 L225.3984,164.2464 L225.3984,164.2032 C225.2256,162.9072 224.4912,162.3312 223.3392,162.3312 C222.0144,162.3312 221.1072,163.2528 221.1072,165.0096 L221.1072,165.1968 C221.1072,166.8384 221.9424,167.76 223.3248,167.76 C224.5344,167.76 225.2256,167.1264 225.4128,165.8592 L225.4128,165.8448 L227.3856,165.8448 L227.3856,165.888 C227.1984,168.336 225.6,169.416 223.3104,169.416 Z M233.5056,169.2 L232.44,169.2 C231.6624,169.2 231.0576,169.0848 230.6544,168.8976 C229.8192,168.48 229.56,167.5728 229.56,165.888 L229.56,162.5904 L227.9472,162.5904 L227.9472,160.992 L228.6816,160.992 C228.9552,160.992 229.1424,160.9632 229.272,160.9056 C229.5456,160.776 229.632,160.4592 229.6752,159.7824 C229.6896,159.4224 229.704,158.9328 229.704,158.688 L231.3168,158.688 L231.3168,160.92 L233.5056,160.92 L233.5056,162.5904 L231.3168,162.5904 L231.3168,165.5712 C231.3168,166.1184 231.36,166.5216 231.432,166.7952 C231.5616,167.3424 231.9936,167.4432 232.9152,167.4432 L233.5056,167.4432 L233.5056,169.2 Z M240.5184,167.544 C239.9568,168.624 238.848,169.416 237.1344,169.416 C235.3344,169.416 234.4272,168.552 234.4272,167.1984 C234.4272,166.2768 234.8304,165.5856 235.5072,165.168 C235.7376,165.0096 235.9824,164.8944 236.2128,164.8224 C236.7024,164.6496 237.3216,164.5344 238.3584,164.376 C239.8416,164.1888 240.432,163.9872 240.432,163.3104 C240.432,162.6192 239.9856,162.1872 238.6896,162.1872 C237.3216,162.1872 236.7024,162.7776 236.6448,163.8432 L234.7008,163.8432 C234.8304,161.9568 236.2128,160.7184 238.5888,160.7184 C239.496,160.7184 240.1872,160.8336 240.7344,161.0784 C241.8144,161.5392 242.2464,162.4176 242.2464,163.6128 L242.2464,169.2 L240.72,169.2 L240.5184,167.544 Z M237.7824,167.9616 C238.3296,167.9616 238.7904,167.832 239.1936,167.5872 C240,167.0832 240.4464,166.248 240.4464,165.456 L240.4464,165.0096 C240.1008,165.2544 239.5248,165.4272 238.776,165.5424 C237.768,165.7008 237.3648,165.816 236.976,166.0608 C236.6448,166.2768 236.4864,166.5648 236.4864,166.9248 C236.4864,167.616 236.9184,167.9616 237.7824,167.9616 Z M248.6688,169.2 L247.6032,169.2 C246.8256,169.2 246.2208,169.0848 245.8176,168.8976 C244.9824,168.48 244.7232,167.5728 244.7232,165.888 L244.7232,162.5904 L243.1104,162.5904 L243.1104,160.992 L243.8448,160.992 C244.1184,160.992 244.3056,160.9632 244.4352,160.9056 C244.7088,160.776 244.7952,160.4592 244.8384,159.7824 C244.8528,159.4224 244.8672,158.9328 244.8672,158.688 L246.48,158.688 L246.48,160.92 L248.6688,160.92 L248.6688,162.5904 L246.48,162.5904 L246.48,165.5712 C246.48,166.1184 246.5232,166.5216 246.5952,166.7952 C246.7248,167.3424 247.1568,167.4432 248.0784,167.4432 L248.6688,167.4432 L248.6688,169.2 Z M251.016,160.0272 C250.1088,160.0272 249.7632,159.7248 249.7632,158.7744 C249.7632,157.8528 250.1808,157.536 251.016,157.536 C251.8512,157.536 252.2688,157.8528 252.2688,158.7744 C252.2688,159.6672 251.8656,160.0272 251.016,160.0272 Z M250.0368,169.2 L250.0368,160.92 L251.952,160.92 L251.952,169.2 L250.0368,169.2 Z M257.5536,169.416 C254.8752,169.416 253.3776,167.9328 253.3776,165.2256 L253.3776,165.0096 C253.3776,164.088 253.5648,163.296 253.9248,162.6624 C254.6448,161.3952 255.9264,160.7184 257.5536,160.7184 C258.3888,160.7184 259.0944,160.8768 259.7136,161.2224 C260.9808,161.8992 261.7296,163.1808 261.7296,165.0096 L261.7296,165.2256 C261.7296,166.1328 261.5568,166.8816 261.2112,167.5008 C260.4912,168.7536 259.2384,169.416 257.5536,169.416 Z M257.5536,167.76 C258.9792,167.76 259.8144,166.8384 259.8144,165.1968 L259.8144,165.0096 C259.8144,163.3104 258.936,162.3312 257.568,162.3312 C256.2144,162.3312 255.3072,163.2528 255.3072,165.0096 L255.3072,165.1968 C255.3072,166.8384 256.1424,167.76 257.5536,167.76 Z M265.0704,169.2 L263.1696,169.2 L263.1696,160.92 L264.768,160.92 L264.9408,162.576 C265.3872,161.4384 266.3232,160.7184 267.7488,160.7184 C269.7504,160.7184 270.816,162.0432 270.816,164.1024 L270.816,169.2 L268.9152,169.2 L268.9152,164.5632 C268.9152,163.2096 268.4832,162.36 267.1296,162.36 C265.7184,162.36 265.0704,163.3392 265.0704,164.88 L265.0704,169.2 Z M275.8416,169.416 C273.2928,169.416 272.0544,168.3936 271.8096,166.464 L273.8544,166.464 C274.0272,167.4432 274.704,167.832 275.8848,167.832 C277.0944,167.832 277.5696,167.4288 277.5696,166.7664 C277.5696,166.5216 277.4688,166.32 277.2528,166.1904 C276.8352,165.9456 276.1152,165.8448 275.3232,165.7296 C274.5744,165.6144 273.8112,165.4848 273.192,165.1536 C272.5728,164.8224 272.184,164.2608 272.184,163.3392 C272.184,161.8128 273.3216,160.7184 275.5968,160.7184 C277.9728,160.7184 279.0528,161.7408 279.2832,163.3968 L277.3536,163.3968 C277.224,162.5904 276.6768,162.2304 275.5824,162.2304 C274.4016,162.2304 274.0416,162.648 274.0416,163.224 C274.0416,163.4688 274.1424,163.6704 274.3584,163.8 C274.776,164.0448 275.5104,164.1456 276.3024,164.2608 C277.0512,164.376 277.8144,164.5056 278.4336,164.8368 C279.0528,165.168 279.4416,165.7296 279.4416,166.6512 C279.4416,168.2496 278.2896,169.416 275.8416,169.416 Z" id="Didnotmeetgrade-levelexpectations" fill="#0031A3" fill-rule="nonzero"></path>
                <path d="M486.0208,140.1264 L486.0208,147.6 L484.2208,147.6 L484.2208,137.3328 L485.9776,137.3328 L489.0016,141.48 L492.04,137.3472 L493.7824,137.3472 L493.7824,147.6 L491.9824,147.6 L491.9824,140.0544 L491.68,140.5584 L489.1024,144.0432 L488.8288,144.0432 L486.2656,140.544 L486.0208,140.1264 Z M503.4448,145.152 C502.9696,146.8368 501.6304,147.816 499.456,147.816 C496.6624,147.816 495.2944,146.2032 495.2944,143.64 L495.2944,143.4384 C495.2944,142.5456 495.4672,141.8112 495.8128,141.1488 C496.504,139.8528 497.7712,139.1184 499.5136,139.1184 C500.9392,139.1184 501.9472,139.608 502.6096,140.4 C503.272,141.192 503.56,142.2144 503.56,143.28 L503.56,144.1584 L497.1664,144.1584 C497.3248,145.512 498.16,146.2608 499.528,146.2608 C500.536,146.2608 501.1264,145.872 501.4144,145.152 L503.4448,145.152 Z M499.528,140.616 C498.2176,140.616 497.3968,141.3648 497.1808,142.6752 L501.6736,142.6752 C501.544,141.408 500.8528,140.616 499.528,140.616 Z M509.5504,147.6 L508.4848,147.6 C507.7072,147.6 507.1024,147.4848 506.6992,147.2976 C505.864,146.88 505.6048,145.9728 505.6048,144.288 L505.6048,140.9904 L503.992,140.9904 L503.992,139.392 L504.7264,139.392 C505,139.392 505.1872,139.3632 505.3168,139.3056 C505.5904,139.176 505.6768,138.8592 505.72,138.1824 C505.7344,137.8224 505.7488,137.3328 505.7488,137.088 L507.3616,137.088 L507.3616,139.32 L509.5504,139.32 L509.5504,140.9904 L507.3616,140.9904 L507.3616,143.9712 C507.3616,144.5184 507.4048,144.9216 507.4768,145.1952 C507.6064,145.7424 508.0384,145.8432 508.96,145.8432 L509.5504,145.8432 L509.5504,147.6 Z M518.6224,151.3584 C517.5856,151.3584 516.7936,151.272 516.232,151.0992 C515.1088,150.768 514.7632,150.1632 514.7632,149.3856 C514.7632,148.4928 515.3104,147.8448 516.6208,147.5424 C515.4976,147.384 515.008,146.8224 515.008,145.9872 C515.008,145.1376 515.6416,144.576 516.7936,144.3312 C515.656,143.9712 515.0944,143.1936 515.0944,141.984 C515.0944,140.328 516.3328,139.4352 518.3056,139.3056 L518.7232,139.2768 C519.2128,139.2336 519.5584,139.1904 519.8032,139.0896 C520.264,138.9168 520.3792,138.528 520.3792,137.736 L520.3792,137.6064 L522.568,137.6064 L522.568,137.88 C522.568,139.2048 521.9056,139.5648 520.1344,139.5792 C521.6752,139.7952 522.5104,140.7312 522.5104,141.984 L522.5104,142.0416 C522.5104,143.7984 521.1136,144.864 518.7664,144.864 L518.6368,144.864 C518.0608,144.864 517.6432,144.8784 517.3552,144.936 C516.7792,145.0368 516.6496,145.1952 516.6496,145.4688 C516.6496,145.8576 516.9952,146.016 517.9744,146.016 L519.6448,146.016 C521.9632,146.016 522.9712,146.9664 522.9712,148.4496 C522.9712,150.264 521.6032,151.3584 518.7232,151.3584 L518.6224,151.3584 Z M518.7664,143.5248 C520.0192,143.5248 520.624,143.0352 520.624,142.056 L520.624,142.0128 C520.624,140.8608 519.8176,140.472 518.7952,140.472 C517.7728,140.472 516.9808,140.9616 516.9808,142.0272 L516.9808,142.0704 C516.9808,143.0352 517.6432,143.5248 518.7664,143.5248 Z M518.7376,149.8032 C520.4512,149.8032 521.2144,149.3424 521.2144,148.5504 C521.2144,147.9744 520.7824,147.6 519.5728,147.6 L518.0896,147.6 C517.0672,147.7008 516.6208,148.1472 516.6208,148.7232 L516.6208,148.752 C516.6208,149.2704 517.1392,149.8032 518.4352,149.8032 L518.7376,149.8032 Z M523.9072,147.6 L523.9072,139.32 L525.4336,139.32 L525.6784,141.264 C526.0096,139.896 526.8592,139.248 528.4288,139.248 L528.9904,139.248 L528.9904,141.1632 L528.1696,141.1632 C527.5072,141.1632 527.0176,141.2496 526.672,141.4224 C525.9808,141.7536 525.7648,142.4736 525.7648,143.7696 L525.7648,147.6 L523.9072,147.6 Z M535.6,145.944 C535.0384,147.024 533.9296,147.816 532.216,147.816 C530.416,147.816 529.5088,146.952 529.5088,145.5984 C529.5088,144.6768 529.912,143.9856 530.5888,143.568 C530.8192,143.4096 531.064,143.2944 531.2944,143.2224 C531.784,143.0496 532.4032,142.9344 533.44,142.776 C534.9232,142.5888 535.5136,142.3872 535.5136,141.7104 C535.5136,141.0192 535.0672,140.5872 533.7712,140.5872 C532.4032,140.5872 531.784,141.1776 531.7264,142.2432 L529.7824,142.2432 C529.912,140.3568 531.2944,139.1184 533.6704,139.1184 C534.5776,139.1184 535.2688,139.2336 535.816,139.4784 C536.896,139.9392 537.328,140.8176 537.328,142.0128 L537.328,147.6 L535.8016,147.6 L535.6,145.944 Z M532.864,146.3616 C533.4112,146.3616 533.872,146.232 534.2752,145.9872 C535.0816,145.4832 535.528,144.648 535.528,143.856 L535.528,143.4096 C535.1824,143.6544 534.6064,143.8272 533.8576,143.9424 C532.8496,144.1008 532.4464,144.216 532.0576,144.4608 C531.7264,144.6768 531.568,144.9648 531.568,145.3248 C531.568,146.016 532,146.3616 532.864,146.3616 Z M545.0896,145.872 C544.6432,146.9952 543.7072,147.7728 542.224,147.7728 C540.1072,147.7728 538.7104,146.2896 538.7104,143.496 L538.7104,143.2944 C538.7104,142.3872 538.8688,141.624 539.1712,141.0048 C539.776,139.7664 540.8704,139.1328 542.2816,139.1328 C543.6496,139.1328 544.5568,139.7232 545.032,140.7456 L545.032,136.512 L546.8608,136.512 L546.8608,147.6 L545.2912,147.6 L545.0896,145.872 Z M542.8,146.1456 C544.2112,146.1456 545.0752,145.1232 545.0752,143.4816 L545.0752,143.3376 C545.0752,141.7392 544.24,140.7024 542.872,140.7024 C541.4464,140.7024 540.6544,141.6672 540.6544,143.3232 L540.6544,143.4816 C540.6544,145.2528 541.5472,146.1456 542.8,146.1456 Z M556.3936,145.152 C555.9184,146.8368 554.5792,147.816 552.4048,147.816 C549.6112,147.816 548.2432,146.2032 548.2432,143.64 L548.2432,143.4384 C548.2432,142.5456 548.416,141.8112 548.7616,141.1488 C549.4528,139.8528 550.72,139.1184 552.4624,139.1184 C553.888,139.1184 554.896,139.608 555.5584,140.4 C556.2208,141.192 556.5088,142.2144 556.5088,143.28 L556.5088,144.1584 L550.1152,144.1584 C550.2736,145.512 551.1088,146.2608 552.4768,146.2608 C553.4848,146.2608 554.0752,145.872 554.3632,145.152 L556.3936,145.152 Z M552.4768,140.616 C551.1664,140.616 550.3456,141.3648 550.1296,142.6752 L554.6224,142.6752 C554.4928,141.408 553.8016,140.616 552.4768,140.616 Z M564.256,144.072 L557.9776,144.072 L557.9776,142.1856 L564.256,142.1856 L564.256,144.072 Z M565.9408,147.6 L565.9408,136.512 L567.8272,136.512 L567.8272,147.6 L565.9408,147.6 Z M577.36,145.152 C576.8848,146.8368 575.5456,147.816 573.3712,147.816 C570.5776,147.816 569.2096,146.2032 569.2096,143.64 L569.2096,143.4384 C569.2096,142.5456 569.3824,141.8112 569.728,141.1488 C570.4192,139.8528 571.6864,139.1184 573.4288,139.1184 C574.8544,139.1184 575.8624,139.608 576.5248,140.4 C577.1872,141.192 577.4752,142.2144 577.4752,143.28 L577.4752,144.1584 L571.0816,144.1584 C571.24,145.512 572.0752,146.2608 573.4432,146.2608 C574.4512,146.2608 575.0416,145.872 575.3296,145.152 L577.36,145.152 Z M573.4432,140.616 C572.1328,140.616 571.312,141.3648 571.096,142.6752 L575.5888,142.6752 C575.4592,141.408 574.768,140.616 573.4432,140.616 Z M580.9744,147.6 L577.72,139.32 L579.6928,139.32 L581.8384,145.2528 L584.0704,139.32 L586.0576,139.32 L582.6592,147.6 L580.9744,147.6 Z M594.4096,145.152 C593.9344,146.8368 592.5952,147.816 590.4208,147.816 C587.6272,147.816 586.2592,146.2032 586.2592,143.64 L586.2592,143.4384 C586.2592,142.5456 586.432,141.8112 586.7776,141.1488 C587.4688,139.8528 588.736,139.1184 590.4784,139.1184 C591.904,139.1184 592.912,139.608 593.5744,140.4 C594.2368,141.192 594.5248,142.2144 594.5248,143.28 L594.5248,144.1584 L588.1312,144.1584 C588.2896,145.512 589.1248,146.2608 590.4928,146.2608 C591.5008,146.2608 592.0912,145.872 592.3792,145.152 L594.4096,145.152 Z M590.4928,140.616 C589.1824,140.616 588.3616,141.3648 588.1456,142.6752 L592.6384,142.6752 C592.5088,141.408 591.8176,140.616 590.4928,140.616 Z M595.9504,147.6 L595.9504,136.512 L597.8368,136.512 L597.8368,147.6 L595.9504,147.6 Z M500.8384,166.752 C500.3632,168.4368 499.024,169.416 496.8496,169.416 C494.056,169.416 492.688,167.8032 492.688,165.24 L492.688,165.0384 C492.688,164.1456 492.8608,163.4112 493.2064,162.7488 C493.8976,161.4528 495.1648,160.7184 496.9072,160.7184 C498.3328,160.7184 499.3408,161.208 500.0032,162 C500.6656,162.792 500.9536,163.8144 500.9536,164.88 L500.9536,165.7584 L494.56,165.7584 C494.7184,167.112 495.5536,167.8608 496.9216,167.8608 C497.9296,167.8608 498.52,167.472 498.808,166.752 L500.8384,166.752 Z M496.9216,162.216 C495.6112,162.216 494.7904,162.9648 494.5744,164.2752 L499.0672,164.2752 C498.9376,163.008 498.2464,162.216 496.9216,162.216 Z M505.2736,166.2336 L503.2,169.2 L500.9104,169.2 L504.208,164.8656 L501.256,160.92 L503.4736,160.92 L505.288,163.5552 L507.16,160.92 L509.3488,160.92 L506.3536,164.8512 L509.5504,169.2 L507.3328,169.2 L505.2736,166.2336 Z M514.9072,169.3728 C513.5392,169.3728 512.632,168.7536 512.1424,167.7456 L512.1424,172.0512 L510.3136,172.0512 L510.3136,160.92 L511.8832,160.92 L512.0848,162.6048 C512.5312,161.4672 513.496,160.7184 514.936,160.7184 C517.096,160.7184 518.464,162.2448 518.464,165.0384 L518.464,165.24 C518.464,166.1472 518.3056,166.896 518.0032,167.5152 C517.3984,168.7536 516.2896,169.3728 514.9072,169.3728 Z M514.3168,167.7744 C515.728,167.7744 516.5488,166.8528 516.5488,165.2112 L516.5488,165.0384 C516.5488,163.2672 515.656,162.3312 514.36,162.3312 C512.992,162.3312 512.0992,163.368 512.0992,165.0096 L512.0992,165.1536 C512.0992,166.752 512.9488,167.7744 514.3168,167.7744 Z M527.8528,166.752 C527.3776,168.4368 526.0384,169.416 523.864,169.416 C521.0704,169.416 519.7024,167.8032 519.7024,165.24 L519.7024,165.0384 C519.7024,164.1456 519.8752,163.4112 520.2208,162.7488 C520.912,161.4528 522.1792,160.7184 523.9216,160.7184 C525.3472,160.7184 526.3552,161.208 527.0176,162 C527.68,162.792 527.968,163.8144 527.968,164.88 L527.968,165.7584 L521.5744,165.7584 C521.7328,167.112 522.568,167.8608 523.936,167.8608 C524.944,167.8608 525.5344,167.472 525.8224,166.752 L527.8528,166.752 Z M523.936,162.216 C522.6256,162.216 521.8048,162.9648 521.5888,164.2752 L526.0816,164.2752 C525.952,163.008 525.2608,162.216 523.936,162.216 Z M533.3104,169.416 C530.6608,169.416 529.1488,167.9328 529.1488,165.2256 L529.1488,165.0096 C529.1488,164.088 529.336,163.296 529.696,162.6624 C530.4304,161.3952 531.7264,160.7184 533.3248,160.7184 C535.6144,160.7184 537.184,161.7984 537.3712,164.2176 L537.3712,164.2464 L535.3984,164.2464 L535.3984,164.2032 C535.2256,162.9072 534.4912,162.3312 533.3392,162.3312 C532.0144,162.3312 531.1072,163.2528 531.1072,165.0096 L531.1072,165.1968 C531.1072,166.8384 531.9424,167.76 533.3248,167.76 C534.5344,167.76 535.2256,167.1264 535.4128,165.8592 L535.4128,165.8448 L537.3856,165.8448 L537.3856,165.888 C537.1984,168.336 535.6,169.416 533.3104,169.416 Z M543.5056,169.2 L542.44,169.2 C541.6624,169.2 541.0576,169.0848 540.6544,168.8976 C539.8192,168.48 539.56,167.5728 539.56,165.888 L539.56,162.5904 L537.9472,162.5904 L537.9472,160.992 L538.6816,160.992 C538.9552,160.992 539.1424,160.9632 539.272,160.9056 C539.5456,160.776 539.632,160.4592 539.6752,159.7824 C539.6896,159.4224 539.704,158.9328 539.704,158.688 L541.3168,158.688 L541.3168,160.92 L543.5056,160.92 L543.5056,162.5904 L541.3168,162.5904 L541.3168,165.5712 C541.3168,166.1184 541.36,166.5216 541.432,166.7952 C541.5616,167.3424 541.9936,167.4432 542.9152,167.4432 L543.5056,167.4432 L543.5056,169.2 Z M550.5184,167.544 C549.9568,168.624 548.848,169.416 547.1344,169.416 C545.3344,169.416 544.4272,168.552 544.4272,167.1984 C544.4272,166.2768 544.8304,165.5856 545.5072,165.168 C545.7376,165.0096 545.9824,164.8944 546.2128,164.8224 C546.7024,164.6496 547.3216,164.5344 548.3584,164.376 C549.8416,164.1888 550.432,163.9872 550.432,163.3104 C550.432,162.6192 549.9856,162.1872 548.6896,162.1872 C547.3216,162.1872 546.7024,162.7776 546.6448,163.8432 L544.7008,163.8432 C544.8304,161.9568 546.2128,160.7184 548.5888,160.7184 C549.496,160.7184 550.1872,160.8336 550.7344,161.0784 C551.8144,161.5392 552.2464,162.4176 552.2464,163.6128 L552.2464,169.2 L550.72,169.2 L550.5184,167.544 Z M547.7824,167.9616 C548.3296,167.9616 548.7904,167.832 549.1936,167.5872 C550,167.0832 550.4464,166.248 550.4464,165.456 L550.4464,165.0096 C550.1008,165.2544 549.5248,165.4272 548.776,165.5424 C547.768,165.7008 547.3648,165.816 546.976,166.0608 C546.6448,166.2768 546.4864,166.5648 546.4864,166.9248 C546.4864,167.616 546.9184,167.9616 547.7824,167.9616 Z M558.6688,169.2 L557.6032,169.2 C556.8256,169.2 556.2208,169.0848 555.8176,168.8976 C554.9824,168.48 554.7232,167.5728 554.7232,165.888 L554.7232,162.5904 L553.1104,162.5904 L553.1104,160.992 L553.8448,160.992 C554.1184,160.992 554.3056,160.9632 554.4352,160.9056 C554.7088,160.776 554.7952,160.4592 554.8384,159.7824 C554.8528,159.4224 554.8672,158.9328 554.8672,158.688 L556.48,158.688 L556.48,160.92 L558.6688,160.92 L558.6688,162.5904 L556.48,162.5904 L556.48,165.5712 C556.48,166.1184 556.5232,166.5216 556.5952,166.7952 C556.7248,167.3424 557.1568,167.4432 558.0784,167.4432 L558.6688,167.4432 L558.6688,169.2 Z M561.016,160.0272 C560.1088,160.0272 559.7632,159.7248 559.7632,158.7744 C559.7632,157.8528 560.1808,157.536 561.016,157.536 C561.8512,157.536 562.2688,157.8528 562.2688,158.7744 C562.2688,159.6672 561.8656,160.0272 561.016,160.0272 Z M560.0368,169.2 L560.0368,160.92 L561.952,160.92 L561.952,169.2 L560.0368,169.2 Z M567.5536,169.416 C564.8752,169.416 563.3776,167.9328 563.3776,165.2256 L563.3776,165.0096 C563.3776,164.088 563.5648,163.296 563.9248,162.6624 C564.6448,161.3952 565.9264,160.7184 567.5536,160.7184 C568.3888,160.7184 569.0944,160.8768 569.7136,161.2224 C570.9808,161.8992 571.7296,163.1808 571.7296,165.0096 L571.7296,165.2256 C571.7296,166.1328 571.5568,166.8816 571.2112,167.5008 C570.4912,168.7536 569.2384,169.416 567.5536,169.416 Z M567.5536,167.76 C568.9792,167.76 569.8144,166.8384 569.8144,165.1968 L569.8144,165.0096 C569.8144,163.3104 568.936,162.3312 567.568,162.3312 C566.2144,162.3312 565.3072,163.2528 565.3072,165.0096 L565.3072,165.1968 C565.3072,166.8384 566.1424,167.76 567.5536,167.76 Z M575.0704,169.2 L573.1696,169.2 L573.1696,160.92 L574.768,160.92 L574.9408,162.576 C575.3872,161.4384 576.3232,160.7184 577.7488,160.7184 C579.7504,160.7184 580.816,162.0432 580.816,164.1024 L580.816,169.2 L578.9152,169.2 L578.9152,164.5632 C578.9152,163.2096 578.4832,162.36 577.1296,162.36 C575.7184,162.36 575.0704,163.3392 575.0704,164.88 L575.0704,169.2 Z M585.8416,169.416 C583.2928,169.416 582.0544,168.3936 581.8096,166.464 L583.8544,166.464 C584.0272,167.4432 584.704,167.832 585.8848,167.832 C587.0944,167.832 587.5696,167.4288 587.5696,166.7664 C587.5696,166.5216 587.4688,166.32 587.2528,166.1904 C586.8352,165.9456 586.1152,165.8448 585.3232,165.7296 C584.5744,165.6144 583.8112,165.4848 583.192,165.1536 C582.5728,164.8224 582.184,164.2608 582.184,163.3392 C582.184,161.8128 583.3216,160.7184 585.5968,160.7184 C587.9728,160.7184 589.0528,161.7408 589.2832,163.3968 L587.3536,163.3968 C587.224,162.5904 586.6768,162.2304 585.5824,162.2304 C584.4016,162.2304 584.0416,162.648 584.0416,163.224 C584.0416,163.4688 584.1424,163.6704 584.3584,163.8 C584.776,164.0448 585.5104,164.1456 586.3024,164.2608 C587.0512,164.376 587.8144,164.5056 588.4336,164.8368 C589.0528,165.168 589.4416,165.7296 589.4416,166.6512 C589.4416,168.2496 588.2896,169.416 585.8416,169.416 Z" id="Metgrade-levelexpectations" fill="#0031A3" fill-rule="nonzero"></path>
                <path d="M354.147,87.8841022 L354.147,77.9301022 L355.519,77.9301022 L355.519,86.6101022 L360.615,86.6101022 L360.615,87.8841022 L354.147,87.8841022 Z M369.421,85.5041022 C368.959,87.1561022 367.615,88.0941022 365.627,88.0941022 C362.967,88.0941022 361.637,86.5261022 361.637,84.0341022 L361.637,83.8661022 C361.637,83.0261022 361.805,82.2981022 362.127,81.6541022 C362.785,80.3941022 364.017,79.6661022 365.669,79.6661022 C366.551,79.6661022 367.279,79.8481022 367.839,80.2261022 C368.987,80.9821022 369.533,82.2561022 369.533,83.6981022 L369.533,84.3421022 L362.981,84.3421022 C363.079,85.9941022 364.031,86.9461022 365.683,86.9461022 C366.845,86.9461022 367.657,86.4421022 367.951,85.5041022 L369.421,85.5041022 Z M365.683,80.7721022 C364.143,80.7721022 363.163,81.7101022 362.995,83.2641022 L368.175,83.2641022 C368.063,81.7381022 367.223,80.7721022 365.683,80.7721022 Z M373.397,87.8841022 L370.135,79.8901022 L371.563,79.8901022 L374.041,86.2741022 L376.603,79.8901022 L378.031,79.8901022 L374.629,87.8841022 L373.397,87.8841022 Z M386.375,85.5041022 C385.913,87.1561022 384.569,88.0941022 382.581,88.0941022 C379.921,88.0941022 378.591,86.5261022 378.591,84.0341022 L378.591,83.8661022 C378.591,83.0261022 378.759,82.2981022 379.081,81.6541022 C379.739,80.3941022 380.971,79.6661022 382.623,79.6661022 C383.505,79.6661022 384.233,79.8481022 384.793,80.2261022 C385.941,80.9821022 386.487,82.2561022 386.487,83.6981022 L386.487,84.3421022 L379.935,84.3421022 C380.033,85.9941022 380.985,86.9461022 382.637,86.9461022 C383.799,86.9461022 384.611,86.4421022 384.905,85.5041022 L386.375,85.5041022 Z M382.637,80.7721022 C381.097,80.7721022 380.117,81.7101022 379.949,83.2641022 L385.129,83.2641022 C385.017,81.7381022 384.177,80.7721022 382.637,80.7721022 Z M388.181,87.8841022 L388.181,77.1741022 L389.539,77.1741022 L389.539,87.8841022 L388.181,87.8841022 Z M395.685,87.8841022 L395.685,86.8901022 C395.685,85.8821022 396.119,85.1681022 396.791,84.6081022 C397.463,84.0481022 398.317,83.6421022 399.157,83.2501022 C399.647,83.0261022 400.109,82.7881022 400.543,82.5641022 C401.411,82.1161022 401.999,81.5841022 401.999,80.7721022 C401.999,79.6101022 401.229,78.9661022 399.731,78.9661022 C398.121,78.9661022 397.225,79.7921022 397.225,81.2901022 L397.225,81.6121022 L395.839,81.6121022 L395.839,81.2341022 C395.839,78.9661022 397.253,77.7761022 399.745,77.7761022 C402.153,77.7761022 403.413,78.9801022 403.413,80.7021022 C403.413,81.6541022 403.007,82.3261022 402.363,82.8721022 C401.719,83.4041022 400.921,83.8101022 400.109,84.1881022 C399.647,84.4121022 399.185,84.6361022 398.779,84.8601022 C397.939,85.3081022 397.337,85.8401022 397.267,86.6241022 L403.455,86.6241022 L403.455,87.8841022 L395.685,87.8841022 Z M354.329,103.760102 C353.657,103.760102 353.391,103.438102 353.391,102.500102 C353.391,101.296102 353.881,100.526102 354.945,100.232102 L355.113,100.820102 C354.553,101.002102 354.259,101.422102 354.203,102.094102 C354.273,102.080102 354.371,102.066102 354.441,102.066102 C354.973,102.066102 355.197,102.220102 355.197,102.878102 C355.197,103.522102 354.931,103.760102 354.329,103.760102 Z M356.961,103.760102 C356.289,103.760102 356.023,103.438102 356.023,102.500102 C356.023,101.296102 356.513,100.526102 357.577,100.232102 L357.745,100.820102 C357.185,101.002102 356.891,101.422102 356.849,102.094102 C356.919,102.080102 357.003,102.066102 357.073,102.066102 C357.605,102.066102 357.829,102.220102 357.829,102.878102 C357.829,103.522102 357.563,103.760102 356.961,103.760102 Z M360.055,110.284102 L360.055,100.330102 L363.807,100.330102 C366.397,100.330102 367.475,101.226102 367.475,102.878102 C367.475,104.110102 366.929,104.838102 365.865,105.188102 C367.027,105.510102 367.671,106.210102 367.671,107.498102 C367.671,109.304102 366.495,110.284102 363.905,110.284102 L360.055,110.284102 Z M363.863,104.628102 C365.333,104.642102 366.131,104.152102 366.131,103.004102 C366.131,101.968102 365.459,101.464102 363.849,101.464102 L361.385,101.464102 L361.385,104.628102 L363.863,104.628102 Z M361.385,105.748102 L361.385,109.108102 L363.751,109.108102 C365.571,109.108102 366.285,108.520102 366.285,107.400102 C366.285,106.238102 365.445,105.748102 363.779,105.748102 L361.385,105.748102 Z M375.245,108.296102 C374.685,109.528102 373.453,110.494102 371.675,110.494102 C369.953,110.494102 369.057,109.654102 369.057,108.366102 C369.057,107.526102 369.449,106.854102 370.093,106.462102 C370.317,106.308102 370.541,106.210102 370.779,106.112102 C371.269,105.944102 371.941,105.804102 373.005,105.650102 C374.419,105.440102 375.189,105.314102 375.189,104.558102 C375.189,103.690102 374.615,103.144102 373.117,103.144102 C371.535,103.144102 370.765,103.914102 370.695,105.034102 L369.309,105.034102 C369.351,104.446102 369.533,103.942102 369.827,103.494102 C370.443,102.598102 371.535,102.066102 373.061,102.066102 C375.553,102.066102 376.505,103.116102 376.505,104.768102 L376.505,110.284102 L375.399,110.284102 L375.245,108.296102 Z M372.095,109.416102 C373.019,109.416102 373.789,109.052102 374.335,108.464102 C374.895,107.876102 375.203,107.176102 375.203,106.504102 L375.203,105.916102 C374.853,106.210102 374.181,106.364102 373.299,106.518102 C372.081,106.700102 371.563,106.840102 371.115,107.134102 C370.737,107.372102 370.541,107.722102 370.541,108.198102 C370.541,108.954102 371.045,109.416102 372.095,109.416102 Z M381.685,110.494102 C379.417,110.494102 378.115,109.528102 377.891,107.666102 L379.361,107.666102 C379.529,108.814102 380.453,109.332102 381.713,109.332102 C383.197,109.332102 383.743,108.730102 383.743,107.974102 C383.743,107.652102 383.631,107.428102 383.407,107.274102 C382.945,106.952102 382.161,106.840102 381.321,106.728102 C380.593,106.616102 379.837,106.476102 379.235,106.182102 C378.633,105.860102 378.241,105.356102 378.241,104.488102 C378.241,104.040102 378.353,103.634102 378.577,103.284102 C379.053,102.528102 379.977,102.066102 381.419,102.066102 C383.589,102.066102 384.709,103.046102 384.919,104.600102 L383.533,104.600102 C383.407,103.648102 382.693,103.172102 381.405,103.172102 C380.033,103.172102 379.585,103.760102 379.585,104.418102 C379.585,104.712102 379.697,104.950102 379.935,105.118102 C380.411,105.412102 381.181,105.524102 382.021,105.650102 C382.749,105.762102 383.505,105.902102 384.107,106.196102 C384.709,106.518102 385.087,107.008102 385.087,107.890102 C385.087,108.380102 384.961,108.814102 384.723,109.206102 C384.233,109.990102 383.267,110.494102 381.685,110.494102 Z M387.411,101.268102 C386.711,101.268102 386.445,101.016102 386.445,100.302102 C386.445,99.5881018 386.767,99.3361018 387.411,99.3361018 C388.055,99.3361018 388.363,99.5881018 388.363,100.302102 C388.363,101.002102 388.055,101.268102 387.411,101.268102 Z M386.697,110.284102 L386.697,102.290102 L388.083,102.290102 L388.083,110.284102 L386.697,110.284102 Z M393.781,110.494102 C391.247,110.494102 389.791,108.996102 389.791,106.420102 L389.791,106.238102 C389.791,105.342102 389.973,104.614102 390.323,103.970102 C391.023,102.738102 392.269,102.066102 393.795,102.066102 C395.909,102.066102 397.393,103.102102 397.631,105.328102 L397.631,105.356102 L396.217,105.356102 L396.217,105.328102 C395.993,103.900102 395.125,103.242102 393.809,103.242102 C392.269,103.242102 391.191,104.306102 391.191,106.238102 L391.191,106.392102 C391.191,108.212102 392.157,109.276102 393.795,109.276102 C395.181,109.276102 395.993,108.576102 396.231,107.190102 L396.231,107.176102 L397.645,107.176102 L397.645,107.204102 C397.407,109.472102 395.923,110.494102 393.781,110.494102 Z M399.283,103.144102 C399.829,102.962102 400.123,102.542102 400.179,101.884102 C400.109,101.898102 400.053,101.912102 399.955,101.912102 C399.423,101.912102 399.185,101.758102 399.185,101.086102 C399.185,100.442102 399.465,100.218102 400.067,100.218102 C400.725,100.218102 401.005,100.540102 401.005,101.478102 C401.005,102.682102 400.515,103.438102 399.451,103.732102 L399.283,103.144102 Z M401.915,103.144102 C402.475,102.962102 402.769,102.542102 402.825,101.884102 C402.755,101.898102 402.671,101.912102 402.601,101.912102 C402.069,101.912102 401.831,101.758102 401.831,101.086102 C401.831,100.442102 402.097,100.218102 402.713,100.218102 C403.371,100.218102 403.637,100.540102 403.637,101.478102 C403.637,102.682102 403.147,103.438102 402.083,103.732102 L401.915,103.144102 Z" id="Level2“Basic”" fill="#0031A3" fill-rule="nonzero"></path>
                <path d="M459.493,87.8841022 L459.493,77.9301022 L460.865,77.9301022 L460.865,86.6101022 L465.961,86.6101022 L465.961,87.8841022 L459.493,87.8841022 Z M474.767,85.5041022 C474.305,87.1561022 472.961,88.0941022 470.973,88.0941022 C468.313,88.0941022 466.983,86.5261022 466.983,84.0341022 L466.983,83.8661022 C466.983,83.0261022 467.151,82.2981022 467.473,81.6541022 C468.131,80.3941022 469.363,79.6661022 471.015,79.6661022 C471.897,79.6661022 472.625,79.8481022 473.185,80.2261022 C474.333,80.9821022 474.879,82.2561022 474.879,83.6981022 L474.879,84.3421022 L468.327,84.3421022 C468.425,85.9941022 469.377,86.9461022 471.029,86.9461022 C472.191,86.9461022 473.003,86.4421022 473.297,85.5041022 L474.767,85.5041022 Z M471.029,80.7721022 C469.489,80.7721022 468.509,81.7101022 468.341,83.2641022 L473.521,83.2641022 C473.409,81.7381022 472.569,80.7721022 471.029,80.7721022 Z M478.743,87.8841022 L475.481,79.8901022 L476.909,79.8901022 L479.387,86.2741022 L481.949,79.8901022 L483.377,79.8901022 L479.975,87.8841022 L478.743,87.8841022 Z M491.721,85.5041022 C491.259,87.1561022 489.915,88.0941022 487.927,88.0941022 C485.267,88.0941022 483.937,86.5261022 483.937,84.0341022 L483.937,83.8661022 C483.937,83.0261022 484.105,82.2981022 484.427,81.6541022 C485.085,80.3941022 486.317,79.6661022 487.969,79.6661022 C488.851,79.6661022 489.579,79.8481022 490.139,80.2261022 C491.287,80.9821022 491.833,82.2561022 491.833,83.6981022 L491.833,84.3421022 L485.281,84.3421022 C485.379,85.9941022 486.331,86.9461022 487.983,86.9461022 C489.145,86.9461022 489.957,86.4421022 490.251,85.5041022 L491.721,85.5041022 Z M487.983,80.7721022 C486.443,80.7721022 485.463,81.7101022 485.295,83.2641022 L490.475,83.2641022 C490.363,81.7381022 489.523,80.7721022 487.983,80.7721022 Z M493.527,87.8841022 L493.527,77.1741022 L494.885,77.1741022 L494.885,87.8841022 L493.527,87.8841022 Z M504.965,88.0801022 C502.193,88.0801022 501.003,87.0301022 501.003,84.7621022 L501.003,84.4961022 L502.403,84.4961022 L502.403,84.6921022 C502.403,86.1901022 503.187,86.8481022 504.951,86.8481022 C506.533,86.8481022 507.499,86.1061022 507.499,84.9861022 C507.499,83.7681022 506.757,83.4041022 505.343,83.4041022 L504.013,83.4041022 L504.013,82.3121022 L505.343,82.3121022 C506.729,82.3121022 507.359,81.7381022 507.359,80.7021022 C507.359,79.7081022 506.575,78.9941022 505.021,78.9941022 C503.439,78.9941022 502.557,79.8621022 502.557,81.0801022 L502.557,81.2341022 L501.185,81.2341022 L501.185,81.0381022 C501.185,79.0641022 502.571,77.7761022 505.063,77.7761022 C507.471,77.7761022 508.773,78.9241022 508.773,80.5621022 C508.773,81.7101022 508.297,82.4381022 507.303,82.7741022 C508.353,83.0961022 508.955,83.8381022 508.955,85.1261022 C508.955,85.7141022 508.801,86.2181022 508.479,86.6661022 C507.863,87.5621022 506.659,88.0801022 504.965,88.0801022 Z M444.331,103.760102 C443.659,103.760102 443.393,103.438102 443.393,102.500102 C443.393,101.296102 443.883,100.526102 444.947,100.232102 L445.115,100.820102 C444.555,101.002102 444.261,101.422102 444.205,102.094102 C444.275,102.080102 444.373,102.066102 444.443,102.066102 C444.975,102.066102 445.199,102.220102 445.199,102.878102 C445.199,103.522102 444.933,103.760102 444.331,103.760102 Z M446.963,103.760102 C446.291,103.760102 446.025,103.438102 446.025,102.500102 C446.025,101.296102 446.515,100.526102 447.579,100.232102 L447.747,100.820102 C447.187,101.002102 446.893,101.422102 446.851,102.094102 C446.921,102.080102 447.005,102.066102 447.075,102.066102 C447.607,102.066102 447.831,102.220102 447.831,102.878102 C447.831,103.522102 447.565,103.760102 446.963,103.760102 Z M451.401,107.008102 L451.401,110.284102 L450.057,110.284102 L450.057,100.330102 L453.711,100.330102 C454.593,100.330102 455.293,100.470102 455.881,100.750102 C457.029,101.310102 457.575,102.332102 457.575,103.648102 C457.575,105.706102 456.371,107.022102 453.795,107.008102 L451.401,107.008102 Z M451.401,101.520102 L451.401,105.832102 L453.781,105.832102 C455.335,105.832102 456.217,105.076102 456.217,103.648102 C456.217,102.374102 455.419,101.520102 453.711,101.520102 L451.401,101.520102 Z M459.213,110.284102 L459.213,102.290102 L460.319,102.290102 L460.501,104.278102 C460.837,102.948102 461.747,102.234102 463.399,102.234102 L463.889,102.234102 L463.889,103.606102 L463.217,103.606102 C462.545,103.606102 461.999,103.704102 461.621,103.914102 C460.837,104.348102 460.557,105.174102 460.557,106.546102 L460.557,110.284102 L459.213,110.284102 Z M468.635,110.494102 C466.087,110.494102 464.631,108.996102 464.631,106.420102 L464.631,106.238102 C464.631,105.342102 464.813,104.614102 465.149,103.970102 C465.849,102.738102 467.095,102.066102 468.635,102.066102 C469.419,102.066102 470.105,102.234102 470.707,102.570102 C471.925,103.228102 472.639,104.474102 472.639,106.238102 L472.639,106.420102 C472.639,107.288102 472.471,108.002102 472.149,108.618102 C471.477,109.836102 470.273,110.494102 468.635,110.494102 Z M468.635,109.276102 C470.301,109.276102 471.253,108.212102 471.253,106.392102 L471.253,106.238102 C471.253,104.376102 470.189,103.242102 468.635,103.242102 C467.095,103.242102 466.017,104.306102 466.017,106.238102 L466.017,106.392102 C466.017,108.212102 466.983,109.276102 468.635,109.276102 Z M476.097,103.466102 L476.097,110.284102 L474.795,110.284102 L474.795,103.466102 L473.297,103.466102 L473.297,102.290102 L474.795,102.290102 L474.795,101.940102 C474.795,101.226102 474.879,100.680102 475.047,100.288102 C475.397,99.4621018 476.139,99.1681018 477.413,99.1681018 L478.253,99.1681018 L478.253,100.288102 L477.581,100.288102 C477.175,100.288102 476.867,100.330102 476.643,100.428102 C476.209,100.596102 476.097,101.058102 476.097,102.094102 L476.097,102.290102 L478.253,102.290102 L478.253,103.466102 L476.097,103.466102 Z M480.423,101.268102 C479.723,101.268102 479.457,101.016102 479.457,100.302102 C479.457,99.5881018 479.779,99.3361018 480.423,99.3361018 C481.067,99.3361018 481.375,99.5881018 481.375,100.302102 C481.375,101.002102 481.067,101.268102 480.423,101.268102 Z M479.709,110.284102 L479.709,102.290102 L481.095,102.290102 L481.095,110.284102 L479.709,110.284102 Z M486.793,110.494102 C484.259,110.494102 482.803,108.996102 482.803,106.420102 L482.803,106.238102 C482.803,105.342102 482.985,104.614102 483.335,103.970102 C484.035,102.738102 485.281,102.066102 486.807,102.066102 C488.921,102.066102 490.405,103.102102 490.643,105.328102 L490.643,105.356102 L489.229,105.356102 L489.229,105.328102 C489.005,103.900102 488.137,103.242102 486.821,103.242102 C485.281,103.242102 484.203,104.306102 484.203,106.238102 L484.203,106.392102 C484.203,108.212102 485.169,109.276102 486.807,109.276102 C488.193,109.276102 489.005,108.576102 489.243,107.190102 L489.243,107.176102 L490.657,107.176102 L490.657,107.204102 C490.419,109.472102 488.935,110.494102 486.793,110.494102 Z M493.079,101.268102 C492.379,101.268102 492.113,101.016102 492.113,100.302102 C492.113,99.5881018 492.435,99.3361018 493.079,99.3361018 C493.723,99.3361018 494.031,99.5881018 494.031,100.302102 C494.031,101.002102 493.723,101.268102 493.079,101.268102 Z M492.365,110.284102 L492.365,102.290102 L493.751,102.290102 L493.751,110.284102 L492.365,110.284102 Z M503.243,107.904102 C502.781,109.556102 501.437,110.494102 499.449,110.494102 C496.789,110.494102 495.459,108.926102 495.459,106.434102 L495.459,106.266102 C495.459,105.426102 495.627,104.698102 495.949,104.054102 C496.607,102.794102 497.839,102.066102 499.491,102.066102 C500.373,102.066102 501.101,102.248102 501.661,102.626102 C502.809,103.382102 503.355,104.656102 503.355,106.098102 L503.355,106.742102 L496.803,106.742102 C496.901,108.394102 497.853,109.346102 499.505,109.346102 C500.667,109.346102 501.479,108.842102 501.773,107.904102 L503.243,107.904102 Z M499.505,103.172102 C497.965,103.172102 496.985,104.110102 496.817,105.664102 L501.997,105.664102 C501.885,104.138102 501.045,103.172102 499.505,103.172102 Z M506.379,110.284102 L505.007,110.284102 L505.007,102.290102 L506.155,102.290102 L506.295,104.110102 C506.729,102.878102 507.695,102.066102 509.221,102.066102 C511.279,102.066102 512.343,103.396102 512.343,105.426102 L512.343,110.284102 L510.971,110.284102 L510.971,105.734102 C510.971,104.236102 510.369,103.256102 508.815,103.256102 C507.233,103.256102 506.379,104.390102 506.379,106.098102 L506.379,110.284102 Z M518.433,110.284102 L517.551,110.284102 C516.837,110.284102 516.277,110.186102 515.885,110.004102 C515.101,109.626102 514.821,108.786102 514.821,107.190102 L514.821,103.494102 L513.253,103.494102 L513.253,102.332102 L514.023,102.332102 C514.261,102.332102 514.443,102.318102 514.569,102.262102 C514.807,102.164102 514.863,101.898102 514.905,101.296102 C514.905,101.226102 514.905,101.100102 514.919,100.946102 C514.919,100.624102 514.933,100.288102 514.933,100.176102 L516.081,100.176102 L516.081,102.290102 L518.433,102.290102 L518.433,103.494102 L516.081,103.494102 L516.081,106.994102 C516.081,107.582102 516.123,108.002102 516.221,108.282102 C516.431,108.870102 516.907,109.010102 517.859,109.010102 L518.433,109.010102 L518.433,110.284102 Z M520.281,103.144102 C520.827,102.962102 521.121,102.542102 521.177,101.884102 C521.107,101.898102 521.051,101.912102 520.953,101.912102 C520.421,101.912102 520.183,101.758102 520.183,101.086102 C520.183,100.442102 520.463,100.218102 521.065,100.218102 C521.723,100.218102 522.003,100.540102 522.003,101.478102 C522.003,102.682102 521.513,103.438102 520.449,103.732102 L520.281,103.144102 Z M522.913,103.144102 C523.473,102.962102 523.767,102.542102 523.823,101.884102 C523.753,101.898102 523.669,101.912102 523.599,101.912102 C523.067,101.912102 522.829,101.758102 522.829,101.086102 C522.829,100.442102 523.095,100.218102 523.711,100.218102 C524.369,100.218102 524.635,100.540102 524.635,101.478102 C524.635,102.682102 524.145,103.438102 523.081,103.732102 L522.913,103.144102 Z" id="Level3“Proficient”" fill="#0031A3" fill-rule="nonzero"></path>
                <path d="M566.57,87.8841022 L566.57,77.9301022 L567.942,77.9301022 L567.942,86.6101022 L573.038,86.6101022 L573.038,87.8841022 L566.57,87.8841022 Z M581.844,85.5041022 C581.382,87.1561022 580.038,88.0941022 578.05,88.0941022 C575.39,88.0941022 574.06,86.5261022 574.06,84.0341022 L574.06,83.8661022 C574.06,83.0261022 574.228,82.2981022 574.55,81.6541022 C575.208,80.3941022 576.44,79.6661022 578.092,79.6661022 C578.974,79.6661022 579.702,79.8481022 580.262,80.2261022 C581.41,80.9821022 581.956,82.2561022 581.956,83.6981022 L581.956,84.3421022 L575.404,84.3421022 C575.502,85.9941022 576.454,86.9461022 578.106,86.9461022 C579.268,86.9461022 580.08,86.4421022 580.374,85.5041022 L581.844,85.5041022 Z M578.106,80.7721022 C576.566,80.7721022 575.586,81.7101022 575.418,83.2641022 L580.598,83.2641022 C580.486,81.7381022 579.646,80.7721022 578.106,80.7721022 Z M585.82,87.8841022 L582.558,79.8901022 L583.986,79.8901022 L586.464,86.2741022 L589.026,79.8901022 L590.454,79.8901022 L587.052,87.8841022 L585.82,87.8841022 Z M598.798,85.5041022 C598.336,87.1561022 596.992,88.0941022 595.004,88.0941022 C592.344,88.0941022 591.014,86.5261022 591.014,84.0341022 L591.014,83.8661022 C591.014,83.0261022 591.182,82.2981022 591.504,81.6541022 C592.162,80.3941022 593.394,79.6661022 595.046,79.6661022 C595.928,79.6661022 596.656,79.8481022 597.216,80.2261022 C598.364,80.9821022 598.91,82.2561022 598.91,83.6981022 L598.91,84.3421022 L592.358,84.3421022 C592.456,85.9941022 593.408,86.9461022 595.06,86.9461022 C596.222,86.9461022 597.034,86.4421022 597.328,85.5041022 L598.798,85.5041022 Z M595.06,80.7721022 C593.52,80.7721022 592.54,81.7101022 592.372,83.2641022 L597.552,83.2641022 C597.44,81.7381022 596.6,80.7721022 595.06,80.7721022 Z M600.604,87.8841022 L600.604,77.1741022 L601.962,77.1741022 L601.962,87.8841022 L600.604,87.8841022 Z M616.228,85.4481022 L614.422,85.4481022 L614.422,87.8841022 L613.064,87.8841022 L613.064,85.4481022 L607.772,85.4481022 L607.772,84.4681022 L613.218,77.9301022 L614.422,77.9301022 L614.422,84.2861022 L616.228,84.2861022 L616.228,85.4481022 Z M613.064,84.2861022 L613.064,79.8621022 L609.34,84.2861022 L613.064,84.2861022 Z M550.582,103.760102 C549.91,103.760102 549.644,103.438102 549.644,102.500102 C549.644,101.296102 550.134,100.526102 551.198,100.232102 L551.366,100.820102 C550.806,101.002102 550.512,101.422102 550.456,102.094102 C550.526,102.080102 550.624,102.066102 550.694,102.066102 C551.226,102.066102 551.45,102.220102 551.45,102.878102 C551.45,103.522102 551.184,103.760102 550.582,103.760102 Z M553.214,103.760102 C552.542,103.760102 552.276,103.438102 552.276,102.500102 C552.276,101.296102 552.766,100.526102 553.83,100.232102 L553.998,100.820102 C553.438,101.002102 553.144,101.422102 553.102,102.094102 C553.172,102.080102 553.256,102.066102 553.326,102.066102 C553.858,102.066102 554.082,102.220102 554.082,102.878102 C554.082,103.522102 553.816,103.760102 553.214,103.760102 Z M560.508,107.694102 L556.238,107.694102 L555.3,110.284102 L553.9,110.284102 L557.624,100.330102 L559.038,100.330102 L562.874,110.284102 L561.474,110.284102 L560.508,107.694102 Z M556.658,106.518102 L560.06,106.518102 L558.366,101.968102 L558.338,101.772102 L558.296,101.968102 L556.658,106.518102 Z M570.112,108.408102 C569.664,109.612102 568.656,110.466102 567.102,110.466102 C566.402,110.466102 565.8,110.312102 565.254,109.990102 C564.19,109.332102 563.56,108.100102 563.56,106.336102 L563.56,106.154102 C563.56,105.286102 563.714,104.558102 564.008,103.942102 C564.624,102.724102 565.744,102.080102 567.186,102.080102 C568.628,102.080102 569.608,102.780102 570.07,103.886102 L570.07,99.5741018 L571.386,99.5741018 L571.386,110.284102 L570.266,110.284102 L570.112,108.408102 Z M567.466,109.276102 C568.012,109.276102 568.488,109.136102 568.88,108.898102 C569.692,108.394102 570.126,107.470102 570.126,106.308102 L570.126,106.210102 C570.126,105.608102 570.028,105.104102 569.818,104.656102 C569.412,103.760102 568.628,103.228102 567.564,103.228102 C565.87,103.228102 564.96,104.362102 564.96,106.182102 L564.96,106.322102 C564.96,108.240102 565.996,109.276102 567.466,109.276102 Z M575.838,110.284102 L572.576,102.290102 L574.004,102.290102 L576.482,108.674102 L579.044,102.290102 L580.472,102.290102 L577.07,110.284102 L575.838,110.284102 Z M587.178,108.296102 C586.618,109.528102 585.386,110.494102 583.608,110.494102 C581.886,110.494102 580.99,109.654102 580.99,108.366102 C580.99,107.526102 581.382,106.854102 582.026,106.462102 C582.25,106.308102 582.474,106.210102 582.712,106.112102 C583.202,105.944102 583.874,105.804102 584.938,105.650102 C586.352,105.440102 587.122,105.314102 587.122,104.558102 C587.122,103.690102 586.548,103.144102 585.05,103.144102 C583.468,103.144102 582.698,103.914102 582.628,105.034102 L581.242,105.034102 C581.284,104.446102 581.466,103.942102 581.76,103.494102 C582.376,102.598102 583.468,102.066102 584.994,102.066102 C587.486,102.066102 588.438,103.116102 588.438,104.768102 L588.438,110.284102 L587.332,110.284102 L587.178,108.296102 Z M584.028,109.416102 C584.952,109.416102 585.722,109.052102 586.268,108.464102 C586.828,107.876102 587.136,107.176102 587.136,106.504102 L587.136,105.916102 C586.786,106.210102 586.114,106.364102 585.232,106.518102 C584.014,106.700102 583.496,106.840102 583.048,107.134102 C582.67,107.372102 582.474,107.722102 582.474,108.198102 C582.474,108.954102 582.978,109.416102 584.028,109.416102 Z M591.84,110.284102 L590.468,110.284102 L590.468,102.290102 L591.616,102.290102 L591.756,104.110102 C592.19,102.878102 593.156,102.066102 594.682,102.066102 C596.74,102.066102 597.804,103.396102 597.804,105.426102 L597.804,110.284102 L596.432,110.284102 L596.432,105.734102 C596.432,104.236102 595.83,103.256102 594.276,103.256102 C592.694,103.256102 591.84,104.390102 591.84,106.098102 L591.84,110.284102 Z M603.446,110.494102 C600.912,110.494102 599.456,108.996102 599.456,106.420102 L599.456,106.238102 C599.456,105.342102 599.638,104.614102 599.988,103.970102 C600.688,102.738102 601.934,102.066102 603.46,102.066102 C605.574,102.066102 607.058,103.102102 607.296,105.328102 L607.296,105.356102 L605.882,105.356102 L605.882,105.328102 C605.658,103.900102 604.79,103.242102 603.474,103.242102 C601.934,103.242102 600.856,104.306102 600.856,106.238102 L600.856,106.392102 C600.856,108.212102 601.822,109.276102 603.46,109.276102 C604.846,109.276102 605.658,108.576102 605.896,107.190102 L605.896,107.176102 L607.31,107.176102 L607.31,107.204102 C607.072,109.472102 605.588,110.494102 603.446,110.494102 Z M616.424,107.904102 C615.962,109.556102 614.618,110.494102 612.63,110.494102 C609.97,110.494102 608.64,108.926102 608.64,106.434102 L608.64,106.266102 C608.64,105.426102 608.808,104.698102 609.13,104.054102 C609.788,102.794102 611.02,102.066102 612.672,102.066102 C613.554,102.066102 614.282,102.248102 614.842,102.626102 C615.99,103.382102 616.536,104.656102 616.536,106.098102 L616.536,106.742102 L609.984,106.742102 C610.082,108.394102 611.034,109.346102 612.686,109.346102 C613.848,109.346102 614.66,108.842102 614.954,107.904102 L616.424,107.904102 Z M612.686,103.172102 C611.146,103.172102 610.166,104.110102 609.998,105.664102 L615.178,105.664102 C615.066,104.138102 614.226,103.172102 612.686,103.172102 Z M624.488,108.408102 C624.04,109.612102 623.032,110.466102 621.478,110.466102 C620.778,110.466102 620.176,110.312102 619.63,109.990102 C618.566,109.332102 617.936,108.100102 617.936,106.336102 L617.936,106.154102 C617.936,105.286102 618.09,104.558102 618.384,103.942102 C619,102.724102 620.12,102.080102 621.562,102.080102 C623.004,102.080102 623.984,102.780102 624.446,103.886102 L624.446,99.5741018 L625.762,99.5741018 L625.762,110.284102 L624.642,110.284102 L624.488,108.408102 Z M621.842,109.276102 C622.388,109.276102 622.864,109.136102 623.256,108.898102 C624.068,108.394102 624.502,107.470102 624.502,106.308102 L624.502,106.210102 C624.502,105.608102 624.404,105.104102 624.194,104.656102 C623.788,103.760102 623.004,103.228102 621.94,103.228102 C620.246,103.228102 619.336,104.362102 619.336,106.182102 L619.336,106.322102 C619.336,108.240102 620.372,109.276102 621.842,109.276102 Z M628.03,103.144102 C628.576,102.962102 628.87,102.542102 628.926,101.884102 C628.856,101.898102 628.8,101.912102 628.702,101.912102 C628.17,101.912102 627.932,101.758102 627.932,101.086102 C627.932,100.442102 628.212,100.218102 628.814,100.218102 C629.472,100.218102 629.752,100.540102 629.752,101.478102 C629.752,102.682102 629.262,103.438102 628.198,103.732102 L628.03,103.144102 Z M630.662,103.144102 C631.222,102.962102 631.516,102.542102 631.572,101.884102 C631.502,101.898102 631.418,101.912102 631.348,101.912102 C630.816,101.912102 630.578,101.758102 630.578,101.086102 C630.578,100.442102 630.844,100.218102 631.46,100.218102 C632.118,100.218102 632.384,100.540102 632.384,101.478102 C632.384,102.682102 631.894,103.438102 630.83,103.732102 L630.662,103.144102 Z" id="Level4“Advanced”" fill="#0031A3" fill-rule="nonzero"></path>
                <path d="M642,28.1435897 L642,75.3846154" id="Line-2" stroke="#0032A3" stroke-width="1.6" stroke-linecap="square"></path>
                <path d="M326,28 L326,75.2410256" id="Line-2-Copy" stroke="#0032A3" stroke-width="1.6" stroke-linecap="square"></path>
                <path d="M537,28.1435897 L537,75.3846154" id="Line-2-Copy-5" stroke="#0032A3" stroke-width="1.6" stroke-linecap="square"></path>
                <path d="M431,28.1435897 L431,189.246795" id="Line-2-Copy-2" stroke="#0032A3" stroke-width="1.6" stroke-linecap="square"></path>
                <path d="M11,28.1435897 L11,75.3846154" id="Line-2-Copy-4" stroke="#0032A3" stroke-width="1.6" stroke-linecap="square"></path>
            </g>
        </g>
    </g>
</svg>