<?xml version="1.0" encoding="UTF-8"?>
<svg width="657px" height="180px" viewBox="0 0 657 180" version="1.1" xmlns="http://www.w3.org/2000/svg" xmlns:xlink="http://www.w3.org/1999/xlink">
    <!-- Generator: Sketch 56.2 (81672) - https://sketch.com -->
    <title>Group 4 Copy</title>
    <desc>Created with Sketch.</desc>
    <g id="Page-1" stroke="none" stroke-width="1" fill="none" fill-rule="evenodd">
        <g id="Artboard-Copy" transform="translate(-18.000000, -38.000000)">
            <g id="Group-4-Copy" transform="translate(18.000000, 28.000000)">
                <rect id="Rectangle" fill="#D5F0E6" x="13" y="32" width="237" height="27"></rect>
                <rect id="Rectangle-Copy" fill="#A5D9C5" x="250" y="32" width="78" height="27"></rect>
                <rect id="Rectangle-Copy-2" fill="#5FBC97" x="328" y="32" width="158" height="27"></rect>
                <rect id="Rectangle-Copy-3" fill="#239467" x="486" y="32" width="158" height="27"></rect>
                <path d="M0.64,22.2 L0.64,20.968 C0.64,20.264 0.768,19.64 1.024,19.128 C1.536,18.104 2.4,17.368 3.216,16.696 C3.584,16.424 3.888,16.136 4.208,15.864 C4.832,15.32 5.232,14.744 5.232,13.992 L5.232,13.592 C5.232,12.536 4.848,12.024 3.76,12.024 C2.752,12.024 2.256,12.504 2.256,13.464 L2.256,15.032 L0.72,15.032 L0.72,13.416 C0.72,11.608 1.856,10.664 3.792,10.664 C5.76,10.664 6.784,11.704 6.784,13.544 L6.784,13.944 C6.784,14.52 6.688,15.016 6.448,15.448 C6,16.28 5.264,16.92 4.512,17.544 C4.144,17.848 3.808,18.136 3.472,18.456 C2.8,19.08 2.352,19.784 2.352,20.744 L6.8,20.744 L6.8,22.2 L0.64,22.2 Z M11.8331429,22.36 C9.8171429,22.36 8.6171429,21.256 8.6171429,18.84 L8.6171429,14.216 C8.6171429,11.88 9.8491429,10.664 11.8491429,10.664 C13.8491429,10.664 15.0651429,11.864 15.0651429,14.216 L15.0651429,18.84 C15.0651429,21.24 13.8651429,22.36 11.8331429,22.36 Z M11.8491429,20.952 C13.0011429,20.952 13.5131429,20.2 13.5131429,18.744 L13.5131429,14.28 C13.5131429,12.808 13.0171429,12.024 11.8331429,12.024 C10.6491429,12.024 10.1691429,12.824 10.1691429,14.28 L10.1691429,18.744 C10.1691429,20.2 10.6651429,20.952 11.8491429,20.952 Z M20.3222858,22.36 C18.3062858,22.36 17.1062858,21.256 17.1062858,18.84 L17.1062858,14.216 C17.1062858,11.88 18.3382858,10.664 20.3382858,10.664 C22.3382858,10.664 23.5542858,11.864 23.5542858,14.216 L23.5542858,18.84 C23.5542858,21.24 22.3542858,22.36 20.3222858,22.36 Z M20.3382858,20.952 C21.4902858,20.952 22.0022858,20.2 22.0022858,18.744 L22.0022858,14.28 C22.0022858,12.808 21.5062858,12.024 20.3222858,12.024 C19.1382858,12.024 18.6582858,12.824 18.6582858,14.28 L18.6582858,18.744 C18.6582858,20.2 19.1542858,20.952 20.3382858,20.952 Z" id="200" fill="#0031A3" fill-rule="nonzero"></path>
                <path d="M245.2,19.672 L243.856,19.672 L243.856,22.2 L242.448,22.2 L242.448,19.672 L238.368,19.672 L238.368,18.552 L242.528,10.792 L243.856,10.792 L243.856,18.344 L245.2,18.344 L245.2,19.672 Z M242.192,13.976 L239.92,18.344 L242.448,18.344 L242.448,14.152 L242.704,12.424 L242.192,13.976 Z M249.977143,22.36 C247.961143,22.36 246.761143,21.256 246.761143,18.84 L246.761143,14.216 C246.761143,11.88 247.993143,10.664 249.993143,10.664 C251.993143,10.664 253.209143,11.864 253.209143,14.216 L253.209143,18.84 C253.209143,21.24 252.009143,22.36 249.977143,22.36 Z M249.993143,20.952 C251.145143,20.952 251.657143,20.2 251.657143,18.744 L251.657143,14.28 C251.657143,12.808 251.161143,12.024 249.977143,12.024 C248.793143,12.024 248.313143,12.824 248.313143,14.28 L248.313143,18.744 C248.313143,20.2 248.809143,20.952 249.993143,20.952 Z M258.466286,22.36 C256.450286,22.36 255.250286,21.256 255.250286,18.84 L255.250286,14.216 C255.250286,11.88 256.482286,10.664 258.482286,10.664 C260.482286,10.664 261.698286,11.864 261.698286,14.216 L261.698286,18.84 C261.698286,21.24 260.498286,22.36 258.466286,22.36 Z M258.482286,20.952 C259.634286,20.952 260.146286,20.2 260.146286,18.744 L260.146286,14.28 C260.146286,12.808 259.650286,12.024 258.466286,12.024 C257.282286,12.024 256.802286,12.824 256.802286,14.28 L256.802286,18.744 C256.802286,20.2 257.298286,20.952 258.482286,20.952 Z" id="400" fill="#0031A3" fill-rule="nonzero"></path>
                <path d="M319.76,22.36 C317.744,22.36 316.656,21.528 316.656,19.304 L316.656,18.312 L318.24,18.312 L318.24,19.16 C318.24,20.472 318.592,20.968 319.776,20.968 C320.928,20.968 321.28,20.28 321.28,19.064 L321.28,17.144 C321.28,16.136 320.768,15.608 319.872,15.608 C319.056,15.608 318.624,16.04 318.32,16.648 C318.32,16.648 318.208,16.952 318.192,16.968 L316.704,16.552 L317.28,10.792 L322.624,10.792 L322.624,10.856 C322.624,11.256 322.576,11.576 322.496,11.768 C322.352,12.152 321.936,12.216 321.072,12.216 L318.56,12.216 C318.544,12.536 318.496,12.888 318.448,13.32 C318.368,14.136 318.288,14.968 318.224,15.528 C318.608,14.824 319.2,14.184 320.4,14.232 C322.048,14.184 322.832,15.352 322.832,17.064 L322.832,19.208 C322.832,21.288 321.792,22.36 319.76,22.36 Z M327.913143,22.36 C325.897143,22.36 324.697143,21.256 324.697143,18.84 L324.697143,14.216 C324.697143,11.88 325.929143,10.664 327.929143,10.664 C329.929143,10.664 331.145143,11.864 331.145143,14.216 L331.145143,18.84 C331.145143,21.24 329.945143,22.36 327.913143,22.36 Z M327.929143,20.952 C329.081143,20.952 329.593143,20.2 329.593143,18.744 L329.593143,14.28 C329.593143,12.808 329.097143,12.024 327.913143,12.024 C326.729143,12.024 326.249143,12.824 326.249143,14.28 L326.249143,18.744 C326.249143,20.2 326.745143,20.952 327.929143,20.952 Z M336.402286,22.36 C334.386286,22.36 333.186286,21.256 333.186286,18.84 L333.186286,14.216 C333.186286,11.88 334.418286,10.664 336.418286,10.664 C338.418286,10.664 339.634286,11.864 339.634286,14.216 L339.634286,18.84 C339.634286,21.24 338.434286,22.36 336.402286,22.36 Z M336.418286,20.952 C337.570286,20.952 338.082286,20.2 338.082286,18.744 L338.082286,14.28 C338.082286,12.808 337.586286,12.024 336.402286,12.024 C335.218286,12.024 334.738286,12.824 334.738286,14.28 L334.738286,18.744 C334.738286,20.2 335.234286,20.952 336.418286,20.952 Z" id="500" fill="#0031A3" fill-rule="nonzero"></path>
                <path d="M482.168,18.84 C482.168,21.24 480.936,22.36 478.904,22.36 C476.888,22.36 475.752,21.256 475.752,18.84 L475.752,14.216 C475.752,11.88 476.824,10.664 479.048,10.664 C481,10.664 482.056,11.72 482.056,13.656 L482.056,14.008 L480.504,14.008 L480.504,13.752 C480.504,12.616 480.056,12.024 479,12.024 C477.752,12.024 477.24,12.824 477.24,14.28 L477.24,16.6 C477.608,15.784 478.296,15.16 479.496,15.16 C481.112,15.16 482.168,16.12 482.168,18.216 L482.168,18.84 Z M478.92,20.952 C480.072,20.952 480.632,20.216 480.632,18.744 L480.632,18.28 C480.632,17.288 480.184,16.52 478.936,16.52 C477.88,16.52 477.288,17.208 477.24,18.2 L477.24,18.744 C477.24,20.2 477.736,20.952 478.92,20.952 Z M486.977143,22.36 C484.961143,22.36 483.873143,21.528 483.873143,19.304 L483.873143,18.312 L485.457143,18.312 L485.457143,19.16 C485.457143,20.472 485.809143,20.968 486.993143,20.968 C488.145143,20.968 488.497143,20.28 488.497143,19.064 L488.497143,17.144 C488.497143,16.136 487.985143,15.608 487.089143,15.608 C486.273143,15.608 485.841143,16.04 485.537143,16.648 C485.537143,16.648 485.425143,16.952 485.409143,16.968 L483.921143,16.552 L484.497143,10.792 L489.841143,10.792 L489.841143,10.856 C489.841143,11.256 489.793143,11.576 489.713143,11.768 C489.569143,12.152 489.153143,12.216 488.289143,12.216 L485.777143,12.216 C485.761143,12.536 485.713143,12.888 485.665143,13.32 C485.585143,14.136 485.505143,14.968 485.441143,15.528 C485.825143,14.824 486.417143,14.184 487.617143,14.232 C489.265143,14.184 490.049143,15.352 490.049143,17.064 L490.049143,19.208 C490.049143,21.288 489.009143,22.36 486.977143,22.36 Z M495.130286,22.36 C493.114286,22.36 491.914286,21.256 491.914286,18.84 L491.914286,14.216 C491.914286,11.88 493.146286,10.664 495.146286,10.664 C497.146286,10.664 498.362286,11.864 498.362286,14.216 L498.362286,18.84 C498.362286,21.24 497.162286,22.36 495.130286,22.36 Z M495.146286,20.952 C496.298286,20.952 496.810286,20.2 496.810286,18.744 L496.810286,14.28 C496.810286,12.808 496.314286,12.024 495.130286,12.024 C493.946286,12.024 493.466286,12.824 493.466286,14.28 L493.466286,18.744 C493.466286,20.2 493.962286,20.952 495.146286,20.952 Z" id="650" fill="#0031A3" fill-rule="nonzero"></path>
                <path d="M636.792,22.36 C634.712,22.36 633.64,21.24 633.64,19.608 L633.64,18.424 C633.64,17.416 634.168,16.6 635,16.232 C634.232,15.896 633.832,15.208 633.832,14.136 L633.832,13.368 C633.832,11.784 634.872,10.664 636.808,10.664 C638.744,10.664 639.816,11.784 639.816,13.368 L639.816,14.136 C639.816,15.128 639.368,15.848 638.6,16.216 C639.432,16.584 639.96,17.352 639.96,18.424 L639.96,19.608 C639.96,21.24 638.856,22.36 636.792,22.36 Z M636.92,15.592 C637.864,15.592 638.312,14.84 638.312,14.088 L638.312,13.544 C638.312,12.584 637.832,12.024 636.824,12.024 C635.832,12.024 635.32,12.568 635.32,13.56 L635.32,14.104 C635.32,14.84 635.736,15.592 636.68,15.592 L636.92,15.592 Z M636.792,20.952 C637.848,20.952 638.424,20.344 638.424,19.448 L638.424,18.424 C638.424,17.656 637.896,16.904 636.904,16.904 L636.664,16.904 C636.344,16.904 636.072,16.984 635.864,17.128 C635.416,17.448 635.192,17.928 635.192,18.424 L635.192,19.448 C635.192,20.312 635.736,20.952 636.792,20.952 Z M645.009143,22.36 C642.993143,22.36 641.793143,21.256 641.793143,18.84 L641.793143,14.216 C641.793143,11.88 643.025143,10.664 645.025143,10.664 C647.025143,10.664 648.241143,11.864 648.241143,14.216 L648.241143,18.84 C648.241143,21.24 647.041143,22.36 645.009143,22.36 Z M645.025143,20.952 C646.177143,20.952 646.689143,20.2 646.689143,18.744 L646.689143,14.28 C646.689143,12.808 646.193143,12.024 645.009143,12.024 C643.825143,12.024 643.345143,12.824 643.345143,14.28 L643.345143,18.744 C643.345143,20.2 643.841143,20.952 645.025143,20.952 Z M653.498286,22.36 C651.482286,22.36 650.282286,21.256 650.282286,18.84 L650.282286,14.216 C650.282286,11.88 651.514286,10.664 653.514286,10.664 C655.514286,10.664 656.730286,11.864 656.730286,14.216 L656.730286,18.84 C656.730286,21.24 655.530286,22.36 653.498286,22.36 Z M653.514286,20.952 C654.666286,20.952 655.178286,20.2 655.178286,18.744 L655.178286,14.28 C655.178286,12.808 654.682286,12.024 653.498286,12.024 C652.314286,12.024 651.834286,12.824 651.834286,14.28 L651.834286,18.744 C651.834286,20.2 652.330286,20.952 653.514286,20.952 Z" id="800" fill="#0031A3" fill-rule="nonzero"></path>
                <path d="M105.942,87.3999996 L105.942,77.4459996 L107.314,77.4459996 L107.314,86.1259996 L112.41,86.1259996 L112.41,87.3999996 L105.942,87.3999996 Z M121.216,85.0199996 C120.754,86.6719996 119.41,87.6099996 117.422,87.6099996 C114.762,87.6099996 113.432,86.0419996 113.432,83.5499996 L113.432,83.3819996 C113.432,82.5419996 113.6,81.8139996 113.922,81.1699996 C114.58,79.9099996 115.812,79.1819996 117.464,79.1819996 C118.346,79.1819996 119.074,79.3639996 119.634,79.7419996 C120.782,80.4979996 121.328,81.7719996 121.328,83.2139996 L121.328,83.8579996 L114.776,83.8579996 C114.874,85.5099996 115.826,86.4619996 117.478,86.4619996 C118.64,86.4619996 119.452,85.9579996 119.746,85.0199996 L121.216,85.0199996 Z M117.478,80.2879996 C115.938,80.2879996 114.958,81.2259996 114.79,82.7799996 L119.97,82.7799996 C119.858,81.2539996 119.018,80.2879996 117.478,80.2879996 Z M125.192,87.3999996 L121.93,79.4059996 L123.358,79.4059996 L125.836,85.7899996 L128.398,79.4059996 L129.826,79.4059996 L126.424,87.3999996 L125.192,87.3999996 Z M138.17,85.0199996 C137.708,86.6719996 136.364,87.6099996 134.376,87.6099996 C131.716,87.6099996 130.386,86.0419996 130.386,83.5499996 L130.386,83.3819996 C130.386,82.5419996 130.554,81.8139996 130.876,81.1699996 C131.534,79.9099996 132.766,79.1819996 134.418,79.1819996 C135.3,79.1819996 136.028,79.3639996 136.588,79.7419996 C137.736,80.4979996 138.282,81.7719996 138.282,83.2139996 L138.282,83.8579996 L131.73,83.8579996 C131.828,85.5099996 132.78,86.4619996 134.432,86.4619996 C135.594,86.4619996 136.406,85.9579996 136.7,85.0199996 L138.17,85.0199996 Z M134.432,80.2879996 C132.892,80.2879996 131.912,81.2259996 131.744,82.7799996 L136.924,82.7799996 C136.812,81.2539996 135.972,80.2879996 134.432,80.2879996 Z M139.976,87.3999996 L139.976,76.6899996 L141.334,76.6899996 L141.334,87.3999996 L139.976,87.3999996 Z M147.326,87.3999996 L147.326,86.0839996 L149.44,86.0839996 L149.44,80.1479996 L147.83,80.1479996 L147.83,79.0839996 C148.992,79.0279996 149.496,78.5379996 149.678,77.4459996 L150.798,77.4459996 L150.798,86.0839996 L152.912,86.0839996 L152.912,87.3999996 L147.326,87.3999996 Z M80.714,103.275999 C80.042,103.275999 79.776,102.953999 79.776,102.015999 C79.776,100.811999 80.266,100.041999 81.33,99.7479992 L81.498,100.335999 C80.938,100.517999 80.644,100.937999 80.588,101.609999 C80.658,101.595999 80.756,101.581999 80.826,101.581999 C81.358,101.581999 81.582,101.735999 81.582,102.393999 C81.582,103.037999 81.316,103.275999 80.714,103.275999 Z M83.346,103.275999 C82.674,103.275999 82.408,102.953999 82.408,102.015999 C82.408,100.811999 82.898,100.041999 83.962,99.7479992 L84.13,100.335999 C83.57,100.517999 83.276,100.937999 83.234,101.609999 C83.304,101.595999 83.388,101.581999 83.458,101.581999 C83.99,101.581999 84.214,101.735999 84.214,102.393999 C84.214,103.037999 83.948,103.275999 83.346,103.275999 Z M86.44,109.799999 L86.44,99.8459992 L90.192,99.8459992 C92.782,99.8459992 93.86,100.741999 93.86,102.393999 C93.86,103.625999 93.314,104.353999 92.25,104.703999 C93.412,105.025999 94.056,105.725999 94.056,107.013999 C94.056,108.819999 92.88,109.799999 90.29,109.799999 L86.44,109.799999 Z M90.248,104.143999 C91.718,104.157999 92.516,103.667999 92.516,102.519999 C92.516,101.483999 91.844,100.979999 90.234,100.979999 L87.77,100.979999 L87.77,104.143999 L90.248,104.143999 Z M87.77,105.263999 L87.77,108.623999 L90.136,108.623999 C91.956,108.623999 92.67,108.035999 92.67,106.915999 C92.67,105.753999 91.83,105.263999 90.164,105.263999 L87.77,105.263999 Z M103.24,107.419999 C102.778,109.071999 101.434,110.009999 99.446,110.009999 C96.786,110.009999 95.456,108.441999 95.456,105.949999 L95.456,105.781999 C95.456,104.941999 95.624,104.213999 95.946,103.569999 C96.604,102.309999 97.836,101.581999 99.488,101.581999 C100.37,101.581999 101.098,101.763999 101.658,102.141999 C102.806,102.897999 103.352,104.171999 103.352,105.613999 L103.352,106.257999 L96.8,106.257999 C96.898,107.909999 97.85,108.861999 99.502,108.861999 C100.664,108.861999 101.476,108.357999 101.77,107.419999 L103.24,107.419999 Z M99.502,102.687999 C97.962,102.687999 96.982,103.625999 96.814,105.179999 L101.994,105.179999 C101.882,103.653999 101.042,102.687999 99.502,102.687999 Z M105.046,109.799999 L105.046,99.0899992 L106.404,99.0899992 L106.404,109.799999 L105.046,109.799999 Z M112.102,110.009999 C109.554,110.009999 108.098,108.511999 108.098,105.935999 L108.098,105.753999 C108.098,104.857999 108.28,104.129999 108.616,103.485999 C109.316,102.253999 110.562,101.581999 112.102,101.581999 C112.886,101.581999 113.572,101.749999 114.174,102.085999 C115.392,102.743999 116.106,103.989999 116.106,105.753999 L116.106,105.935999 C116.106,106.803999 115.938,107.517999 115.616,108.133999 C114.944,109.351999 113.74,110.009999 112.102,110.009999 Z M112.102,108.791999 C113.768,108.791999 114.72,107.727999 114.72,105.907999 L114.72,105.753999 C114.72,103.891999 113.656,102.757999 112.102,102.757999 C110.562,102.757999 109.484,103.821999 109.484,105.753999 L109.484,105.907999 C109.484,107.727999 110.45,108.791999 112.102,108.791999 Z M122.798,103.807999 L120.404,109.799999 L119.158,109.799999 L116.96,101.805999 L118.304,101.805999 L119.956,108.077999 L122.364,101.805999 L123.288,101.805999 L125.514,108.063999 L127.446,101.805999 L128.776,101.805999 L126.228,109.799999 L125.01,109.799999 L122.798,103.807999 Z M134.67,109.799999 L134.67,99.8459992 L138.422,99.8459992 C141.012,99.8459992 142.09,100.741999 142.09,102.393999 C142.09,103.625999 141.544,104.353999 140.48,104.703999 C141.642,105.025999 142.286,105.725999 142.286,107.013999 C142.286,108.819999 141.11,109.799999 138.52,109.799999 L134.67,109.799999 Z M138.478,104.143999 C139.948,104.157999 140.746,103.667999 140.746,102.519999 C140.746,101.483999 140.074,100.979999 138.464,100.979999 L136,100.979999 L136,104.143999 L138.478,104.143999 Z M136,105.263999 L136,108.623999 L138.366,108.623999 C140.186,108.623999 140.9,108.035999 140.9,106.915999 C140.9,105.753999 140.06,105.263999 138.394,105.263999 L136,105.263999 Z M149.86,107.811999 C149.3,109.043999 148.068,110.009999 146.29,110.009999 C144.568,110.009999 143.672,109.169999 143.672,107.881999 C143.672,107.041999 144.064,106.369999 144.708,105.977999 C144.932,105.823999 145.156,105.725999 145.394,105.627999 C145.884,105.459999 146.556,105.319999 147.62,105.165999 C149.034,104.955999 149.804,104.829999 149.804,104.073999 C149.804,103.205999 149.23,102.659999 147.732,102.659999 C146.15,102.659999 145.38,103.429999 145.31,104.549999 L143.924,104.549999 C143.966,103.961999 144.148,103.457999 144.442,103.009999 C145.058,102.113999 146.15,101.581999 147.676,101.581999 C150.168,101.581999 151.12,102.631999 151.12,104.283999 L151.12,109.799999 L150.014,109.799999 L149.86,107.811999 Z M146.71,108.931999 C147.634,108.931999 148.404,108.567999 148.95,107.979999 C149.51,107.391999 149.818,106.691999 149.818,106.019999 L149.818,105.431999 C149.468,105.725999 148.796,105.879999 147.914,106.033999 C146.696,106.215999 146.178,106.355999 145.73,106.649999 C145.352,106.887999 145.156,107.237999 145.156,107.713999 C145.156,108.469999 145.66,108.931999 146.71,108.931999 Z M156.3,110.009999 C154.032,110.009999 152.73,109.043999 152.506,107.181999 L153.976,107.181999 C154.144,108.329999 155.068,108.847999 156.328,108.847999 C157.812,108.847999 158.358,108.245999 158.358,107.489999 C158.358,107.167999 158.246,106.943999 158.022,106.789999 C157.56,106.467999 156.776,106.355999 155.936,106.243999 C155.208,106.131999 154.452,105.991999 153.85,105.697999 C153.248,105.375999 152.856,104.871999 152.856,104.003999 C152.856,103.555999 152.968,103.149999 153.192,102.799999 C153.668,102.043999 154.592,101.581999 156.034,101.581999 C158.204,101.581999 159.324,102.561999 159.534,104.115999 L158.148,104.115999 C158.022,103.163999 157.308,102.687999 156.02,102.687999 C154.648,102.687999 154.2,103.275999 154.2,103.933999 C154.2,104.227999 154.312,104.465999 154.55,104.633999 C155.026,104.927999 155.796,105.039999 156.636,105.165999 C157.364,105.277999 158.12,105.417999 158.722,105.711999 C159.324,106.033999 159.702,106.523999 159.702,107.405999 C159.702,107.895999 159.576,108.329999 159.338,108.721999 C158.848,109.505999 157.882,110.009999 156.3,110.009999 Z M162.026,100.783999 C161.326,100.783999 161.06,100.531999 161.06,99.8179992 C161.06,99.1039992 161.382,98.8519992 162.026,98.8519992 C162.67,98.8519992 162.978,99.1039992 162.978,99.8179992 C162.978,100.517999 162.67,100.783999 162.026,100.783999 Z M161.312,109.799999 L161.312,101.805999 L162.698,101.805999 L162.698,109.799999 L161.312,109.799999 Z M168.396,110.009999 C165.862,110.009999 164.406,108.511999 164.406,105.935999 L164.406,105.753999 C164.406,104.857999 164.588,104.129999 164.938,103.485999 C165.638,102.253999 166.884,101.581999 168.41,101.581999 C170.524,101.581999 172.008,102.617999 172.246,104.843999 L172.246,104.871999 L170.832,104.871999 L170.832,104.843999 C170.608,103.415999 169.74,102.757999 168.424,102.757999 C166.884,102.757999 165.806,103.821999 165.806,105.753999 L165.806,105.907999 C165.806,107.727999 166.772,108.791999 168.41,108.791999 C169.796,108.791999 170.608,108.091999 170.846,106.705999 L170.846,106.691999 L172.26,106.691999 L172.26,106.719999 C172.022,108.987999 170.538,110.009999 168.396,110.009999 Z M173.898,102.659999 C174.444,102.477999 174.738,102.057999 174.794,101.399999 C174.724,101.413999 174.668,101.427999 174.57,101.427999 C174.038,101.427999 173.8,101.273999 173.8,100.601999 C173.8,99.9579992 174.08,99.7339992 174.682,99.7339992 C175.34,99.7339992 175.62,100.055999 175.62,100.993999 C175.62,102.197999 175.13,102.953999 174.066,103.247999 L173.898,102.659999 Z M176.53,102.659999 C177.09,102.477999 177.384,102.057999 177.44,101.399999 C177.37,101.413999 177.286,101.427999 177.216,101.427999 C176.684,101.427999 176.446,101.273999 176.446,100.601999 C176.446,99.9579992 176.712,99.7339992 177.328,99.7339992 C177.986,99.7339992 178.252,100.055999 178.252,100.993999 C178.252,102.197999 177.762,102.953999 176.698,103.247999 L176.53,102.659999 Z" id="Level1“BelowBasic”" fill="#0031A3" fill-rule="nonzero"></path>
                <path d="M71.6896,137.3328 L75.2896,137.3328 C76.1248,137.3328 76.8736,137.5056 77.5648,137.8368 C78.9472,138.528 79.8256,139.8816 79.8256,142.0416 L79.8256,142.9056 C79.8256,143.9712 79.6384,144.8352 79.2496,145.5264 C78.4576,146.9088 77.0752,147.6 75.3616,147.6 L71.6896,147.6 L71.6896,137.3328 Z M73.5616,138.96 L73.5616,145.944 L75.2752,145.944 C76.8592,145.944 77.9248,144.9072 77.9248,142.7328 L77.9248,142.1856 C77.9248,140.0112 76.8304,138.96 75.2032,138.96 L73.5616,138.96 Z M82.3744,138.4272 C81.4672,138.4272 81.1216,138.1248 81.1216,137.1744 C81.1216,136.2528 81.5392,135.936 82.3744,135.936 C83.2096,135.936 83.6272,136.2528 83.6272,137.1744 C83.6272,138.0672 83.224,138.4272 82.3744,138.4272 Z M81.3952,147.6 L81.3952,139.32 L83.3104,139.32 L83.3104,147.6 L81.3952,147.6 Z M91.1152,145.872 C90.6688,146.9952 89.7328,147.7728 88.2496,147.7728 C86.1328,147.7728 84.736,146.2896 84.736,143.496 L84.736,143.2944 C84.736,142.3872 84.8944,141.624 85.1968,141.0048 C85.8016,139.7664 86.896,139.1328 88.3072,139.1328 C89.6752,139.1328 90.5824,139.7232 91.0576,140.7456 L91.0576,136.512 L92.8864,136.512 L92.8864,147.6 L91.3168,147.6 L91.1152,145.872 Z M88.8256,146.1456 C90.2368,146.1456 91.1008,145.1232 91.1008,143.4816 L91.1008,143.3376 C91.1008,141.7392 90.2656,140.7024 88.8976,140.7024 C87.472,140.7024 86.68,141.6672 86.68,143.3232 L86.68,143.4816 C86.68,145.2528 87.5728,146.1456 88.8256,146.1456 Z M101.08,147.6 L99.1792,147.6 L99.1792,139.32 L100.7776,139.32 L100.9504,140.976 C101.3968,139.8384 102.3328,139.1184 103.7584,139.1184 C105.76,139.1184 106.8256,140.4432 106.8256,142.5024 L106.8256,147.6 L104.9248,147.6 L104.9248,142.9632 C104.9248,141.6096 104.4928,140.76 103.1392,140.76 C101.728,140.76 101.08,141.7392 101.08,143.28 L101.08,147.6 Z M112.384,147.816 C109.7056,147.816 108.208,146.3328 108.208,143.6256 L108.208,143.4096 C108.208,142.488 108.3952,141.696 108.7552,141.0624 C109.4752,139.7952 110.7568,139.1184 112.384,139.1184 C113.2192,139.1184 113.9248,139.2768 114.544,139.6224 C115.8112,140.2992 116.56,141.5808 116.56,143.4096 L116.56,143.6256 C116.56,144.5328 116.3872,145.2816 116.0416,145.9008 C115.3216,147.1536 114.0688,147.816 112.384,147.816 Z M112.384,146.16 C113.8096,146.16 114.6448,145.2384 114.6448,143.5968 L114.6448,143.4096 C114.6448,141.7104 113.7664,140.7312 112.3984,140.7312 C111.0448,140.7312 110.1376,141.6528 110.1376,143.4096 L110.1376,143.5968 C110.1376,145.2384 110.9728,146.16 112.384,146.16 Z M122.6656,147.6 L121.6,147.6 C120.8224,147.6 120.2176,147.4848 119.8144,147.2976 C118.9792,146.88 118.72,145.9728 118.72,144.288 L118.72,140.9904 L117.1072,140.9904 L117.1072,139.392 L117.8416,139.392 C118.1152,139.392 118.3024,139.3632 118.432,139.3056 C118.7056,139.176 118.792,138.8592 118.8352,138.1824 C118.8496,137.8224 118.864,137.3328 118.864,137.088 L120.4768,137.088 L120.4768,139.32 L122.6656,139.32 L122.6656,140.9904 L120.4768,140.9904 L120.4768,143.9712 C120.4768,144.5184 120.52,144.9216 120.592,145.1952 C120.7216,145.7424 121.1536,145.8432 122.0752,145.8432 L122.6656,145.8432 L122.6656,147.6 Z M130.2976,147.6 L128.4112,147.6 L128.4112,139.32 L129.9952,139.32 L130.168,140.832 C130.6144,139.7952 131.4784,139.1184 132.7888,139.1184 C134.2144,139.1184 135.0352,139.7664 135.3952,140.8464 C135.8128,139.7808 136.72,139.1184 138.0736,139.1184 C140.0176,139.1184 141.0112,140.3568 141.0112,142.416 L141.0112,147.6 L139.1248,147.6 L139.1248,142.9344 C139.1248,141.624 138.664,140.76 137.3968,140.76 C136.1584,140.76 135.6688,141.6528 135.6688,142.9056 L135.6688,147.6 L133.7968,147.6 L133.7968,142.8624 C133.7968,142.4736 133.7536,142.128 133.6384,141.7968 C133.4512,141.1632 132.976,140.76 132.112,140.76 C130.8736,140.76 130.2976,141.7392 130.2976,143.1648 L130.2976,147.6 Z M150.5296,145.152 C150.0544,146.8368 148.7152,147.816 146.5408,147.816 C143.7472,147.816 142.3792,146.2032 142.3792,143.64 L142.3792,143.4384 C142.3792,142.5456 142.552,141.8112 142.8976,141.1488 C143.5888,139.8528 144.856,139.1184 146.5984,139.1184 C148.024,139.1184 149.032,139.608 149.6944,140.4 C150.3568,141.192 150.6448,142.2144 150.6448,143.28 L150.6448,144.1584 L144.2512,144.1584 C144.4096,145.512 145.2448,146.2608 146.6128,146.2608 C147.6208,146.2608 148.2112,145.872 148.4992,145.152 L150.5296,145.152 Z M146.6128,140.616 C145.3024,140.616 144.4816,141.3648 144.2656,142.6752 L148.7584,142.6752 C148.6288,141.408 147.9376,140.616 146.6128,140.616 Z M159.976,145.152 C159.5008,146.8368 158.1616,147.816 155.9872,147.816 C153.1936,147.816 151.8256,146.2032 151.8256,143.64 L151.8256,143.4384 C151.8256,142.5456 151.9984,141.8112 152.344,141.1488 C153.0352,139.8528 154.3024,139.1184 156.0448,139.1184 C157.4704,139.1184 158.4784,139.608 159.1408,140.4 C159.8032,141.192 160.0912,142.2144 160.0912,143.28 L160.0912,144.1584 L153.6976,144.1584 C153.856,145.512 154.6912,146.2608 156.0592,146.2608 C157.0672,146.2608 157.6576,145.872 157.9456,145.152 L159.976,145.152 Z M156.0592,140.616 C154.7488,140.616 153.928,141.3648 153.712,142.6752 L158.2048,142.6752 C158.0752,141.408 157.384,140.616 156.0592,140.616 Z M166.0816,147.6 L165.016,147.6 C164.2384,147.6 163.6336,147.4848 163.2304,147.2976 C162.3952,146.88 162.136,145.9728 162.136,144.288 L162.136,140.9904 L160.5232,140.9904 L160.5232,139.392 L161.2576,139.392 C161.5312,139.392 161.7184,139.3632 161.848,139.3056 C162.1216,139.176 162.208,138.8592 162.2512,138.1824 C162.2656,137.8224 162.28,137.3328 162.28,137.088 L163.8928,137.088 L163.8928,139.32 L166.0816,139.32 L166.0816,140.9904 L163.8928,140.9904 L163.8928,143.9712 C163.8928,144.5184 163.936,144.9216 164.008,145.1952 C164.1376,145.7424 164.5696,145.8432 165.4912,145.8432 L166.0816,145.8432 L166.0816,147.6 Z M175.1536,151.3584 C174.1168,151.3584 173.3248,151.272 172.7632,151.0992 C171.64,150.768 171.2944,150.1632 171.2944,149.3856 C171.2944,148.4928 171.8416,147.8448 173.152,147.5424 C172.0288,147.384 171.5392,146.8224 171.5392,145.9872 C171.5392,145.1376 172.1728,144.576 173.3248,144.3312 C172.1872,143.9712 171.6256,143.1936 171.6256,141.984 C171.6256,140.328 172.864,139.4352 174.8368,139.3056 L175.2544,139.2768 C175.744,139.2336 176.0896,139.1904 176.3344,139.0896 C176.7952,138.9168 176.9104,138.528 176.9104,137.736 L176.9104,137.6064 L179.0992,137.6064 L179.0992,137.88 C179.0992,139.2048 178.4368,139.5648 176.6656,139.5792 C178.2064,139.7952 179.0416,140.7312 179.0416,141.984 L179.0416,142.0416 C179.0416,143.7984 177.6448,144.864 175.2976,144.864 L175.168,144.864 C174.592,144.864 174.1744,144.8784 173.8864,144.936 C173.3104,145.0368 173.1808,145.1952 173.1808,145.4688 C173.1808,145.8576 173.5264,146.016 174.5056,146.016 L176.176,146.016 C178.4944,146.016 179.5024,146.9664 179.5024,148.4496 C179.5024,150.264 178.1344,151.3584 175.2544,151.3584 L175.1536,151.3584 Z M175.2976,143.5248 C176.5504,143.5248 177.1552,143.0352 177.1552,142.056 L177.1552,142.0128 C177.1552,140.8608 176.3488,140.472 175.3264,140.472 C174.304,140.472 173.512,140.9616 173.512,142.0272 L173.512,142.0704 C173.512,143.0352 174.1744,143.5248 175.2976,143.5248 Z M175.2688,149.8032 C176.9824,149.8032 177.7456,149.3424 177.7456,148.5504 C177.7456,147.9744 177.3136,147.6 176.104,147.6 L174.6208,147.6 C173.5984,147.7008 173.152,148.1472 173.152,148.7232 L173.152,148.752 C173.152,149.2704 173.6704,149.8032 174.9664,149.8032 L175.2688,149.8032 Z M180.4384,147.6 L180.4384,139.32 L181.9648,139.32 L182.2096,141.264 C182.5408,139.896 183.3904,139.248 184.96,139.248 L185.5216,139.248 L185.5216,141.1632 L184.7008,141.1632 C184.0384,141.1632 183.5488,141.2496 183.2032,141.4224 C182.512,141.7536 182.296,142.4736 182.296,143.7696 L182.296,147.6 L180.4384,147.6 Z M192.1312,145.944 C191.5696,147.024 190.4608,147.816 188.7472,147.816 C186.9472,147.816 186.04,146.952 186.04,145.5984 C186.04,144.6768 186.4432,143.9856 187.12,143.568 C187.3504,143.4096 187.5952,143.2944 187.8256,143.2224 C188.3152,143.0496 188.9344,142.9344 189.9712,142.776 C191.4544,142.5888 192.0448,142.3872 192.0448,141.7104 C192.0448,141.0192 191.5984,140.5872 190.3024,140.5872 C188.9344,140.5872 188.3152,141.1776 188.2576,142.2432 L186.3136,142.2432 C186.4432,140.3568 187.8256,139.1184 190.2016,139.1184 C191.1088,139.1184 191.8,139.2336 192.3472,139.4784 C193.4272,139.9392 193.8592,140.8176 193.8592,142.0128 L193.8592,147.6 L192.3328,147.6 L192.1312,145.944 Z M189.3952,146.3616 C189.9424,146.3616 190.4032,146.232 190.8064,145.9872 C191.6128,145.4832 192.0592,144.648 192.0592,143.856 L192.0592,143.4096 C191.7136,143.6544 191.1376,143.8272 190.3888,143.9424 C189.3808,144.1008 188.9776,144.216 188.5888,144.4608 C188.2576,144.6768 188.0992,144.9648 188.0992,145.3248 C188.0992,146.016 188.5312,146.3616 189.3952,146.3616 Z M201.6208,145.872 C201.1744,146.9952 200.2384,147.7728 198.7552,147.7728 C196.6384,147.7728 195.2416,146.2896 195.2416,143.496 L195.2416,143.2944 C195.2416,142.3872 195.4,141.624 195.7024,141.0048 C196.3072,139.7664 197.4016,139.1328 198.8128,139.1328 C200.1808,139.1328 201.088,139.7232 201.5632,140.7456 L201.5632,136.512 L203.392,136.512 L203.392,147.6 L201.8224,147.6 L201.6208,145.872 Z M199.3312,146.1456 C200.7424,146.1456 201.6064,145.1232 201.6064,143.4816 L201.6064,143.3376 C201.6064,141.7392 200.7712,140.7024 199.4032,140.7024 C197.9776,140.7024 197.1856,141.6672 197.1856,143.3232 L197.1856,143.4816 C197.1856,145.2528 198.0784,146.1456 199.3312,146.1456 Z M212.9248,145.152 C212.4496,146.8368 211.1104,147.816 208.936,147.816 C206.1424,147.816 204.7744,146.2032 204.7744,143.64 L204.7744,143.4384 C204.7744,142.5456 204.9472,141.8112 205.2928,141.1488 C205.984,139.8528 207.2512,139.1184 208.9936,139.1184 C210.4192,139.1184 211.4272,139.608 212.0896,140.4 C212.752,141.192 213.04,142.2144 213.04,143.28 L213.04,144.1584 L206.6464,144.1584 C206.8048,145.512 207.64,146.2608 209.008,146.2608 C210.016,146.2608 210.6064,145.872 210.8944,145.152 L212.9248,145.152 Z M209.008,140.616 C207.6976,140.616 206.8768,141.3648 206.6608,142.6752 L211.1536,142.6752 C211.024,141.408 210.3328,140.616 209.008,140.616 Z M220.7872,144.072 L214.5088,144.072 L214.5088,142.1856 L220.7872,142.1856 L220.7872,144.072 Z M222.472,147.6 L222.472,136.512 L224.3584,136.512 L224.3584,147.6 L222.472,147.6 Z M233.8912,145.152 C233.416,146.8368 232.0768,147.816 229.9024,147.816 C227.1088,147.816 225.7408,146.2032 225.7408,143.64 L225.7408,143.4384 C225.7408,142.5456 225.9136,141.8112 226.2592,141.1488 C226.9504,139.8528 228.2176,139.1184 229.96,139.1184 C231.3856,139.1184 232.3936,139.608 233.056,140.4 C233.7184,141.192 234.0064,142.2144 234.0064,143.28 L234.0064,144.1584 L227.6128,144.1584 C227.7712,145.512 228.6064,146.2608 229.9744,146.2608 C230.9824,146.2608 231.5728,145.872 231.8608,145.152 L233.8912,145.152 Z M229.9744,140.616 C228.664,140.616 227.8432,141.3648 227.6272,142.6752 L232.12,142.6752 C231.9904,141.408 231.2992,140.616 229.9744,140.616 Z M237.5056,147.6 L234.2512,139.32 L236.224,139.32 L238.3696,145.2528 L240.6016,139.32 L242.5888,139.32 L239.1904,147.6 L237.5056,147.6 Z M250.9408,145.152 C250.4656,146.8368 249.1264,147.816 246.952,147.816 C244.1584,147.816 242.7904,146.2032 242.7904,143.64 L242.7904,143.4384 C242.7904,142.5456 242.9632,141.8112 243.3088,141.1488 C244,139.8528 245.2672,139.1184 247.0096,139.1184 C248.4352,139.1184 249.4432,139.608 250.1056,140.4 C250.768,141.192 251.056,142.2144 251.056,143.28 L251.056,144.1584 L244.6624,144.1584 C244.8208,145.512 245.656,146.2608 247.024,146.2608 C248.032,146.2608 248.6224,145.872 248.9104,145.152 L250.9408,145.152 Z M247.024,140.616 C245.7136,140.616 244.8928,141.3648 244.6768,142.6752 L249.1696,142.6752 C249.04,141.408 248.3488,140.616 247.024,140.616 Z M252.4816,147.6 L252.4816,136.512 L254.368,136.512 L254.368,147.6 L252.4816,147.6 Z M122.8384,166.752 C122.3632,168.4368 121.024,169.416 118.8496,169.416 C116.056,169.416 114.688,167.8032 114.688,165.24 L114.688,165.0384 C114.688,164.1456 114.8608,163.4112 115.2064,162.7488 C115.8976,161.4528 117.1648,160.7184 118.9072,160.7184 C120.3328,160.7184 121.3408,161.208 122.0032,162 C122.6656,162.792 122.9536,163.8144 122.9536,164.88 L122.9536,165.7584 L116.56,165.7584 C116.7184,167.112 117.5536,167.8608 118.9216,167.8608 C119.9296,167.8608 120.52,167.472 120.808,166.752 L122.8384,166.752 Z M118.9216,162.216 C117.6112,162.216 116.7904,162.9648 116.5744,164.2752 L121.0672,164.2752 C120.9376,163.008 120.2464,162.216 118.9216,162.216 Z M127.2736,166.2336 L125.2,169.2 L122.9104,169.2 L126.208,164.8656 L123.256,160.92 L125.4736,160.92 L127.288,163.5552 L129.16,160.92 L131.3488,160.92 L128.3536,164.8512 L131.5504,169.2 L129.3328,169.2 L127.2736,166.2336 Z M136.9072,169.3728 C135.5392,169.3728 134.632,168.7536 134.1424,167.7456 L134.1424,172.0512 L132.3136,172.0512 L132.3136,160.92 L133.8832,160.92 L134.0848,162.6048 C134.5312,161.4672 135.496,160.7184 136.936,160.7184 C139.096,160.7184 140.464,162.2448 140.464,165.0384 L140.464,165.24 C140.464,166.1472 140.3056,166.896 140.0032,167.5152 C139.3984,168.7536 138.2896,169.3728 136.9072,169.3728 Z M136.3168,167.7744 C137.728,167.7744 138.5488,166.8528 138.5488,165.2112 L138.5488,165.0384 C138.5488,163.2672 137.656,162.3312 136.36,162.3312 C134.992,162.3312 134.0992,163.368 134.0992,165.0096 L134.0992,165.1536 C134.0992,166.752 134.9488,167.7744 136.3168,167.7744 Z M149.8528,166.752 C149.3776,168.4368 148.0384,169.416 145.864,169.416 C143.0704,169.416 141.7024,167.8032 141.7024,165.24 L141.7024,165.0384 C141.7024,164.1456 141.8752,163.4112 142.2208,162.7488 C142.912,161.4528 144.1792,160.7184 145.9216,160.7184 C147.3472,160.7184 148.3552,161.208 149.0176,162 C149.68,162.792 149.968,163.8144 149.968,164.88 L149.968,165.7584 L143.5744,165.7584 C143.7328,167.112 144.568,167.8608 145.936,167.8608 C146.944,167.8608 147.5344,167.472 147.8224,166.752 L149.8528,166.752 Z M145.936,162.216 C144.6256,162.216 143.8048,162.9648 143.5888,164.2752 L148.0816,164.2752 C147.952,163.008 147.2608,162.216 145.936,162.216 Z M155.3104,169.416 C152.6608,169.416 151.1488,167.9328 151.1488,165.2256 L151.1488,165.0096 C151.1488,164.088 151.336,163.296 151.696,162.6624 C152.4304,161.3952 153.7264,160.7184 155.3248,160.7184 C157.6144,160.7184 159.184,161.7984 159.3712,164.2176 L159.3712,164.2464 L157.3984,164.2464 L157.3984,164.2032 C157.2256,162.9072 156.4912,162.3312 155.3392,162.3312 C154.0144,162.3312 153.1072,163.2528 153.1072,165.0096 L153.1072,165.1968 C153.1072,166.8384 153.9424,167.76 155.3248,167.76 C156.5344,167.76 157.2256,167.1264 157.4128,165.8592 L157.4128,165.8448 L159.3856,165.8448 L159.3856,165.888 C159.1984,168.336 157.6,169.416 155.3104,169.416 Z M165.5056,169.2 L164.44,169.2 C163.6624,169.2 163.0576,169.0848 162.6544,168.8976 C161.8192,168.48 161.56,167.5728 161.56,165.888 L161.56,162.5904 L159.9472,162.5904 L159.9472,160.992 L160.6816,160.992 C160.9552,160.992 161.1424,160.9632 161.272,160.9056 C161.5456,160.776 161.632,160.4592 161.6752,159.7824 C161.6896,159.4224 161.704,158.9328 161.704,158.688 L163.3168,158.688 L163.3168,160.92 L165.5056,160.92 L165.5056,162.5904 L163.3168,162.5904 L163.3168,165.5712 C163.3168,166.1184 163.36,166.5216 163.432,166.7952 C163.5616,167.3424 163.9936,167.4432 164.9152,167.4432 L165.5056,167.4432 L165.5056,169.2 Z M172.5184,167.544 C171.9568,168.624 170.848,169.416 169.1344,169.416 C167.3344,169.416 166.4272,168.552 166.4272,167.1984 C166.4272,166.2768 166.8304,165.5856 167.5072,165.168 C167.7376,165.0096 167.9824,164.8944 168.2128,164.8224 C168.7024,164.6496 169.3216,164.5344 170.3584,164.376 C171.8416,164.1888 172.432,163.9872 172.432,163.3104 C172.432,162.6192 171.9856,162.1872 170.6896,162.1872 C169.3216,162.1872 168.7024,162.7776 168.6448,163.8432 L166.7008,163.8432 C166.8304,161.9568 168.2128,160.7184 170.5888,160.7184 C171.496,160.7184 172.1872,160.8336 172.7344,161.0784 C173.8144,161.5392 174.2464,162.4176 174.2464,163.6128 L174.2464,169.2 L172.72,169.2 L172.5184,167.544 Z M169.7824,167.9616 C170.3296,167.9616 170.7904,167.832 171.1936,167.5872 C172,167.0832 172.4464,166.248 172.4464,165.456 L172.4464,165.0096 C172.1008,165.2544 171.5248,165.4272 170.776,165.5424 C169.768,165.7008 169.3648,165.816 168.976,166.0608 C168.6448,166.2768 168.4864,166.5648 168.4864,166.9248 C168.4864,167.616 168.9184,167.9616 169.7824,167.9616 Z M180.6688,169.2 L179.6032,169.2 C178.8256,169.2 178.2208,169.0848 177.8176,168.8976 C176.9824,168.48 176.7232,167.5728 176.7232,165.888 L176.7232,162.5904 L175.1104,162.5904 L175.1104,160.992 L175.8448,160.992 C176.1184,160.992 176.3056,160.9632 176.4352,160.9056 C176.7088,160.776 176.7952,160.4592 176.8384,159.7824 C176.8528,159.4224 176.8672,158.9328 176.8672,158.688 L178.48,158.688 L178.48,160.92 L180.6688,160.92 L180.6688,162.5904 L178.48,162.5904 L178.48,165.5712 C178.48,166.1184 178.5232,166.5216 178.5952,166.7952 C178.7248,167.3424 179.1568,167.4432 180.0784,167.4432 L180.6688,167.4432 L180.6688,169.2 Z M183.016,160.0272 C182.1088,160.0272 181.7632,159.7248 181.7632,158.7744 C181.7632,157.8528 182.1808,157.536 183.016,157.536 C183.8512,157.536 184.2688,157.8528 184.2688,158.7744 C184.2688,159.6672 183.8656,160.0272 183.016,160.0272 Z M182.0368,169.2 L182.0368,160.92 L183.952,160.92 L183.952,169.2 L182.0368,169.2 Z M189.5536,169.416 C186.8752,169.416 185.3776,167.9328 185.3776,165.2256 L185.3776,165.0096 C185.3776,164.088 185.5648,163.296 185.9248,162.6624 C186.6448,161.3952 187.9264,160.7184 189.5536,160.7184 C190.3888,160.7184 191.0944,160.8768 191.7136,161.2224 C192.9808,161.8992 193.7296,163.1808 193.7296,165.0096 L193.7296,165.2256 C193.7296,166.1328 193.5568,166.8816 193.2112,167.5008 C192.4912,168.7536 191.2384,169.416 189.5536,169.416 Z M189.5536,167.76 C190.9792,167.76 191.8144,166.8384 191.8144,165.1968 L191.8144,165.0096 C191.8144,163.3104 190.936,162.3312 189.568,162.3312 C188.2144,162.3312 187.3072,163.2528 187.3072,165.0096 L187.3072,165.1968 C187.3072,166.8384 188.1424,167.76 189.5536,167.76 Z M197.0704,169.2 L195.1696,169.2 L195.1696,160.92 L196.768,160.92 L196.9408,162.576 C197.3872,161.4384 198.3232,160.7184 199.7488,160.7184 C201.7504,160.7184 202.816,162.0432 202.816,164.1024 L202.816,169.2 L200.9152,169.2 L200.9152,164.5632 C200.9152,163.2096 200.4832,162.36 199.1296,162.36 C197.7184,162.36 197.0704,163.3392 197.0704,164.88 L197.0704,169.2 Z M207.8416,169.416 C205.2928,169.416 204.0544,168.3936 203.8096,166.464 L205.8544,166.464 C206.0272,167.4432 206.704,167.832 207.8848,167.832 C209.0944,167.832 209.5696,167.4288 209.5696,166.7664 C209.5696,166.5216 209.4688,166.32 209.2528,166.1904 C208.8352,165.9456 208.1152,165.8448 207.3232,165.7296 C206.5744,165.6144 205.8112,165.4848 205.192,165.1536 C204.5728,164.8224 204.184,164.2608 204.184,163.3392 C204.184,161.8128 205.3216,160.7184 207.5968,160.7184 C209.9728,160.7184 211.0528,161.7408 211.2832,163.3968 L209.3536,163.3968 C209.224,162.5904 208.6768,162.2304 207.5824,162.2304 C206.4016,162.2304 206.0416,162.648 206.0416,163.224 C206.0416,163.4688 206.1424,163.6704 206.3584,163.8 C206.776,164.0448 207.5104,164.1456 208.3024,164.2608 C209.0512,164.376 209.8144,164.5056 210.4336,164.8368 C211.0528,165.168 211.4416,165.7296 211.4416,166.6512 C211.4416,168.2496 210.2896,169.416 207.8416,169.416 Z" id="Didnotmeetgrade-levelexpectations" fill="#0031A3" fill-rule="nonzero"></path>
                <path d="M391.9512,140.1264 L391.9512,147.6 L390.1512,147.6 L390.1512,137.3328 L391.908,137.3328 L394.932,141.48 L397.9704,137.3472 L399.7128,137.3472 L399.7128,147.6 L397.9128,147.6 L397.9128,140.0544 L397.6104,140.5584 L395.0328,144.0432 L394.7592,144.0432 L392.196,140.544 L391.9512,140.1264 Z M409.3752,145.152 C408.9,146.8368 407.5608,147.816 405.3864,147.816 C402.5928,147.816 401.2248,146.2032 401.2248,143.64 L401.2248,143.4384 C401.2248,142.5456 401.3976,141.8112 401.7432,141.1488 C402.4344,139.8528 403.7016,139.1184 405.444,139.1184 C406.8696,139.1184 407.8776,139.608 408.54,140.4 C409.2024,141.192 409.4904,142.2144 409.4904,143.28 L409.4904,144.1584 L403.0968,144.1584 C403.2552,145.512 404.0904,146.2608 405.4584,146.2608 C406.4664,146.2608 407.0568,145.872 407.3448,145.152 L409.3752,145.152 Z M405.4584,140.616 C404.148,140.616 403.3272,141.3648 403.1112,142.6752 L407.604,142.6752 C407.4744,141.408 406.7832,140.616 405.4584,140.616 Z M415.4808,147.6 L414.4152,147.6 C413.6376,147.6 413.0328,147.4848 412.6296,147.2976 C411.7944,146.88 411.5352,145.9728 411.5352,144.288 L411.5352,140.9904 L409.9224,140.9904 L409.9224,139.392 L410.6568,139.392 C410.9304,139.392 411.1176,139.3632 411.2472,139.3056 C411.5208,139.176 411.6072,138.8592 411.6504,138.1824 C411.6648,137.8224 411.6792,137.3328 411.6792,137.088 L413.292,137.088 L413.292,139.32 L415.4808,139.32 L415.4808,140.9904 L413.292,140.9904 L413.292,143.9712 C413.292,144.5184 413.3352,144.9216 413.4072,145.1952 C413.5368,145.7424 413.9688,145.8432 414.8904,145.8432 L415.4808,145.8432 L415.4808,147.6 Z M424.5528,151.3584 C423.516,151.3584 422.724,151.272 422.1624,151.0992 C421.0392,150.768 420.6936,150.1632 420.6936,149.3856 C420.6936,148.4928 421.2408,147.8448 422.5512,147.5424 C421.428,147.384 420.9384,146.8224 420.9384,145.9872 C420.9384,145.1376 421.572,144.576 422.724,144.3312 C421.5864,143.9712 421.0248,143.1936 421.0248,141.984 C421.0248,140.328 422.2632,139.4352 424.236,139.3056 L424.6536,139.2768 C425.1432,139.2336 425.4888,139.1904 425.7336,139.0896 C426.1944,138.9168 426.3096,138.528 426.3096,137.736 L426.3096,137.6064 L428.4984,137.6064 L428.4984,137.88 C428.4984,139.2048 427.836,139.5648 426.0648,139.5792 C427.6056,139.7952 428.4408,140.7312 428.4408,141.984 L428.4408,142.0416 C428.4408,143.7984 427.044,144.864 424.6968,144.864 L424.5672,144.864 C423.9912,144.864 423.5736,144.8784 423.2856,144.936 C422.7096,145.0368 422.58,145.1952 422.58,145.4688 C422.58,145.8576 422.9256,146.016 423.9048,146.016 L425.5752,146.016 C427.8936,146.016 428.9016,146.9664 428.9016,148.4496 C428.9016,150.264 427.5336,151.3584 424.6536,151.3584 L424.5528,151.3584 Z M424.6968,143.5248 C425.9496,143.5248 426.5544,143.0352 426.5544,142.056 L426.5544,142.0128 C426.5544,140.8608 425.748,140.472 424.7256,140.472 C423.7032,140.472 422.9112,140.9616 422.9112,142.0272 L422.9112,142.0704 C422.9112,143.0352 423.5736,143.5248 424.6968,143.5248 Z M424.668,149.8032 C426.3816,149.8032 427.1448,149.3424 427.1448,148.5504 C427.1448,147.9744 426.7128,147.6 425.5032,147.6 L424.02,147.6 C422.9976,147.7008 422.5512,148.1472 422.5512,148.7232 L422.5512,148.752 C422.5512,149.2704 423.0696,149.8032 424.3656,149.8032 L424.668,149.8032 Z M429.8376,147.6 L429.8376,139.32 L431.364,139.32 L431.6088,141.264 C431.94,139.896 432.7896,139.248 434.3592,139.248 L434.9208,139.248 L434.9208,141.1632 L434.1,141.1632 C433.4376,141.1632 432.948,141.2496 432.6024,141.4224 C431.9112,141.7536 431.6952,142.4736 431.6952,143.7696 L431.6952,147.6 L429.8376,147.6 Z M441.5304,145.944 C440.9688,147.024 439.86,147.816 438.1464,147.816 C436.3464,147.816 435.4392,146.952 435.4392,145.5984 C435.4392,144.6768 435.8424,143.9856 436.5192,143.568 C436.7496,143.4096 436.9944,143.2944 437.2248,143.2224 C437.7144,143.0496 438.3336,142.9344 439.3704,142.776 C440.8536,142.5888 441.444,142.3872 441.444,141.7104 C441.444,141.0192 440.9976,140.5872 439.7016,140.5872 C438.3336,140.5872 437.7144,141.1776 437.6568,142.2432 L435.7128,142.2432 C435.8424,140.3568 437.2248,139.1184 439.6008,139.1184 C440.508,139.1184 441.1992,139.2336 441.7464,139.4784 C442.8264,139.9392 443.2584,140.8176 443.2584,142.0128 L443.2584,147.6 L441.732,147.6 L441.5304,145.944 Z M438.7944,146.3616 C439.3416,146.3616 439.8024,146.232 440.2056,145.9872 C441.012,145.4832 441.4584,144.648 441.4584,143.856 L441.4584,143.4096 C441.1128,143.6544 440.5368,143.8272 439.788,143.9424 C438.78,144.1008 438.3768,144.216 437.988,144.4608 C437.6568,144.6768 437.4984,144.9648 437.4984,145.3248 C437.4984,146.016 437.9304,146.3616 438.7944,146.3616 Z M451.02,145.872 C450.5736,146.9952 449.6376,147.7728 448.1544,147.7728 C446.0376,147.7728 444.6408,146.2896 444.6408,143.496 L444.6408,143.2944 C444.6408,142.3872 444.7992,141.624 445.1016,141.0048 C445.7064,139.7664 446.8008,139.1328 448.212,139.1328 C449.58,139.1328 450.4872,139.7232 450.9624,140.7456 L450.9624,136.512 L452.7912,136.512 L452.7912,147.6 L451.2216,147.6 L451.02,145.872 Z M448.7304,146.1456 C450.1416,146.1456 451.0056,145.1232 451.0056,143.4816 L451.0056,143.3376 C451.0056,141.7392 450.1704,140.7024 448.8024,140.7024 C447.3768,140.7024 446.5848,141.6672 446.5848,143.3232 L446.5848,143.4816 C446.5848,145.2528 447.4776,146.1456 448.7304,146.1456 Z M462.324,145.152 C461.8488,146.8368 460.5096,147.816 458.3352,147.816 C455.5416,147.816 454.1736,146.2032 454.1736,143.64 L454.1736,143.4384 C454.1736,142.5456 454.3464,141.8112 454.692,141.1488 C455.3832,139.8528 456.6504,139.1184 458.3928,139.1184 C459.8184,139.1184 460.8264,139.608 461.4888,140.4 C462.1512,141.192 462.4392,142.2144 462.4392,143.28 L462.4392,144.1584 L456.0456,144.1584 C456.204,145.512 457.0392,146.2608 458.4072,146.2608 C459.4152,146.2608 460.0056,145.872 460.2936,145.152 L462.324,145.152 Z M458.4072,140.616 C457.0968,140.616 456.276,141.3648 456.06,142.6752 L460.5528,142.6752 C460.4232,141.408 459.732,140.616 458.4072,140.616 Z M470.1864,144.072 L463.908,144.072 L463.908,142.1856 L470.1864,142.1856 L470.1864,144.072 Z M471.8712,147.6 L471.8712,136.512 L473.7576,136.512 L473.7576,147.6 L471.8712,147.6 Z M483.2904,145.152 C482.8152,146.8368 481.476,147.816 479.3016,147.816 C476.508,147.816 475.14,146.2032 475.14,143.64 L475.14,143.4384 C475.14,142.5456 475.3128,141.8112 475.6584,141.1488 C476.3496,139.8528 477.6168,139.1184 479.3592,139.1184 C480.7848,139.1184 481.7928,139.608 482.4552,140.4 C483.1176,141.192 483.4056,142.2144 483.4056,143.28 L483.4056,144.1584 L477.012,144.1584 C477.1704,145.512 478.0056,146.2608 479.3736,146.2608 C480.3816,146.2608 480.972,145.872 481.26,145.152 L483.2904,145.152 Z M479.3736,140.616 C478.0632,140.616 477.2424,141.3648 477.0264,142.6752 L481.5192,142.6752 C481.3896,141.408 480.6984,140.616 479.3736,140.616 Z M486.9048,147.6 L483.6504,139.32 L485.6232,139.32 L487.7688,145.2528 L490.0008,139.32 L491.988,139.32 L488.5896,147.6 L486.9048,147.6 Z M500.34,145.152 C499.8648,146.8368 498.5256,147.816 496.3512,147.816 C493.5576,147.816 492.1896,146.2032 492.1896,143.64 L492.1896,143.4384 C492.1896,142.5456 492.3624,141.8112 492.708,141.1488 C493.3992,139.8528 494.6664,139.1184 496.4088,139.1184 C497.8344,139.1184 498.8424,139.608 499.5048,140.4 C500.1672,141.192 500.4552,142.2144 500.4552,143.28 L500.4552,144.1584 L494.0616,144.1584 C494.22,145.512 495.0552,146.2608 496.4232,146.2608 C497.4312,146.2608 498.0216,145.872 498.3096,145.152 L500.34,145.152 Z M496.4232,140.616 C495.1128,140.616 494.292,141.3648 494.076,142.6752 L498.5688,142.6752 C498.4392,141.408 497.748,140.616 496.4232,140.616 Z M501.8808,147.6 L501.8808,136.512 L503.7672,136.512 L503.7672,147.6 L501.8808,147.6 Z M517.836,145.152 C517.3608,146.8368 516.0216,147.816 513.8472,147.816 C511.0536,147.816 509.6856,146.2032 509.6856,143.64 L509.6856,143.4384 C509.6856,142.5456 509.8584,141.8112 510.204,141.1488 C510.8952,139.8528 512.1624,139.1184 513.9048,139.1184 C515.3304,139.1184 516.3384,139.608 517.0008,140.4 C517.6632,141.192 517.9512,142.2144 517.9512,143.28 L517.9512,144.1584 L511.5576,144.1584 C511.716,145.512 512.5512,146.2608 513.9192,146.2608 C514.9272,146.2608 515.5176,145.872 515.8056,145.152 L517.836,145.152 Z M513.9192,140.616 C512.6088,140.616 511.788,141.3648 511.572,142.6752 L516.0648,142.6752 C515.9352,141.408 515.244,140.616 513.9192,140.616 Z M522.2712,144.6336 L520.1976,147.6 L517.908,147.6 L521.2056,143.2656 L518.2536,139.32 L520.4712,139.32 L522.2856,141.9552 L524.1576,139.32 L526.3464,139.32 L523.3512,143.2512 L526.548,147.6 L524.3304,147.6 L522.2712,144.6336 Z M531.9048,147.7728 C530.5368,147.7728 529.6296,147.1536 529.14,146.1456 L529.14,150.4512 L527.3112,150.4512 L527.3112,139.32 L528.8808,139.32 L529.0824,141.0048 C529.5288,139.8672 530.4936,139.1184 531.9336,139.1184 C534.0936,139.1184 535.4616,140.6448 535.4616,143.4384 L535.4616,143.64 C535.4616,144.5472 535.3032,145.296 535.0008,145.9152 C534.396,147.1536 533.2872,147.7728 531.9048,147.7728 Z M531.3144,146.1744 C532.7256,146.1744 533.5464,145.2528 533.5464,143.6112 L533.5464,143.4384 C533.5464,141.6672 532.6536,140.7312 531.3576,140.7312 C529.9896,140.7312 529.0968,141.768 529.0968,143.4096 L529.0968,143.5536 C529.0968,145.152 529.9464,146.1744 531.3144,146.1744 Z M544.8504,145.152 C544.3752,146.8368 543.036,147.816 540.8616,147.816 C538.068,147.816 536.7,146.2032 536.7,143.64 L536.7,143.4384 C536.7,142.5456 536.8728,141.8112 537.2184,141.1488 C537.9096,139.8528 539.1768,139.1184 540.9192,139.1184 C542.3448,139.1184 543.3528,139.608 544.0152,140.4 C544.6776,141.192 544.9656,142.2144 544.9656,143.28 L544.9656,144.1584 L538.572,144.1584 C538.7304,145.512 539.5656,146.2608 540.9336,146.2608 C541.9416,146.2608 542.532,145.872 542.82,145.152 L544.8504,145.152 Z M540.9336,140.616 C539.6232,140.616 538.8024,141.3648 538.5864,142.6752 L543.0792,142.6752 C542.9496,141.408 542.2584,140.616 540.9336,140.616 Z M550.308,147.816 C547.6584,147.816 546.1464,146.3328 546.1464,143.6256 L546.1464,143.4096 C546.1464,142.488 546.3336,141.696 546.6936,141.0624 C547.428,139.7952 548.724,139.1184 550.3224,139.1184 C552.612,139.1184 554.1816,140.1984 554.3688,142.6176 L554.3688,142.6464 L552.396,142.6464 L552.396,142.6032 C552.2232,141.3072 551.4888,140.7312 550.3368,140.7312 C549.012,140.7312 548.1048,141.6528 548.1048,143.4096 L548.1048,143.5968 C548.1048,145.2384 548.94,146.16 550.3224,146.16 C551.532,146.16 552.2232,145.5264 552.4104,144.2592 L552.4104,144.2448 L554.3832,144.2448 L554.3832,144.288 C554.196,146.736 552.5976,147.816 550.308,147.816 Z M560.5032,147.6 L559.4376,147.6 C558.66,147.6 558.0552,147.4848 557.652,147.2976 C556.8168,146.88 556.5576,145.9728 556.5576,144.288 L556.5576,140.9904 L554.9448,140.9904 L554.9448,139.392 L555.6792,139.392 C555.9528,139.392 556.14,139.3632 556.2696,139.3056 C556.5432,139.176 556.6296,138.8592 556.6728,138.1824 C556.6872,137.8224 556.7016,137.3328 556.7016,137.088 L558.3144,137.088 L558.3144,139.32 L560.5032,139.32 L560.5032,140.9904 L558.3144,140.9904 L558.3144,143.9712 C558.3144,144.5184 558.3576,144.9216 558.4296,145.1952 C558.5592,145.7424 558.9912,145.8432 559.9128,145.8432 L560.5032,145.8432 L560.5032,147.6 Z M567.516,145.944 C566.9544,147.024 565.8456,147.816 564.132,147.816 C562.332,147.816 561.4248,146.952 561.4248,145.5984 C561.4248,144.6768 561.828,143.9856 562.5048,143.568 C562.7352,143.4096 562.98,143.2944 563.2104,143.2224 C563.7,143.0496 564.3192,142.9344 565.356,142.776 C566.8392,142.5888 567.4296,142.3872 567.4296,141.7104 C567.4296,141.0192 566.9832,140.5872 565.6872,140.5872 C564.3192,140.5872 563.7,141.1776 563.6424,142.2432 L561.6984,142.2432 C561.828,140.3568 563.2104,139.1184 565.5864,139.1184 C566.4936,139.1184 567.1848,139.2336 567.732,139.4784 C568.812,139.9392 569.244,140.8176 569.244,142.0128 L569.244,147.6 L567.7176,147.6 L567.516,145.944 Z M564.78,146.3616 C565.3272,146.3616 565.788,146.232 566.1912,145.9872 C566.9976,145.4832 567.444,144.648 567.444,143.856 L567.444,143.4096 C567.0984,143.6544 566.5224,143.8272 565.7736,143.9424 C564.7656,144.1008 564.3624,144.216 563.9736,144.4608 C563.6424,144.6768 563.484,144.9648 563.484,145.3248 C563.484,146.016 563.916,146.3616 564.78,146.3616 Z M575.6664,147.6 L574.6008,147.6 C573.8232,147.6 573.2184,147.4848 572.8152,147.2976 C571.98,146.88 571.7208,145.9728 571.7208,144.288 L571.7208,140.9904 L570.108,140.9904 L570.108,139.392 L570.8424,139.392 C571.116,139.392 571.3032,139.3632 571.4328,139.3056 C571.7064,139.176 571.7928,138.8592 571.836,138.1824 C571.8504,137.8224 571.8648,137.3328 571.8648,137.088 L573.4776,137.088 L573.4776,139.32 L575.6664,139.32 L575.6664,140.9904 L573.4776,140.9904 L573.4776,143.9712 C573.4776,144.5184 573.5208,144.9216 573.5928,145.1952 C573.7224,145.7424 574.1544,145.8432 575.076,145.8432 L575.6664,145.8432 L575.6664,147.6 Z M578.0136,138.4272 C577.1064,138.4272 576.7608,138.1248 576.7608,137.1744 C576.7608,136.2528 577.1784,135.936 578.0136,135.936 C578.8488,135.936 579.2664,136.2528 579.2664,137.1744 C579.2664,138.0672 578.8632,138.4272 578.0136,138.4272 Z M577.0344,147.6 L577.0344,139.32 L578.9496,139.32 L578.9496,147.6 L577.0344,147.6 Z M584.5512,147.816 C581.8728,147.816 580.3752,146.3328 580.3752,143.6256 L580.3752,143.4096 C580.3752,142.488 580.5624,141.696 580.9224,141.0624 C581.6424,139.7952 582.924,139.1184 584.5512,139.1184 C585.3864,139.1184 586.092,139.2768 586.7112,139.6224 C587.9784,140.2992 588.7272,141.5808 588.7272,143.4096 L588.7272,143.6256 C588.7272,144.5328 588.5544,145.2816 588.2088,145.9008 C587.4888,147.1536 586.236,147.816 584.5512,147.816 Z M584.5512,146.16 C585.9768,146.16 586.812,145.2384 586.812,143.5968 L586.812,143.4096 C586.812,141.7104 585.9336,140.7312 584.5656,140.7312 C583.212,140.7312 582.3048,141.6528 582.3048,143.4096 L582.3048,143.5968 C582.3048,145.2384 583.14,146.16 584.5512,146.16 Z M592.068,147.6 L590.1672,147.6 L590.1672,139.32 L591.7656,139.32 L591.9384,140.976 C592.3848,139.8384 593.3208,139.1184 594.7464,139.1184 C596.748,139.1184 597.8136,140.4432 597.8136,142.5024 L597.8136,147.6 L595.9128,147.6 L595.9128,142.9632 C595.9128,141.6096 595.4808,140.76 594.1272,140.76 C592.716,140.76 592.068,141.7392 592.068,143.28 L592.068,147.6 Z M602.8392,147.816 C600.2904,147.816 599.052,146.7936 598.8072,144.864 L600.852,144.864 C601.0248,145.8432 601.7016,146.232 602.8824,146.232 C604.092,146.232 604.5672,145.8288 604.5672,145.1664 C604.5672,144.9216 604.4664,144.72 604.2504,144.5904 C603.8328,144.3456 603.1128,144.2448 602.3208,144.1296 C601.572,144.0144 600.8088,143.8848 600.1896,143.5536 C599.5704,143.2224 599.1816,142.6608 599.1816,141.7392 C599.1816,140.2128 600.3192,139.1184 602.5944,139.1184 C604.9704,139.1184 606.0504,140.1408 606.2808,141.7968 L604.3512,141.7968 C604.2216,140.9904 603.6744,140.6304 602.58,140.6304 C601.3992,140.6304 601.0392,141.048 601.0392,141.624 C601.0392,141.8688 601.14,142.0704 601.356,142.2 C601.7736,142.4448 602.508,142.5456 603.3,142.6608 C604.0488,142.776 604.812,142.9056 605.4312,143.2368 C606.0504,143.568 606.4392,144.1296 606.4392,145.0512 C606.4392,146.6496 605.2872,147.816 602.8392,147.816 Z" id="Metgrade-levelexpectations" fill="#0031A3" fill-rule="nonzero"></path>
                <path d="M265.147,87.3999996 L265.147,77.4459996 L266.519,77.4459996 L266.519,86.1259996 L271.615,86.1259996 L271.615,87.3999996 L265.147,87.3999996 Z M280.421,85.0199996 C279.959,86.6719996 278.615,87.6099996 276.627,87.6099996 C273.967,87.6099996 272.637,86.0419996 272.637,83.5499996 L272.637,83.3819996 C272.637,82.5419996 272.805,81.8139996 273.127,81.1699996 C273.785,79.9099996 275.017,79.1819996 276.669,79.1819996 C277.551,79.1819996 278.279,79.3639996 278.839,79.7419996 C279.987,80.4979996 280.533,81.7719996 280.533,83.2139996 L280.533,83.8579996 L273.981,83.8579996 C274.079,85.5099996 275.031,86.4619996 276.683,86.4619996 C277.845,86.4619996 278.657,85.9579996 278.951,85.0199996 L280.421,85.0199996 Z M276.683,80.2879996 C275.143,80.2879996 274.163,81.2259996 273.995,82.7799996 L279.175,82.7799996 C279.063,81.2539996 278.223,80.2879996 276.683,80.2879996 Z M284.397,87.3999996 L281.135,79.4059996 L282.563,79.4059996 L285.041,85.7899996 L287.603,79.4059996 L289.031,79.4059996 L285.629,87.3999996 L284.397,87.3999996 Z M297.375,85.0199996 C296.913,86.6719996 295.569,87.6099996 293.581,87.6099996 C290.921,87.6099996 289.591,86.0419996 289.591,83.5499996 L289.591,83.3819996 C289.591,82.5419996 289.759,81.8139996 290.081,81.1699996 C290.739,79.9099996 291.971,79.1819996 293.623,79.1819996 C294.505,79.1819996 295.233,79.3639996 295.793,79.7419996 C296.941,80.4979996 297.487,81.7719996 297.487,83.2139996 L297.487,83.8579996 L290.935,83.8579996 C291.033,85.5099996 291.985,86.4619996 293.637,86.4619996 C294.799,86.4619996 295.611,85.9579996 295.905,85.0199996 L297.375,85.0199996 Z M293.637,80.2879996 C292.097,80.2879996 291.117,81.2259996 290.949,82.7799996 L296.129,82.7799996 C296.017,81.2539996 295.177,80.2879996 293.637,80.2879996 Z M299.181,87.3999996 L299.181,76.6899996 L300.539,76.6899996 L300.539,87.3999996 L299.181,87.3999996 Z M306.685,87.3999996 L306.685,86.4059996 C306.685,85.3979996 307.119,84.6839996 307.791,84.1239996 C308.463,83.5639996 309.317,83.1579996 310.157,82.7659996 C310.647,82.5419996 311.109,82.3039996 311.543,82.0799996 C312.411,81.6319996 312.999,81.0999996 312.999,80.2879996 C312.999,79.1259996 312.229,78.4819996 310.731,78.4819996 C309.121,78.4819996 308.225,79.3079996 308.225,80.8059996 L308.225,81.1279996 L306.839,81.1279996 L306.839,80.7499996 C306.839,78.4819996 308.253,77.2919996 310.745,77.2919996 C313.153,77.2919996 314.413,78.4959996 314.413,80.2179996 C314.413,81.1699996 314.007,81.8419996 313.363,82.3879996 C312.719,82.9199996 311.921,83.3259996 311.109,83.7039996 C310.647,83.9279996 310.185,84.1519996 309.779,84.3759996 C308.939,84.8239996 308.337,85.3559996 308.267,86.1399996 L314.455,86.1399996 L314.455,87.3999996 L306.685,87.3999996 Z M265.329,103.275999 C264.657,103.275999 264.391,102.953999 264.391,102.015999 C264.391,100.811999 264.881,100.041999 265.945,99.7479992 L266.113,100.335999 C265.553,100.517999 265.259,100.937999 265.203,101.609999 C265.273,101.595999 265.371,101.581999 265.441,101.581999 C265.973,101.581999 266.197,101.735999 266.197,102.393999 C266.197,103.037999 265.931,103.275999 265.329,103.275999 Z M267.961,103.275999 C267.289,103.275999 267.023,102.953999 267.023,102.015999 C267.023,100.811999 267.513,100.041999 268.577,99.7479992 L268.745,100.335999 C268.185,100.517999 267.891,100.937999 267.849,101.609999 C267.919,101.595999 268.003,101.581999 268.073,101.581999 C268.605,101.581999 268.829,101.735999 268.829,102.393999 C268.829,103.037999 268.563,103.275999 267.961,103.275999 Z M271.055,109.799999 L271.055,99.8459992 L274.807,99.8459992 C277.397,99.8459992 278.475,100.741999 278.475,102.393999 C278.475,103.625999 277.929,104.353999 276.865,104.703999 C278.027,105.025999 278.671,105.725999 278.671,107.013999 C278.671,108.819999 277.495,109.799999 274.905,109.799999 L271.055,109.799999 Z M274.863,104.143999 C276.333,104.157999 277.131,103.667999 277.131,102.519999 C277.131,101.483999 276.459,100.979999 274.849,100.979999 L272.385,100.979999 L272.385,104.143999 L274.863,104.143999 Z M272.385,105.263999 L272.385,108.623999 L274.751,108.623999 C276.571,108.623999 277.285,108.035999 277.285,106.915999 C277.285,105.753999 276.445,105.263999 274.779,105.263999 L272.385,105.263999 Z M286.245,107.811999 C285.685,109.043999 284.453,110.009999 282.675,110.009999 C280.953,110.009999 280.057,109.169999 280.057,107.881999 C280.057,107.041999 280.449,106.369999 281.093,105.977999 C281.317,105.823999 281.541,105.725999 281.779,105.627999 C282.269,105.459999 282.941,105.319999 284.005,105.165999 C285.419,104.955999 286.189,104.829999 286.189,104.073999 C286.189,103.205999 285.615,102.659999 284.117,102.659999 C282.535,102.659999 281.765,103.429999 281.695,104.549999 L280.309,104.549999 C280.351,103.961999 280.533,103.457999 280.827,103.009999 C281.443,102.113999 282.535,101.581999 284.061,101.581999 C286.553,101.581999 287.505,102.631999 287.505,104.283999 L287.505,109.799999 L286.399,109.799999 L286.245,107.811999 Z M283.095,108.931999 C284.019,108.931999 284.789,108.567999 285.335,107.979999 C285.895,107.391999 286.203,106.691999 286.203,106.019999 L286.203,105.431999 C285.853,105.725999 285.181,105.879999 284.299,106.033999 C283.081,106.215999 282.563,106.355999 282.115,106.649999 C281.737,106.887999 281.541,107.237999 281.541,107.713999 C281.541,108.469999 282.045,108.931999 283.095,108.931999 Z M292.685,110.009999 C290.417,110.009999 289.115,109.043999 288.891,107.181999 L290.361,107.181999 C290.529,108.329999 291.453,108.847999 292.713,108.847999 C294.197,108.847999 294.743,108.245999 294.743,107.489999 C294.743,107.167999 294.631,106.943999 294.407,106.789999 C293.945,106.467999 293.161,106.355999 292.321,106.243999 C291.593,106.131999 290.837,105.991999 290.235,105.697999 C289.633,105.375999 289.241,104.871999 289.241,104.003999 C289.241,103.555999 289.353,103.149999 289.577,102.799999 C290.053,102.043999 290.977,101.581999 292.419,101.581999 C294.589,101.581999 295.709,102.561999 295.919,104.115999 L294.533,104.115999 C294.407,103.163999 293.693,102.687999 292.405,102.687999 C291.033,102.687999 290.585,103.275999 290.585,103.933999 C290.585,104.227999 290.697,104.465999 290.935,104.633999 C291.411,104.927999 292.181,105.039999 293.021,105.165999 C293.749,105.277999 294.505,105.417999 295.107,105.711999 C295.709,106.033999 296.087,106.523999 296.087,107.405999 C296.087,107.895999 295.961,108.329999 295.723,108.721999 C295.233,109.505999 294.267,110.009999 292.685,110.009999 Z M298.411,100.783999 C297.711,100.783999 297.445,100.531999 297.445,99.8179992 C297.445,99.1039992 297.767,98.8519992 298.411,98.8519992 C299.055,98.8519992 299.363,99.1039992 299.363,99.8179992 C299.363,100.517999 299.055,100.783999 298.411,100.783999 Z M297.697,109.799999 L297.697,101.805999 L299.083,101.805999 L299.083,109.799999 L297.697,109.799999 Z M304.781,110.009999 C302.247,110.009999 300.791,108.511999 300.791,105.935999 L300.791,105.753999 C300.791,104.857999 300.973,104.129999 301.323,103.485999 C302.023,102.253999 303.269,101.581999 304.795,101.581999 C306.909,101.581999 308.393,102.617999 308.631,104.843999 L308.631,104.871999 L307.217,104.871999 L307.217,104.843999 C306.993,103.415999 306.125,102.757999 304.809,102.757999 C303.269,102.757999 302.191,103.821999 302.191,105.753999 L302.191,105.907999 C302.191,107.727999 303.157,108.791999 304.795,108.791999 C306.181,108.791999 306.993,108.091999 307.231,106.705999 L307.231,106.691999 L308.645,106.691999 L308.645,106.719999 C308.407,108.987999 306.923,110.009999 304.781,110.009999 Z M310.283,102.659999 C310.829,102.477999 311.123,102.057999 311.179,101.399999 C311.109,101.413999 311.053,101.427999 310.955,101.427999 C310.423,101.427999 310.185,101.273999 310.185,100.601999 C310.185,99.9579992 310.465,99.7339992 311.067,99.7339992 C311.725,99.7339992 312.005,100.055999 312.005,100.993999 C312.005,102.197999 311.515,102.953999 310.451,103.247999 L310.283,102.659999 Z M312.915,102.659999 C313.475,102.477999 313.769,102.057999 313.825,101.399999 C313.755,101.413999 313.671,101.427999 313.601,101.427999 C313.069,101.427999 312.831,101.273999 312.831,100.601999 C312.831,99.9579992 313.097,99.7339992 313.713,99.7339992 C314.371,99.7339992 314.637,100.055999 314.637,100.993999 C314.637,102.197999 314.147,102.953999 313.083,103.247999 L312.915,102.659999 Z" id="Level2“Basic”" fill="#0031A3" fill-rule="nonzero"></path>
                <path d="M381.493,87.3999996 L381.493,77.4459996 L382.865,77.4459996 L382.865,86.1259996 L387.961,86.1259996 L387.961,87.3999996 L381.493,87.3999996 Z M396.767,85.0199996 C396.305,86.6719996 394.961,87.6099996 392.973,87.6099996 C390.313,87.6099996 388.983,86.0419996 388.983,83.5499996 L388.983,83.3819996 C388.983,82.5419996 389.151,81.8139996 389.473,81.1699996 C390.131,79.9099996 391.363,79.1819996 393.015,79.1819996 C393.897,79.1819996 394.625,79.3639996 395.185,79.7419996 C396.333,80.4979996 396.879,81.7719996 396.879,83.2139996 L396.879,83.8579996 L390.327,83.8579996 C390.425,85.5099996 391.377,86.4619996 393.029,86.4619996 C394.191,86.4619996 395.003,85.9579996 395.297,85.0199996 L396.767,85.0199996 Z M393.029,80.2879996 C391.489,80.2879996 390.509,81.2259996 390.341,82.7799996 L395.521,82.7799996 C395.409,81.2539996 394.569,80.2879996 393.029,80.2879996 Z M400.743,87.3999996 L397.481,79.4059996 L398.909,79.4059996 L401.387,85.7899996 L403.949,79.4059996 L405.377,79.4059996 L401.975,87.3999996 L400.743,87.3999996 Z M413.721,85.0199996 C413.259,86.6719996 411.915,87.6099996 409.927,87.6099996 C407.267,87.6099996 405.937,86.0419996 405.937,83.5499996 L405.937,83.3819996 C405.937,82.5419996 406.105,81.8139996 406.427,81.1699996 C407.085,79.9099996 408.317,79.1819996 409.969,79.1819996 C410.851,79.1819996 411.579,79.3639996 412.139,79.7419996 C413.287,80.4979996 413.833,81.7719996 413.833,83.2139996 L413.833,83.8579996 L407.281,83.8579996 C407.379,85.5099996 408.331,86.4619996 409.983,86.4619996 C411.145,86.4619996 411.957,85.9579996 412.251,85.0199996 L413.721,85.0199996 Z M409.983,80.2879996 C408.443,80.2879996 407.463,81.2259996 407.295,82.7799996 L412.475,82.7799996 C412.363,81.2539996 411.523,80.2879996 409.983,80.2879996 Z M415.527,87.3999996 L415.527,76.6899996 L416.885,76.6899996 L416.885,87.3999996 L415.527,87.3999996 Z M426.965,87.5959996 C424.193,87.5959996 423.003,86.5459996 423.003,84.2779996 L423.003,84.0119996 L424.403,84.0119996 L424.403,84.2079996 C424.403,85.7059996 425.187,86.3639996 426.951,86.3639996 C428.533,86.3639996 429.499,85.6219996 429.499,84.5019996 C429.499,83.2839996 428.757,82.9199996 427.343,82.9199996 L426.013,82.9199996 L426.013,81.8279996 L427.343,81.8279996 C428.729,81.8279996 429.359,81.2539996 429.359,80.2179996 C429.359,79.2239996 428.575,78.5099996 427.021,78.5099996 C425.439,78.5099996 424.557,79.3779996 424.557,80.5959996 L424.557,80.7499996 L423.185,80.7499996 L423.185,80.5539996 C423.185,78.5799996 424.571,77.2919996 427.063,77.2919996 C429.471,77.2919996 430.773,78.4399996 430.773,80.0779996 C430.773,81.2259996 430.297,81.9539996 429.303,82.2899996 C430.353,82.6119996 430.955,83.3539996 430.955,84.6419996 C430.955,85.2299996 430.801,85.7339996 430.479,86.1819996 C429.863,87.0779996 428.659,87.5959996 426.965,87.5959996 Z M366.331,103.275999 C365.659,103.275999 365.393,102.953999 365.393,102.015999 C365.393,100.811999 365.883,100.041999 366.947,99.7479992 L367.115,100.335999 C366.555,100.517999 366.261,100.937999 366.205,101.609999 C366.275,101.595999 366.373,101.581999 366.443,101.581999 C366.975,101.581999 367.199,101.735999 367.199,102.393999 C367.199,103.037999 366.933,103.275999 366.331,103.275999 Z M368.963,103.275999 C368.291,103.275999 368.025,102.953999 368.025,102.015999 C368.025,100.811999 368.515,100.041999 369.579,99.7479992 L369.747,100.335999 C369.187,100.517999 368.893,100.937999 368.851,101.609999 C368.921,101.595999 369.005,101.581999 369.075,101.581999 C369.607,101.581999 369.831,101.735999 369.831,102.393999 C369.831,103.037999 369.565,103.275999 368.963,103.275999 Z M373.401,106.523999 L373.401,109.799999 L372.057,109.799999 L372.057,99.8459992 L375.711,99.8459992 C376.593,99.8459992 377.293,99.9859992 377.881,100.265999 C379.029,100.825999 379.575,101.847999 379.575,103.163999 C379.575,105.221999 378.371,106.537999 375.795,106.523999 L373.401,106.523999 Z M373.401,101.035999 L373.401,105.347999 L375.781,105.347999 C377.335,105.347999 378.217,104.591999 378.217,103.163999 C378.217,101.889999 377.419,101.035999 375.711,101.035999 L373.401,101.035999 Z M381.213,109.799999 L381.213,101.805999 L382.319,101.805999 L382.501,103.793999 C382.837,102.463999 383.747,101.749999 385.399,101.749999 L385.889,101.749999 L385.889,103.121999 L385.217,103.121999 C384.545,103.121999 383.999,103.219999 383.621,103.429999 C382.837,103.863999 382.557,104.689999 382.557,106.061999 L382.557,109.799999 L381.213,109.799999 Z M390.635,110.009999 C388.087,110.009999 386.631,108.511999 386.631,105.935999 L386.631,105.753999 C386.631,104.857999 386.813,104.129999 387.149,103.485999 C387.849,102.253999 389.095,101.581999 390.635,101.581999 C391.419,101.581999 392.105,101.749999 392.707,102.085999 C393.925,102.743999 394.639,103.989999 394.639,105.753999 L394.639,105.935999 C394.639,106.803999 394.471,107.517999 394.149,108.133999 C393.477,109.351999 392.273,110.009999 390.635,110.009999 Z M390.635,108.791999 C392.301,108.791999 393.253,107.727999 393.253,105.907999 L393.253,105.753999 C393.253,103.891999 392.189,102.757999 390.635,102.757999 C389.095,102.757999 388.017,103.821999 388.017,105.753999 L388.017,105.907999 C388.017,107.727999 388.983,108.791999 390.635,108.791999 Z M398.097,102.981999 L398.097,109.799999 L396.795,109.799999 L396.795,102.981999 L395.297,102.981999 L395.297,101.805999 L396.795,101.805999 L396.795,101.455999 C396.795,100.741999 396.879,100.195999 397.047,99.8039992 C397.397,98.9779992 398.139,98.6839992 399.413,98.6839992 L400.253,98.6839992 L400.253,99.8039992 L399.581,99.8039992 C399.175,99.8039992 398.867,99.8459992 398.643,99.9439992 C398.209,100.111999 398.097,100.573999 398.097,101.609999 L398.097,101.805999 L400.253,101.805999 L400.253,102.981999 L398.097,102.981999 Z M402.423,100.783999 C401.723,100.783999 401.457,100.531999 401.457,99.8179992 C401.457,99.1039992 401.779,98.8519992 402.423,98.8519992 C403.067,98.8519992 403.375,99.1039992 403.375,99.8179992 C403.375,100.517999 403.067,100.783999 402.423,100.783999 Z M401.709,109.799999 L401.709,101.805999 L403.095,101.805999 L403.095,109.799999 L401.709,109.799999 Z M408.793,110.009999 C406.259,110.009999 404.803,108.511999 404.803,105.935999 L404.803,105.753999 C404.803,104.857999 404.985,104.129999 405.335,103.485999 C406.035,102.253999 407.281,101.581999 408.807,101.581999 C410.921,101.581999 412.405,102.617999 412.643,104.843999 L412.643,104.871999 L411.229,104.871999 L411.229,104.843999 C411.005,103.415999 410.137,102.757999 408.821,102.757999 C407.281,102.757999 406.203,103.821999 406.203,105.753999 L406.203,105.907999 C406.203,107.727999 407.169,108.791999 408.807,108.791999 C410.193,108.791999 411.005,108.091999 411.243,106.705999 L411.243,106.691999 L412.657,106.691999 L412.657,106.719999 C412.419,108.987999 410.935,110.009999 408.793,110.009999 Z M415.079,100.783999 C414.379,100.783999 414.113,100.531999 414.113,99.8179992 C414.113,99.1039992 414.435,98.8519992 415.079,98.8519992 C415.723,98.8519992 416.031,99.1039992 416.031,99.8179992 C416.031,100.517999 415.723,100.783999 415.079,100.783999 Z M414.365,109.799999 L414.365,101.805999 L415.751,101.805999 L415.751,109.799999 L414.365,109.799999 Z M425.243,107.419999 C424.781,109.071999 423.437,110.009999 421.449,110.009999 C418.789,110.009999 417.459,108.441999 417.459,105.949999 L417.459,105.781999 C417.459,104.941999 417.627,104.213999 417.949,103.569999 C418.607,102.309999 419.839,101.581999 421.491,101.581999 C422.373,101.581999 423.101,101.763999 423.661,102.141999 C424.809,102.897999 425.355,104.171999 425.355,105.613999 L425.355,106.257999 L418.803,106.257999 C418.901,107.909999 419.853,108.861999 421.505,108.861999 C422.667,108.861999 423.479,108.357999 423.773,107.419999 L425.243,107.419999 Z M421.505,102.687999 C419.965,102.687999 418.985,103.625999 418.817,105.179999 L423.997,105.179999 C423.885,103.653999 423.045,102.687999 421.505,102.687999 Z M428.379,109.799999 L427.007,109.799999 L427.007,101.805999 L428.155,101.805999 L428.295,103.625999 C428.729,102.393999 429.695,101.581999 431.221,101.581999 C433.279,101.581999 434.343,102.911999 434.343,104.941999 L434.343,109.799999 L432.971,109.799999 L432.971,105.249999 C432.971,103.751999 432.369,102.771999 430.815,102.771999 C429.233,102.771999 428.379,103.905999 428.379,105.613999 L428.379,109.799999 Z M440.433,109.799999 L439.551,109.799999 C438.837,109.799999 438.277,109.701999 437.885,109.519999 C437.101,109.141999 436.821,108.301999 436.821,106.705999 L436.821,103.009999 L435.253,103.009999 L435.253,101.847999 L436.023,101.847999 C436.261,101.847999 436.443,101.833999 436.569,101.777999 C436.807,101.679999 436.863,101.413999 436.905,100.811999 C436.905,100.741999 436.905,100.615999 436.919,100.461999 C436.919,100.139999 436.933,99.8039992 436.933,99.6919992 L438.081,99.6919992 L438.081,101.805999 L440.433,101.805999 L440.433,103.009999 L438.081,103.009999 L438.081,106.509999 C438.081,107.097999 438.123,107.517999 438.221,107.797999 C438.431,108.385999 438.907,108.525999 439.859,108.525999 L440.433,108.525999 L440.433,109.799999 Z M442.281,102.659999 C442.827,102.477999 443.121,102.057999 443.177,101.399999 C443.107,101.413999 443.051,101.427999 442.953,101.427999 C442.421,101.427999 442.183,101.273999 442.183,100.601999 C442.183,99.9579992 442.463,99.7339992 443.065,99.7339992 C443.723,99.7339992 444.003,100.055999 444.003,100.993999 C444.003,102.197999 443.513,102.953999 442.449,103.247999 L442.281,102.659999 Z M444.913,102.659999 C445.473,102.477999 445.767,102.057999 445.823,101.399999 C445.753,101.413999 445.669,101.427999 445.599,101.427999 C445.067,101.427999 444.829,101.273999 444.829,100.601999 C444.829,99.9579992 445.095,99.7339992 445.711,99.7339992 C446.369,99.7339992 446.635,100.055999 446.635,100.993999 C446.635,102.197999 446.145,102.953999 445.081,103.247999 L444.913,102.659999 Z" id="Level3“Proficient”" fill="#0031A3" fill-rule="nonzero"></path>
                <path d="M540.57,87.3999996 L540.57,77.4459996 L541.942,77.4459996 L541.942,86.1259996 L547.038,86.1259996 L547.038,87.3999996 L540.57,87.3999996 Z M555.844,85.0199996 C555.382,86.6719996 554.038,87.6099996 552.05,87.6099996 C549.39,87.6099996 548.06,86.0419996 548.06,83.5499996 L548.06,83.3819996 C548.06,82.5419996 548.228,81.8139996 548.55,81.1699996 C549.208,79.9099996 550.44,79.1819996 552.092,79.1819996 C552.974,79.1819996 553.702,79.3639996 554.262,79.7419996 C555.41,80.4979996 555.956,81.7719996 555.956,83.2139996 L555.956,83.8579996 L549.404,83.8579996 C549.502,85.5099996 550.454,86.4619996 552.106,86.4619996 C553.268,86.4619996 554.08,85.9579996 554.374,85.0199996 L555.844,85.0199996 Z M552.106,80.2879996 C550.566,80.2879996 549.586,81.2259996 549.418,82.7799996 L554.598,82.7799996 C554.486,81.2539996 553.646,80.2879996 552.106,80.2879996 Z M559.82,87.3999996 L556.558,79.4059996 L557.986,79.4059996 L560.464,85.7899996 L563.026,79.4059996 L564.454,79.4059996 L561.052,87.3999996 L559.82,87.3999996 Z M572.798,85.0199996 C572.336,86.6719996 570.992,87.6099996 569.004,87.6099996 C566.344,87.6099996 565.014,86.0419996 565.014,83.5499996 L565.014,83.3819996 C565.014,82.5419996 565.182,81.8139996 565.504,81.1699996 C566.162,79.9099996 567.394,79.1819996 569.046,79.1819996 C569.928,79.1819996 570.656,79.3639996 571.216,79.7419996 C572.364,80.4979996 572.91,81.7719996 572.91,83.2139996 L572.91,83.8579996 L566.358,83.8579996 C566.456,85.5099996 567.408,86.4619996 569.06,86.4619996 C570.222,86.4619996 571.034,85.9579996 571.328,85.0199996 L572.798,85.0199996 Z M569.06,80.2879996 C567.52,80.2879996 566.54,81.2259996 566.372,82.7799996 L571.552,82.7799996 C571.44,81.2539996 570.6,80.2879996 569.06,80.2879996 Z M574.604,87.3999996 L574.604,76.6899996 L575.962,76.6899996 L575.962,87.3999996 L574.604,87.3999996 Z M590.228,84.9639996 L588.422,84.9639996 L588.422,87.3999996 L587.064,87.3999996 L587.064,84.9639996 L581.772,84.9639996 L581.772,83.9839996 L587.218,77.4459996 L588.422,77.4459996 L588.422,83.8019996 L590.228,83.8019996 L590.228,84.9639996 Z M587.064,83.8019996 L587.064,79.3779996 L583.34,83.8019996 L587.064,83.8019996 Z M524.582,103.275999 C523.91,103.275999 523.644,102.953999 523.644,102.015999 C523.644,100.811999 524.134,100.041999 525.198,99.7479992 L525.366,100.335999 C524.806,100.517999 524.512,100.937999 524.456,101.609999 C524.526,101.595999 524.624,101.581999 524.694,101.581999 C525.226,101.581999 525.45,101.735999 525.45,102.393999 C525.45,103.037999 525.184,103.275999 524.582,103.275999 Z M527.214,103.275999 C526.542,103.275999 526.276,102.953999 526.276,102.015999 C526.276,100.811999 526.766,100.041999 527.83,99.7479992 L527.998,100.335999 C527.438,100.517999 527.144,100.937999 527.102,101.609999 C527.172,101.595999 527.256,101.581999 527.326,101.581999 C527.858,101.581999 528.082,101.735999 528.082,102.393999 C528.082,103.037999 527.816,103.275999 527.214,103.275999 Z M534.508,107.209999 L530.238,107.209999 L529.3,109.799999 L527.9,109.799999 L531.624,99.8459992 L533.038,99.8459992 L536.874,109.799999 L535.474,109.799999 L534.508,107.209999 Z M530.658,106.033999 L534.06,106.033999 L532.366,101.483999 L532.338,101.287999 L532.296,101.483999 L530.658,106.033999 Z M544.112,107.923999 C543.664,109.127999 542.656,109.981999 541.102,109.981999 C540.402,109.981999 539.8,109.827999 539.254,109.505999 C538.19,108.847999 537.56,107.615999 537.56,105.851999 L537.56,105.669999 C537.56,104.801999 537.714,104.073999 538.008,103.457999 C538.624,102.239999 539.744,101.595999 541.186,101.595999 C542.628,101.595999 543.608,102.295999 544.07,103.401999 L544.07,99.0899992 L545.386,99.0899992 L545.386,109.799999 L544.266,109.799999 L544.112,107.923999 Z M541.466,108.791999 C542.012,108.791999 542.488,108.651999 542.88,108.413999 C543.692,107.909999 544.126,106.985999 544.126,105.823999 L544.126,105.725999 C544.126,105.123999 544.028,104.619999 543.818,104.171999 C543.412,103.275999 542.628,102.743999 541.564,102.743999 C539.87,102.743999 538.96,103.877999 538.96,105.697999 L538.96,105.837999 C538.96,107.755999 539.996,108.791999 541.466,108.791999 Z M549.838,109.799999 L546.576,101.805999 L548.004,101.805999 L550.482,108.189999 L553.044,101.805999 L554.472,101.805999 L551.07,109.799999 L549.838,109.799999 Z M561.178,107.811999 C560.618,109.043999 559.386,110.009999 557.608,110.009999 C555.886,110.009999 554.99,109.169999 554.99,107.881999 C554.99,107.041999 555.382,106.369999 556.026,105.977999 C556.25,105.823999 556.474,105.725999 556.712,105.627999 C557.202,105.459999 557.874,105.319999 558.938,105.165999 C560.352,104.955999 561.122,104.829999 561.122,104.073999 C561.122,103.205999 560.548,102.659999 559.05,102.659999 C557.468,102.659999 556.698,103.429999 556.628,104.549999 L555.242,104.549999 C555.284,103.961999 555.466,103.457999 555.76,103.009999 C556.376,102.113999 557.468,101.581999 558.994,101.581999 C561.486,101.581999 562.438,102.631999 562.438,104.283999 L562.438,109.799999 L561.332,109.799999 L561.178,107.811999 Z M558.028,108.931999 C558.952,108.931999 559.722,108.567999 560.268,107.979999 C560.828,107.391999 561.136,106.691999 561.136,106.019999 L561.136,105.431999 C560.786,105.725999 560.114,105.879999 559.232,106.033999 C558.014,106.215999 557.496,106.355999 557.048,106.649999 C556.67,106.887999 556.474,107.237999 556.474,107.713999 C556.474,108.469999 556.978,108.931999 558.028,108.931999 Z M565.84,109.799999 L564.468,109.799999 L564.468,101.805999 L565.616,101.805999 L565.756,103.625999 C566.19,102.393999 567.156,101.581999 568.682,101.581999 C570.74,101.581999 571.804,102.911999 571.804,104.941999 L571.804,109.799999 L570.432,109.799999 L570.432,105.249999 C570.432,103.751999 569.83,102.771999 568.276,102.771999 C566.694,102.771999 565.84,103.905999 565.84,105.613999 L565.84,109.799999 Z M577.446,110.009999 C574.912,110.009999 573.456,108.511999 573.456,105.935999 L573.456,105.753999 C573.456,104.857999 573.638,104.129999 573.988,103.485999 C574.688,102.253999 575.934,101.581999 577.46,101.581999 C579.574,101.581999 581.058,102.617999 581.296,104.843999 L581.296,104.871999 L579.882,104.871999 L579.882,104.843999 C579.658,103.415999 578.79,102.757999 577.474,102.757999 C575.934,102.757999 574.856,103.821999 574.856,105.753999 L574.856,105.907999 C574.856,107.727999 575.822,108.791999 577.46,108.791999 C578.846,108.791999 579.658,108.091999 579.896,106.705999 L579.896,106.691999 L581.31,106.691999 L581.31,106.719999 C581.072,108.987999 579.588,110.009999 577.446,110.009999 Z M590.424,107.419999 C589.962,109.071999 588.618,110.009999 586.63,110.009999 C583.97,110.009999 582.64,108.441999 582.64,105.949999 L582.64,105.781999 C582.64,104.941999 582.808,104.213999 583.13,103.569999 C583.788,102.309999 585.02,101.581999 586.672,101.581999 C587.554,101.581999 588.282,101.763999 588.842,102.141999 C589.99,102.897999 590.536,104.171999 590.536,105.613999 L590.536,106.257999 L583.984,106.257999 C584.082,107.909999 585.034,108.861999 586.686,108.861999 C587.848,108.861999 588.66,108.357999 588.954,107.419999 L590.424,107.419999 Z M586.686,102.687999 C585.146,102.687999 584.166,103.625999 583.998,105.179999 L589.178,105.179999 C589.066,103.653999 588.226,102.687999 586.686,102.687999 Z M598.488,107.923999 C598.04,109.127999 597.032,109.981999 595.478,109.981999 C594.778,109.981999 594.176,109.827999 593.63,109.505999 C592.566,108.847999 591.936,107.615999 591.936,105.851999 L591.936,105.669999 C591.936,104.801999 592.09,104.073999 592.384,103.457999 C593,102.239999 594.12,101.595999 595.562,101.595999 C597.004,101.595999 597.984,102.295999 598.446,103.401999 L598.446,99.0899992 L599.762,99.0899992 L599.762,109.799999 L598.642,109.799999 L598.488,107.923999 Z M595.842,108.791999 C596.388,108.791999 596.864,108.651999 597.256,108.413999 C598.068,107.909999 598.502,106.985999 598.502,105.823999 L598.502,105.725999 C598.502,105.123999 598.404,104.619999 598.194,104.171999 C597.788,103.275999 597.004,102.743999 595.94,102.743999 C594.246,102.743999 593.336,103.877999 593.336,105.697999 L593.336,105.837999 C593.336,107.755999 594.372,108.791999 595.842,108.791999 Z M602.03,102.659999 C602.576,102.477999 602.87,102.057999 602.926,101.399999 C602.856,101.413999 602.8,101.427999 602.702,101.427999 C602.17,101.427999 601.932,101.273999 601.932,100.601999 C601.932,99.9579992 602.212,99.7339992 602.814,99.7339992 C603.472,99.7339992 603.752,100.055999 603.752,100.993999 C603.752,102.197999 603.262,102.953999 602.198,103.247999 L602.03,102.659999 Z M604.662,102.659999 C605.222,102.477999 605.516,102.057999 605.572,101.399999 C605.502,101.413999 605.418,101.427999 605.348,101.427999 C604.816,101.427999 604.578,101.273999 604.578,100.601999 C604.578,99.9579992 604.844,99.7339992 605.46,99.7339992 C606.118,99.7339992 606.384,100.055999 606.384,100.993999 C606.384,102.197999 605.894,102.953999 604.83,103.247999 L604.662,102.659999 Z" id="Level4“Advanced”" fill="#0031A3" fill-rule="nonzero"></path>
                <path d="M644,28 L644,75" id="Line-2" stroke="#0032A3" stroke-width="1.6" stroke-linecap="square"></path>
                <path d="M486,28 L486,75" id="Line-2-Copy" stroke="#0032A3" stroke-width="1.6" stroke-linecap="square"></path>
                <path d="M328.5,28 L328.5,188.28125" id="Line-2-Copy-2" stroke="#0032A3" stroke-width="1.6" stroke-linecap="square"></path>
                <path d="M250,28 L250,75" id="Line-2-Copy-3" stroke="#0032A3" stroke-width="1.6" stroke-linecap="square"></path>
                <path d="M13,28 L13,75" id="Line-2-Copy-4" stroke="#0032A3" stroke-width="1.6" stroke-linecap="square"></path>
            </g>
        </g>
    </g>
</svg>