<?xml version="1.0" encoding="UTF-8"?>
<svg width="992px" height="324px" viewBox="0 0 992 324" version="1.1" xmlns="http://www.w3.org/2000/svg" xmlns:xlink="http://www.w3.org/1999/xlink">
    <!-- Generator: Sketch 53.2 (72643) - https://sketchapp.com -->
    <title>Group 18</title>
    <desc>Created with Sketch.</desc>
    <defs>
        <linearGradient x1="52.0083841%" y1="31.9209929%" x2="52.0083841%" y2="94.0697455%" id="linearGradient-1">
            <stop stop-color="#FF003E" stop-opacity="0.199558424" offset="0%"></stop>
            <stop stop-color="#0364FF" stop-opacity="0.15" offset="100%"></stop>
        </linearGradient>
    </defs>
    <g id="Page-1" stroke="none" stroke-width="1" fill="none" fill-rule="evenodd" opacity="0.576939174">
        <g id="About-Page-992-V1" transform="translate(0.000000, -124.000000)" fill-rule="nonzero">
            <g id="hero">
                <g id="Group-7">
                    <g id="Group-3">
                        <g id="Group-7">
                            <g id="Graph" transform="translate(-20.000000, -6.000000)">
                                <g id="Group-18" transform="translate(0.000000, 116.000000)">
                                    <path d="M2.22261445e-16,307.842975 C53.4068136,307.842975 43.1362725,280.173554 76.002004,280.173554 C95.5160321,280.173554 107.840681,244.305785 131.462926,244.305785 C158.166333,244.305785 153.031062,261.727273 182.815631,261.727273 C212.6002,261.727273 239.10827,290.421488 256.763527,290.421488 C274.418784,290.421488 274.418784,276.07438 292.710421,276.07438 C311.002058,276.07438 311.002058,257.628099 336.873747,257.628099 C362.745437,257.628099 361.224542,225.859504 380.01002,225.859504 C398.795498,225.859504 402.60521,244.305785 412.875752,244.305785 C423.146293,244.305785 419.038076,225.859504 439.579158,225.859504 C460.12024,225.859504 460.12024,204.338843 483.742485,203.31405 C507.364729,202.289256 500.308971,155.83038 535,137 C569.691029,118.16962 573.240091,158.528672 612.124248,133.628099 C651.008406,108.727526 657.346312,91.4732624 671.693387,82.3884298 C686.040461,73.3035971 687.29454,85.6375831 718.937876,65.9917355 C750.581212,46.3458879 751.803607,25 764.128257,25 C776.452906,25 773.371743,40.3719008 792.885772,40.3719008 C812.3998,40.3719008 814.453908,61.892562 828.832665,61.892562 C843.211423,61.892562 852.858356,48.5702479 863.752505,48.5702479 C879.158317,48.5702479 886.347695,67.0165289 914.078156,65.9917355 C941.808617,64.9669421 943,51 974,51 C1005,51 1004.48597,10 1024,10 C1024,22.2975207 1022.27923,192.630854 1018.83768,521 L0,521 C0,404.856749 7.40871485e-17,333.804408 2.22261445e-16,307.842975 Z" id="Path-2-Copy" fill="url(#linearGradient-1)"></path>
                                    <path d="M0,307.842975 C53.4068136,307.842975 43.1362725,280.173554 76.002004,280.173554 C95.5160321,280.173554 107.840681,244.305785 131.462926,244.305785 C158.166333,244.305785 153.031062,261.727273 182.815631,261.727273 C212.6002,261.727273 239.10827,290.421488 256.763527,290.421488 C274.418784,290.421488 274.418784,276.07438 292.710421,276.07438 C311.002058,276.07438 311.002058,257.628099 336.873747,257.628099 C362.745437,257.628099 361.224542,225.859504 380.01002,225.859504 C398.795498,225.859504 402.60521,244.305785 412.875752,244.305785 C423.146293,244.305785 419.038076,225.859504 439.579158,225.859504 C460.12024,225.859504 460.12024,204.338843 483.742485,203.31405 C507.364729,202.289256 503,159 533,138 C563,117 573.240091,158.528672 612.124248,133.628099 C651.008406,108.727526 657.346312,91.4732624 671.693387,82.3884298 C686.040461,73.3035971 687.29454,85.6375831 718.937876,65.9917355 C750.581212,46.3458879 751.803607,25 764.128257,25 C776.452906,25 771.485972,40 791,40 C810.514028,40 814.453908,61.892562 828.832665,61.892562 C843.211423,61.892562 852.858356,48.5702479 863.752505,48.5702479 C879.158317,48.5702479 886.347695,67.0165289 914.078156,65.9917355 C941.808617,64.9669421 942.161323,48.9752066 974,50 C1005.83868,51.0247934 1010.48597,-9.45219712e-14 1030,0" id="Path-2" stroke="#FF003E" stroke-width="2" stroke-linecap="round"></path>
                                </g>
                            </g>
                        </g>
                    </g>
                </g>
            </g>
        </g>
    </g>
</svg>