<?xml version="1.0" encoding="UTF-8"?>
<svg width="1800px" height="588px" viewBox="0 0 1800 588" xmlns="http://www.w3.org/2000/svg" xmlns:xlink="http://www.w3.org/1999/xlink" version="1.1">
 <!-- Generated by Pixelmator Pro 1.3.2 -->
 <defs>
  <linearGradient id="linear-gradient" gradientUnits="userSpaceOnUse" x1="893.769" y1="531.507" x2="893.769" y2="1686.461">
   <stop offset="0" stop-color="#ff003e" stop-opacity="0.2"/>
   <stop offset="1" stop-color="#0364ff" stop-opacity="0.15"/>
  </linearGradient>
 </defs>
 <path id="path" d="M-36.29 533.271 C60.617 533.271 41.981 483.056 101.616 483.056 137.025 483.056 159.388 417.962 202.251 417.962 250.705 417.962 241.387 449.579 295.431 449.579 349.476 449.579 397.575 501.654 429.611 501.654 461.647 501.654 461.647 475.616 494.837 475.616 528.028 475.616 528.028 442.14 574.972 442.14 621.917 442.14 619.157 384.486 653.244 384.486 687.33 384.486 694.243 417.962 712.879 417.962 731.515 417.962 724.061 384.486 761.333 384.486 798.605 384.486 798.605 345.43 841.468 343.57 884.331 341.71 871.528 257.396 934.476 223.222 997.423 189.048 1003.863 262.293 1074.419 217.103 1144.975 171.913 1156.475 140.599 1182.508 124.112 1208.541 107.625 1210.817 130.009 1268.234 94.355 1325.651 58.702 1327.869 19.963 1350.233 19.963 1372.596 19.963 1367.005 47.86 1402.414 47.86 1437.822 47.86 1441.549 86.916 1467.64 86.916 1493.73 86.916 1511.235 62.739 1531.002 62.739 1558.957 62.739 1572.002 96.215 1622.319 94.355 1672.636 92.496 1674.798 67.148 1731.048 67.148 1787.298 67.148 1786.366 -7.259 1821.774 -7.259 1821.774 15.058 1818.652 324.182 1812.407 920.111 L-36.29 920.111 C-36.29 709.332 -36.29 580.386 -36.29 533.271 Z" fill-opacity="1" fill="url(#linear-gradient)" stroke="none"/>
 <path id="path-1" d="M-36.29 533.271 C60.617 533.271 41.981 483.056 101.616 483.056 137.025 483.056 159.388 417.962 202.251 417.962 250.705 417.962 241.387 449.579 295.431 449.579 349.476 449.579 397.575 501.654 429.611 501.654 461.647 501.654 461.647 475.616 494.837 475.616 528.028 475.616 528.028 442.14 574.972 442.14 621.917 442.14 619.157 384.486 653.244 384.486 687.33 384.486 694.243 417.962 712.879 417.962 731.515 417.962 724.061 384.486 761.333 384.486 798.605 384.486 798.605 345.43 841.468 343.57 884.331 341.71 876.411 263.148 930.847 225.037 985.282 186.926 1003.863 262.293 1074.419 217.103 1144.975 171.913 1156.475 140.599 1182.508 124.112 1208.541 107.625 1210.817 130.009 1268.234 94.355 1325.651 58.702 1327.869 19.963 1350.233 19.963 1372.596 19.963 1363.583 47.185 1398.992 47.185 1434.4 47.185 1441.549 86.916 1467.64 86.916 1493.73 86.916 1511.235 62.739 1531.002 62.739 1558.957 62.739 1572.002 96.215 1622.319 94.355 1672.636 92.496 1673.276 63.473 1731.048 65.333 1788.82 67.193 1797.253 -25.407 1832.661 -25.407" fill="none" stroke="#ff003e" stroke-width="3.629" stroke-opacity="1" stroke-linejoin="round"/>
</svg>
