<?xml version="1.0" encoding="UTF-8"?>
<svg width="30px" height="39px" viewBox="0 0 30 39" version="1.1" xmlns="http://www.w3.org/2000/svg" xmlns:xlink="http://www.w3.org/1999/xlink">
    <!-- Generator: Sketch 56.2 (81672) - https://sketch.com -->
    <title>close</title>
    <desc>Created with Sketch.</desc>
    <defs>
        <path d="M2.832,9.1506122 C1.32,9.1506122 0.48,8.3346122 0.48,6.5226122 L0.48,3.0066122 C0.48,1.2546122 1.344,0.3666122 2.844,0.3666122 C4.512,0.3666122 5.208,1.1706122 5.208,3.0066122 L5.208,3.6786122 L4.008,3.6786122 L4.008,3.0546122 C4.008,1.8306122 3.78,1.3866122 2.832,1.3866122 C1.944,1.3866122 1.644,1.9626122 1.644,3.0546122 L1.644,6.4506122 C1.644,7.5426122 1.956,8.0946122 2.844,8.0946122 C3.708,8.0946122 4.008,7.5426122 4.008,6.4506122 L4.008,5.5986122 L5.208,5.5986122 L5.208,6.5226122 C5.208,8.3226122 4.356,9.1506122 2.832,9.1506122 Z M7.065143,9.0306122 L7.065143,0.4746122 L8.193143,0.4746122 L8.193143,7.9506122 L10.773143,7.9506122 L10.773143,9.0306122 L7.065143,9.0306122 Z M14.610286,9.1506122 C13.098286,9.1506122 12.198286,8.3226122 12.198286,6.5106122 L12.198286,3.0426122 C12.198286,1.2906122 13.122286,0.3786122 14.622286,0.3786122 C16.122286,0.3786122 17.034286,1.2786122 17.034286,3.0426122 L17.034286,6.5106122 C17.034286,8.3106122 16.134286,9.1506122 14.610286,9.1506122 Z M14.622286,8.0946122 C15.486286,8.0946122 15.870286,7.5306122 15.870286,6.4386122 L15.870286,3.0906122 C15.870286,1.9866122 15.498286,1.3986122 14.610286,1.3986122 C13.722286,1.3986122 13.362286,1.9986122 13.362286,3.0906122 L13.362286,6.4386122 C13.362286,7.5306122 13.734286,8.0946122 14.622286,8.0946122 Z M21.099429,9.1386122 C19.335429,9.1386122 18.735429,8.3466122 18.735429,6.9186122 L18.735429,5.8386122 L19.911429,5.8386122 L19.911429,6.8946122 C19.911429,7.6506122 20.211429,8.1186122 21.099429,8.1186122 C21.891429,8.1186122 22.191429,7.6386122 22.191429,6.9906122 L22.191429,6.6426122 C22.191429,6.3546122 22.119429,6.1146122 21.975429,5.9226122 C21.687429,5.5386122 21.183429,5.2986122 20.655429,5.0466122 C20.367429,4.9026122 20.079429,4.7466122 19.803429,4.5666122 C19.239429,4.1946122 18.843429,3.6666122 18.843429,2.7546122 L18.843429,2.4786122 C18.843429,2.0946122 18.927429,1.7466122 19.071429,1.4226122 C19.371429,0.7746122 20.007429,0.3786122 21.015429,0.3786122 C22.575429,0.3786122 23.187429,1.2186122 23.187429,2.3706122 L23.187429,3.3066122 L22.059429,3.3066122 L22.059429,2.4426122 C22.059429,1.7346122 21.759429,1.3506122 21.003429,1.3506122 C20.259429,1.3506122 19.971429,1.8426122 19.971429,2.5026122 L19.971429,2.6946122 C19.971429,2.9826122 20.043429,3.2106122 20.187429,3.4026122 C20.475429,3.7746122 20.979429,4.0266122 21.495429,4.2786122 C21.783429,4.4226122 22.071429,4.5786122 22.347429,4.7586122 C22.911429,5.1306122 23.307429,5.6466122 23.307429,6.5586122 L23.307429,7.0026122 C23.307429,8.2746122 22.515429,9.1386122 21.099429,9.1386122 Z M29.076572,9.0306122 L25.116572,9.0306122 L25.116572,0.4746122 L28.956572,0.4746122 L28.956572,1.4946122 L26.232572,1.4946122 L26.232572,4.1586122 L28.596572,4.1586122 L28.596572,5.2026122 L26.232572,5.2026122 L26.232572,7.9746122 L29.076572,7.9746122 L29.076572,9.0306122 Z" id="path-1"></path>
    </defs>
    <g id="Page-1" stroke="none" stroke-width="1" fill="none" fill-rule="evenodd">
        <g id="close" transform="translate(0.000000, -1.000000)" fill-rule="nonzero">
            <polygon id="Rectangle" fill="#031232" transform="translate(14.189189, 13.781118) rotate(45.000000) translate(-14.189189, -13.781118) " points="-2.26445814 12.280178 30.67349 11.9748829 30.6428365 15.2820582 -2.29511167 15.5873532"></polygon>
            <polygon id="Rectangle-Copy-3" fill="#031232" transform="translate(14.189189, 13.778907) rotate(135.000000) translate(-14.189189, -13.778907) " points="-2.29509146 11.9749031 30.6428567 12.2801982 30.6734688 15.5829107 -2.26447929 15.2776156"></polygon>
            <g id="CLOSE" transform="translate(0.000000, 30.000000)">
                <g>
                    <use fill="#000000" xlink:href="#path-1"></use>
                    <use fill="#031232" xlink:href="#path-1"></use>
                </g>
            </g>
        </g>
    </g>
</svg>