<?xml version="1.0" encoding="UTF-8"?>
<svg width="177px" height="33px" viewBox="0 0 177 33" version="1.1" xmlns="http://www.w3.org/2000/svg" xmlns:xlink="http://www.w3.org/1999/xlink">
    <!-- Generator: Sketch 53.2 (72643) - https://sketchapp.com -->
    <title>logo</title>
    <desc>Created with Sketch.</desc>
    <g id="Page-1" stroke="none" stroke-width="1" fill="none" fill-rule="evenodd">
        <g id="Homepage-Mockup-1440-V1" transform="translate(-148.000000, -16.000000)">
            <g id="logo" transform="translate(148.000000, 16.000000)">
                <path d="M0,16.0032398 C0,7.16489452 7.16908742,3.45298265e-15 15.9934868,3.45298265e-15 L16.0404115,3.45298265e-15 C24.8733703,3.45298265e-15 32.0338983,7.16513236 32.0338983,16.0032398 L32.0338983,16.1918821 C32.0338983,25.0302274 24.8648109,32.195122 16.0404115,32.195122 L15.9934868,32.195122 C7.16052796,32.195122 0,25.0299896 0,16.1918821 L0,16.0032398 Z" id="Rectangle-2-Copy" fill="#F5F8FA"></path>
                <path d="M47.0738574,4.80684202 L47.0738574,12.569422 L45.3445054,12.569422 L45.3445054,4.80684202 L42.7959867,4.80684202 L42.7959867,3.29853502 L49.7263973,3.29853502 L49.7263973,4.80684202 L47.0738574,4.80684202 Z M52.7148991,12.569422 L51.0765656,12.569422 L51.0765656,2.55738417 L52.7148991,2.55738417 L52.7148991,6.39316489 C53.1699917,5.48297963 54.0151637,4.91086319 55.1984045,4.91086319 C57.0057724,4.91086319 57.902955,6.05509608 57.902955,7.91447453 L57.902955,12.569422 L56.1866057,12.569422 L56.1866057,8.3825698 C56.1866057,7.19932897 55.770521,6.39316489 54.5352696,6.39316489 C53.3390261,6.39316489 52.7148991,7.31635279 52.7148991,8.65562538 L52.7148991,12.569422 Z M66.6386265,10.3589721 C66.2095392,11.8802817 65.0002931,12.7644617 63.0368935,12.7644617 C60.5143801,12.7644617 59.2791286,11.3081653 59.2791286,8.99369419 L59.2791286,8.81165713 C59.2791286,8.00549305 59.4351604,7.34235808 59.7472239,6.74423634 C60.3713509,5.57399816 61.5155838,4.91086319 63.0889041,4.91086319 C64.3761661,4.91086319 65.2863513,5.35295317 65.8844731,6.06809873 C66.4825948,6.78324428 66.7426477,7.70643218 66.7426477,8.66862802 L66.7426477,9.46178946 L60.9694727,9.46178946 C61.1125018,10.6840382 61.8666553,11.3601758 63.1019067,11.3601758 C64.012092,11.3601758 64.5452005,11.0091044 64.8052534,10.3589721 L66.6386265,10.3589721 Z M63.1019067,6.26313842 C61.9186659,6.26313842 61.177515,6.93927604 60.9824753,8.12251687 L65.039301,8.12251687 C64.9222772,6.97828398 64.2981502,6.26313842 63.1019067,6.26313842 Z M78.9609216,12.569422 L72.3815825,12.569422 L72.3815825,3.29853502 L78.7398766,3.29853502 L78.7398766,4.76783408 L74.0329186,4.76783408 L74.0329186,7.14731838 L78.024731,7.14731838 L78.024731,8.62962008 L74.0329186,8.62962008 L74.0329186,11.0481123 L78.9609216,11.0481123 L78.9609216,12.569422 Z M85.4991459,11.0091044 C85.0960638,12.0233108 84.2508918,12.7254537 82.9116192,12.7254537 C81.0002302,12.7254537 79.7389735,11.3861811 79.7389735,8.86366772 L79.7389735,8.68163067 C79.7389735,7.86246394 79.8820026,7.17332368 80.1550582,6.61420988 C80.7011693,5.49598228 81.6893704,4.92386584 82.9636298,4.92386584 C84.1988812,4.92386584 85.0180479,5.45697434 85.4471353,6.38016224 L85.4471353,2.55738417 L87.0984714,2.55738417 L87.0984714,12.569422 L85.6811829,12.569422 L85.4991459,11.0091044 Z M83.4317251,11.2561547 C84.7059844,11.2561547 85.4861432,10.3329668 85.4861432,8.85066507 L85.4861432,8.72063861 C85.4861432,7.27734485 84.7319897,6.3411543 83.4967383,6.3411543 C82.2094763,6.3411543 81.4943308,7.21233162 81.4943308,8.70763596 L81.4943308,8.85066507 C81.4943308,10.4499906 82.3004948,11.2561547 83.4317251,11.2561547 Z M93.7797248,11.1391309 C93.402648,12.1143293 92.5964839,12.7254537 91.3612325,12.7254537 C89.5668673,12.7254537 88.7216953,11.5812208 88.7216953,9.72184239 L88.7216953,5.09290024 L90.425042,5.09290024 L90.425042,9.25374712 C90.425042,10.4239853 90.7761134,11.2301494 91.9463516,11.2301494 C93.0775819,11.2301494 93.6496983,10.3069615 93.6496983,8.98069154 L93.6496983,5.09290024 L95.3660476,5.09290024 L95.3660476,12.569422 L93.9357565,12.569422 L93.7797248,11.1391309 Z M100.460978,12.7644617 C98.0684912,12.7644617 96.7032133,11.4251891 96.7032133,8.98069154 L96.7032133,8.78565184 C96.7032133,7.95348247 96.8722477,7.23833691 97.1973139,6.66622046 C97.8604489,5.52198757 99.030687,4.91086319 100.473981,4.91086319 C102.541402,4.91086319 103.95869,5.88606168 104.127724,8.07050629 L104.127724,8.09651158 L102.346362,8.09651158 L102.346362,8.05750364 C102.19033,6.88726545 101.527195,6.3671596 100.486983,6.3671596 C99.29074,6.3671596 98.4715732,7.19932897 98.4715732,8.78565184 L98.4715732,8.95468625 C98.4715732,10.4369879 99.2257267,11.2691573 100.473981,11.2691573 C101.566203,11.2691573 102.19033,10.6970409 102.359365,9.55280798 L102.359365,9.53980534 L104.140727,9.53980534 L104.140727,9.57881328 C103.971693,11.7892632 102.528399,12.7644617 100.460978,12.7644617 Z M110.717959,11.0741176 C110.210856,12.0493161 109.209652,12.7644617 107.662337,12.7644617 C106.037007,12.7644617 105.21784,11.9843029 105.21784,10.7620541 C105.21784,9.92988473 105.581914,9.3057577 106.193038,8.92868095 C106.401081,8.78565184 106.622126,8.68163067 106.830168,8.61661744 C107.272258,8.46058568 107.831372,8.35656451 108.767562,8.2135354 C110.106835,8.04450099 110.639943,7.86246394 110.639943,7.25133956 C110.639943,6.62721253 110.236861,6.23713313 109.066623,6.23713313 C107.831372,6.23713313 107.272258,6.77024164 107.220247,7.73243748 L105.46489,7.73243748 C105.581914,6.02909079 106.830168,4.91086319 108.975605,4.91086319 C109.794771,4.91086319 110.418898,5.01488436 110.912999,5.23592935 C111.888198,5.65201404 112.278277,6.44517547 112.278277,7.52439513 L112.278277,12.569422 L110.899996,12.569422 L110.717959,11.0741176 Z M108.247456,11.4511944 C108.741557,11.4511944 109.157642,11.3341706 109.521716,11.1131256 C110.249864,10.6580329 110.652946,9.90387944 110.652946,9.18873388 L110.652946,8.78565184 C110.340883,9.00669683 109.820777,9.16272859 109.144639,9.26674976 C108.234454,9.40977887 107.87038,9.51380005 107.519308,9.73484504 C107.220247,9.92988473 107.077218,10.1899377 107.077218,10.5150038 C107.077218,11.1391309 107.467298,11.4511944 108.247456,11.4511944 Z M118.205377,12.569422 L117.243181,12.569422 C116.541038,12.569422 115.994927,12.4654008 115.630853,12.2963664 C114.876699,11.9192896 114.642652,11.1001229 114.642652,9.57881328 L114.642652,6.60120723 L113.186355,6.60120723 L113.186355,5.15791347 L113.84949,5.15791347 C114.09654,5.15791347 114.265575,5.13190818 114.382599,5.07989759 C114.629649,4.96287377 114.707665,4.67681555 114.746673,4.06569117 C114.759675,3.740625 114.772678,3.29853502 114.772678,3.07749003 L116.228975,3.07749003 L116.228975,5.09290024 L118.205377,5.09290024 L118.205377,6.60120723 L116.228975,6.60120723 L116.228975,9.29275505 C116.228975,9.78685562 116.267982,10.1509297 116.332996,10.39798 C116.45002,10.8920806 116.840099,10.9830991 117.672268,10.9830991 L118.205377,10.9830991 L118.205377,12.569422 Z M120.452728,4.28673616 C119.633561,4.28673616 119.321497,4.01368058 119.321497,3.15550591 C119.321497,2.32333654 119.698574,2.03727832 120.452728,2.03727832 C121.206881,2.03727832 121.583958,2.32333654 121.583958,3.15550591 C121.583958,3.96167 121.219884,4.28673616 120.452728,4.28673616 Z M119.568548,12.569422 L119.568548,5.09290024 L121.2979,5.09290024 L121.2979,12.569422 L119.568548,12.569422 Z M126.483849,12.7644617 C124.065357,12.7644617 122.713081,11.4251891 122.713081,8.98069154 L122.713081,8.78565184 C122.713081,7.95348247 122.882116,7.23833691 123.207182,6.66622046 C123.857314,5.52198757 125.01455,4.91086319 126.483849,4.91086319 C127.238002,4.91086319 127.875132,5.0538923 128.434246,5.36595582 C129.578479,5.9770802 130.254616,7.13431574 130.254616,8.78565184 L130.254616,8.98069154 C130.254616,9.79985827 130.098585,10.4759959 129.786521,11.0351097 C129.136389,12.1663399 128.005158,12.7644617 126.483849,12.7644617 Z M126.483849,11.2691573 C127.771111,11.2691573 128.525264,10.4369879 128.525264,8.95468625 L128.525264,8.78565184 C128.525264,7.25133956 127.732103,6.3671596 126.496851,6.3671596 C125.274603,6.3671596 124.455436,7.19932897 124.455436,8.78565184 L124.455436,8.95468625 C124.455436,10.4369879 125.209589,11.2691573 126.483849,11.2691573 Z M133.39915,12.569422 L131.6828,12.569422 L131.6828,5.09290024 L133.126094,5.09290024 L133.282126,6.58820459 C133.685208,5.56099551 134.53038,4.91086319 135.817642,4.91086319 C137.62501,4.91086319 138.587206,6.10710667 138.587206,7.96648511 L138.587206,12.569422 L136.870856,12.569422 L136.870856,8.3825698 C136.870856,7.16032103 136.480777,6.39316489 135.258528,6.39316489 C133.984269,6.39316489 133.39915,7.27734485 133.39915,8.66862802 L133.39915,12.569422 Z M145.333472,11.0741176 C144.826369,12.0493161 143.825165,12.7644617 142.27785,12.7644617 C140.65252,12.7644617 139.833353,11.9843029 139.833353,10.7620541 C139.833353,9.92988473 140.197427,9.3057577 140.808551,8.92868095 C141.016594,8.78565184 141.237639,8.68163067 141.445681,8.61661744 C141.887771,8.46058568 142.446885,8.35656451 143.383075,8.2135354 C144.722348,8.04450099 145.255456,7.86246394 145.255456,7.25133956 C145.255456,6.62721253 144.852374,6.23713313 143.682136,6.23713313 C142.446885,6.23713313 141.887771,6.77024164 141.83576,7.73243748 L140.080403,7.73243748 C140.197427,6.02909079 141.445681,4.91086319 143.591118,4.91086319 C144.410284,4.91086319 145.034411,5.01488436 145.528512,5.23592935 C146.503711,5.65201404 146.89379,6.44517547 146.89379,7.52439513 L146.89379,12.569422 L145.515509,12.569422 L145.333472,11.0741176 Z M142.86297,11.4511944 C143.35707,11.4511944 143.773155,11.3341706 144.137229,11.1131256 C144.865377,10.6580329 145.268459,9.90387944 145.268459,9.18873388 L145.268459,8.78565184 C144.956396,9.00669683 144.43629,9.16272859 143.760152,9.26674976 C142.849967,9.40977887 142.485893,9.51380005 142.134821,9.73484504 C141.83576,9.92988473 141.692731,10.1899377 141.692731,10.5150038 C141.692731,11.1391309 142.082811,11.4511944 142.86297,11.4511944 Z M148.634038,12.569422 L148.634038,2.55738417 L150.337384,2.55738417 L150.337384,12.569422 L148.634038,12.569422 Z M46.9958415,28.5290056 C44.4343202,28.5290056 43.0170317,27.1507251 43.0170317,24.1211084 L43.0170317,23.3409496 C43.0170317,22.3657512 43.1860661,21.5725897 43.5111323,20.9094547 C44.1742672,19.5701822 45.4095187,18.8940445 47.0088442,18.8940445 C47.8150083,18.8940445 48.5041485,19.0500763 49.1152729,19.4011478 C50.3115164,20.0772854 51.0136593,21.3905527 51.0136593,23.3409496 L51.0136593,24.1211084 C51.0136593,27.1117171 49.4663444,28.5290056 46.9958415,28.5290056 Z M47.0088442,26.968688 C48.5041485,26.968688 49.2452994,25.9544816 49.2452994,24.0560952 L49.2452994,23.4189655 C49.2452994,21.4555659 48.5041485,20.4283568 47.0088442,20.4283568 C45.4875345,20.4283568 44.7853916,21.4945738 44.7853916,23.4059629 L44.7853916,24.0560952 C44.7853916,25.9544816 45.4875345,26.968688 47.0088442,26.968688 Z M56.6677036,28.4899976 C55.4324522,28.4899976 54.6132855,27.9308838 54.1711955,27.0206986 L54.1711955,30.9084899 L52.5198594,30.9084899 L52.5198594,20.8574442 L53.9371478,20.8574442 L54.1191849,22.3787538 C54.5222669,21.3515447 55.3934442,20.6754071 56.6937089,20.6754071 C58.6441059,20.6754071 59.8793573,22.0536876 59.8793573,24.5762011 L59.8793573,24.7582381 C59.8793573,25.5774048 59.7363282,26.2535425 59.4632726,26.8126563 C58.9171614,27.9308838 57.9159577,28.4899976 56.6677036,28.4899976 Z M56.1345951,27.0467039 C57.4088545,27.0467039 58.1500053,26.2145345 58.1500053,24.7322328 L58.1500053,24.5762011 C58.1500053,22.9768755 57.3438412,22.1317035 56.173603,22.1317035 C54.9383516,22.1317035 54.1321875,23.0678941 54.1321875,24.5501958 L54.1321875,24.6802222 C54.1321875,26.123516 54.8993437,27.0467039 56.1345951,27.0467039 Z M65.4293804,28.4899976 C64.194129,28.4899976 63.3749623,27.9308838 62.9328723,27.0206986 L62.9328723,30.9084899 L61.2815362,30.9084899 L61.2815362,20.8574442 L62.6988247,20.8574442 L62.8808617,22.3787538 C63.2839438,21.3515447 64.1551211,20.6754071 65.4553857,20.6754071 C67.4057827,20.6754071 68.6410341,22.0536876 68.6410341,24.5762011 L68.6410341,24.7582381 C68.6410341,25.5774048 68.498005,26.2535425 68.2249494,26.8126563 C67.6788383,27.9308838 66.6776345,28.4899976 65.4293804,28.4899976 Z M64.8962719,27.0467039 C66.1705313,27.0467039 66.9116821,26.2145345 66.9116821,24.7322328 L66.9116821,24.5762011 C66.9116821,22.9768755 66.105518,22.1317035 64.9352799,22.1317035 C63.7000284,22.1317035 62.8938644,23.0678941 62.8938644,24.5501958 L62.8938644,24.6802222 C62.8938644,26.123516 63.6610205,27.0467039 64.8962719,27.0467039 Z M73.6579487,28.5290056 C71.2394565,28.5290056 69.8871813,27.189733 69.8871813,24.7452355 L69.8871813,24.5501958 C69.8871813,23.7180264 70.0562157,23.0028808 70.3812818,22.4307644 C71.0314141,21.2865315 72.1886497,20.6754071 73.6579487,20.6754071 C74.4121022,20.6754071 75.0492319,20.8184362 75.6083457,21.1304997 C76.7525786,21.7416241 77.4287162,22.8988597 77.4287162,24.5501958 L77.4287162,24.7452355 C77.4287162,25.5644022 77.2726845,26.2405398 76.9606209,26.7996536 C76.3104886,27.9308838 75.1792584,28.5290056 73.6579487,28.5290056 Z M73.6579487,27.0337012 C74.9452107,27.0337012 75.6993642,26.2015319 75.6993642,24.7192302 L75.6993642,24.5501958 C75.6993642,23.0158835 74.9062028,22.1317035 73.6709514,22.1317035 C72.4487026,22.1317035 71.6295359,22.9638729 71.6295359,24.5501958 L71.6295359,24.7192302 C71.6295359,26.2015319 72.3836894,27.0337012 73.6579487,27.0337012 Z M78.8569004,28.3339659 L78.8569004,20.8574442 L80.235181,20.8574442 L80.4562259,22.6128014 C80.7552868,21.37755 81.522443,20.7924309 82.9397314,20.7924309 L83.4468346,20.7924309 L83.4468346,22.5217829 L82.7056838,22.5217829 C82.107562,22.5217829 81.6654721,22.5997988 81.3534085,22.7558305 C80.7292815,23.0548914 80.5342418,23.7050237 80.5342418,24.8752619 L80.5342418,28.3339659 L78.8569004,28.3339659 Z M89.3869372,28.3339659 L88.4247413,28.3339659 C87.7225984,28.3339659 87.1764873,28.2299447 86.8124132,28.0609103 C86.0582597,27.6838336 85.824212,26.8646668 85.824212,25.3433572 L85.824212,22.3657512 L84.3679156,22.3657512 L84.3679156,20.9224574 L85.0310506,20.9224574 C85.2781009,20.9224574 85.4471353,20.8964521 85.5641591,20.8444415 C85.8112094,20.7274177 85.8892253,20.4413595 85.9282332,19.8302351 C85.9412358,19.5051689 85.9542385,19.0630789 85.9542385,18.842034 L87.4105349,18.842034 L87.4105349,20.8574442 L89.3869372,20.8574442 L89.3869372,22.3657512 L87.4105349,22.3657512 L87.4105349,25.057299 C87.4105349,25.5513995 87.4495428,25.9154736 87.5145561,26.1625239 C87.6315799,26.6566245 88.0216593,26.747643 88.8538287,26.747643 L89.3869372,26.747643 L89.3869372,28.3339659 Z M95.6651085,26.9036748 C95.2880318,27.8788733 94.4818677,28.4899976 93.2466163,28.4899976 C91.452251,28.4899976 90.607079,27.3457648 90.607079,25.4863863 L90.607079,20.8574442 L92.3104257,20.8574442 L92.3104257,25.018291 C92.3104257,26.1885292 92.6614972,26.9946933 93.8317354,26.9946933 C94.9629656,26.9946933 95.535082,26.0715054 95.535082,24.7452355 L95.535082,20.8574442 L97.2514314,20.8574442 L97.2514314,28.3339659 L95.8211403,28.3339659 L95.6651085,26.9036748 Z M100.708028,28.3339659 L98.9916791,28.3339659 L98.9916791,20.8574442 L100.434973,20.8574442 L100.591005,22.3527485 C100.994087,21.3255394 101.839259,20.6754071 103.126521,20.6754071 C104.933889,20.6754071 105.896084,21.8716506 105.896084,23.731029 L105.896084,28.3339659 L104.179735,28.3339659 L104.179735,24.1471137 C104.179735,22.924865 103.789656,22.1577088 102.567407,22.1577088 C101.293148,22.1577088 100.708028,23.0418888 100.708028,24.4331719 L100.708028,28.3339659 Z M108.429494,20.0512801 C107.610327,20.0512801 107.298263,19.7782245 107.298263,18.9200498 C107.298263,18.0878805 107.67534,17.8018222 108.429494,17.8018222 C109.183647,17.8018222 109.560724,18.0878805 109.560724,18.9200498 C109.560724,19.7262139 109.19665,20.0512801 108.429494,20.0512801 Z M107.545314,28.3339659 L107.545314,20.8574442 L109.274666,20.8574442 L109.274666,28.3339659 L107.545314,28.3339659 Z M115.526832,28.3339659 L114.564636,28.3339659 C113.862493,28.3339659 113.316382,28.2299447 112.952308,28.0609103 C112.198154,27.6838336 111.964106,26.8646668 111.964106,25.3433572 L111.964106,22.3657512 L110.50781,22.3657512 L110.50781,20.9224574 L111.170945,20.9224574 C111.417995,20.9224574 111.58703,20.8964521 111.704054,20.8444415 C111.951104,20.7274177 112.02912,20.4413595 112.068128,19.8302351 C112.08113,19.5051689 112.094133,19.0630789 112.094133,18.842034 L113.550429,18.842034 L113.550429,20.8574442 L115.526832,20.8574442 L115.526832,22.3657512 L113.550429,22.3657512 L113.550429,25.057299 C113.550429,25.5513995 113.589437,25.9154736 113.654451,26.1625239 C113.771474,26.6566245 114.161554,26.747643 114.993723,26.747643 L115.526832,26.747643 L115.526832,28.3339659 Z M116.616947,31.1295349 L116.616947,29.6472332 L117.488124,29.6472332 C117.81319,29.6472332 118.086246,29.6082252 118.281286,29.5562147 C118.684368,29.4391908 118.905413,29.14013 119.204474,28.4899976 L119.347503,28.1389262 L116.252873,20.8574442 L118.073243,20.8574442 L120.101656,25.9154736 L120.166669,26.2535425 L120.257688,25.9284763 L122.23409,20.8574442 L124.028456,20.8574442 L120.751789,28.7630532 C120.322701,29.8032649 119.984632,30.4013867 119.542542,30.7264528 C119.08745,31.051519 118.489328,31.1295349 117.475122,31.1295349 L116.616947,31.1295349 Z M130.824626,25.4083704 L130.824626,28.3339659 L129.147284,28.3339659 L129.147284,19.0630789 L132.644996,19.0630789 C133.477166,19.0630789 134.153303,19.1931054 134.699414,19.466161 C135.791637,19.9862668 136.324745,20.9614653 136.324745,22.2097194 C136.324745,24.1601164 135.16751,25.4213731 132.71001,25.4083704 L130.824626,25.4083704 Z M130.824626,20.5193754 L130.824626,23.952074 L132.684004,23.952074 C133.919256,23.952074 134.621399,23.3409496 134.621399,22.2097194 C134.621399,21.195513 133.984269,20.5193754 132.644996,20.5193754 L130.824626,20.5193754 Z M137.674914,28.3339659 L137.674914,20.8574442 L139.053194,20.8574442 L139.274239,22.6128014 C139.5733,21.37755 140.340456,20.7924309 141.757745,20.7924309 L142.264848,20.7924309 L142.264848,22.5217829 L141.523697,22.5217829 C140.925575,22.5217829 140.483485,22.5997988 140.171422,22.7558305 C139.547295,23.0548914 139.352255,23.7050237 139.352255,24.8752619 L139.352255,28.3339659 L137.674914,28.3339659 Z M146.709646,28.5290056 C144.291154,28.5290056 142.938879,27.189733 142.938879,24.7452355 L142.938879,24.5501958 C142.938879,23.7180264 143.107913,23.0028808 143.432979,22.4307644 C144.083111,21.2865315 145.240347,20.6754071 146.709646,20.6754071 C147.463799,20.6754071 148.100929,20.8184362 148.660043,21.1304997 C149.804276,21.7416241 150.480413,22.8988597 150.480413,24.5501958 L150.480413,24.7452355 C150.480413,25.5644022 150.324382,26.2405398 150.012318,26.7996536 C149.362186,27.9308838 148.230956,28.5290056 146.709646,28.5290056 Z M146.709646,27.0337012 C147.996908,27.0337012 148.751061,26.2015319 148.751061,24.7192302 L148.751061,24.5501958 C148.751061,23.0158835 147.9579,22.1317035 146.722649,22.1317035 C145.5004,22.1317035 144.681233,22.9638729 144.681233,24.5501958 L144.681233,24.7192302 C144.681233,26.2015319 145.435387,27.0337012 146.709646,27.0337012 Z M152.80578,20.0512801 C151.986614,20.0512801 151.67455,19.7782245 151.67455,18.9200498 C151.67455,18.0878805 152.051627,17.8018222 152.80578,17.8018222 C153.559934,17.8018222 153.937011,18.0878805 153.937011,18.9200498 C153.937011,19.7262139 153.572936,20.0512801 152.80578,20.0512801 Z M150.400291,31.4025905 L150.400291,29.8162676 L150.777367,29.8162676 C151.102434,29.8162676 151.362487,29.7902623 151.531521,29.7382517 C151.882592,29.6212279 151.960608,29.2961617 151.960608,28.476995 L151.960608,20.8574442 L153.624947,20.8574442 L153.624947,28.6850373 C153.624947,29.7772597 153.507923,30.4663999 153.104841,30.869482 C152.727764,31.2465587 152.038624,31.4025905 150.946402,31.4025905 L150.400291,31.4025905 Z M162.347616,26.123516 C161.918529,27.6448256 160.709282,28.5290056 158.745883,28.5290056 C156.223369,28.5290056 154.988118,27.0727092 154.988118,24.7582381 L154.988118,24.5762011 C154.988118,23.770037 155.14415,23.106902 155.456213,22.5087803 C156.08034,21.3385421 157.224573,20.6754071 158.797893,20.6754071 C160.085155,20.6754071 160.995341,21.1174971 161.593462,21.8326426 C162.191584,22.5477882 162.451637,23.4709761 162.451637,24.4331719 L162.451637,25.2263334 L156.678462,25.2263334 C156.821491,26.4485821 157.575645,27.1247198 158.810896,27.1247198 C159.721081,27.1247198 160.25419,26.7736483 160.514243,26.123516 L162.347616,26.123516 Z M158.810896,22.0276823 C157.627655,22.0276823 156.886504,22.70382 156.691465,23.8870608 L160.74829,23.8870608 C160.631267,22.7428279 160.00714,22.0276823 158.810896,22.0276823 Z M167.403538,28.5290056 C165.011052,28.5290056 163.645774,27.189733 163.645774,24.7452355 L163.645774,24.5501958 C163.645774,23.7180264 163.814808,23.0028808 164.139874,22.4307644 C164.803009,21.2865315 165.973247,20.6754071 167.416541,20.6754071 C169.483962,20.6754071 170.90125,21.6506056 171.070285,23.8350502 L171.070285,23.8610555 L169.288922,23.8610555 L169.288922,23.8220476 C169.13289,22.6518094 168.469755,22.1317035 167.429544,22.1317035 C166.2333,22.1317035 165.414134,22.9638729 165.414134,24.5501958 L165.414134,24.7192302 C165.414134,26.2015319 166.168287,27.0337012 167.416541,27.0337012 C168.508763,27.0337012 169.13289,26.4615848 169.301925,25.3173519 L169.301925,25.3043493 L171.083287,25.3043493 L171.083287,25.3433572 C170.914253,27.5538071 169.470959,28.5290056 167.403538,28.5290056 Z M176.737332,28.3339659 L175.775136,28.3339659 C175.072993,28.3339659 174.526882,28.2299447 174.162808,28.0609103 C173.408654,27.6838336 173.174607,26.8646668 173.174607,25.3433572 L173.174607,22.3657512 L171.71831,22.3657512 L171.71831,20.9224574 L172.381445,20.9224574 C172.628495,20.9224574 172.79753,20.8964521 172.914554,20.8444415 C173.161604,20.7274177 173.23962,20.4413595 173.278628,19.8302351 C173.29163,19.5051689 173.304633,19.0630789 173.304633,18.842034 L174.760929,18.842034 L174.760929,20.8574442 L176.737332,20.8574442 L176.737332,22.3657512 L174.760929,22.3657512 L174.760929,25.057299 C174.760929,25.5513995 174.799937,25.9154736 174.864951,26.1625239 C174.981974,26.6566245 175.372054,26.747643 176.204223,26.747643 L176.737332,26.747643 L176.737332,28.3339659 Z" id="TheEducationalOpportunityProject" fill="#FFFFFF" fill-rule="nonzero"></path>
            </g>
        </g>
    </g>
</svg>