<?xml version="1.0" encoding="UTF-8"?>
<svg width="749px" height="142px" viewBox="0 0 749 142" version="1.1" xmlns="http://www.w3.org/2000/svg" xmlns:xlink="http://www.w3.org/1999/xlink">
    <!-- Generator: Sketch 53.2 (72643) - https://sketchapp.com -->
    <title>Group</title>
    <desc>Created with Sketch.</desc>
    <defs>
        <linearGradient x1="13.4227233%" y1="97.6092193%" x2="91.5440239%" y2="30.0766291%" id="linearGradient-1">
            <stop stop-color="#032664" offset="0%"></stop>
            <stop stop-color="#28B0E1" offset="51.6528179%"></stop>
            <stop stop-color="#2CD2A4" offset="100%"></stop>
        </linearGradient>
    </defs>
    <g id="Page-1" stroke="none" stroke-width="1" fill="none" fill-rule="evenodd">
        <g id="SEDA-logomark-9-Copy-16-JAMES-Copy" transform="translate(-586.000000, -471.000000)">
            <g id="Group" transform="translate(589.000000, 471.000000)">
                <path d="M-55.9014658,67.3421652 L57.8435832,67.4000478" id="Line-Copy" stroke="#FFFFFF" stroke-width="6.2" stroke-linecap="round" stroke-linejoin="round" transform="translate(0.971059, 67.371106) rotate(-90.000000) translate(-0.971059, -67.371106) "></path>
                <path d="M0.952478861,123.303749 L108.641952,125.43093" id="Line-Copy-2" stroke="#FFFFFF" stroke-width="6.2" stroke-linecap="round" stroke-linejoin="round" transform="translate(54.797215, 124.367339) rotate(-361.000000) translate(-54.797215, -124.367339) "></path>
                <path d="M47.0689436,77.0612666 C47.4356704,81.312106 44.2894596,85.0634667 40.041685,85.4401651 C35.7939104,85.8168635 32.0531179,82.6762517 31.6863911,78.4254122 C31.3196643,74.1745728 34.4658752,70.4232121 38.7136498,70.0465137 C42.9614243,69.6698153 46.7022168,72.8104271 47.0689436,77.0612666 Z M33.4651127,104.107503 C33.5686824,105.281074 32.7130527,106.31391 31.5540103,106.414406 C30.394968,106.514903 29.3714186,105.645003 29.2678489,104.471432 C29.1642792,103.297861 30.0199088,102.265025 31.1789512,102.164528 C32.3379936,102.064032 33.3615429,102.933931 33.4651127,104.107503 Z M12.7613127,95.1061367 C12.8648824,96.2797081 12.0092527,97.3125441 10.8502104,97.4130404 C9.69116798,97.5135367 8.66761864,96.6436374 8.56404893,95.470066 C8.46047922,94.2964946 9.31610887,93.2636587 10.4751513,93.1631624 C11.6341936,93.0626661 12.657743,93.9325653 12.7613127,95.1061367 Z M45.831171,96.7088174 C46.1091204,99.9291189 43.7263696,102.770874 40.5091482,103.056054 C37.2919268,103.341235 34.4585311,100.96185 34.1805817,97.7415481 C33.9026323,94.5212466 36.285383,91.6794918 39.5026044,91.3943111 C42.7198258,91.1091304 45.5532216,93.4885159 45.831171,96.7088174 Z M15.481772,70.1699997 C15.5508185,70.9523807 14.9803987,71.640938 14.2077038,71.7079355 C13.4350088,71.774933 12.7526426,71.1950002 12.6835961,70.4126192 C12.6145497,69.6302383 13.1849694,68.941681 13.9576644,68.8746835 C14.7303593,68.807686 15.4127255,69.3876188 15.481772,70.1699997 Z M53.9595735,87.7105586 C54.1321897,89.666511 52.7061403,91.3879042 50.774403,91.555398 C48.8426657,91.7228918 47.1367501,90.2730598 46.9641339,88.3171074 C46.7915177,86.3611551 48.2175671,84.6397618 50.1493044,84.472268 C52.0810417,84.3047742 53.7869573,85.7546063 53.9595735,87.7105586 Z M50.4742166,40.859121 C50.5777863,42.0326924 49.7221566,43.0655283 48.5631143,43.1660246 C47.4040719,43.2665209 46.3805225,42.3966217 46.2769528,41.2230503 C46.1733831,40.0494789 47.0290128,39.0166429 48.1880552,38.9161466 C49.3470975,38.8156503 50.3706469,39.6855496 50.4742166,40.859121 Z M104.900735,20.6134027 C104.969781,21.3957836 104.399361,22.0843409 103.626667,22.1513385 C102.853972,22.218336 102.171605,21.6384032 102.102559,20.8560222 C102.033512,20.0736413 102.603932,19.385084 103.376627,19.3180865 C104.149322,19.2510889 104.831688,19.8310218 104.900735,20.6134027 Z M43.2453635,54.3029722 C43.3144099,55.0853532 42.7439902,55.7739105 41.9712952,55.840908 C41.1986003,55.9079055 40.5162341,55.3279727 40.4471876,54.5455917 C40.3781412,53.7632108 40.9485609,53.0746535 41.7212558,53.007656 C42.4939508,52.9406585 43.176317,53.5205913 43.2453635,54.3029722 Z M37.2206284,51.3473761 C37.3241981,52.5209475 36.4685685,53.5537834 35.3095261,53.6542797 C34.1504837,53.754776 33.1269344,52.8848768 33.0233647,51.7113054 C32.919795,50.5377339 33.7754246,49.504898 34.934467,49.4044017 C36.0935094,49.3039054 37.1170587,50.1738047 37.2206284,51.3473761 Z M69.8519051,57.2688902 C70.1896505,61.1826616 67.2934642,64.6364403 63.3830919,64.9831209 C59.4727196,65.3298014 56.0289397,62.438103 55.6911943,58.5243316 C55.3534489,54.6105602 58.2496352,51.1567815 62.1600075,50.8101009 C66.0703798,50.4634204 69.5141597,53.3551188 69.8519051,57.2688902 Z M34.431237,87.7915656 C34.6957522,90.803386 32.4926751,93.4556153 29.5105265,93.7154856 C26.5283779,93.9753559 23.8964368,91.7444596 23.6319215,88.7326392 C23.3674062,85.7208189 25.5704833,83.0685896 28.552632,82.8087193 C31.5347806,82.548849 34.1667217,84.7797453 34.431237,87.7915656 Z M19.8580213,112.792396 C19.961591,113.965967 19.1059613,114.998803 17.946919,115.099299 C16.7878766,115.199796 15.7643272,114.329896 15.6607575,113.156325 C15.5571878,111.982754 16.4128175,110.949918 17.5718598,110.849421 C18.7309022,110.748925 19.7544516,111.618824 19.8580213,112.792396 Z M76.9662448,54.1761991 C77.0698145,55.3497705 76.2141849,56.3826065 75.0551425,56.4831028 C73.8961001,56.5835991 72.8725508,55.7136998 72.768981,54.5401284 C72.6654113,53.366557 73.521041,52.3337211 74.6800834,52.2332248 C75.8391258,52.1327285 76.8626751,53.0026277 76.9662448,54.1761991 Z M52.4208564,97.147641 C52.4899029,97.930022 51.9194831,98.6185792 51.1467882,98.6855768 C50.3740933,98.7525743 49.691727,98.1726415 49.6226806,97.3902605 C49.5536341,96.6078796 50.1240539,95.9193223 50.8967488,95.8523248 C51.6694437,95.7853272 52.3518099,96.3652601 52.4208564,97.147641 Z M43.8337498,111.056378 C43.9027962,111.838759 43.3323765,112.527316 42.5596815,112.594313 C41.7869866,112.661311 41.1046204,112.081378 41.0355739,111.298997 C40.9665275,110.516616 41.5369472,109.828059 42.3096421,109.761061 C43.0823371,109.694064 43.7647033,110.273997 43.8337498,111.056378 Z M94.1603857,45.5422629 C94.2294322,46.3246439 93.6590125,47.0132012 92.8863175,47.0801987 C92.1136226,47.1471962 91.4312564,46.5672634 91.3622099,45.7848825 C91.2931634,45.0025015 91.8635832,44.3139442 92.6362781,44.2469467 C93.408973,44.1799492 94.0913393,44.759882 94.1603857,45.5422629 Z M63.3954352,38.0737329 C63.5700992,40.052889 62.1271323,41.7947033 60.1724786,41.9641841 C58.2178249,42.1336649 56.4916718,40.6666333 56.3170079,38.6874773 C56.1423439,36.7083212 57.5853107,34.9665069 59.5399645,34.7970261 C61.4946182,34.6275453 63.2207713,36.0945769 63.3954352,38.0737329 Z M54.9474681,52.99328 C55.1221321,54.9724361 53.6791653,56.7142504 51.7245115,56.8837312 C49.7698578,57.0532121 48.0437048,55.5861804 47.8690408,53.6070244 C47.6943768,51.6278683 49.1373437,49.886054 51.0919974,49.7165732 C53.0466511,49.5470924 54.7728042,51.014124 54.9474681,52.99328 Z M70.711983,95.2973122 C70.8155527,96.4708836 69.959923,97.5037196 68.8008806,97.6042159 C67.6418383,97.7047122 66.6182889,96.8348129 66.5147192,95.6612415 C66.4111495,94.4876701 67.2667791,93.4548342 68.4258215,93.3543379 C69.5848639,93.2538416 70.6084132,94.1237408 70.711983,95.2973122 Z M96.4099742,18.8411343 C96.5825904,20.7970866 95.156541,22.5184799 93.2248037,22.6859737 C91.2930664,22.8534675 89.5871508,21.4036354 89.4145346,19.4476831 C89.2419184,17.4917308 90.6679679,15.7703375 92.5997052,15.6028437 C94.5314425,15.4353499 96.237358,16.885182 96.4099742,18.8411343 Z M76.6891192,23.2417165 C76.7926889,24.4152879 75.9370592,25.4481238 74.7780168,25.5486201 C73.6189745,25.6491164 72.5954251,24.7792172 72.4918554,23.6056458 C72.3882857,22.4320744 73.2439153,21.3992384 74.4029577,21.2987421 C75.5620001,21.1982458 76.5855494,22.0681451 76.6891192,23.2417165 Z M61.603325,73.107821 C61.8795109,76.2373448 59.5978318,78.9915739 56.5070521,79.259564 C53.4162724,79.5275542 50.6868075,77.2078228 50.4106216,74.0782991 C50.1344357,70.9487753 52.4161148,68.1945462 55.5068945,67.926556 C58.5976742,67.6585659 61.3271391,69.9782973 61.603325,73.107821 Z M85.3449923,57.0355796 C85.5176084,58.9915319 84.091559,60.7129252 82.1598217,60.880419 C80.2280844,61.0479128 78.5221689,59.5980807 78.3495527,57.6421284 C78.1769365,55.686176 79.6029859,53.9647828 81.5347232,53.797289 C83.4664605,53.6297952 85.1723761,55.0796273 85.3449923,57.0355796 Z M72.3164387,81.5949685 C72.5235781,83.9421113 70.8123188,86.0077832 68.494234,86.2087758 C66.1761493,86.4097684 64.1290506,84.6699699 63.9219112,82.3228271 C63.7147718,79.9756843 65.4260311,77.9100124 67.7441158,77.7090198 C70.0622006,77.5080272 72.1092993,79.2478257 72.3164387,81.5949685 Z M29.1442797,74.614778 C29.3464247,76.9568154 27.6135151,79.0235462 25.2737177,79.2309504 C22.9339203,79.4383545 20.8732688,77.7078923 20.6711238,75.3658549 C20.4689788,73.0238174 22.2018884,70.9570867 24.5416858,70.7496825 C26.8814832,70.5422784 28.9421347,72.2727405 29.1442797,74.614778 Z M27.6622286,98.9884253 C27.8896273,101.623219 25.9400914,103.948281 23.3078182,104.181596 C20.675545,104.414912 18.3573229,102.468129 18.1299241,99.8333357 C17.9025254,97.1985423 19.8520614,94.8734806 22.4843346,94.640165 C25.1166077,94.4068494 27.4348299,96.3536319 27.6622286,98.9884253 Z M34.469525,66.3447128 C34.5385714,67.1270937 33.9681517,67.815651 33.1954568,67.8826486 C32.4227618,67.9496461 31.7403956,67.3697133 31.6713491,66.5873323 C31.6023027,65.8049514 32.1727224,65.1163941 32.9454173,65.0493966 C33.7181123,64.982399 34.4004785,65.5623319 34.469525,66.3447128 Z M16.1260135,81.4315033 C16.2295832,82.6050747 15.3739536,83.6379107 14.2149112,83.7384069 C13.0558688,83.8389032 12.0323195,82.969004 11.9287498,81.7954326 C11.8251801,80.6218612 12.6808097,79.5890252 13.8398521,79.4885289 C14.9988945,79.3880327 16.0224438,80.2579319 16.1260135,81.4315033 Z M94.5720371,63.1717719 C94.6410835,63.9541528 94.0706638,64.6427101 93.2979689,64.7097077 C92.5252739,64.7767052 91.8429077,64.1967724 91.7738612,63.4143914 C91.7048148,62.6320105 92.2752345,61.9434532 93.0479295,61.8764557 C93.8206244,61.8094581 94.5029906,62.389391 94.5720371,63.1717719 Z M108.513701,12.0348492 C108.582748,12.8172301 108.012328,13.5057874 107.239633,13.572785 C106.466938,13.6397825 105.784572,13.0598497 105.715525,12.2774687 C105.646479,11.4950878 106.216899,10.8065305 106.989594,10.739533 C107.762289,10.6725354 108.444655,11.2524683 108.513701,12.0348492 Z M81.7628966,67.0668771 C82.0155779,69.9944239 79.8494408,72.5778374 76.9246941,72.8370926 C73.9999474,73.0963478 71.424133,70.93327 71.1714518,68.0057232 C70.9187705,65.0781764 73.0849075,62.494763 76.0096543,62.2355078 C78.934401,61.9762526 81.5102153,64.1393303 81.7628966,67.0668771 Z M102.057559,33.3897211 C102.126606,34.172102 101.556186,34.8606593 100.783491,34.9276569 C100.010796,34.9946544 99.3284298,34.4147216 99.2593834,33.6323406 C99.1903369,32.8499597 99.7607567,32.1614024 100.533452,32.0944049 C101.306147,32.0274073 101.988513,32.6073402 102.057559,33.3897211 Z M51.5308502,62.7006215 C51.7379897,65.0477643 50.0267304,67.1134362 47.7086456,67.3144287 C45.3905608,67.5154213 43.3434622,65.7756228 43.1363227,63.42848 C42.9291833,61.0813372 44.6404426,59.0156653 46.9585274,58.8146727 C49.2766121,58.6136802 51.3237108,60.3534787 51.5308502,62.7006215 Z M72.8780218,45.4146206 C73.050638,47.3705729 71.6245885,49.0919662 69.6928512,49.25946 C67.7611139,49.4269538 66.0551984,47.9771217 65.8825822,46.0211694 C65.709966,44.0652171 67.1360154,42.3438238 69.0677527,42.17633 C70.99949,42.0088362 72.7054056,43.4586683 72.8780218,45.4146206 Z M80.1206359,31.3342656 C80.2932521,33.290218 78.8672027,35.0116112 76.9354654,35.179105 C75.0037281,35.3465989 73.2978125,33.8967668 73.1251963,31.9408144 C72.9525801,29.9848621 74.3786296,28.2634689 76.3103669,28.095975 C78.2421042,27.9284812 79.9480197,29.3783133 80.1206359,31.3342656 Z M85.9486942,41.4141811 C86.1825765,44.0740454 84.2385086,46.415996 81.6064971,46.6450742 C78.9744856,46.8741523 76.6512196,44.9036108 76.4173374,42.2437464 C76.1834552,39.5838821 78.127523,37.2419315 80.7595346,37.0128533 C83.3915461,36.7837752 85.714812,38.7543167 85.9486942,41.4141811 Z M93.894564,34.7129258 C94.0671802,36.6688781 92.6411308,38.3902713 90.7093935,38.5577652 C88.7776562,38.725259 87.0717406,37.2754269 86.8991244,35.3194746 C86.7265082,33.3635222 88.1525577,31.642129 90.084295,31.4746352 C92.0160323,31.3071413 93.7219478,32.7569734 93.894564,34.7129258 Z" id="Combined-Shape" fill="url(#linearGradient-1)" transform="translate(58.537460, 62.920733) rotate(-4.000000) translate(-58.537460, -62.920733) "></path>
                <path d="M166.669645,12.99712 L166.669645,47.6594176 L158.947558,47.6594176 L158.947558,12.99712 L147.567642,12.99712 L147.567642,6.2620672 L178.514048,6.2620672 L178.514048,12.99712 L166.669645,12.99712 Z M191.858624,47.6594176 L184.542963,47.6594176 L184.542963,2.9526016 L191.858624,2.9526016 L191.858624,20.0805376 C193.890752,16.0162816 197.664704,13.4616064 202.948237,13.4616064 C211.018688,13.4616064 215.024883,18.5709568 215.024883,26.8736512 L215.024883,47.6594176 L207.360858,47.6594176 L207.360858,28.96384 C207.360858,23.6803072 205.502912,20.0805376 199.987136,20.0805376 C194.645542,20.0805376 191.858624,24.2028544 191.858624,30.1831168 L191.858624,47.6594176 Z M254.032333,37.7890816 C252.116326,44.5821952 246.716672,48.5303296 237.949491,48.5303296 C226.685696,48.5303296 221.16992,42.02752 221.16992,31.6926976 L221.16992,30.8798464 C221.16992,27.2800768 221.86665,24.318976 223.260109,21.6481792 C226.047027,16.4227072 231.156378,13.4616064 238.181734,13.4616064 C243.929754,13.4616064 247.99401,15.4356736 250.664806,18.6290176 C253.335603,21.8223616 254.496819,25.9446784 254.496819,30.2411776 L254.496819,33.7828864 L228.717824,33.7828864 C229.356493,39.2406016 232.724019,42.2597632 238.239795,42.2597632 C242.304051,42.2597632 244.684544,40.6921216 245.84576,37.7890816 L254.032333,37.7890816 Z M238.239795,19.4999296 C232.956262,19.4999296 229.646797,22.5190912 228.775885,27.802624 L246.890854,27.802624 C246.368307,22.6932736 243.581389,19.4999296 238.239795,19.4999296 Z M309.055155,47.6594176 L279.67639,47.6594176 L279.67639,6.2620672 L308.068122,6.2620672 L308.068122,12.8229376 L287.050112,12.8229376 L287.050112,23.448064 L304.874778,23.448064 L304.874778,30.0669952 L287.050112,30.0669952 L287.050112,40.866304 L309.055155,40.866304 L309.055155,47.6594176 Z M338.25033,40.6921216 C336.450445,45.220864 332.676493,48.3561472 326.69623,48.3561472 C318.161293,48.3561472 312.529395,42.3758848 312.529395,31.1120896 L312.529395,30.2992384 C312.529395,26.641408 313.168064,23.5641856 314.387341,21.0675712 C316.825894,16.0743424 321.238515,13.5196672 326.928474,13.5196672 C332.44425,13.5196672 336.10208,15.90016 338.018086,20.0224768 L338.018086,2.9526016 L345.391808,2.9526016 L345.391808,47.6594176 L339.063181,47.6594176 L338.25033,40.6921216 Z M329.018662,41.7952768 C334.708621,41.7952768 338.192269,37.67296 338.192269,31.0540288 L338.192269,30.4734208 C338.192269,24.028672 334.824742,19.8482944 329.308966,19.8482944 C323.560947,19.8482944 320.367603,23.738368 320.367603,30.41536 L320.367603,31.0540288 C320.367603,38.1955072 323.967373,41.7952768 329.018662,41.7952768 Z M375.225651,41.2727296 C373.541888,45.6272896 369.942118,48.3561472 364.426342,48.3561472 C356.413952,48.3561472 352.64,43.2467968 352.64,34.9441024 L352.64,14.2744576 L360.245965,14.2744576 L360.245965,32.8539136 C360.245965,38.0793856 361.813606,41.6791552 367.039078,41.6791552 C372.090368,41.6791552 374.645043,37.5568384 374.645043,31.6346368 L374.645043,14.2744576 L382.309069,14.2744576 L382.309069,47.6594176 L375.922381,47.6594176 L375.225651,41.2727296 Z M405.059494,48.5303296 C394.376307,48.5303296 388.279923,42.5500672 388.279923,31.6346368 L388.279923,30.7637248 C388.279923,27.0478336 389.034714,23.8544896 390.486234,21.2998144 C393.447334,16.190464 398.672806,13.4616064 405.117555,13.4616064 C414.349222,13.4616064 420.67785,17.8161664 421.43264,27.5703808 L421.43264,27.6865024 L413.47831,27.6865024 L413.47831,27.51232 C412.781581,22.286848 409.82048,19.964416 405.175616,19.964416 C399.834022,19.964416 396.176192,23.6803072 396.176192,30.7637248 L396.176192,31.5185152 C396.176192,38.1374464 399.543718,41.8533376 405.117555,41.8533376 C409.994662,41.8533376 412.781581,39.2986624 413.536371,34.189312 L413.536371,34.1312512 L421.490701,34.1312512 L421.490701,34.3054336 C420.73591,44.1757696 414.291162,48.5303296 405.059494,48.5303296 Z M450.860058,40.9824256 C448.595687,45.3369856 444.125005,48.5303296 437.21577,48.5303296 C429.95817,48.5303296 426.300339,45.0466816 426.300339,39.5889664 C426.300339,35.8730752 427.926042,33.0861568 430.654899,31.4023936 C431.583872,30.7637248 432.570906,30.2992384 433.499879,30.0089344 C435.473946,29.3122048 437.97056,28.8477184 442.150938,28.2090496 C448.1312,27.4542592 450.511693,26.641408 450.511693,23.9125504 C450.511693,21.125632 448.711808,19.383808 443.486336,19.383808 C437.97056,19.383808 435.473946,21.7643008 435.241703,26.0608 L427.403495,26.0608 C427.926042,18.4548352 433.499879,13.4616064 443.079911,13.4616064 C446.737741,13.4616064 449.524659,13.9260928 451.73097,14.9131264 C456.08553,16.771072 457.827354,20.3127808 457.827354,25.1318272 L457.827354,47.6594176 L451.672909,47.6594176 L450.860058,40.9824256 Z M439.828506,42.6661888 C442.034816,42.6661888 443.892762,42.1436416 445.518464,41.156608 C448.769869,39.12448 450.569754,35.7569536 450.569754,32.5636096 L450.569754,30.7637248 C449.176295,31.7507584 446.853863,32.447488 443.834701,32.9119744 C439.770445,33.5506432 438.144743,34.0151296 436.577101,35.0021632 C435.241703,35.8730752 434.603034,37.0342912 434.603034,38.4858112 C434.603034,41.2727296 436.344858,42.6661888 439.828506,42.6661888 Z M484.293671,47.6594176 L479.997171,47.6594176 C476.861888,47.6594176 474.423335,47.1949312 472.797632,46.4401408 C469.430106,44.7563776 468.385011,41.0985472 468.385011,34.3054336 L468.385011,21.0095104 L461.882202,21.0095104 L461.882202,14.5647616 L464.843303,14.5647616 C465.946458,14.5647616 466.701248,14.44864 467.223795,14.2163968 C468.326951,13.6938496 468.675315,12.416512 468.849498,9.6876544 C468.907559,8.2361344 468.965619,6.2620672 468.965619,5.2750336 L475.468429,5.2750336 L475.468429,14.2744576 L484.293671,14.2744576 L484.293671,21.0095104 L475.468429,21.0095104 L475.468429,33.028096 C475.468429,35.2344064 475.642611,36.8601088 475.932915,37.963264 C476.455463,40.1695744 478.197287,40.576 481.913178,40.576 L484.293671,40.576 L484.293671,47.6594176 Z M494.328781,10.674688 C490.670951,10.674688 489.277491,9.4554112 489.277491,5.6233984 C489.277491,1.9075072 490.961255,0.6301696 494.328781,0.6301696 C497.696307,0.6301696 499.380071,1.9075072 499.380071,5.6233984 C499.380071,9.223168 497.754368,10.674688 494.328781,10.674688 Z M490.380647,47.6594176 L490.380647,14.2744576 L498.102733,14.2744576 L498.102733,47.6594176 L490.380647,47.6594176 Z M521.259584,48.5303296 C510.460275,48.5303296 504.421952,42.5500672 504.421952,31.6346368 L504.421952,30.7637248 C504.421952,27.0478336 505.176743,23.8544896 506.628263,21.2998144 C509.531303,16.190464 514.698714,13.4616064 521.259584,13.4616064 C524.627111,13.4616064 527.47209,14.1002752 529.968704,15.4937344 C535.078055,18.222592 538.097216,23.3900032 538.097216,30.7637248 L538.097216,31.6346368 C538.097216,35.2924672 537.400487,38.3116288 536.007027,40.8082432 C533.103987,45.8595328 528.052698,48.5303296 521.259584,48.5303296 Z M521.259584,41.8533376 C527.007603,41.8533376 530.37513,38.1374464 530.37513,31.5185152 L530.37513,30.7637248 C530.37513,23.9125504 526.833421,19.964416 521.317645,19.964416 C515.85993,19.964416 512.202099,23.6803072 512.202099,30.7637248 L512.202099,31.5185152 C512.202099,38.1374464 515.569626,41.8533376 521.259584,41.8533376 Z M552.138522,47.6594176 L544.474496,47.6594176 L544.474496,14.2744576 L550.919245,14.2744576 L551.615975,20.9514496 C553.415859,16.3646464 557.189811,13.4616064 562.937831,13.4616064 C571.008282,13.4616064 575.304781,18.8032 575.304781,27.1058944 L575.304781,47.6594176 L567.640755,47.6594176 L567.640755,28.96384 C567.640755,23.5061248 565.898931,20.0805376 560.441216,20.0805376 C554.751258,20.0805376 552.138522,24.028672 552.138522,30.2411776 L552.138522,47.6594176 Z M605.428928,40.9824256 C603.164557,45.3369856 598.693875,48.5303296 591.78464,48.5303296 C584.52704,48.5303296 580.86921,45.0466816 580.86921,39.5889664 C580.86921,35.8730752 582.494912,33.0861568 585.22377,31.4023936 C586.152743,30.7637248 587.139776,30.2992384 588.068749,30.0089344 C590.042816,29.3122048 592.539431,28.8477184 596.719808,28.2090496 C602.700071,27.4542592 605.080563,26.641408 605.080563,23.9125504 C605.080563,21.125632 603.280679,19.383808 598.055207,19.383808 C592.539431,19.383808 590.042816,21.7643008 589.810573,26.0608 L581.972365,26.0608 C582.494912,18.4548352 588.068749,13.4616064 597.648781,13.4616064 C601.306611,13.4616064 604.09353,13.9260928 606.29984,14.9131264 C610.6544,16.771072 612.396224,20.3127808 612.396224,25.1318272 L612.396224,47.6594176 L606.241779,47.6594176 L605.428928,40.9824256 Z M594.397376,42.6661888 C596.603687,42.6661888 598.461632,42.1436416 600.087335,41.156608 C603.338739,39.12448 605.138624,35.7569536 605.138624,32.5636096 L605.138624,30.7637248 C603.745165,31.7507584 601.422733,32.447488 598.403571,32.9119744 C594.339315,33.5506432 592.713613,34.0151296 591.145971,35.0021632 C589.810573,35.8730752 589.171904,37.0342912 589.171904,38.4858112 C589.171904,41.2727296 590.913728,42.6661888 594.397376,42.6661888 Z M620.166963,47.6594176 L620.166963,2.9526016 L627.772928,2.9526016 L627.772928,47.6594176 L620.166963,47.6594176 Z M166.32128,128.189747 C154.883302,128.189747 148.554675,122.035302 148.554675,108.507136 L148.554675,105.023488 C148.554675,100.668928 149.309466,97.1272192 150.760986,94.1661184 C153.722086,88.185856 159.237862,85.1666944 166.379341,85.1666944 C169.97911,85.1666944 173.056333,85.863424 175.78519,87.4310656 C181.126784,90.4502272 184.262067,96.314368 184.262067,105.023488 L184.262067,108.507136 C184.262067,121.86112 177.352832,128.189747 166.32128,128.189747 Z M166.379341,121.222451 C173.056333,121.222451 176.365798,116.693709 176.365798,108.216832 L176.365798,105.371853 C176.365798,96.604672 173.056333,92.0178688 166.379341,92.0178688 C159.586227,92.0178688 156.450944,96.7788544 156.450944,105.313792 L156.450944,108.216832 C156.450944,116.693709 159.586227,121.222451 166.379341,121.222451 Z M209.509107,128.015565 C203.993331,128.015565 200.335501,125.51895 198.361434,121.454694 L198.361434,138.814874 L190.987712,138.814874 L190.987712,93.9338752 L197.316339,93.9338752 L198.12919,100.726989 C199.929075,96.1401856 203.819149,93.121024 209.625229,93.121024 C218.334349,93.121024 223.850125,99.2754688 223.850125,110.539264 L223.850125,111.352115 C223.850125,115.009946 223.211456,118.029107 221.992179,120.525722 C219.553626,125.51895 215.082944,128.015565 209.509107,128.015565 Z M207.128614,121.570816 C212.818573,121.570816 216.128038,117.854925 216.128038,111.235994 L216.128038,110.539264 C216.128038,103.397786 212.528269,99.6238336 207.302797,99.6238336 C201.787021,99.6238336 198.187251,103.804211 198.187251,110.423142 L198.187251,111.00375 C198.187251,117.448499 201.612838,121.570816 207.128614,121.570816 Z M248.632678,128.015565 C243.116902,128.015565 239.459072,125.51895 237.485005,121.454694 L237.485005,138.814874 L230.111283,138.814874 L230.111283,93.9338752 L236.43991,93.9338752 L237.252762,100.726989 C239.052646,96.1401856 242.94272,93.121024 248.7488,93.121024 C257.45792,93.121024 262.973696,99.2754688 262.973696,110.539264 L262.973696,111.352115 C262.973696,115.009946 262.335027,118.029107 261.11575,120.525722 C258.677197,125.51895 254.206515,128.015565 248.632678,128.015565 Z M246.252186,121.570816 C251.942144,121.570816 255.25161,117.854925 255.25161,111.235994 L255.25161,110.539264 C255.25161,103.397786 251.65184,99.6238336 246.426368,99.6238336 C240.910592,99.6238336 237.310822,103.804211 237.310822,110.423142 L237.310822,111.00375 C237.310822,117.448499 240.73641,121.570816 246.252186,121.570816 Z M285.375757,128.189747 C274.576448,128.189747 268.538125,122.209485 268.538125,111.294054 L268.538125,110.423142 C268.538125,106.707251 269.292915,103.513907 270.744435,100.959232 C273.647475,95.8498816 278.814886,93.121024 285.375757,93.121024 C288.743283,93.121024 291.588262,93.7596928 294.084877,95.153152 C299.194227,97.8820096 302.213389,103.049421 302.213389,110.423142 L302.213389,111.294054 C302.213389,114.951885 301.516659,117.971046 300.1232,120.467661 C297.22016,125.51895 292.16887,128.189747 285.375757,128.189747 Z M285.375757,121.512755 C291.123776,121.512755 294.491302,117.796864 294.491302,111.177933 L294.491302,110.423142 C294.491302,103.571968 290.949594,99.6238336 285.433818,99.6238336 C279.976102,99.6238336 276.318272,103.339725 276.318272,110.423142 L276.318272,111.177933 C276.318272,117.796864 279.685798,121.512755 285.375757,121.512755 Z M308.590669,127.318835 L308.590669,93.9338752 L314.745114,93.9338752 L315.732147,101.772083 C317.067546,96.2563072 320.493133,93.6435712 326.82176,93.6435712 L329.086131,93.6435712 L329.086131,101.365658 L325.776666,101.365658 C323.105869,101.365658 321.131802,101.714022 319.738342,102.410752 C316.951424,103.74615 316.080512,106.64919 316.080512,111.874662 L316.080512,127.318835 L308.590669,127.318835 Z M355.610509,127.318835 L351.31401,127.318835 C348.178726,127.318835 345.740173,126.854349 344.11447,126.099558 C340.746944,124.415795 339.70185,120.757965 339.70185,113.964851 L339.70185,100.668928 L333.19904,100.668928 L333.19904,94.2241792 L336.160141,94.2241792 C337.263296,94.2241792 338.018086,94.1080576 338.540634,93.8758144 C339.643789,93.3532672 339.992154,92.0759296 340.166336,89.347072 C340.224397,87.895552 340.282458,85.9214848 340.282458,84.9344512 L346.785267,84.9344512 L346.785267,93.9338752 L355.610509,93.9338752 L355.610509,100.668928 L346.785267,100.668928 L346.785267,112.687514 C346.785267,114.893824 346.95945,116.519526 347.249754,117.622682 C347.772301,119.828992 349.514125,120.235418 353.230016,120.235418 L355.610509,120.235418 L355.610509,127.318835 Z M383.644467,120.932147 C381.960704,125.286707 378.360934,128.015565 372.845158,128.015565 C364.832768,128.015565 361.058816,122.906214 361.058816,114.60352 L361.058816,93.9338752 L368.664781,93.9338752 L368.664781,112.513331 C368.664781,117.738803 370.232422,121.338573 375.457894,121.338573 C380.509184,121.338573 383.063859,117.216256 383.063859,111.294054 L383.063859,93.9338752 L390.727885,93.9338752 L390.727885,127.318835 L384.341197,127.318835 L383.644467,120.932147 Z M406.16265,127.318835 L398.498624,127.318835 L398.498624,93.9338752 L404.943373,93.9338752 L405.640102,100.610867 C407.439987,96.024064 411.213939,93.121024 416.961958,93.121024 C425.03241,93.121024 429.328909,98.4626176 429.328909,106.765312 L429.328909,127.318835 L421.664883,127.318835 L421.664883,108.623258 C421.664883,103.165542 419.923059,99.7399552 414.465344,99.7399552 C408.775386,99.7399552 406.16265,103.68809 406.16265,109.900595 L406.16265,127.318835 Z M440.641357,90.3341056 C436.983527,90.3341056 435.590067,89.1148288 435.590067,85.282816 C435.590067,81.5669248 437.273831,80.2895872 440.641357,80.2895872 C444.008883,80.2895872 445.692647,81.5669248 445.692647,85.282816 C445.692647,88.8825856 444.066944,90.3341056 440.641357,90.3341056 Z M436.693223,127.318835 L436.693223,93.9338752 L444.415309,93.9338752 L444.415309,127.318835 L436.693223,127.318835 Z M472.333146,127.318835 L468.036647,127.318835 C464.901363,127.318835 462.46281,126.854349 460.837107,126.099558 C457.469581,124.415795 456.424487,120.757965 456.424487,113.964851 L456.424487,100.668928 L449.921677,100.668928 L449.921677,94.2241792 L452.882778,94.2241792 C453.985933,94.2241792 454.740723,94.1080576 455.263271,93.8758144 C456.366426,93.3532672 456.714791,92.0759296 456.888973,89.347072 C456.947034,87.895552 457.005095,85.9214848 457.005095,84.9344512 L463.507904,84.9344512 L463.507904,93.9338752 L472.333146,93.9338752 L472.333146,100.668928 L463.507904,100.668928 L463.507904,112.687514 C463.507904,114.893824 463.682087,116.519526 463.972391,117.622682 C464.494938,119.828992 466.236762,120.235418 469.952653,120.235418 L472.333146,120.235418 L472.333146,127.318835 Z M477.200845,139.801907 L477.200845,133.182976 L481.090919,133.182976 C482.542439,133.182976 483.761715,133.008794 484.632627,132.77655 C486.432512,132.254003 487.419546,130.918605 488.754944,128.015565 L489.393613,126.447923 L475.575143,93.9338752 L483.703655,93.9338752 L492.761139,116.519526 L493.051443,118.029107 L493.457869,116.577587 L502.283111,93.9338752 L510.295501,93.9338752 L495.664179,129.234842 C493.748173,133.879706 492.238592,136.550502 490.264525,138.002022 C488.232397,139.453542 485.5616,139.801907 481.032858,139.801907 L477.200845,139.801907 Z M540.642483,114.255155 L540.642483,127.318835 L533.15264,127.318835 L533.15264,85.9214848 L548.770995,85.9214848 C552.486887,85.9214848 555.506048,86.5020928 557.944602,87.7213696 C562.821709,90.0438016 565.202202,94.3983616 565.202202,99.9721984 C565.202202,108.681318 560.034791,114.313216 549.061299,114.255155 L540.642483,114.255155 Z M540.642483,92.4242944 L540.642483,107.752346 L548.945178,107.752346 C554.460954,107.752346 557.596237,105.023488 557.596237,99.9721984 C557.596237,95.443456 554.751258,92.4242944 548.770995,92.4242944 L540.642483,92.4242944 Z M571.231117,127.318835 L571.231117,93.9338752 L577.385562,93.9338752 L578.372595,101.772083 C579.707994,96.2563072 583.133581,93.6435712 589.462208,93.6435712 L591.726579,93.6435712 L591.726579,101.365658 L588.417114,101.365658 C585.746317,101.365658 583.77225,101.714022 582.378791,102.410752 C579.591872,103.74615 578.72096,106.64919 578.72096,111.874662 L578.72096,127.318835 L571.231117,127.318835 Z M611.573965,128.189747 C600.774656,128.189747 594.736333,122.209485 594.736333,111.294054 L594.736333,110.423142 C594.736333,106.707251 595.491123,103.513907 596.942643,100.959232 C599.845683,95.8498816 605.013095,93.121024 611.573965,93.121024 C614.941491,93.121024 617.786471,93.7596928 620.283085,95.153152 C625.392435,97.8820096 628.411597,103.049421 628.411597,110.423142 L628.411597,111.294054 C628.411597,114.951885 627.714867,117.971046 626.321408,120.467661 C623.418368,125.51895 618.367079,128.189747 611.573965,128.189747 Z M611.573965,121.512755 C617.321984,121.512755 620.689511,117.796864 620.689511,111.177933 L620.689511,110.423142 C620.689511,103.571968 617.147802,99.6238336 611.632026,99.6238336 C606.174311,99.6238336 602.51648,103.339725 602.51648,110.423142 L602.51648,111.177933 C602.51648,117.796864 605.884007,121.512755 611.573965,121.512755 Z M638.795072,90.3341056 C635.137242,90.3341056 633.743783,89.1148288 633.743783,85.282816 C633.743783,81.5669248 635.427546,80.2895872 638.795072,80.2895872 C642.162599,80.2895872 643.846362,81.5669248 643.846362,85.282816 C643.846362,88.8825856 642.220659,90.3341056 638.795072,90.3341056 Z M628.053824,141.021184 L628.053824,133.937766 L629.737587,133.937766 C631.189107,133.937766 632.350323,133.821645 633.105114,133.589402 C634.672755,133.066854 635.02112,131.615334 635.02112,127.957504 L635.02112,93.9338752 L642.452903,93.9338752 L642.452903,128.886477 C642.452903,133.763584 641.930355,136.840806 640.130471,138.640691 C638.446707,140.324454 635.369485,141.021184 630.492378,141.021184 L628.053824,141.021184 Z M681.402291,117.448499 C679.486285,124.241613 674.086631,128.189747 665.31945,128.189747 C654.055655,128.189747 648.539879,121.686938 648.539879,111.352115 L648.539879,110.539264 C648.539879,106.939494 649.236608,103.978394 650.630067,101.307597 C653.416986,96.0821248 658.526336,93.121024 665.551693,93.121024 C671.299712,93.121024 675.363968,95.0950912 678.034765,98.2884352 C680.705562,101.481779 681.866778,105.604096 681.866778,109.900595 L681.866778,113.442304 L656.087783,113.442304 C656.726451,118.900019 660.093978,121.919181 665.609754,121.919181 C669.67401,121.919181 672.054503,120.351539 673.215719,117.448499 L681.402291,117.448499 Z M665.609754,99.1593472 C660.326221,99.1593472 657.016755,102.178509 656.145843,107.462042 L674.260813,107.462042 C673.738266,102.352691 670.951347,99.1593472 665.609754,99.1593472 Z M703.978535,128.189747 C693.295347,128.189747 687.198963,122.209485 687.198963,111.294054 L687.198963,110.423142 C687.198963,106.707251 687.953754,103.513907 689.405274,100.959232 C692.366375,95.8498816 697.591847,93.121024 704.036595,93.121024 C713.268263,93.121024 719.59689,97.475584 720.35168,107.229798 L720.35168,107.34592 L712.397351,107.34592 L712.397351,107.171738 C711.700621,101.946266 708.73952,99.6238336 704.094656,99.6238336 C698.753063,99.6238336 695.095232,103.339725 695.095232,110.423142 L695.095232,111.177933 C695.095232,117.796864 698.462759,121.512755 704.036595,121.512755 C708.913703,121.512755 711.700621,118.95808 712.455411,113.84873 L712.455411,113.790669 L720.409741,113.790669 L720.409741,113.964851 C719.654951,123.835187 713.210202,128.189747 703.978535,128.189747 Z M745.656781,127.318835 L741.360282,127.318835 C738.224999,127.318835 735.786445,126.854349 734.160743,126.099558 C730.793216,124.415795 729.748122,120.757965 729.748122,113.964851 L729.748122,100.668928 L723.245312,100.668928 L723.245312,94.2241792 L726.206413,94.2241792 C727.309568,94.2241792 728.064359,94.1080576 728.586906,93.8758144 C729.690061,93.3532672 730.038426,92.0759296 730.212608,89.347072 C730.270669,87.895552 730.32873,85.9214848 730.32873,84.9344512 L736.831539,84.9344512 L736.831539,93.9338752 L745.656781,93.9338752 L745.656781,100.668928 L736.831539,100.668928 L736.831539,112.687514 C736.831539,114.893824 737.005722,116.519526 737.296026,117.622682 C737.818573,119.828992 739.560397,120.235418 743.276288,120.235418 L745.656781,120.235418 L745.656781,127.318835 Z" id="TheEducationalOpportunityProject" fill="#FFFFFF" fill-rule="nonzero"></path>
            </g>
        </g>
    </g>
</svg>