<?xml version="1.0" encoding="UTF-8"?>
<svg width="283px" height="30px" viewBox="0 0 283 30" version="1.1" xmlns="http://www.w3.org/2000/svg" xmlns:xlink="http://www.w3.org/1999/xlink">
    <!-- Generator: Sketch 53.2 (72643) - https://sketchapp.com -->
    <title>Logo-ext</title>
    <desc>Created with Sketch.</desc>
    <g id="Page-1" stroke="none" stroke-width="1" fill="none" fill-rule="evenodd">
        <g id="Homepage-Mockup-1440-V1" transform="translate(-148.000000, -16.000000)">
            <g id="Logo-ext" transform="translate(148.255301, 13.869565)">
                <g id="Wordmark" transform="translate(34.744699, 0.130435)" fill="#FFFFFF" fill-rule="nonzero">
                    <path d="M5.0738574,4.80684202 L5.0738574,12.569422 L3.34450542,12.569422 L3.34450542,4.80684202 L0.795986709,4.80684202 L0.795986709,3.29853502 L7.72639729,3.29853502 L7.72639729,4.80684202 L5.0738574,4.80684202 Z M10.7148991,12.569422 L9.07656561,12.569422 L9.07656561,2.55738417 L10.7148991,2.55738417 L10.7148991,6.39316489 C11.1699917,5.48297963 12.0151637,4.91086319 13.1984045,4.91086319 C15.0057724,4.91086319 15.902955,6.05509608 15.902955,7.91447453 L15.902955,12.569422 L14.1866057,12.569422 L14.1866057,8.3825698 C14.1866057,7.19932897 13.770521,6.39316489 12.5352696,6.39316489 C11.3390261,6.39316489 10.7148991,7.31635279 10.7148991,8.65562538 L10.7148991,12.569422 Z M24.6386265,10.3589721 C24.2095392,11.8802817 23.0002931,12.7644617 21.0368935,12.7644617 C18.5143801,12.7644617 17.2791286,11.3081653 17.2791286,8.99369419 L17.2791286,8.81165713 C17.2791286,8.00549305 17.4351604,7.34235808 17.7472239,6.74423634 C18.3713509,5.57399816 19.5155838,4.91086319 21.0889041,4.91086319 C22.3761661,4.91086319 23.2863513,5.35295317 23.8844731,6.06809873 C24.4825948,6.78324428 24.7426477,7.70643218 24.7426477,8.66862802 L24.7426477,9.46178946 L18.9694727,9.46178946 C19.1125018,10.6840382 19.8666553,11.3601758 21.1019067,11.3601758 C22.012092,11.3601758 22.5452005,11.0091044 22.8052534,10.3589721 L24.6386265,10.3589721 Z M21.1019067,6.26313842 C19.9186659,6.26313842 19.177515,6.93927604 18.9824753,8.12251687 L23.039301,8.12251687 C22.9222772,6.97828398 22.2981502,6.26313842 21.1019067,6.26313842 Z M36.9609216,12.569422 L30.3815825,12.569422 L30.3815825,3.29853502 L36.7398766,3.29853502 L36.7398766,4.76783408 L32.0329186,4.76783408 L32.0329186,7.14731838 L36.024731,7.14731838 L36.024731,8.62962008 L32.0329186,8.62962008 L32.0329186,11.0481123 L36.9609216,11.0481123 L36.9609216,12.569422 Z M43.4991459,11.0091044 C43.0960638,12.0233108 42.2508918,12.7254537 40.9116192,12.7254537 C39.0002302,12.7254537 37.7389735,11.3861811 37.7389735,8.86366772 L37.7389735,8.68163067 C37.7389735,7.86246394 37.8820026,7.17332368 38.1550582,6.61420988 C38.7011693,5.49598228 39.6893704,4.92386584 40.9636298,4.92386584 C42.1988812,4.92386584 43.0180479,5.45697434 43.4471353,6.38016224 L43.4471353,2.55738417 L45.0984714,2.55738417 L45.0984714,12.569422 L43.6811829,12.569422 L43.4991459,11.0091044 Z M41.4317251,11.2561547 C42.7059844,11.2561547 43.4861432,10.3329668 43.4861432,8.85066507 L43.4861432,8.72063861 C43.4861432,7.27734485 42.7319897,6.3411543 41.4967383,6.3411543 C40.2094763,6.3411543 39.4943308,7.21233162 39.4943308,8.70763596 L39.4943308,8.85066507 C39.4943308,10.4499906 40.3004948,11.2561547 41.4317251,11.2561547 Z M51.7797248,11.1391309 C51.402648,12.1143293 50.5964839,12.7254537 49.3612325,12.7254537 C47.5668673,12.7254537 46.7216953,11.5812208 46.7216953,9.72184239 L46.7216953,5.09290024 L48.425042,5.09290024 L48.425042,9.25374712 C48.425042,10.4239853 48.7761134,11.2301494 49.9463516,11.2301494 C51.0775819,11.2301494 51.6496983,10.3069615 51.6496983,8.98069154 L51.6496983,5.09290024 L53.3660476,5.09290024 L53.3660476,12.569422 L51.9357565,12.569422 L51.7797248,11.1391309 Z M58.4609782,12.7644617 C56.0684912,12.7644617 54.7032133,11.4251891 54.7032133,8.98069154 L54.7032133,8.78565184 C54.7032133,7.95348247 54.8722477,7.23833691 55.1973139,6.66622046 C55.8604489,5.52198757 57.030687,4.91086319 58.4739808,4.91086319 C60.5414016,4.91086319 61.9586901,5.88606168 62.1277245,8.07050629 L62.1277245,8.09651158 L60.3463619,8.09651158 L60.3463619,8.05750364 C60.1903301,6.88726545 59.5271952,6.3671596 58.4869834,6.3671596 C57.29074,6.3671596 56.4715732,7.19932897 56.4715732,8.78565184 L56.4715732,8.95468625 C56.4715732,10.4369879 57.2257267,11.2691573 58.4739808,11.2691573 C59.5662031,11.2691573 60.1903301,10.6970409 60.3593645,9.55280798 L60.3593645,9.53980534 L62.1407271,9.53980534 L62.1407271,9.57881328 C61.9716927,11.7892632 60.5283989,12.7644617 58.4609782,12.7644617 Z M68.7179593,11.0741176 C68.2108561,12.0493161 67.2096523,12.7644617 65.6623374,12.7644617 C64.0370066,12.7644617 63.2178399,11.9843029 63.2178399,10.7620541 C63.2178399,9.92988473 63.581914,9.3057577 64.1930383,8.92868095 C64.4010807,8.78565184 64.6221257,8.68163067 64.830168,8.61661744 C65.272258,8.46058568 65.8313718,8.35656451 66.7675623,8.2135354 C68.1068349,8.04450099 68.6399434,7.86246394 68.6399434,7.25133956 C68.6399434,6.62721253 68.2368614,6.23713313 67.0666232,6.23713313 C65.8313718,6.23713313 65.272258,6.77024164 65.2202474,7.73243748 L63.4648901,7.73243748 C63.581914,6.02909079 64.830168,4.91086319 66.9756047,4.91086319 C67.7947714,4.91086319 68.4188985,5.01488436 68.912999,5.23592935 C69.8881975,5.65201404 70.2782769,6.44517547 70.2782769,7.52439513 L70.2782769,12.569422 L68.8999964,12.569422 L68.7179593,11.0741176 Z M66.2474565,11.4511944 C66.7415571,11.4511944 67.1576417,11.3341706 67.5217158,11.1131256 C68.249864,10.6580329 68.6529461,9.90387944 68.6529461,9.18873388 L68.6529461,8.78565184 C68.3408826,9.00669683 67.8207767,9.16272859 67.1446391,9.26674976 C66.2344538,9.40977887 65.8703797,9.51380005 65.5193083,9.73484504 C65.2202474,9.92988473 65.0772183,10.1899377 65.0772183,10.5150038 C65.0772183,11.1391309 65.4672977,11.4511944 66.2474565,11.4511944 Z M76.2053768,12.569422 L75.2431809,12.569422 C74.541038,12.569422 73.9949269,12.4654008 73.6308528,12.2963664 C72.8766993,11.9192896 72.6426517,11.1001229 72.6426517,9.57881328 L72.6426517,6.60120723 L71.1863552,6.60120723 L71.1863552,5.15791347 L71.8494902,5.15791347 C72.0965405,5.15791347 72.2655749,5.13190818 72.3825987,5.07989759 C72.629649,4.96287377 72.7076649,4.67681555 72.7466728,4.06569117 C72.7596755,3.740625 72.7726781,3.29853502 72.7726781,3.07749003 L74.2289745,3.07749003 L74.2289745,5.09290024 L76.2053768,5.09290024 L76.2053768,6.60120723 L74.2289745,6.60120723 L74.2289745,9.29275505 C74.2289745,9.78685562 74.2679825,10.1509297 74.3329957,10.39798 C74.4500195,10.8920806 74.8400989,10.9830991 75.6722683,10.9830991 L76.2053768,10.9830991 L76.2053768,12.569422 Z M78.4527277,4.28673616 C77.633561,4.28673616 77.3214975,4.01368058 77.3214975,3.15550591 C77.3214975,2.32333654 77.6985742,2.03727832 78.4527277,2.03727832 C79.2068812,2.03727832 79.583958,2.32333654 79.583958,3.15550591 C79.583958,3.96167 79.2198839,4.28673616 78.4527277,4.28673616 Z M77.5685478,12.569422 L77.5685478,5.09290024 L79.2978997,5.09290024 L79.2978997,12.569422 L77.5685478,12.569422 Z M84.4838488,12.7644617 C82.0653565,12.7644617 80.7130813,11.4251891 80.7130813,8.98069154 L80.7130813,8.78565184 C80.7130813,7.95348247 80.8821157,7.23833691 81.2071819,6.66622046 C81.8573142,5.52198757 83.0145497,4.91086319 84.4838488,4.91086319 C85.2380023,4.91086319 85.875132,5.0538923 86.4342458,5.36595582 C87.5784786,5.9770802 88.2546163,7.13431574 88.2546163,8.78565184 L88.2546163,8.98069154 C88.2546163,9.79985827 88.0985845,10.4759959 87.786521,11.0351097 C87.1363887,12.1663399 86.0051584,12.7644617 84.4838488,12.7644617 Z M84.4838488,11.2691573 C85.7711108,11.2691573 86.5252643,10.4369879 86.5252643,8.95468625 L86.5252643,8.78565184 C86.5252643,7.25133956 85.7321028,6.3671596 84.4968514,6.3671596 C83.2746027,6.3671596 82.4554359,7.19932897 82.4554359,8.78565184 L82.4554359,8.95468625 C82.4554359,10.4369879 83.2095894,11.2691573 84.4838488,11.2691573 Z M91.3991498,12.569422 L89.6828005,12.569422 L89.6828005,5.09290024 L91.1260942,5.09290024 L91.282126,6.58820459 C91.685208,5.56099551 92.53038,4.91086319 93.817642,4.91086319 C95.6250099,4.91086319 96.5872058,6.10710667 96.5872058,7.96648511 L96.5872058,12.569422 L94.8708564,12.569422 L94.8708564,8.3825698 C94.8708564,7.16032103 94.480777,6.39316489 93.2585282,6.39316489 C91.9842689,6.39316489 91.3991498,7.27734485 91.3991498,8.66862802 L91.3991498,12.569422 Z M103.333472,11.0741176 C102.826369,12.0493161 101.825165,12.7644617 100.27785,12.7644617 C98.6525196,12.7644617 97.8333529,11.9843029 97.8333529,10.7620541 C97.8333529,9.92988473 98.197427,9.3057577 98.8085514,8.92868095 C99.0165937,8.78565184 99.2376387,8.68163067 99.4456811,8.61661744 C99.887771,8.46058568 100.446885,8.35656451 101.383075,8.2135354 C102.722348,8.04450099 103.255456,7.86246394 103.255456,7.25133956 C103.255456,6.62721253 102.852374,6.23713313 101.682136,6.23713313 C100.446885,6.23713313 99.887771,6.77024164 99.8357605,7.73243748 L98.0804032,7.73243748 C98.197427,6.02909079 99.4456811,4.91086319 101.591118,4.91086319 C102.410284,4.91086319 103.034411,5.01488436 103.528512,5.23592935 C104.503711,5.65201404 104.89379,6.44517547 104.89379,7.52439513 L104.89379,12.569422 L103.515509,12.569422 L103.333472,11.0741176 Z M100.86297,11.4511944 C101.35707,11.4511944 101.773155,11.3341706 102.137229,11.1131256 C102.865377,10.6580329 103.268459,9.90387944 103.268459,9.18873388 L103.268459,8.78565184 C102.956396,9.00669683 102.43629,9.16272859 101.760152,9.26674976 C100.849967,9.40977887 100.485893,9.51380005 100.134821,9.73484504 C99.8357605,9.92988473 99.6927314,10.1899377 99.6927314,10.5150038 C99.6927314,11.1391309 100.082811,11.4511944 100.86297,11.4511944 Z M106.634038,12.569422 L106.634038,2.55738417 L108.337384,2.55738417 L108.337384,12.569422 L106.634038,12.569422 Z M118.00714,12.7644617 C115.445618,12.7644617 114.02833,11.3861811 114.02833,8.35656451 L114.02833,7.57640572 C114.02833,6.60120723 114.197364,5.8080458 114.52243,5.14491083 C115.185565,3.80563824 116.420817,3.12950062 118.020142,3.12950062 C118.826306,3.12950062 119.515447,3.28553238 120.126571,3.63660383 C121.322814,4.31274145 122.024957,5.62600875 122.024957,7.57640572 L122.024957,8.35656451 C122.024957,11.3471732 120.477642,12.7644617 118.00714,12.7644617 Z M118.020142,11.2041441 C119.515447,11.2041441 120.256597,10.1899377 120.256597,8.29155128 L120.256597,7.6544216 C120.256597,5.69102198 119.515447,4.66381291 118.020142,4.66381291 C116.498833,4.66381291 115.79669,5.73002992 115.79669,7.64141895 L115.79669,8.29155128 C115.79669,10.1899377 116.498833,11.2041441 118.020142,11.2041441 Z M127.679002,12.7254537 C126.44375,12.7254537 125.624583,12.1663399 125.182493,11.2561547 L125.182493,15.143946 L123.531157,15.143946 L123.531157,5.09290024 L124.948446,5.09290024 L125.130483,6.61420988 C125.533565,5.58700081 126.404742,4.91086319 127.705007,4.91086319 C129.655404,4.91086319 130.890655,6.28914372 130.890655,8.81165713 L130.890655,8.99369419 C130.890655,9.81286091 130.747626,10.4889985 130.474571,11.0481123 C129.928459,12.1663399 128.927256,12.7254537 127.679002,12.7254537 Z M127.145893,11.28216 C128.420152,11.28216 129.161303,10.4499906 129.161303,8.96768889 L129.161303,8.81165713 C129.161303,7.21233162 128.355139,6.3671596 127.184901,6.3671596 C125.94965,6.3671596 125.143486,7.30335014 125.143486,8.78565184 L125.143486,8.91567831 C125.143486,10.3589721 125.910642,11.28216 127.145893,11.28216 Z M136.440678,12.7254537 C135.205427,12.7254537 134.38626,12.1663399 133.94417,11.2561547 L133.94417,15.143946 L132.292834,15.143946 L132.292834,5.09290024 L133.710123,5.09290024 L133.89216,6.61420988 C134.295242,5.58700081 135.166419,4.91086319 136.466684,4.91086319 C138.417081,4.91086319 139.652332,6.28914372 139.652332,8.81165713 L139.652332,8.99369419 C139.652332,9.81286091 139.509303,10.4889985 139.236247,11.0481123 C138.690136,12.1663399 137.688932,12.7254537 136.440678,12.7254537 Z M135.90757,11.28216 C137.181829,11.28216 137.92298,10.4499906 137.92298,8.96768889 L137.92298,8.81165713 C137.92298,7.21233162 137.116816,6.3671596 135.946578,6.3671596 C134.711326,6.3671596 133.905162,7.30335014 133.905162,8.78565184 L133.905162,8.91567831 C133.905162,10.3589721 134.672318,11.28216 135.90757,11.28216 Z M144.669247,12.7644617 C142.250754,12.7644617 140.898479,11.4251891 140.898479,8.98069154 L140.898479,8.78565184 C140.898479,7.95348247 141.067514,7.23833691 141.39258,6.66622046 C142.042712,5.52198757 143.199948,4.91086319 144.669247,4.91086319 C145.4234,4.91086319 146.06053,5.0538923 146.619644,5.36595582 C147.763877,5.9770802 148.440014,7.13431574 148.440014,8.78565184 L148.440014,8.98069154 C148.440014,9.79985827 148.283982,10.4759959 147.971919,11.0351097 C147.321787,12.1663399 146.190556,12.7644617 144.669247,12.7644617 Z M144.669247,11.2691573 C145.956509,11.2691573 146.710662,10.4369879 146.710662,8.95468625 L146.710662,8.78565184 C146.710662,7.25133956 145.917501,6.3671596 144.682249,6.3671596 C143.460001,6.3671596 142.640834,7.19932897 142.640834,8.78565184 L142.640834,8.95468625 C142.640834,10.4369879 143.394987,11.2691573 144.669247,11.2691573 Z M149.868198,12.569422 L149.868198,5.09290024 L151.246479,5.09290024 L151.467524,6.84825752 C151.766585,5.6130061 152.533741,5.02788701 153.951029,5.02788701 L154.458133,5.02788701 L154.458133,6.75723899 L153.716982,6.75723899 C153.11886,6.75723899 152.67677,6.83525487 152.364707,6.99128663 C151.74058,7.2903475 151.54554,7.94047982 151.54554,9.110718 L151.54554,12.569422 L149.868198,12.569422 Z M160.398235,12.569422 L159.436039,12.569422 C158.733896,12.569422 158.187785,12.4654008 157.823711,12.2963664 C157.069558,11.9192896 156.83551,11.1001229 156.83551,9.57881328 L156.83551,6.60120723 L155.379214,6.60120723 L155.379214,5.15791347 L156.042349,5.15791347 C156.289399,5.15791347 156.458433,5.13190818 156.575457,5.07989759 C156.822507,4.96287377 156.900523,4.67681555 156.939531,4.06569117 C156.952534,3.740625 156.965536,3.29853502 156.965536,3.07749003 L158.421833,3.07749003 L158.421833,5.09290024 L160.398235,5.09290024 L160.398235,6.60120723 L158.421833,6.60120723 L158.421833,9.29275505 C158.421833,9.78685562 158.460841,10.1509297 158.525854,10.39798 C158.642878,10.8920806 159.032957,10.9830991 159.865127,10.9830991 L160.398235,10.9830991 L160.398235,12.569422 Z M166.676407,11.1391309 C166.29933,12.1143293 165.493166,12.7254537 164.257914,12.7254537 C162.463549,12.7254537 161.618377,11.5812208 161.618377,9.72184239 L161.618377,5.09290024 L163.321724,5.09290024 L163.321724,9.25374712 C163.321724,10.4239853 163.672795,11.2301494 164.843033,11.2301494 C165.974264,11.2301494 166.54638,10.3069615 166.54638,8.98069154 L166.54638,5.09290024 L168.262729,5.09290024 L168.262729,12.569422 L166.832438,12.569422 L166.676407,11.1391309 Z M171.719326,12.569422 L170.002977,12.569422 L170.002977,5.09290024 L171.446271,5.09290024 L171.602303,6.58820459 C172.005385,5.56099551 172.850557,4.91086319 174.137819,4.91086319 C175.945187,4.91086319 176.907382,6.10710667 176.907382,7.96648511 L176.907382,12.569422 L175.191033,12.569422 L175.191033,8.3825698 C175.191033,7.16032103 174.800954,6.39316489 173.578705,6.39316489 C172.304446,6.39316489 171.719326,7.27734485 171.719326,8.66862802 L171.719326,12.569422 Z M179.440792,4.28673616 C178.621625,4.28673616 178.309561,4.01368058 178.309561,3.15550591 C178.309561,2.32333654 178.686638,2.03727832 179.440792,2.03727832 C180.194945,2.03727832 180.572022,2.32333654 180.572022,3.15550591 C180.572022,3.96167 180.207948,4.28673616 179.440792,4.28673616 Z M178.556612,12.569422 L178.556612,5.09290024 L180.285964,5.09290024 L180.285964,12.569422 L178.556612,12.569422 Z M186.53813,12.569422 L185.575934,12.569422 C184.873791,12.569422 184.32768,12.4654008 183.963606,12.2963664 C183.209452,11.9192896 182.975404,11.1001229 182.975404,9.57881328 L182.975404,6.60120723 L181.519108,6.60120723 L181.519108,5.15791347 L182.182243,5.15791347 C182.429293,5.15791347 182.598328,5.13190818 182.715352,5.07989759 C182.962402,4.96287377 183.040418,4.67681555 183.079426,4.06569117 C183.092428,3.740625 183.105431,3.29853502 183.105431,3.07749003 L184.561727,3.07749003 L184.561727,5.09290024 L186.53813,5.09290024 L186.53813,6.60120723 L184.561727,6.60120723 L184.561727,9.29275505 C184.561727,9.78685562 184.600735,10.1509297 184.665749,10.39798 C184.782772,10.8920806 185.172852,10.9830991 186.005021,10.9830991 L186.53813,10.9830991 L186.53813,12.569422 Z M187.628245,15.364991 L187.628245,13.8826893 L188.499422,13.8826893 C188.824488,13.8826893 189.097544,13.8436813 189.292584,13.7916707 C189.695666,13.6746469 189.916711,13.3755861 190.215772,12.7254537 L190.358801,12.3743823 L187.264171,5.09290024 L189.084541,5.09290024 L191.112954,10.1509297 L191.177967,10.4889985 L191.268986,10.1639324 L193.245388,5.09290024 L195.039754,5.09290024 L191.763087,12.9985093 C191.333999,14.038721 190.99593,14.6368428 190.55384,14.9619089 C190.098748,15.2869751 189.500626,15.364991 188.48642,15.364991 L187.628245,15.364991 Z M201.835924,9.64382651 L201.835924,12.569422 L200.158582,12.569422 L200.158582,3.29853502 L203.656294,3.29853502 C204.488464,3.29853502 205.164601,3.42856149 205.710712,3.70161707 C206.802935,4.22172292 207.336043,5.19692141 207.336043,6.44517547 C207.336043,8.39557245 206.178808,9.65682916 203.721308,9.64382651 L201.835924,9.64382651 Z M201.835924,4.75483143 L201.835924,8.1875301 L203.695302,8.1875301 C204.930554,8.1875301 205.632697,7.57640572 205.632697,6.44517547 C205.632697,5.43096905 204.995567,4.75483143 203.656294,4.75483143 L201.835924,4.75483143 Z M208.686212,12.569422 L208.686212,5.09290024 L210.064492,5.09290024 L210.285537,6.84825752 C210.584598,5.6130061 211.351754,5.02788701 212.769043,5.02788701 L213.276146,5.02788701 L213.276146,6.75723899 L212.534995,6.75723899 C211.936873,6.75723899 211.494783,6.83525487 211.18272,6.99128663 C210.558593,7.2903475 210.363553,7.94047982 210.363553,9.110718 L210.363553,12.569422 L208.686212,12.569422 Z M217.720944,12.7644617 C215.302452,12.7644617 213.950176,11.4251891 213.950176,8.98069154 L213.950176,8.78565184 C213.950176,7.95348247 214.119211,7.23833691 214.444277,6.66622046 C215.094409,5.52198757 216.251645,4.91086319 217.720944,4.91086319 C218.475097,4.91086319 219.112227,5.0538923 219.671341,5.36595582 C220.815574,5.9770802 221.491711,7.13431574 221.491711,8.78565184 L221.491711,8.98069154 C221.491711,9.79985827 221.33568,10.4759959 221.023616,11.0351097 C220.373484,12.1663399 219.242254,12.7644617 217.720944,12.7644617 Z M217.720944,11.2691573 C219.008206,11.2691573 219.762359,10.4369879 219.762359,8.95468625 L219.762359,8.78565184 C219.762359,7.25133956 218.969198,6.3671596 217.733947,6.3671596 C216.511698,6.3671596 215.692531,7.19932897 215.692531,8.78565184 L215.692531,8.95468625 C215.692531,10.4369879 216.446685,11.2691573 217.720944,11.2691573 Z M223.817078,4.28673616 C222.997912,4.28673616 222.685848,4.01368058 222.685848,3.15550591 C222.685848,2.32333654 223.062925,2.03727832 223.817078,2.03727832 C224.571232,2.03727832 224.948309,2.32333654 224.948309,3.15550591 C224.948309,3.96167 224.584234,4.28673616 223.817078,4.28673616 Z M221.411589,15.6380465 L221.411589,14.0517237 L221.788665,14.0517237 C222.113732,14.0517237 222.373785,14.0257184 222.542819,13.9737078 C222.89389,13.856684 222.971906,13.5316178 222.971906,12.7124511 L222.971906,5.09290024 L224.636245,5.09290024 L224.636245,12.9204934 C224.636245,14.0127157 224.519221,14.701856 224.116139,15.104938 C223.739062,15.4820148 223.049922,15.6380465 221.9577,15.6380465 L221.411589,15.6380465 Z M233.358914,10.3589721 C232.929827,11.8802817 231.72058,12.7644617 229.757181,12.7644617 C227.234667,12.7644617 225.999416,11.3081653 225.999416,8.99369419 L225.999416,8.81165713 C225.999416,8.00549305 226.155448,7.34235808 226.467511,6.74423634 C227.091638,5.57399816 228.235871,4.91086319 229.809191,4.91086319 C231.096453,4.91086319 232.006639,5.35295317 232.60476,6.06809873 C233.202882,6.78324428 233.462935,7.70643218 233.462935,8.66862802 L233.462935,9.46178946 L227.68976,9.46178946 C227.832789,10.6840382 228.586943,11.3601758 229.822194,11.3601758 C230.732379,11.3601758 231.265488,11.0091044 231.525541,10.3589721 L233.358914,10.3589721 Z M229.822194,6.26313842 C228.638953,6.26313842 227.897802,6.93927604 227.702763,8.12251687 L231.759588,8.12251687 C231.642565,6.97828398 231.018438,6.26313842 229.822194,6.26313842 Z M238.414836,12.7644617 C236.02235,12.7644617 234.657072,11.4251891 234.657072,8.98069154 L234.657072,8.78565184 C234.657072,7.95348247 234.826106,7.23833691 235.151172,6.66622046 C235.814307,5.52198757 236.984545,4.91086319 238.427839,4.91086319 C240.49526,4.91086319 241.912548,5.88606168 242.081583,8.07050629 L242.081583,8.09651158 L240.30022,8.09651158 L240.30022,8.05750364 C240.144188,6.88726545 239.481053,6.3671596 238.440842,6.3671596 C237.244598,6.3671596 236.425432,7.19932897 236.425432,8.78565184 L236.425432,8.95468625 C236.425432,10.4369879 237.179585,11.2691573 238.427839,11.2691573 C239.520061,11.2691573 240.144188,10.6970409 240.313223,9.55280798 L240.313223,9.53980534 L242.094585,9.53980534 L242.094585,9.57881328 C241.925551,11.7892632 240.482257,12.7644617 238.414836,12.7644617 Z M247.74863,12.569422 L246.786434,12.569422 C246.084291,12.569422 245.53818,12.4654008 245.174106,12.2963664 C244.419952,11.9192896 244.185905,11.1001229 244.185905,9.57881328 L244.185905,6.60120723 L242.729608,6.60120723 L242.729608,5.15791347 L243.392743,5.15791347 C243.639793,5.15791347 243.808828,5.13190818 243.925852,5.07989759 C244.172902,4.96287377 244.250918,4.67681555 244.289926,4.06569117 C244.302928,3.740625 244.315931,3.29853502 244.315931,3.07749003 L245.772227,3.07749003 L245.772227,5.09290024 L247.74863,5.09290024 L247.74863,6.60120723 L245.772227,6.60120723 L245.772227,9.29275505 C245.772227,9.78685562 245.811235,10.1509297 245.876249,10.39798 C245.993272,10.8920806 246.383352,10.9830991 247.215521,10.9830991 L247.74863,10.9830991 L247.74863,12.569422 Z M6.40012735,26.8386615 C5.89302413,27.81386 4.89182035,28.5290056 3.34450542,28.5290056 C1.71917461,28.5290056 0.900007881,27.7488468 0.900007881,26.526598 C0.900007881,25.6944287 1.26408198,25.0703016 1.87520637,24.6932249 C2.08324871,24.5501958 2.3042937,24.4461746 2.51233605,24.3811614 C2.95442603,24.2251296 3.51353983,24.1211084 4.44973037,23.9780793 C5.78900296,23.8090449 6.32211147,23.6270079 6.32211147,23.0158835 C6.32211147,22.3917564 5.91902943,22.0016771 4.74879124,22.0016771 C3.51353983,22.0016771 2.95442603,22.5347856 2.90241544,23.4969814 L1.14705816,23.4969814 C1.26408198,21.7936347 2.51233605,20.6754071 4.65777272,20.6754071 C5.47693944,20.6754071 6.10106648,20.7794283 6.59516704,21.0004733 C7.57036553,21.416558 7.96044492,22.2097194 7.96044492,23.2889391 L7.96044492,28.3339659 L6.5821644,28.3339659 L6.40012735,26.8386615 Z M3.92962451,27.2157383 C4.42372508,27.2157383 4.83980977,27.0987145 5.20388387,26.8776695 C5.93203207,26.4225769 6.33511411,25.6684234 6.33511411,24.9532778 L6.33511411,24.5501958 C6.0230506,24.7712408 5.50294474,24.9272725 4.82680712,25.0312937 C3.91662187,25.1743228 3.55254776,25.278344 3.20147631,25.499389 C2.90241544,25.6944287 2.75938633,25.9544816 2.75938633,26.2795477 C2.75938633,26.9036748 3.14946572,27.2157383 3.92962451,27.2157383 Z M13.8875448,28.3339659 L12.925349,28.3339659 C12.2232061,28.3339659 11.6770949,28.2299447 11.3130208,28.0609103 C10.5588673,27.6838336 10.3248197,26.8646668 10.3248197,25.3433572 L10.3248197,22.3657512 L8.86852327,22.3657512 L8.86852327,20.9224574 L9.53165824,20.9224574 C9.77870852,20.9224574 9.94774293,20.8964521 10.0647667,20.8444415 C10.311817,20.7274177 10.3898329,20.4413595 10.4288408,19.8302351 C10.4418435,19.5051689 10.4548461,19.0630789 10.4548461,18.842034 L11.9111425,18.842034 L11.9111425,20.8574442 L13.8875448,20.8574442 L13.8875448,22.3657512 L11.9111425,22.3657512 L11.9111425,25.057299 C11.9111425,25.5513995 11.9501505,25.9154736 12.0151637,26.1625239 C12.1321875,26.6566245 12.5222669,26.747643 13.3544363,26.747643 L13.8875448,26.747643 L13.8875448,28.3339659 Z M22.6341121,28.5290056 C21.6979215,28.5290056 20.9567707,28.3989791 20.3846542,28.1259235 C19.253424,27.6058177 18.7853287,26.5916113 18.7333181,25.1223122 L20.5536886,25.1223122 C20.5926966,26.4095742 21.2168236,27.0337012 22.6601174,27.0337012 C23.8953688,27.0337012 24.4544826,26.4225769 24.4544826,25.6684234 C24.4544826,25.3433572 24.3504614,25.0703016 24.1294164,24.9012672 C23.6743238,24.5501958 22.9201703,24.394164 22.1010036,24.2381322 C21.3728554,24.0821005 20.6317045,23.9000634 20.0335828,23.5359893 C19.435461,23.1589126 19.0583843,22.5607909 19.0583843,21.5465844 C19.0583843,21.0784892 19.1884108,20.6363992 19.4094557,20.2333171 C19.9035563,19.427153 20.8657522,18.8940445 22.3610565,18.8940445 C24.8185567,18.8940445 25.8977763,20.0252748 25.9627896,21.8846532 L24.1944297,21.8846532 C24.1294164,20.8184362 23.6223132,20.3243357 22.3350512,20.3243357 C21.203821,20.3243357 20.7747336,20.8704468 20.7747336,21.5205791 C20.7747336,21.8326426 20.8787548,22.0796929 21.0867971,22.2357247 C21.5288871,22.5607909 22.2440327,22.70382 23.0501968,22.8728544 C23.8173529,23.0288861 24.5715064,23.2239258 25.1696281,23.6010026 C25.7677499,23.9780793 26.1578293,24.6022063 26.1578293,25.6294154 C26.1578293,26.1495213 26.0278028,26.6306192 25.7677499,27.0857118 C25.2216387,27.9568891 24.181427,28.5290056 22.6341121,28.5290056 Z M31.9419001,28.3339659 L30.9797042,28.3339659 C30.2775613,28.3339659 29.7314501,28.2299447 29.367376,28.0609103 C28.6132226,27.6838336 28.3791749,26.8646668 28.3791749,25.3433572 L28.3791749,22.3657512 L26.9228785,22.3657512 L26.9228785,20.9224574 L27.5860135,20.9224574 C27.8330638,20.9224574 28.0020982,20.8964521 28.119122,20.8444415 C28.3661723,20.7274177 28.4441881,20.4413595 28.4831961,19.8302351 C28.4961987,19.5051689 28.5092014,19.0630789 28.5092014,18.842034 L29.9654978,18.842034 L29.9654978,20.8574442 L31.9419001,20.8574442 L31.9419001,22.3657512 L29.9654978,22.3657512 L29.9654978,25.057299 C29.9654978,25.5513995 30.0045057,25.9154736 30.069519,26.1625239 C30.1865428,26.6566245 30.5766222,26.747643 31.4087915,26.747643 L31.9419001,26.747643 L31.9419001,28.3339659 Z M38.4021084,26.8386615 C37.8950052,27.81386 36.8938015,28.5290056 35.3464865,28.5290056 C33.7211557,28.5290056 32.901989,27.7488468 32.901989,26.526598 C32.901989,25.6944287 33.2660631,25.0703016 33.8771875,24.6932249 C34.0852298,24.5501958 34.3062748,24.4461746 34.5143171,24.3811614 C34.9564071,24.2251296 35.5155209,24.1211084 36.4517115,23.9780793 C37.7909841,23.8090449 38.3240926,23.6270079 38.3240926,23.0158835 C38.3240926,22.3917564 37.9210105,22.0016771 36.7507723,22.0016771 C35.5155209,22.0016771 34.9564071,22.5347856 34.9043965,23.4969814 L33.1490393,23.4969814 C33.2660631,21.7936347 34.5143171,20.6754071 36.6597538,20.6754071 C37.4789205,20.6754071 38.1030476,20.7794283 38.5971481,21.0004733 C39.5723466,21.416558 39.962426,22.2097194 39.962426,23.2889391 L39.962426,28.3339659 L38.5841455,28.3339659 L38.4021084,26.8386615 Z M35.9316056,27.2157383 C36.4257062,27.2157383 36.8417909,27.0987145 37.205865,26.8776695 C37.9340132,26.4225769 38.3370952,25.6684234 38.3370952,24.9532778 L38.3370952,24.5501958 C38.0250317,24.7712408 37.5049258,24.9272725 36.8287882,25.0312937 C35.918603,25.1743228 35.5545289,25.278344 35.2034574,25.499389 C34.9043965,25.6944287 34.7613674,25.9544816 34.7613674,26.2795477 C34.7613674,26.9036748 35.1514468,27.2157383 35.9316056,27.2157383 Z M43.3800151,28.3339659 L41.6636658,28.3339659 L41.6636658,20.8574442 L43.1069596,20.8574442 L43.2629913,22.3527485 C43.6660734,21.3255394 44.5112454,20.6754071 45.7985074,20.6754071 C47.6058752,20.6754071 48.5680711,21.8716506 48.5680711,23.731029 L48.5680711,28.3339659 L46.8517218,28.3339659 L46.8517218,24.1471137 C46.8517218,22.924865 46.4616424,22.1577088 45.2393936,22.1577088 C43.9651342,22.1577088 43.3800151,23.0418888 43.3800151,24.4331719 L43.3800151,28.3339659 Z M52.362737,22.3397459 L52.3497343,28.3339659 L50.7244035,28.3339659 L50.7244035,22.3397459 L49.4111362,22.3397459 L49.4111362,20.8574442 L50.7244035,20.8574442 L50.7244035,20.5583833 C50.7244035,18.6469943 51.4655543,17.9318487 53.2469169,17.9318487 L54.1310969,17.9318487 L54.1310969,19.3361345 L53.4809646,19.3361345 C53.168901,19.3361345 52.9218508,19.3751425 52.765819,19.4401557 C52.4407528,19.5831848 52.362737,19.9472589 52.362737,20.7664256 L52.362737,20.8574442 L54.1180942,20.8574442 L54.1180942,22.3397459 L52.362737,22.3397459 Z M58.432866,28.5290056 C56.0143737,28.5290056 54.6620985,27.189733 54.6620985,24.7452355 L54.6620985,24.5501958 C54.6620985,23.7180264 54.8311329,23.0028808 55.156199,22.4307644 C55.8063314,21.2865315 56.9635669,20.6754071 58.432866,20.6754071 C59.1870194,20.6754071 59.8241491,20.8184362 60.3832629,21.1304997 C61.5274958,21.7416241 62.2036334,22.8988597 62.2036334,24.5501958 L62.2036334,24.7452355 C62.2036334,25.5644022 62.0476017,26.2405398 61.7355382,26.7996536 C61.0854058,27.9308838 59.9541756,28.5290056 58.432866,28.5290056 Z M58.432866,27.0337012 C59.720128,27.0337012 60.4742815,26.2015319 60.4742815,24.7192302 L60.4742815,24.5501958 C60.4742815,23.0158835 59.68112,22.1317035 58.4458686,22.1317035 C57.2236198,22.1317035 56.4044531,22.9638729 56.4044531,24.5501958 L56.4044531,24.7192302 C56.4044531,26.2015319 57.1586066,27.0337012 58.432866,27.0337012 Z M63.6318176,28.3339659 L63.6318176,20.8574442 L65.0100982,20.8574442 L65.2311432,22.6128014 C65.530204,21.37755 66.2973602,20.7924309 67.7146486,20.7924309 L68.2217518,20.7924309 L68.2217518,22.5217829 L67.480601,22.5217829 C66.8824793,22.5217829 66.4403893,22.5997988 66.1283258,22.7558305 C65.5041987,23.0548914 65.309159,23.7050237 65.309159,24.8752619 L65.309159,28.3339659 L63.6318176,28.3339659 Z M74.6559549,26.7736483 C74.2528729,27.7878547 73.4077009,28.4899976 72.0684283,28.4899976 C70.1570393,28.4899976 68.8957826,27.1507251 68.8957826,24.6282116 L68.8957826,24.4461746 C68.8957826,23.6270079 69.0388117,22.9378676 69.3118672,22.3787538 C69.8579784,21.2605262 70.8461795,20.6884098 72.1204389,20.6884098 C73.3556903,20.6884098 74.174857,21.2215183 74.6039444,22.1447062 L74.6039444,18.3219281 L76.2552805,18.3219281 L76.2552805,28.3339659 L74.837992,28.3339659 L74.6559549,26.7736483 Z M72.5885342,27.0206986 C73.8627935,27.0206986 74.6429523,26.0975107 74.6429523,24.615209 L74.6429523,24.4851825 C74.6429523,23.0418888 73.8887988,22.1056982 72.6535474,22.1056982 C71.3662854,22.1056982 70.6511398,22.9768755 70.6511398,24.4721799 L70.6511398,24.615209 C70.6511398,26.2145345 71.4573039,27.0206986 72.5885342,27.0206986 Z M85.7950092,28.5290056 C83.3245063,28.5290056 82.1672708,27.2287409 82.1672708,24.3161481 L82.1672708,19.0630789 L83.9356307,19.0630789 L83.9356307,24.2511349 C83.9356307,26.0975107 84.4817419,26.8776695 85.8080118,26.8776695 C87.1342818,26.8776695 87.6283823,26.1105133 87.6283823,24.2511349 L87.6283823,19.0630789 L89.4097449,19.0630789 L89.4097449,24.3161481 C89.4097449,27.2287409 88.1614908,28.5290056 85.7950092,28.5290056 Z M92.7623208,28.3339659 L91.0459714,28.3339659 L91.0459714,20.8574442 L92.4892652,20.8574442 L92.645297,22.3527485 C93.048379,21.3255394 93.893551,20.6754071 95.180813,20.6754071 C96.9881809,20.6754071 97.9503767,21.8716506 97.9503767,23.731029 L97.9503767,28.3339659 L96.2340274,28.3339659 L96.2340274,24.1471137 C96.2340274,22.924865 95.843948,22.1577088 94.6216992,22.1577088 C93.3474399,22.1577088 92.7623208,23.0418888 92.7623208,24.4331719 L92.7623208,28.3339659 Z M100.483786,20.0512801 C99.6646191,20.0512801 99.3525556,19.7782245 99.3525556,18.9200498 C99.3525556,18.0878805 99.7296324,17.8018222 100.483786,17.8018222 C101.237939,17.8018222 101.615016,18.0878805 101.615016,18.9200498 C101.615016,19.7262139 101.250942,20.0512801 100.483786,20.0512801 Z M99.5996059,28.3339659 L99.5996059,20.8574442 L101.328958,20.8574442 L101.328958,28.3339659 L99.5996059,28.3339659 Z M105.25365,28.3339659 L102.315052,20.8574442 L104.096415,20.8574442 L106.033809,26.2145345 L108.049219,20.8574442 L109.843584,20.8574442 L106.77496,28.3339659 L105.25365,28.3339659 Z M117.513039,26.123516 C117.083952,27.6448256 115.874705,28.5290056 113.911306,28.5290056 C111.388792,28.5290056 110.153541,27.0727092 110.153541,24.7582381 L110.153541,24.5762011 C110.153541,23.770037 110.309573,23.106902 110.621636,22.5087803 C111.245763,21.3385421 112.389996,20.6754071 113.963316,20.6754071 C115.250578,20.6754071 116.160764,21.1174971 116.758885,21.8326426 C117.357007,22.5477882 117.61706,23.4709761 117.61706,24.4331719 L117.61706,25.2263334 L111.843885,25.2263334 C111.986914,26.4485821 112.741068,27.1247198 113.976319,27.1247198 C114.886504,27.1247198 115.419613,26.7736483 115.679666,26.123516 L117.513039,26.123516 Z M113.976319,22.0276823 C112.793078,22.0276823 112.051927,22.70382 111.856888,23.8870608 L115.913713,23.8870608 C115.79669,22.7428279 115.172563,22.0276823 113.976319,22.0276823 Z M119.006236,28.3339659 L119.006236,20.8574442 L120.384517,20.8574442 L120.605562,22.6128014 C120.904623,21.37755 121.671779,20.7924309 123.089067,20.7924309 L123.596171,20.7924309 L123.596171,22.5217829 L122.85502,22.5217829 C122.256898,22.5217829 121.814808,22.5997988 121.502745,22.7558305 C120.878617,23.0548914 120.683578,23.7050237 120.683578,24.8752619 L120.683578,28.3339659 L119.006236,28.3339659 Z M127.858932,28.5290056 C125.557463,28.5290056 124.439236,27.6058177 124.218191,25.8634631 L126.064567,25.8634631 C126.220598,26.747643 126.831723,27.0987145 127.89794,27.0987145 C128.990162,27.0987145 129.419249,26.7346404 129.419249,26.1365186 C129.419249,25.9154736 129.328231,25.7334366 129.133191,25.6164128 C128.756114,25.3953678 128.105982,25.3043493 127.390836,25.2003281 C126.714699,25.0963069 126.025559,24.9792831 125.466445,24.6802222 C124.907331,24.3811614 124.55626,23.8740581 124.55626,23.0418888 C124.55626,21.6636082 125.583469,20.6754071 127.637887,20.6754071 C129.783323,20.6754071 130.758522,21.598595 130.966564,23.0938994 L129.22421,23.0938994 C129.107186,22.3657512 128.613085,22.040685 127.624884,22.040685 C126.558667,22.040685 126.233601,22.4177617 126.233601,22.9378676 C126.233601,23.1589126 126.324619,23.3409496 126.519659,23.4579735 C126.896736,23.6790184 127.559871,23.770037 128.275016,23.8740581 C128.951154,23.9780793 129.640294,24.0951031 130.199408,24.394164 C130.758522,24.6932249 131.109593,25.2003281 131.109593,26.0324975 C131.109593,27.4757912 130.069382,28.5290056 127.858932,28.5290056 Z M133.330939,20.0512801 C132.511772,20.0512801 132.199709,19.7782245 132.199709,18.9200498 C132.199709,18.0878805 132.576786,17.8018222 133.330939,17.8018222 C134.085092,17.8018222 134.462169,18.0878805 134.462169,18.9200498 C134.462169,19.7262139 134.098095,20.0512801 133.330939,20.0512801 Z M132.446759,28.3339659 L132.446759,20.8574442 L134.176111,20.8574442 L134.176111,28.3339659 L132.446759,28.3339659 Z M140.428277,28.3339659 L139.466081,28.3339659 C138.763938,28.3339659 138.217827,28.2299447 137.853753,28.0609103 C137.0996,27.6838336 136.865552,26.8646668 136.865552,25.3433572 L136.865552,22.3657512 L135.409256,22.3657512 L135.409256,20.9224574 L136.07239,20.9224574 C136.319441,20.9224574 136.488475,20.8964521 136.605499,20.8444415 C136.852549,20.7274177 136.930565,20.4413595 136.969573,19.8302351 C136.982576,19.5051689 136.995578,19.0630789 136.995578,18.842034 L138.451875,18.842034 L138.451875,20.8574442 L140.428277,20.8574442 L140.428277,22.3657512 L138.451875,22.3657512 L138.451875,25.057299 C138.451875,25.5513995 138.490883,25.9154736 138.555896,26.1625239 C138.67292,26.6566245 139.062999,26.747643 139.895169,26.747643 L140.428277,26.747643 L140.428277,28.3339659 Z M141.518392,31.1295349 L141.518392,29.6472332 L142.38957,29.6472332 C142.714636,29.6472332 142.987692,29.6082252 143.182731,29.5562147 C143.585813,29.4391908 143.806858,29.14013 144.105919,28.4899976 L144.248948,28.1389262 L141.154318,20.8574442 L142.974689,20.8574442 L145.003102,25.9154736 L145.068115,26.2535425 L145.159133,25.9284763 L147.135536,20.8574442 L148.929901,20.8574442 L145.653234,28.7630532 C145.224147,29.8032649 144.886078,30.4013867 144.443988,30.7264528 C143.988895,31.051519 143.390774,31.1295349 142.376567,31.1295349 L141.518392,31.1295349 Z" id="TheEducationalOpportunityProjectatStanfordUniversity"></path>
                </g>
                <g id="Scatter" transform="translate(0.744699, 4.130435)"></g>
                <path d="M-11,16.654076 L12.8576193,16.6662897" id="Line-Copy" stroke="#FFFFFF" stroke-width="1.5552" stroke-linecap="round" stroke-linejoin="round" transform="translate(0.928810, 16.660183) rotate(-90.000000) translate(-0.928810, -16.660183) "></path>
                <path d="M0.924902901,28.3906688 L23.6483422,28.8411024" id="Line-Copy-2" stroke="#FFFFFF" stroke-width="1.5552" stroke-linecap="round" stroke-linejoin="round" transform="translate(12.286623, 28.615886) rotate(-361.000000) translate(-12.286623, -28.615886) "></path>
                <path d="M10.5901274,18.5534652 C10.6628655,19.4220949 10.0388333,20.1886596 9.19631253,20.2656353 C8.35379176,20.3426111 7.61182786,19.7008487 7.53908979,18.832219 C7.46635171,17.9635892 8.09038388,17.1970246 8.93290465,17.1200488 C9.77542543,17.0430731 10.5173893,17.6848355 10.5901274,18.5534652 Z M7.8918886,24.080177 C7.91243103,24.3199883 7.74272199,24.5310412 7.51283284,24.5515769 C7.28294369,24.5721126 7.07992878,24.3943547 7.05938635,24.1545435 C7.03884391,23.9147323 7.20855296,23.7036794 7.4384421,23.6831436 C7.66833125,23.6626079 7.87134616,23.8403658 7.8918886,24.080177 Z M3.78541327,22.24081 C3.8059557,22.4806212 3.63624666,22.6916741 3.40635751,22.7122098 C3.17646836,22.7327456 2.97345345,22.5549876 2.95291102,22.3151764 C2.93236858,22.0753652 3.10207762,21.8643123 3.33196677,21.8437766 C3.56185592,21.8232408 3.76487083,22.0009988 3.78541327,22.24081 Z M10.3446226,22.5683067 C10.3997522,23.2263531 9.92714777,23.8070461 9.28903108,23.8653208 C8.65091439,23.9235955 8.08892722,23.4373845 8.03379762,22.7793381 C7.97866801,22.1212917 8.45127242,21.5405987 9.08938911,21.482324 C9.7275058,21.4240493 10.289493,21.9102603 10.3446226,22.5683067 Z M4.32500015,17.1452824 C4.33869511,17.3051565 4.22555575,17.4458584 4.07229632,17.4595489 C3.91903688,17.4732394 3.78369361,17.3547341 3.76999865,17.19486 C3.7563037,17.0349858 3.86944306,16.8942839 4.02270249,16.8805934 C4.17596192,16.8669029 4.3113052,16.9854082 4.32500015,17.1452824 Z M11.9568428,20.7295746 C11.9910802,21.12926 11.7082317,21.4810148 11.3250832,21.515241 C10.9419346,21.5494672 10.6035764,21.253204 10.569339,20.8535187 C10.5351016,20.4538333 10.81795,20.1020785 11.2010986,20.0678522 C11.5842472,20.033626 11.9226054,20.3298892 11.9568428,20.7295746 Z M11.265543,11.1558064 C11.2860854,11.3956176 11.1163764,11.6066705 10.8864872,11.6272063 C10.6565981,11.647742 10.4535832,11.4699841 10.4330407,11.2301729 C10.4124983,10.9903616 10.5822073,10.7793087 10.8120965,10.758773 C11.0419856,10.7382373 11.2450006,10.9159952 11.265543,11.1558064 Z M22.0607185,7.01873351 C22.0744134,7.17860766 21.9612741,7.31930959 21.8080147,7.33300008 C21.6547552,7.34669056 21.5194119,7.22818528 21.505717,7.06831113 C21.492022,6.90843699 21.6051614,6.76773505 21.7584208,6.75404457 C21.9116803,6.74035408 22.0470235,6.85885936 22.0607185,7.01873351 Z M9.83174306,13.9029647 C9.84543801,14.0628389 9.73229865,14.2035408 9.57903922,14.2172313 C9.42577979,14.2309218 9.29043651,14.1124165 9.27674156,13.9525423 C9.2630466,13.7926682 9.37618596,13.6519663 9.52944539,13.6382758 C9.68270483,13.6245853 9.8180481,13.7430906 9.83174306,13.9029647 Z M8.63677277,13.299009 C8.65731521,13.5388202 8.48760616,13.7498731 8.25771701,13.7704089 C8.02782787,13.7909446 7.82481296,13.6131867 7.80427052,13.3733755 C7.78372808,13.1335642 7.95343713,12.9225113 8.18332628,12.9019756 C8.41321542,12.8814399 8.61623034,13.0591978 8.63677277,13.299009 Z M15.108992,14.5090296 C15.1759818,15.3087818 14.6015405,16.0145376 13.8259415,16.0853794 C13.0503424,16.1562212 12.3672892,15.5653226 12.3002994,14.7655704 C12.2333096,13.9658182 12.8077509,13.2600623 13.58335,13.1892205 C14.358949,13.1183788 15.0420022,13.7092774 15.108992,14.5090296 Z M8.08351359,20.7461278 C8.13597862,21.3615725 7.69901141,21.9035373 7.10752,21.95664 C6.5160286,22.0097427 5.99399876,21.5538744 5.94153374,20.9384297 C5.88906871,20.322985 6.32603593,19.7810202 6.91752733,19.7279175 C7.50901874,19.6748148 8.03104857,20.1306831 8.08351359,20.7461278 Z M5.19300312,25.8548751 C5.21354556,26.0946863 5.04383651,26.3057392 4.81394736,26.3262749 C4.58405822,26.3468106 4.38104331,26.1690527 4.36050087,25.9292415 C4.33995844,25.6894303 4.50966748,25.4783774 4.73955663,25.4578416 C4.96944577,25.4373059 5.17246069,25.6150638 5.19300312,25.8548751 Z M16.5200789,13.8770595 C16.5406213,14.1168707 16.3709123,14.3279236 16.1410231,14.3484593 C15.911134,14.3689951 15.7081191,14.1912372 15.6875766,13.9514259 C15.6670342,13.7116147 15.8367433,13.5005618 16.0666324,13.4800261 C16.2965216,13.4594904 16.4995365,13.6372483 16.5200789,13.8770595 Z M11.6516474,22.6579773 C11.6653424,22.8178515 11.552203,22.9585534 11.3989436,22.9722439 C11.2456841,22.9859344 11.1103409,22.8674291 11.0966459,22.7075549 C11.0829509,22.5476808 11.1960903,22.4069788 11.3493497,22.3932884 C11.5026092,22.3795979 11.6379524,22.4981032 11.6516474,22.6579773 Z M9.94844597,25.5001317 C9.96214093,25.6600059 9.84900157,25.8007078 9.69574214,25.8143983 C9.5424827,25.8280888 9.40713943,25.7095835 9.39344447,25.5497093 C9.37974952,25.3898352 9.49288888,25.2491333 9.64614831,25.2354428 C9.79940774,25.2217523 9.93475102,25.3402576 9.94844597,25.5001317 Z M19.9304343,12.1127742 C19.9441292,12.2726483 19.8309899,12.4133503 19.6777304,12.4270407 C19.524471,12.4407312 19.3891277,12.322226 19.3754328,12.1623518 C19.3617378,12.0024777 19.4748772,11.8617757 19.6281366,11.8480852 C19.781396,11.8343948 19.9167393,11.9529 19.9304343,12.1127742 Z M13.8283897,10.5866316 C13.8630333,10.9910585 13.5768294,11.3469862 13.1891355,11.3816185 C12.8014415,11.4162507 12.4590694,11.1164729 12.4244258,10.712046 C12.3897823,10.3076191 12.6759861,9.95169137 13.0636801,9.91705913 C13.451374,9.8824269 13.7937461,10.1822047 13.8283897,10.5866316 Z M12.1527858,13.6353381 C12.1874293,14.039765 11.9012255,14.3956928 11.5135315,14.430325 C11.1258376,14.4649573 10.7834655,14.1651795 10.7488219,13.7607526 C10.7141783,13.3563257 11.0003822,13.0003979 11.3880761,12.9657657 C11.7757701,12.9311335 12.1181422,13.2309113 12.1527858,13.6353381 Z M15.2795833,22.2798754 C15.3001258,22.5196866 15.1304167,22.7307395 14.9005276,22.7512752 C14.6706384,22.771811 14.4676235,22.594053 14.4470811,22.3542418 C14.4265386,22.1144306 14.5962477,21.9033777 14.8261368,21.882842 C15.056026,21.8623062 15.2590409,22.0400642 15.2795833,22.2798754 Z M20.3766267,6.65658268 C20.4108641,7.05626806 20.1280157,7.40802289 19.7448672,7.4422491 C19.3617186,7.47647531 19.0233604,7.18021212 18.989123,6.78052675 C18.9548856,6.38084138 19.237734,6.02908654 19.6208826,5.99486033 C20.0040312,5.96063412 20.3423894,6.25689731 20.3766267,6.65658268 Z M16.4651127,7.55581131 C16.4856551,7.79562253 16.3159461,8.00667543 16.0860569,8.02721116 C15.8561678,8.04774688 15.6531529,7.86998897 15.6326104,7.63017774 C15.612068,7.39036652 15.781777,7.17931362 16.0116662,7.15877789 C16.2415553,7.13824217 16.4445702,7.31600008 16.4651127,7.55581131 Z M13.4729353,17.7456059 C13.5277151,18.3851025 13.0751577,18.9479102 12.46212,19.0026721 C11.8490822,19.0574341 11.3077091,18.583413 11.2529293,17.9439164 C11.1981495,17.3044198 11.6507069,16.741612 12.2637447,16.6868501 C12.8767824,16.6320882 13.4181555,17.1061093 13.4729353,17.7456059 Z M18.1819535,14.4613542 C18.2161909,14.8610396 17.9333425,15.2127944 17.5501939,15.2470206 C17.1670453,15.2812468 16.8286872,14.9849836 16.7944498,14.5852982 C16.7602124,14.1856129 17.0430608,13.833858 17.4262094,13.7996318 C17.8093579,13.7654056 18.1477161,14.0616688 18.1819535,14.4613542 Z M15.5978176,19.4798959 C15.6389024,19.9595184 15.2994844,20.3816242 14.8397061,20.4226956 C14.3799278,20.4637671 13.9738979,20.1082513 13.9328131,19.6286288 C13.8917282,19.1490064 14.2311463,18.7269006 14.6909246,18.6858291 C15.1507029,18.6447577 15.5567327,19.0002735 15.5978176,19.4798959 Z M7.03487713,18.0535421 C7.07497139,18.5321213 6.73125909,18.9544435 6.26717422,18.9968251 C5.80308936,19.0392067 5.39437142,18.6855987 5.35427716,18.2070195 C5.3141829,17.7284403 5.6578952,17.3061181 6.12198007,17.2637365 C6.58606493,17.2213549 6.99478287,17.5749629 7.03487713,18.0535421 Z M6.74092113,23.0341289 C6.78602431,23.5725308 6.39934548,24.0476411 5.87724978,24.0953175 C5.35515408,24.1429939 4.89534853,23.7451824 4.85024535,23.2067805 C4.80514217,22.6683786 5.191821,22.1932683 5.71391671,22.1455919 C6.23601241,22.0979154 6.69581795,22.495727 6.74092113,23.0341289 Z M8.09110779,16.3636114 C8.10480275,16.5234855 7.99166339,16.6641874 7.83840396,16.6778779 C7.68514452,16.6915684 7.54980125,16.5730631 7.53610629,16.413189 C7.52241134,16.2533148 7.6355507,16.1126129 7.78881013,16.0989224 C7.94206956,16.0852319 8.07741284,16.2037372 8.09110779,16.3636114 Z M4.45278162,19.4464929 C4.47332406,19.6863042 4.30361502,19.8973571 4.07372587,19.9178928 C3.84383672,19.9384285 3.64082181,19.7606706 3.62027937,19.5208594 C3.59973694,19.2810482 3.76944598,19.0699953 3.99933513,19.0494595 C4.22922428,19.0289238 4.43223919,19.2066817 4.45278162,19.4464929 Z M20.0120829,15.7152428 C20.0257778,15.8751169 19.9126385,16.0158188 19.759379,16.0295093 C19.6061196,16.0431998 19.4707763,15.9246945 19.4570814,15.7648204 C19.4433864,15.6049462 19.5565258,15.4642443 19.7097852,15.4505538 C19.8630446,15.4368633 19.9983879,15.5553686 20.0120829,15.7152428 Z M22.7773289,5.26576526 C22.7910238,5.42563941 22.6778845,5.56634135 22.524625,5.58003183 C22.3713656,5.59372231 22.2360223,5.47521704 22.2223274,5.31534289 C22.2086324,5.15546874 22.3217718,5.0147668 22.4750312,5.00107632 C22.6282906,4.98738584 22.7636339,5.10589111 22.7773289,5.26576526 Z M17.4714662,16.5111807 C17.521584,17.1094047 17.0919436,17.6373074 16.5118376,17.6902844 C15.9317315,17.7432614 15.4208341,17.3012514 15.3707162,16.7030274 C15.3205984,16.1048034 15.7502388,15.5769007 16.3303449,15.5239236 C16.9104509,15.4709466 17.4213484,15.9129567 17.4714662,16.5111807 Z M21.4967916,9.62948607 C21.5104865,9.78936021 21.3973472,9.93006215 21.2440877,9.94375263 C21.0908283,9.95744312 20.955485,9.83893784 20.9417901,9.67906369 C20.9280951,9.51918954 21.0412345,9.37848761 21.1944939,9.36479712 C21.3477533,9.35110664 21.4830966,9.46961192 21.4967916,9.62948607 Z M11.47512,15.6189664 C11.5162049,16.0985889 11.1767868,16.5206947 10.7170085,16.5617661 C10.2572302,16.6028376 9.85120035,16.2473217 9.81011548,15.7676993 C9.76903061,15.2880768 10.1084487,14.865971 10.568227,14.8248996 C11.0280053,14.7838281 11.4340351,15.139344 11.47512,15.6189664 Z M15.7092042,12.0866914 C15.7434416,12.4863767 15.4605932,12.8381316 15.0774446,12.8723578 C14.6942961,12.906584 14.3559379,12.6103208 14.3217005,12.2106354 C14.2874631,11.81095 14.5703115,11.4591952 14.9534601,11.424969 C15.3366086,11.3907428 15.6749668,11.687006 15.7092042,12.0866914 Z M17.1457336,9.20946791 C17.179971,9.60915329 16.8971226,9.96090812 16.513974,9.99513433 C16.1308254,10.0293605 15.7924672,9.73309735 15.7582298,9.33341198 C15.7239924,8.93372661 16.0068408,8.58197177 16.3899894,8.54774556 C16.773138,8.51351935 17.1114962,8.80978254 17.1457336,9.20946791 Z M18.3016942,11.2692291 C18.3480834,11.8127541 17.9624891,12.2913155 17.4404453,12.3381261 C16.9184015,12.3849366 16.4575955,11.98227 16.4112064,11.4387451 C16.3648172,10.8952201 16.7504115,10.4166587 17.2724553,10.3698481 C17.7944991,10.3230376 18.2553051,10.7257042 18.3016942,11.2692291 Z M19.8777101,9.89987381 C19.9119475,10.2995592 19.6290991,10.651314 19.2459505,10.6855402 C18.8628019,10.7197664 18.5244438,10.4235032 18.4902064,10.0238179 C18.455969,9.62413251 18.7388174,9.27237767 19.121966,9.23815146 C19.5051145,9.20392525 19.8434727,9.50018844 19.8777101,9.89987381 Z" id="Combined-Shape" fill="#FFFFFF" transform="translate(12.864839, 15.663945) rotate(-4.000000) translate(-12.864839, -15.663945) "></path>
            </g>
        </g>
    </g>
</svg>