<?xml version="1.0" encoding="UTF-8"?>
<svg width="116px" height="118px" viewBox="0 0 116 118" version="1.1" xmlns="http://www.w3.org/2000/svg" xmlns:xlink="http://www.w3.org/1999/xlink">
    <!-- Generator: Sketch 53.2 (72643) - https://sketchapp.com -->
    <title>icon glass copy 2</title>
    <desc>Created with Sketch.</desc>
    <defs>
        <ellipse id="path-1" cx="44.25" cy="44.2647817" rx="44.25" ry="44.2647817"></ellipse>
        <linearGradient x1="41.9511889%" y1="38.3611103%" x2="58.727536%" y2="85.9220866%" id="linearGradient-3">
            <stop stop-color="#519DD4" offset="0%"></stop>
            <stop stop-color="#DCF0FF" offset="100%"></stop>
        </linearGradient>
        <linearGradient x1="52.7856864%" y1="50%" x2="52.7856864%" y2="93.8393319%" id="linearGradient-4">
            <stop stop-color="#68C5D0" offset="0%"></stop>
            <stop stop-color="#DCF0FF" offset="100%"></stop>
        </linearGradient>
        <linearGradient x1="41.9330997%" y1="50%" x2="52.7856864%" y2="80.2106916%" id="linearGradient-5">
            <stop stop-color="#E5F8C1" offset="0%"></stop>
            <stop stop-color="#DCF0FF" offset="100%"></stop>
        </linearGradient>
    </defs>
    <g id="Page-1" stroke="none" stroke-width="1" fill="none" fill-rule="evenodd">
        <g id="About-320-V1" transform="translate(-103.000000, -1440.000000)">
            <g id="icon-glass-copy-2" transform="translate(101.000000, 1440.000000)">
                <g id="Group-14" transform="translate(29.500000, 0.000000)">
                    <g id="Group">
                        <mask id="mask-2" fill="white">
                            <use xlink:href="#path-1"></use>
                        </mask>
                        <use id="Oval" fill="#0A0849" xlink:href="#path-1"></use>
                        <g id="Group-2-Copy-3" opacity="0.904668899" mask="url(#mask-2)">
                            <g transform="translate(-12.231707, -5.038268)">
                                <path d="M47.7006591,4.68958206e-13 C41.3764955,17.2654469 20.7872095,27.2308928 4.12114787e-13,31.0123248 C8.39605158,43.8814186 25.0145443,64.1021416 39.5731707,79.0361879 C40.2657514,79.7466875 41.0121951,80.475693 43.8902439,82.1095848 C46.7682927,83.7434766 51.804878,84.9308007 59.7195122,83.7434766 C67.6341463,82.5561525 77.7073171,77.6485984 88.4422638,68.7002077 C99.1772105,59.751817 98.9686901,58.3767089 99.3612001,57.9449389 C99.7537101,57.5131689 81.2190592,40.8257019 47.7006591,4.68958206e-13 Z" id="-copy" fill="url(#linearGradient-3)"></path>
                                <path d="M52.7107581,73.6409626 C52.943342,78.6981914 43.8706326,83.3292395 38.6869955,78.3622016 C44.2458687,83.5846568 49.1901676,84.3552756 53.2911859,84.3424891 C57.1793343,84.3302856 72.6707317,84.9885949 96.4146341,61.8987191 C97.6693981,60.6785177 98.1997102,59.2549645 99.3863186,57.8784398 C98.2304401,59.1126041 97.5386546,60.0498591 96.4146341,61.1789666 C77.8866213,79.7908323 63.2203836,84.3522964 52.7107581,73.6409626 Z" id="-copy-2" fill="#257DBF" opacity="0.841331845"></path>
                            </g>
                        </g>
                        <g id="Group-2-Copy-4" opacity="0.900948661" mask="url(#mask-2)">
                            <g transform="translate(-5.756098, -20.153071)" opacity="0.932198661">
                                <path d="M47.7006591,4.68958206e-13 C41.3764955,17.2654469 20.7872095,27.2308928 4.12114787e-13,31.0123248 C8.39605158,43.8814186 25.1544442,64.5631226 39.7130707,79.4971689 C40.4056513,80.2076685 43.2111984,81.3204202 43.9490965,81.9042104 C48.4095904,85.4335353 53.1838752,83.4385398 55.6624096,83.4044358 C67.9229642,79.6410177 78.5350391,77.8091772 88.4422638,68.7002077 C98.3494885,59.5912382 109.809534,41.4192784 110.202044,40.9875084 C110.594554,40.5557384 81.2190592,40.8257019 47.7006591,4.68958206e-13 Z" id="-copy" fill="url(#linearGradient-4)"></path>
                                <path d="M52.7107581,73.6409626 C52.943342,78.6981914 43.8706326,83.3292395 38.6869955,78.3622016 C44.2458687,83.5846568 49.1901676,84.3552756 53.2911859,84.3424891 C57.3923918,84.3296169 76.5449445,84.3755686 99.3863186,57.8784398 C79.1772885,79.4561949 63.8579606,85.0021102 52.7107581,73.6409626 Z" id="-copy-2" fill="#1392A5"></path>
                            </g>
                        </g>
                        <g id="Group-2-Copy-5" opacity="0.895321801" mask="url(#mask-2)">
                            <g transform="translate(-0.719512, -34.548122)" opacity="0.932198661">
                                <path d="M47.7006591,4.68958206e-13 C41.3764955,17.2654469 20.7872095,27.2308928 4.12114787e-13,31.0123248 C8.39605158,43.8814186 25.1544442,64.5631226 39.7130707,79.4971689 C40.4056513,80.2076685 43.2111984,81.3204202 43.9490965,81.9042104 C48.4095904,85.4335353 53.1838752,83.4385398 55.6624096,83.4044358 C67.9229642,79.6410177 83.298774,74.9087475 93.2059987,65.7997779 C103.113223,56.6908084 100.786462,50.2050579 101.178972,49.7732879 C101.571482,49.3415178 81.2190592,40.8257019 47.7006591,4.68958206e-13 Z" id="-copy" fill="url(#linearGradient-5)"></path>
                                <path d="M52.7107581,73.6409626 C52.943342,78.6981914 43.8706326,83.3292395 38.6869955,78.3622016 C44.2458687,83.5846568 49.1901676,84.3552756 53.2911859,84.3424891 C57.3923918,84.3296169 76.5449445,84.3755686 99.3863186,57.8784398 C79.1772885,79.4561949 63.8579606,85.0021102 52.7107581,73.6409626 Z" id="-copy-2" fill="#819757"></path>
                            </g>
                        </g>
                    </g>
                </g>
                <path d="M3.70562085,89.5395492 L43.9977421,89.6518342 C47.1655754,89.6606622 49.7317277,92.2259186 49.7416621,95.3937485 L49.7503368,98.1599438 C49.7603129,101.341088 47.189573,103.928003 44.0084284,103.937979 C43.9970568,103.938014 43.9856851,103.938016 43.9743134,103.937985 L3.68219216,103.8257 C0.514358914,103.816872 -2.05179345,101.251615 -2.06172777,98.0837855 L-2.07040256,95.3175902 C-2.08037864,92.1364456 0.490361318,89.5495313 3.67150583,89.5395552 C3.68287748,89.5395195 3.6942492,89.5395176 3.70562085,89.5395492 Z" id="Rectangle" fill="#0A0849" transform="translate(23.839967, 96.738767) rotate(-45.000000) translate(-23.839967, -96.738767) "></path>
            </g>
        </g>
    </g>
</svg>