<?xml version="1.0" encoding="UTF-8"?>
<svg width="1423px" height="496px" viewBox="0 0 1423 496" version="1.1" xmlns="http://www.w3.org/2000/svg" xmlns:xlink="http://www.w3.org/1999/xlink">
    <!-- Generator: Sketch 53.2 (72643) - https://sketchapp.com -->
    <title>Combined Shape</title>
    <desc>Created with Sketch.</desc>
    <defs>
        <linearGradient x1="100%" y1="36.5711754%" x2="5.11513787%" y2="59.724666%" id="linearGradient-1">
            <stop stop-color="#5AAED3" offset="0%"></stop>
            <stop stop-color="#365EA8" offset="63.9436262%"></stop>
            <stop stop-color="#2D5194" offset="84.0433406%"></stop>
            <stop stop-color="#031232" offset="100%"></stop>
        </linearGradient>
    </defs>
    <g id="Page-1" stroke="none" stroke-width="1" fill="none" fill-rule="evenodd" opacity="0.16">
        <g id="Homepage-Mockup-1440-V1-1" transform="translate(0.000000, -2560.000000)" fill="url(#linearGradient-1)">
            <g id="map" transform="translate(-4.000000, 2560.000000)">
                <g id="Group-34">
                    <path d="M357.000026,355.490763 C353.380088,352.588924 351.048711,348.146048 351.000754,343.156993 C347.88504,344.580089 344.369398,345.240618 340.713415,344.920761 C339.830581,344.843523 338.965733,344.711408 338.121938,344.52807 C335.428837,349.569532 330.115033,353 324,353 C322.215476,353 320.499187,352.707854 318.89635,352.168779 C318.96482,352.76971 319,353.380747 319,354 C319,354.269368 318.993343,354.537181 318.980186,354.803284 C320.55898,354.28206 322.246551,354 324,354 C331.195656,354 337.281882,358.750032 339.294116,365.285534 C344.729484,367.613544 348.614975,372.865114 348.973,379.062654 C351.007552,378.378292 353.176272,378.006606 355.416604,378.000087 C358.237149,375.510582 361.942167,374 366,374 C367.210693,374 368.389979,374.13447 369.523738,374.389288 C362.071255,371.244304 356.986764,363.860395 357.000026,355.490763 Z M376.535897,330.150928 C377.763394,327.563242 379.664856,325.357398 382.01353,323.760148 C380.272787,322.420785 378.759035,320.81108 377.530145,318.999999 C376.929277,319.000195 376.323299,318.974119 375.713415,318.920761 C367.458077,318.198513 360.775446,312.677745 358.173296,305.347107 C358.110742,305.305655 358.048495,305.263775 357.986561,305.221471 C357.973813,305.575015 357.951947,305.930133 357.920761,306.286585 C357.802464,307.638731 357.555435,308.948686 357.192807,310.20543 C361.201512,314.32946 363.461354,320.107583 362.920761,326.286585 C362.883083,326.717253 362.832345,327.143641 362.768972,327.565393 C364.116684,327.196797 365.53536,327 367,327 C370.573213,327 373.872851,328.171315 376.535897,330.150928 Z M875.018566,243.777635 C872.16028,252.692526 863.432779,258.771095 853.713415,257.920761 C853.479781,257.900321 853.247406,257.876037 853.016348,257.847978 C852.995544,257.850529 852.974732,257.85305 852.953912,257.855538 C851.113571,258.593801 849.104222,259 847,259 C845.482687,259 844.014704,258.788794 842.623847,258.394178 C841.868593,259.617358 840.953217,260.731185 839.906956,261.706421 C842.370676,263.360429 844.349266,265.681207 845.584323,268.410353 C855.674958,270.448818 862.839164,279.789194 861.920761,290.286585 C860.934058,301.56466 850.99149,309.907465 839.713415,308.920761 C828.701851,307.957374 820.48847,298.456392 821.024834,287.510609 C820.160692,286.82069 819.369612,286.04311 818.665064,285.191335 C816.792601,295.488285 807.346577,302.851042 796.713415,301.920761 C789.906943,301.325272 784.169581,297.467801 780.90689,292.02343 C776.74748,296.754468 770.470119,299.511896 763.713415,298.920761 C762.614166,298.824589 761.542803,298.643337 760.505244,298.384061 C758.34465,298.927829 756.057889,299.125876 753.713415,298.920761 C751.136212,298.695285 748.712285,298.002144 746.517936,296.93227 C738.376173,296.184471 732,289.336853 732,281 C732,280.105721 732.073367,279.228577 732.214411,278.37426 C727.868561,275.513676 725,270.591832 725,265 C725,259.615546 727.659739,254.852308 731.737067,251.952437 C730.009118,249.397508 729,246.3166 729,243 C729,242.944132 729.000286,242.888332 729.000858,242.832599 C726.124379,251.717498 717.412791,257.769347 707.713415,256.920761 C706.02812,256.773317 704.408369,256.425892 702.875497,255.903912 C701.840956,258.508315 700.142247,260.776701 697.98844,262.5 C701.652915,265.432011 704,269.94191 704,275 C704,283.836556 696.836556,291 688,291 C679.163444,291 672,283.836556 672,275 C672,269.94191 674.347085,265.432011 678.01156,262.5 C674.347085,259.567989 672,255.05809 672,250 C672,248.797754 672.1326,247.626478 672.383972,246.5 C672.361934,246.401239 672.340808,246.302134 672.320605,246.202693 C671.753958,245.726261 671.214076,245.220076 670.703187,244.686791 C667.559073,253.102253 659.098666,258.741864 649.713415,257.920761 C647.180486,257.699159 644.795612,257.025821 642.631229,255.987074 C639.714366,259.073856 635.58212,261 631,261 C630.916022,261 630.832195,260.999353 630.748524,260.998064 C634.950655,263.328449 637.993259,267.495548 638.792315,272.415336 C639.247816,272.055333 639.718621,271.71448 640.203442,271.393861 C643.122784,267.511123 647.76814,265 653,265 C660.477663,265 666.757232,270.129648 668.511751,277.061987 C671.039074,280.815909 672.345895,285.427284 671.920761,290.286585 C670.934058,301.56466 660.99149,309.907465 649.713415,308.920761 C649.609621,308.91168 649.506076,308.901841 649.402784,308.891249 C651.651443,311.64689 653,315.165959 653,319 C653,319.354024 652.988502,319.705362 652.965859,320.053662 C653.072643,320.061351 653.179554,320.069875 653.286585,320.079239 C664.56466,321.065942 672.907465,331.00851 671.920761,342.286585 C671.064521,352.073461 663.464154,359.64996 654.099355,360.837624 C657.472656,363.174053 659.904377,366.773874 660.710169,370.952735 C663.757793,374.888067 665.388781,379.937091 664.920761,385.286585 C663.934058,396.56466 653.99149,404.907465 642.713415,403.920761 C631.43534,402.934058 623.092535,392.99149 624.079239,381.713415 C624.502659,376.873694 626.575298,372.574502 629.694969,369.321133 C631.360291,363.866898 635.861205,359.650012 641.479659,358.388525 C635.283672,354.913045 631.155788,348.340447 631.004314,340.944962 C628.414538,341.812702 625.607961,342.174001 622.713415,341.920761 C616.305572,341.360148 610.845278,337.908446 607.505321,332.963331 C606.546773,336.724667 604.255592,339.95344 601.164209,342.11722 C599.495174,347.065006 595.47252,350.929626 590.427936,352.379391 C600.600832,354.352487 607.843901,363.735045 606.920761,374.286585 C605.934058,385.56466 595.99149,393.907465 584.713415,392.920761 C579.669261,392.479455 575.212264,390.246659 571.914495,386.90414 C569.161922,391.739365 563.961742,395 558,395 C549.163444,395 542,387.836556 542,379 C542,378.04398 542.083847,377.107544 542.24459,376.197644 C541.443009,374.291524 541,372.197497 541,370 C541,364.560107 543.714791,359.754288 547.863458,356.863458 C550.754288,352.714791 555.560107,350 561,350 C566.236968,350 570.886286,352.516029 573.805104,356.405237 C576.181711,354.529942 578.97413,353.175598 581.999357,352.495764 C575.098774,350.71937 570,344.455126 570,337 C570,331.572209 572.702726,326.775674 576.835791,323.88278 C577.825856,320.947773 579.644115,318.393913 582.0126,316.499168 C577.3468,315.302348 573.503225,312.05421 571.5,307.772878 C568.949498,313.223859 563.415732,317 557,317 C550.583888,317 545.049846,313.223412 542.499547,307.771909 C540.076434,308.653771 537.45192,309.088622 534.735065,308.984948 C537.766671,312.915602 539.387505,317.951676 538.920761,323.286585 C538.786176,324.824907 538.484968,326.308619 538.036476,327.721494 C539.902393,330.338441 541,333.541041 541,337 C541,345.533292 534.319806,352.506342 525.903657,352.97491 C529.465697,357.032841 531.428519,362.482883 530.920761,368.286585 C529.934058,379.56466 519.99149,387.907465 508.713415,386.920761 C497.43534,385.934058 489.092535,375.99149 490.079239,364.713415 C491.051677,353.598398 500.722883,345.334389 511.79827,346.042273 C510.534719,344.201023 509.646362,342.08214 509.243446,339.795873 C507.274943,338.799152 505.497115,337.496953 503.966529,335.956691 C503.988729,336.3016 504,336.649484 504,337 C504,345.836556 496.836556,353 488,353 C484.342674,353 480.971955,351.772891 478.277103,349.707934 C475.908474,352.168418 472.9397,354.027554 469.632776,355.065503 C467.364214,356.299164 464.763952,357 462,357 C456.169717,357 451.06778,353.881576 448.271143,349.221681 C446.238554,346.964845 444.707419,344.262265 443.832786,341.298723 C441.576306,341.906718 439.176716,342.136272 436.713415,341.920761 C434.811967,341.754406 432.993953,341.333481 431.290018,340.694506 C430.775727,341.22971 430.233068,341.73653 429.66473,342.21271 C430.732891,345.015737 431.199746,348.097778 430.920761,351.286585 C430.78879,352.795021 430.496609,354.250947 430.062449,355.639066 C430.410172,355.810395 430.75077,355.993981 431.08368,356.18926 C434.999757,353.206397 439.99624,351.616393 445.286585,352.079239 C456.56466,353.065942 464.907465,363.00851 463.920761,374.286585 C462.934058,385.56466 452.99149,393.907465 441.713415,392.920761 C441.342013,392.888268 440.973795,392.846062 440.608988,392.794416 C439.389645,393.711636 438.034956,394.458601 436.580231,395 C442.665282,397.26465 447,403.126111 447,410 C447,410.96152 446.915185,411.90323 446.752628,412.818058 C448.179997,415.212092 449,418.010285 449,421 C449,429.836556 441.836556,437 433,437 C430.487846,437 428.110915,436.42104 425.995357,435.389271 C425.788662,444.045978 418.70643,451 410,451 C402.069291,451 395.486251,445.229947 394.219918,437.658881 C390.066274,442.612133 383.641854,445.526921 376.713415,444.920761 C376.321278,444.886454 375.93269,444.841319 375.54792,444.785678 C373.426633,454.770091 364.140846,461.833043 353.713415,460.920761 C342.43534,459.934058 334.092535,449.99149 335.079239,438.713415 C335.576997,433.024016 338.353891,428.081601 342.431627,424.707055 C342.30938,424.191714 342.212054,423.666727 342.140996,423.133436 C341.343289,423.689688 340.492525,424.175121 339.597817,424.580622 C337.97176,431.69332 331.605601,437 324,437 C315.163444,437 308,429.836556 308,421 C308,416.070534 310.229233,411.661734 313.734576,408.726722 C308.011902,406.288932 304,400.612981 304,394 C304,388.182696 307.104554,383.0905 311.74722,380.289855 C310.853389,379.226625 310.095405,378.045388 309.5,376.772878 C307.011373,382.091619 301.682474,385.815796 295.465349,385.993363 C298.023061,389.75964 299.348489,394.397632 298.920761,399.286585 C298.059705,409.128499 290.378457,416.735105 280.941195,417.857054 C280.387999,418.836512 279.734568,419.751855 278.994828,420.589155 C278.998269,420.725685 279,420.86264 279,421 C279,422.042592 278.900279,423.061894 278.709856,424.048887 C284.726749,426.348114 289,432.175021 289,439 C289,441.900065 288.228437,444.619922 286.879388,446.965494 C290.476011,444.783056 294.774413,443.684475 299.286585,444.079239 C302.054376,444.321389 304.645382,445.102931 306.965093,446.31123 C309.684563,441.357709 314.950164,438 321,438 C329.836556,438 337,445.163444 337,454 C337,462.836556 329.836556,470 321,470 C319.748375,470 318.530317,469.856284 317.361428,469.584455 C317.170844,470.332719 316.939631,471.063245 316.670453,471.7738 C318.866338,470.640157 321.35841,470 324,470 C332.836556,470 340,477.163444 340,486 C340,494.836556 332.836556,502 324,502 C315.163444,502 308,494.836556 308,486 C308,484.530006 308.198238,483.106314 308.569438,481.754197 C304.884194,484.12216 300.414844,485.332083 295.713415,484.920761 C287.578645,484.209061 280.97098,478.837982 278.289912,471.667129 C277.049751,472.794125 275.673341,473.768958 274.191713,474.565589 C277.158752,477.470041 279,481.519997 279,486 C279,494.836556 271.836556,502 263,502 C256.126111,502 250.26465,497.665282 248,491.580231 C245.73535,497.665282 239.873889,502 233,502 C224.163444,502 217,494.836556 217,486 C217,477.163444 224.163444,470 233,470 C234.936516,470 236.792679,470.344031 238.510705,470.974309 C239.37191,467.651304 241.274214,464.747584 243.848746,462.63202 C238.588309,458.498678 235.452653,451.875327 236.079239,444.713415 C236.761141,436.91924 241.720423,430.526969 248.441836,427.647147 C247.705371,426.036801 247.228237,424.283039 247.063858,422.439283 C244.314938,424.666028 240.813252,426 237,426 C228.163444,426 221,418.836556 221,410 C221,401.331705 227.893236,394.273412 236.497074,394.007754 C237.041162,391.570734 238.013072,389.311285 239.32415,387.303803 C231.460087,383.885767 226.290738,375.72602 227.079239,366.713415 C228.028406,355.864383 237.264996,347.731541 248.005674,348.006783 C247.9879,347.250203 248.01174,346.484934 248.079239,345.713415 C248.632214,339.392873 251.998038,333.994237 256.835385,330.643011 C259.599254,328.366879 263.140001,327 267,327 C267.232962,327 267.464761,327.004979 267.695297,327.014836 C268.548703,326.982387 269.413643,327.002866 270.286585,327.079239 C280.559444,327.977997 288.396956,336.307293 288.966778,346.308161 C291.686738,341.356322 296.951413,338 303,338 C304.784524,338 306.500813,338.292146 308.10365,338.831221 C308.03518,338.23029 308,337.619253 308,337 C308,328.742593 314.255228,321.946173 322.285658,321.090766 C322.416782,320.308095 322.591548,319.541924 322.807193,318.79457 C318.798488,314.67054 316.538646,308.892417 317.079239,302.713415 C318.065942,291.43534 328.00851,283.092535 339.286585,284.079239 C341.837142,284.302384 344.237575,284.983573 346.413926,286.034665 C343.678972,283.163915 342,279.27803 342,275 C342,266.163444 349.163444,259 358,259 C364.85127,259 370.696765,263.306238 372.977528,269.359757 C375.378927,271.625262 377.079443,274.625686 377.71948,278.00143 C378.238434,278.007541 378.76106,278.033261 379.286585,278.079239 C385.678575,278.638465 391.127698,282.074492 394.46985,286.999993 C395.070723,286.999805 395.676701,287.025881 396.286585,287.079239 C406.473227,287.970454 414.265229,296.168006 414.950898,306.056715 C415.230282,306.035886 415.511035,306.02073 415.79303,306.011353 C416.537272,303.741282 417.775652,301.695107 419.380999,300 C417.012835,297.499424 415.443239,294.234876 415.080457,290.6146 C406.793995,287.402518 401.265729,279.011875 402.079239,269.713415 C402.720452,262.384318 407.143812,256.294813 413.257995,253.199733 C411.824072,250.801776 411,247.997124 411,245 C411,236.163444 418.163444,229 427,229 C435.836556,229 443,236.163444 443,245 C443,249.931274 440.769131,254.341501 437.261565,257.276507 C441.227326,261.395712 443.458255,267.143 442.920761,273.286585 C442.793636,274.73963 442.517851,276.143952 442.109702,277.485876 C442.608978,277.967724 443.076998,278.481744 443.510423,279.0246 C443.177265,277.738717 443,276.39006 443,275 C443,269.867328 445.416812,265.299133 449.174515,262.371334 C449.059559,261.597575 449,260.805743 449,260 C449,252.090986 454.738528,245.522277 462.279027,244.23043 C458.601619,240.151994 456.562866,234.615586 457.079239,228.713415 C458.065942,217.43534 468.00851,209.092535 479.286585,210.079239 C484.826733,210.563939 489.658575,213.209766 493.024148,217.113414 C493.484231,208.689229 500.460939,202 509,202 C509.167978,202 509.335352,202.002589 509.502083,202.007728 C510.63437,197.59931 513.598035,193.925402 517.534003,191.845079 C516.550301,189.769849 516,187.449189 516,185 C516,176.163444 523.163444,169 532,169 C535.398611,169 538.549729,170.059641 541.140996,171.866564 C542.184012,164.038647 548.886805,158 557,158 C565.519025,158 572.483019,164.657874 572.972506,173.054142 C573.077079,173.061705 573.181775,173.070069 573.286585,173.079239 C581.725273,173.817528 588.52062,179.569854 590.994018,187.143977 C593.348756,185.780475 596.083233,185 599,185 C600.767753,185 602.468549,185.286681 604.05843,185.816088 C607.116649,184.430978 610.557348,183.779497 614.136238,184.066631 C616.493097,178.167699 622.259839,174 629,174 C637.071453,174 643.74698,179.97667 644.842456,187.745884 C650.76235,189.623473 655.19069,194.851833 655.9003,201.203785 C657.780118,200.427988 659.840078,200 662,200 C665.863227,200 669.406669,201.369167 672.171548,203.648724 C673.049099,197.689995 677.211477,192.80011 682.759977,190.877776 C681.440094,191.022728 680.086655,191.040904 678.713415,190.920761 C667.43534,189.934058 659.092535,179.99149 660.079239,168.713415 C661.065942,157.43534 671.00851,149.092535 682.286585,150.079239 C682.657269,150.111669 683.024783,150.153775 683.388898,150.205285 C686.496935,145.505759 691.471122,142.205284 697.15982,141.270199 C697.054488,140.528622 697,139.770674 697,139 C697,133.442971 699.832965,128.547616 704.133439,125.679391 C702.385427,125.993044 700.567468,126.08297 698.713415,125.920761 C687.43534,124.934058 679.092535,114.99149 680.079239,103.713415 C680.563939,98.173267 683.209766,93.3414251 687.113414,89.9758518 C678.689229,89.5157694 672,82.5390613 672,74 C672,65.163444 679.163444,58 688,58 C696.836556,58 704,65.163444 704,74 C704,78.270067 702.327273,82.1494476 699.601335,85.0186243 C700.485194,84.9809584 701.38159,85.0000619 702.286585,85.0792387 C713.56466,86.0659425 721.907465,96.0085101 720.920761,107.286585 C720.323129,114.117556 716.439989,119.871707 710.964579,123.128245 C711.631126,123.043618 712.310469,123 713,123 C717.364265,123 721.320416,124.747342 724.207025,127.580598 C724.070807,126.740534 724,125.878536 724,125 C724,116.163444 731.163444,109 740,109 C748.836556,109 756,116.163444 756,125 C756,126.932495 755.657396,128.78497 755.029614,130.5 C755.657396,132.21503 756,134.067505 756,136 C756,137.325305 755.838866,138.612975 755.53512,139.844488 C757.763723,138.666804 760.303991,138 763,138 C769.879775,138 775.745388,142.342144 778.00581,148.435405 C778.001945,148.29074 778,148.145597 778,148 C778,146.437577 778.223951,144.927461 778.641504,143.5 C778.223951,142.072539 778,140.562423 778,139 C778,134.486173 779.869156,130.408911 782.875682,127.5 C782.289113,126.932475 781.745835,126.320478 781.251284,125.669444 C780.201449,125.886148 779.11402,126 778,126 C769.163444,126 762,118.836556 762,110 C762,103.596316 765.761973,98.071287 771.196433,95.5143993 C771.067138,94.6952682 771,93.8554746 771,93 C771,84.163444 778.163444,77 787,77 C795.836556,77 803,84.163444 803,93 C803,96.0906699 802.123683,98.9766651 800.605963,101.423072 C806.146621,103.937977 810,109.518986 810,116 C810,120.513827 808.130844,124.591089 805.124318,127.5 C808.130844,130.408911 810,134.486173 810,139 C810,140.562423 809.776049,142.072539 809.358496,143.5 C809.776049,144.927461 810,146.437577 810,148 C810,152.017963 808.518957,155.690009 806.073011,158.5 C808.518957,161.309991 810,164.982037 810,169 C810,170.749857 809.719094,172.434105 809.199916,174.01011 C815.618012,177.943366 819.621396,185.278288 818.920761,193.286585 C818.83937,194.216891 818.697041,195.127225 818.49805,196.013997 C821.430012,192.348126 825.940789,190 831,190 C837.302017,190 842.753056,193.643467 845.361582,198.938866 C845.81076,198.087619 846.31757,197.27332 846.87639,196.500685 C844.005109,193.722967 842.170997,189.879723 842.011348,185.608244 C839.142891,188.330099 835.266458,190 831,190 C822.163444,190 815,182.836556 815,174 C815,165.163444 822.163444,158 831,158 C835.261077,158 839.133111,159.665691 842.000489,162.381461 C842.004289,161.829355 842.030279,161.273029 842.079239,160.713415 C843.065942,149.43534 853.00851,141.092535 864.286585,142.079239 C866.478418,142.270999 868.559386,142.801021 870.482553,143.613368 C871.244676,143.185638 872.035854,142.805552 872.851727,142.476771 C869.85923,139.569404 868,135.501825 868,131 C868,124.859903 871.458647,119.527616 876.534003,116.845079 C875.550301,114.769849 875,112.449189 875,110 C875,106.370063 876.208799,103.022456 878.245815,100.33776 C879.350146,93.2179977 884.058143,87.4317567 890.318043,84.7006707 C893.124584,80.0838145 898.20216,77 904,77 C910.502654,77 916.099283,80.8791545 918.602017,86.4495939 C918.068802,84.3053987 917.875884,82.0377698 918.079239,79.7134149 C919.065942,68.4353399 929.00851,60.092535 940.286585,61.0792387 C941.175191,61.1569817 942.045576,61.2903223 942.89461,61.4755332 C944.305465,59.5310738 946.046119,57.851443 948.026673,56.5120771 C944.35354,53.5803812 942,49.0650399 942,44 C942,35.163444 949.163444,28 958,28 C966.836556,28 974,35.163444 974,44 C974,48.4789012 972.159657,52.5279672 969.193902,55.4322675 C973.665763,57.8343107 977.101794,61.8331925 978.808882,66.6028935 C979.291688,65.6785402 979.862157,64.8072316 980.509258,64 C978.313437,61.2608041 977,57.7837868 977,54 C977,45.9096498 983.004688,39.2217696 990.800482,38.1499416 C994.678816,31.5280309 1002.13375,27.3659581 1010.28659,28.0792387 C1012.78937,28.2982041 1015.1476,28.9582163 1017.2914,29.9759954 C1018.75533,29.1696013 1020.35908,28.5857627 1022.05706,28.2700749 C1019.81386,24.6433568 1018.67899,20.2882609 1019.07924,15.7134149 C1020.06594,4.43533987 1030.00851,-3.90746497 1041.28659,-2.92076126 C1049.7735,-2.17825261 1056.59823,3.63576263 1059.036,11.2740058 C1059.99651,11.0940902 1060.98727,11 1062,11 C1070.83656,11 1078,18.163444 1078,27 C1078,31.5488426 1076.10173,35.6543209 1073.05414,38.5674858 C1073.66632,40.2635893 1074,42.0928265 1074,44 C1074,48.8198117 1071.86884,53.1418645 1068.49744,56.0752362 C1073.12408,58.3358085 1076.72834,62.271834 1078.594,67.0297574 C1081.18471,61.6852036 1086.66199,58 1093,58 C1101.83656,58 1109,65.163444 1109,74 C1109,82.836556 1101.83656,90 1093,90 C1086.83218,90 1081.47948,86.51005 1078.80891,81.3971512 C1076.56543,87.6913642 1071.36433,92.4789434 1065.00236,94.2522446 C1065.60335,95.3360807 1066.08215,96.4970453 1066.42017,97.7165398 C1070.42714,94.3956882 1075.69258,92.5898268 1081.28659,93.0792387 C1092.56466,94.0659425 1100.90746,104.00851 1099.92076,115.286585 C1099.65638,118.308492 1098.74901,121.119662 1097.34526,123.59709 C1104.07031,125.490444 1109,131.669526 1109,139 C1109,147.836556 1101.83656,155 1093,155 C1084.16344,155 1077,147.836556 1077,139 C1077,137.227889 1077.2881,135.523066 1077.82001,133.929813 C1077.78449,133.926888 1077.74896,133.923871 1077.71341,133.920761 C1077.43335,133.896259 1077.15509,133.866233 1076.87874,133.830802 C1072.76528,139.283843 1066.01959,142.559969 1058.71341,141.920761 C1054.41728,141.544898 1050.54707,139.869483 1047.45623,137.315731 C1044.13339,145.381538 1035.86288,150.721236 1026.71341,149.920761 C1023.43764,149.634168 1020.4095,148.59202 1017.78567,146.981047 C1017.52536,146.993634 1017.26342,147 1017,147 C1013.70673,147 1010.64585,146.005029 1008.10156,144.299291 C1007.03402,147.341636 1005.07312,149.963706 1002.53356,151.850809 C1001.85899,154.58098 1000.48346,157.034909 998.608869,159.010689 C1004.67888,161.283051 1009,167.136899 1009,174 C1009,182.836556 1001.83656,190 993,190 C991.019675,190 989.12338,189.640227 987.372909,188.982476 C986.362775,189.468589 985.308601,189.873789 984.219514,190.190417 C986.278702,193.722629 987.304209,197.903762 986.920761,202.286585 C985.934058,213.56466 975.99149,221.907465 964.713415,220.920761 C955.038718,220.074335 947.524017,212.637502 946.205728,203.420675 C945.521718,204.09189 944.777674,204.702139 943.982391,205.242625 C943.994087,205.493615 944,205.746117 944,206 C944,208.904477 943.226088,211.628198 941.873226,213.976198 C941.956888,214.63902 942,215.314475 942,216 C942,224.836556 934.836556,232 926,232 C917.163444,232 910,224.836556 910,216 C910,213.095523 910.773912,210.371802 912.126774,208.023802 C912.043112,207.36098 912,206.685525 912,206 C912,200.493016 914.782168,195.635843 919.017609,192.757375 C919.005913,192.506385 919,192.253883 919,192 C919,190.482687 919.211206,189.014704 919.605822,187.623847 C915.041627,184.805681 912,179.758045 912,174 C912,169.062656 914.236364,164.647643 917.751393,161.712661 C913.106415,158.912551 910,153.819046 910,148 C910,143.422124 911.922578,139.29329 915.004351,136.376879 C915.001456,136.251603 915,136.125972 915,136 C915,131.776297 916.6366,127.934842 919.310245,125.075191 C919.206089,124.484852 919.127441,123.886593 919.075393,123.281712 C916.81472,121.759664 914.9638,119.675683 913.722832,117.229967 C909.992004,121.360182 904.625372,123.932883 898.754346,123.998706 C898.658825,124.051731 898.562704,124.103807 898.465997,124.154921 C899.449699,126.230151 900,128.550811 900,131 C900,132.417887 899.815567,133.792697 899.469382,135.101749 C903.429811,138.014233 906,142.706967 906,148 C906,152.614071 904.046901,156.771971 900.922334,159.692068 C901.025074,160.86831 901.027227,162.069673 900.920761,163.286585 C899.934058,174.56466 889.99149,182.907465 878.713415,181.920761 C876.863291,181.758896 875.092159,181.356019 873.428246,180.745771 C873.800937,182.100397 874,183.526952 874,185 C874,185.757073 873.947419,186.501865 873.845709,187.230923 C876.233627,185.813705 879.021788,185 882,185 C890.836556,185 898,192.163444 898,201 C898,209.783196 890.922809,216.913425 882.159897,216.999218 C880.244682,221.203963 876.963335,224.61037 872.927582,226.705137 C874.872941,229.840379 875.989218,233.521828 875.999922,237.419978 C878.264516,231.334817 884.126033,227 891,227 C899.538331,227 906.514575,233.688084 906.975734,242.111252 C911.133895,237.297958 917.466017,234.482516 924.286585,235.079239 C935.56466,236.065942 943.907465,246.00851 942.920761,257.286585 C941.934058,268.56466 931.99149,276.907465 920.713415,275.920761 C909.731632,274.95998 901.532917,265.507721 902.020674,254.599388 C899.151295,257.326476 895.271084,259 891,259 C882.424159,259 875.424159,252.253023 875.018566,243.777635 Z M1217.17253,-22.8886069 C1214.57531,-21.0682618 1211.41241,-20 1208,-20 C1199.16344,-20 1192,-27.163444 1192,-36 C1192,-38.642714 1192.6407,-41.1357841 1193.77525,-43.3323513 C1191.07176,-41.2430784 1187.68105,-40 1184,-40 C1175.16344,-40 1168,-47.163444 1168,-56 C1168,-64.836556 1175.16344,-72 1184,-72 C1192.83656,-72 1200,-64.836556 1200,-56 C1200,-53.357286 1199.3593,-50.8642159 1198.22475,-48.6676487 C1200.92824,-50.7569216 1204.31895,-52 1208,-52 C1211.1777,-52 1214.13904,-51.0736334 1216.6287,-49.4762233 C1220.77665,-54.5403063 1227.27341,-57.5343349 1234.28659,-56.9207613 C1234.87086,-56.869644 1235.44725,-56.7944904 1236.01488,-56.6963599 C1236.37945,-65.2098485 1243.39676,-72 1252,-72 C1260.83656,-72 1268,-64.836556 1268,-56 C1268,-47.3980823 1261.21193,-40.3816035 1252.70027,-40.0150494 C1252.99697,-38.3033985 1253.07931,-36.5256482 1252.92076,-34.7134149 C1251.93406,-23.4353399 1241.99149,-15.092535 1230.71341,-16.0792387 C1225.28029,-16.5545758 1220.52836,-19.1083525 1217.17253,-22.8886069 Z M474.999168,304.835119 C474.999722,304.890014 475,304.944974 475,305 C475,309.361287 473.255041,313.315017 470.425199,316.201115 C474.256355,317.572999 477.527692,320.041221 479.898492,323.199733 C482.274674,321.801773 485.043705,321 488,321 C491.899776,321 495.473687,322.395196 498.249813,324.713668 C497.99421,323.095067 497.929974,321.419522 498.079239,319.713415 C498.109986,319.361968 498.149431,319.013372 498.197341,318.667819 C496.42975,318.990813 494.590072,319.084947 492.713415,318.920761 C484.266965,318.181793 477.466882,312.419561 474.999168,304.835119 Z M474.022249,299.479921 C473.979843,298.569761 473.997635,297.646155 474.079239,296.713415 C474.392627,293.131366 475.609459,289.845418 477.485578,287.060443 C475.815248,285.603017 474.450472,283.804245 473.5,281.772878 C471.729734,285.556323 468.522268,288.532907 464.580231,290 C468.94788,291.625491 472.413775,295.104021 474.022249,299.479921 Z M453.419769,290 C450.674263,288.978216 448.285075,287.224225 446.489577,284.9754 C446.822735,286.261283 447,287.60994 447,289 C447,293.260835 445.334498,297.132671 442.619001,300 C442.926728,300.324932 443.22097,300.662764 443.500832,301.0126 C444.806468,295.922581 448.553395,291.811099 453.419769,290 Z M1014.82803,270.775022 C1011.90179,273.985393 1007.68616,276 1003,276 C994.163444,276 987,268.836556 987,260 C987,259.285402 987.046847,258.581745 987.137637,257.891934 C981.201171,255.55311 977,249.767173 977,243 C977,234.163444 984.163444,227 993,227 C993.486411,227 993.967752,227.021705 994.443107,227.0642 C993.298772,224.187803 992.791037,221.007578 993.079239,217.713415 C994.065942,206.43534 1004.00851,198.092535 1015.28659,199.079239 C1026.56466,200.065942 1034.90746,210.00851 1033.92076,221.286585 C1033.43408,226.849408 1030.76854,231.698115 1026.83859,235.065399 C1027.96802,234.974934 1029.12016,234.97719 1030.28659,235.079239 C1041.56466,236.065942 1049.90746,246.00851 1048.92076,257.286585 C1047.93406,268.56466 1037.99149,276.907465 1026.71341,275.920761 C1022.12102,275.518979 1018.01532,273.632231 1014.82803,270.775022 Z M1010.42339,245.822642 C1011.63208,243.567462 1013.24667,241.575201 1015.16141,239.934601 C1014.03198,240.025066 1012.87984,240.02281 1011.71341,239.920761 C1010.64577,239.827354 1009.60442,239.653687 1008.5948,239.406227 C1008.85993,240.561428 1009,241.764357 1009,243 C1009,243.714598 1008.95315,244.418255 1008.86236,245.108066 C1009.3974,245.318859 1009.91835,245.557652 1010.42339,245.822642 Z M372.537009,375.391971 C378.114625,377.891747 382,383.492134 382,390 C382,390.622753 381.964422,391.237195 381.895186,391.841407 C383.453842,390.760889 385.213721,389.950185 387.107253,389.476863 C385.154099,386.824158 384,383.546856 384,380 C384,378.108537 384.32821,376.293731 384.930785,374.609428 C382.089597,375.716713 378.95673,376.204515 375.713415,375.920761 C374.62538,375.825571 373.564664,375.647026 372.537009,375.391971 Z M1100.70156,228.972122 C1105.64807,231.69363 1109,236.955372 1109,243 C1109,251.836556 1101.83656,259 1093,259 C1084.16344,259 1077,251.836556 1077,243 C1077,238.638713 1078.74496,234.684983 1081.5748,231.798885 C1073.01491,228.733708 1067.24966,220.195583 1068.07924,210.713415 C1069.06594,199.43534 1079.00851,191.092535 1090.28659,192.079239 C1101.56466,193.065942 1109.90746,203.00851 1108.92076,214.286585 C1108.38848,220.370542 1105.24999,225.600318 1100.70156,228.972122 Z M519.264935,301.015052 C518.116844,299.526485 517.171085,297.879381 516.464418,296.117546 C515.952906,296.273246 515.433464,296.409344 514.907053,296.525036 C515.024626,297.754495 515.032272,299.012012 514.920761,300.286585 C514.890014,300.638032 514.850569,300.986628 514.802659,301.332181 C516.248269,301.068023 517.742097,300.956941 519.264935,301.015052 Z M716.690706,174.076208 C719.363788,176.935752 721,180.776797 721,185 C721,187.292205 720.517982,189.471829 719.649779,191.44304 C721.20184,192.153192 722.620626,193.104262 723.858294,194.248407 C728.014119,189.351539 734.401485,186.476871 741.286585,187.079239 C749.361283,187.785683 755.931348,193.082946 758.650051,200.174306 C760.215621,199.618316 761.863768,199.248447 763.565375,199.08913 C766.144201,193.712515 771.638548,190 778,190 C778.018721,190 778.037435,190.000032 778.056141,190.000096 C778.063172,189.904635 778.07087,189.809073 778.079239,189.713415 C778.415122,185.874247 779.788802,182.375214 781.899682,179.468547 C779.470024,176.662634 778,173.002988 778,169 C778,164.982037 779.481043,161.309991 781.926989,158.5 C780.672239,157.058498 779.671413,155.390137 778.99419,153.564595 C778.998055,153.70926 779,153.854403 779,154 C779,160.872572 774.666943,166.733105 768.583727,168.998698 C765.349018,177.241184 756.982236,182.731678 747.713415,181.920761 C736.43534,180.934058 728.092535,170.99149 729.079239,159.713415 C729.390731,156.153041 730.594765,152.885197 732.451593,150.111055 C730.503249,149.066646 728.796295,147.630515 727.436023,145.907955 C725.786302,149.349263 722.942308,152.109151 719.44097,153.650691 C720.666683,156.601428 721.218519,159.883198 720.920761,163.286585 C720.563618,167.368756 719.033145,171.06637 716.690706,174.076208 Z M906.845709,41.7690767 C906.947419,42.498135 907,43.242927 907,44 C907,52.836556 899.836556,60 891,60 C882.163444,60 875,52.836556 875,44 C875,43.3002741 875.044917,42.6110391 875.132025,41.9350211 C870.276901,39.1878263 867,33.9765937 867,28 C867,19.163444 874.163444,12 883,12 C891.836556,12 899,19.163444 899,28 C899,28.6997259 898.955083,29.3889609 898.867975,30.0649789 C898.964036,30.1193335 899.059479,30.1746527 899.154291,30.2309233 C899.052581,29.501865 899,28.757073 899,28 C899,19.163444 906.163444,12 915,12 C923.836556,12 931,19.163444 931,28 C931,36.836556 923.836556,44 915,44 C912.021788,44 909.233627,43.1862949 906.845709,41.7690767 Z M451.716852,466.250058 C446.541898,463.599854 443,458.213554 443,452 C443,443.163444 450.163444,436 459,436 C467.836556,436 475,443.163444 475,452 C475,453.653925 474.74905,455.249238 474.283149,456.749938 C479.458102,459.400146 483,464.786446 483,471 C483,479.836556 475.836556,487 467,487 C458.163444,487 451,479.836556 451,471 C451,469.346074 451.250951,467.75076 451.716852,466.250058 Z M398.972191,423.407398 C401.84227,420.676301 405.725375,419 410,419 C412.512154,419 414.889085,419.57896 417.004643,420.610729 C417.010707,420.356736 417.022691,420.104208 417.040461,419.853279 C411.155376,417.489838 407,411.730189 407,405 C407,397.806271 411.747488,391.721378 418.280284,389.707501 C417.033938,388.076898 416.094033,386.199586 415.546558,384.161555 C415.519329,384.147189 415.492147,384.132753 415.465012,384.11824 C413.977152,389.720029 409.526514,394.114878 403.892747,395.523137 C405.845901,398.175842 407,401.453144 407,405 C407,411.200263 403.473239,416.576807 398.316334,419.233014 C398.67431,420.579518 398.897631,421.976583 398.972191,423.407398 Z M919.608945,89.4684102 C919.864909,90.6045755 920,91.7865116 920,93 C920,94.148873 919.878912,95.2694644 919.648803,96.3497082 C920.669613,95.723846 921.766031,95.2092792 922.921167,94.8228968 C921.555593,93.2259039 920.4344,91.4206732 919.608945,89.4684102 Z M943.481874,101.389928 C947.242012,102.129663 950.599787,103.882246 953.289961,106.331576 C956.428621,97.9059543 964.894508,92.2575385 974.286585,93.0792387 C985.134711,94.0283267 993.2671,103.263453 992.993286,114.002981 C995.696057,116.707852 997.633745,120.152708 998.497496,123.96947 C999.706072,124.411636 1000.84642,124.995413 1001.89844,125.700709 C1003.7275,120.488152 1008.17901,116.50932 1013.67025,115.346959 C1017.82125,111.002986 1023.83544,108.514836 1030.28659,109.079239 C1033.06827,109.322605 1035.67139,110.110791 1038.00001,111.329459 C1036.11192,108.703182 1035,105.481443 1035,102 C1035,98.6800979 1036.01113,95.5963576 1037.74223,93.0399347 C1030.20655,89.4792093 1025.31036,81.5017862 1026.07924,72.7134149 C1026.36231,69.4779379 1027.38245,66.4840375 1028.95976,63.8826865 C1026.61549,65.2296948 1023.8977,66 1021,66 C1020.4322,66 1019.8713,65.9704231 1019.31877,65.9127259 C1016.07738,67.9300962 1012.25023,69.0604714 1008.20242,68.9975023 C1008.72,70.5713178 1009,72.2529599 1009,74 C1009,75.3709623 1008.82757,76.701652 1008.50322,77.9715657 C1014.62868,80.2152737 1019,86.0971483 1019,93 C1019,101.836556 1011.83656,109 1003,109 C994.163444,109 987,101.836556 987,93 C987,91.6290377 987.172428,90.298348 987.496779,89.0284343 C983.588832,87.596983 980.39486,84.6847093 978.594483,80.9712325 C975.367597,89.2289834 966.992528,94.7325784 957.713415,93.9207613 C956.824809,93.8430183 955.954424,93.7096777 955.10539,93.5244668 C952.299564,97.3914949 948.189347,100.211101 943.481874,101.389928 Z M1050.49394,-14.0074791 C1050.3299,-14.002505 1050.16524,-14 1050,-14 C1041.16344,-14 1034,-21.163444 1034,-30 C1034,-38.836556 1041.16344,-46 1050,-46 C1055.95712,-46 1061.15385,-42.7444219 1063.90809,-37.9153895 C1066.52212,-38.8044682 1069.35937,-39.1768593 1072.28659,-38.9207613 C1083.56466,-37.9340575 1091.90746,-27.9914899 1090.92076,-16.7134149 C1089.93406,-5.43533987 1079.99149,2.90746497 1068.71341,1.92076126 C1059.5952,1.12302082 1052.39564,-5.52877969 1050.49394,-14.0074716 Z M227.58178,432.998661 C230.904342,435.930472 233,440.220502 233,445 C233,453.836556 225.836556,461 217,461 C215.625114,461 214.290732,460.826584 213.017534,460.500432 C211.001678,460.955241 208.882241,461.110509 206.713415,460.920761 C201.592363,460.472727 197.076508,458.178165 193.764483,454.7505 C193.171709,458.17188 191.492263,461.220758 189.094559,463.528718 C195.947438,465.33756 201,471.578735 201,479 C201,487.836556 193.836556,495 185,495 C179.271544,495 174.246216,491.989553 171.419776,487.464421 C167.608313,494.30971 160.023396,498.64779 151.713415,497.920761 C140.43534,496.934058 132.092535,486.99149 133.079239,475.713415 C134.065942,464.43534 144.00851,456.092535 155.286585,457.079239 C158.522062,457.362306 161.515962,458.382453 164.117314,459.959757 C162.770305,457.615487 162,454.897701 162,452 C162,446.464658 164.810895,441.585836 169.083155,438.713065 C159.664042,437.131428 152.636386,429.22865 152.040948,419.820324 C150.176992,420.580874 148.137442,421 146,421 C137.163444,421 130,413.836556 130,405 C130,396.163444 137.163444,389 146,389 C153.518558,389 159.825882,394.185909 161.540131,401.175886 C162.612273,400.496506 163.749769,399.914708 164.939196,399.441757 C161.316215,396.508451 159,392.024716 159,387 C159,378.163444 166.163444,371 175,371 C178.164583,371 181.114584,371.918732 183.597831,373.504022 C186.304464,368.663188 190.900113,365.081011 196.303033,363.665184 C198.757022,357.979497 204.413781,354 211,354 C219.836556,354 227,361.163444 227,370 C227,374.614071 225.046901,378.771971 221.922334,381.692068 C222.025074,382.86831 222.027227,384.069673 221.920761,385.286585 C220.934058,396.56466 210.99149,404.907465 199.713415,403.920761 C194.615133,403.474719 190.116679,401.198534 186.808735,397.796155 C185.700076,399.008125 184.40731,400.048859 182.97471,400.874083 C187.903472,403.807923 191.448124,408.731776 192.598499,414.441769 C193.498982,416.443125 194,418.663053 194,421 C194,423.339123 193.498048,425.561009 192.595983,427.56382 C196.742444,422.475485 203.254941,419.46405 210.286585,420.079239 C218.294476,420.779838 224.822528,425.995605 227.58178,432.998661 Z M643.53159,218.608945 C642.395424,218.864909 641.213488,219 640,219 C637.816184,219 635.734553,218.56249 633.837979,217.77034 C631.028326,220.358753 627.289612,221.953992 623.178873,221.999021 C620.370009,223.716216 617.129687,224.770899 613.691839,224.966778 C616.822992,226.686667 619.31621,229.424009 620.726322,232.733638 C623.505816,230.40321 627.089039,229 631,229 C631.606955,229 632.206017,229.033796 632.795406,229.09961 C634.927494,224.351782 638.797191,220.610741 643.53159,218.608945 Z M264.67585,379.696197 C265.379197,380.0019 266.060989,380.345532 266.71889,380.724312 C270.533168,378.042749 275.278189,376.641061 280.286585,377.079239 C280.413267,377.090322 280.539579,377.102535 280.665511,377.115868 C279.599475,374.972536 279,372.556276 279,370 C279,368.062466 279.344393,366.20537 279.975303,364.486586 C276.545594,366.806535 272.396279,368.106022 267.994326,367.993217 C268.0121,368.749797 267.98826,369.515066 267.920761,370.286585 C267.616454,373.764836 266.460303,376.963897 264.67585,379.696197 Z M1127.80244,-4.08459692 C1128.5743,-2.20885024 1129,-0.154138848 1129,2 C1129,10.836556 1121.83656,18 1113,18 C1104.16344,18 1097,10.836556 1097,2 C1097,-4.78992083 1101.22946,-10.5919977 1107.19756,-12.9154031 C1106.4257,-14.7911498 1106,-16.8458612 1106,-19 C1106,-19.8504626 1106.06635,-20.6854275 1106.19417,-21.5 C1106.06635,-22.3145725 1106,-23.1495374 1106,-24 C1106,-32.836556 1113.16344,-40 1122,-40 C1130.83656,-40 1138,-32.836556 1138,-24 C1138,-23.1495374 1137.93365,-22.3145725 1137.80583,-21.5 C1137.93365,-20.6854275 1138,-19.8504626 1138,-19 C1138,-12.2100792 1133.77054,-6.40800234 1127.80244,-4.08459692 Z M815.694969,39.3211334 C817.696031,32.7672885 823.791286,28 831,28 C838.794534,28 845.287284,33.5736047 846.710169,40.9527346 C849.757793,44.8880671 851.388781,49.9370909 850.920761,55.2865851 C849.934058,66.5646601 839.99149,74.907465 828.713415,73.9207613 C817.43534,72.9340575 809.092535,62.9914899 810.079239,51.7134149 C810.502659,46.8736941 812.575298,42.574502 815.694969,39.3211334 Z M960.780486,180.809583 C960.43991,180.225378 960.12761,179.623422 959.845284,179.005738 C959.751831,179.76847 959.617229,180.516827 959.443918,181.24876 C959.883,181.087493 960.328739,180.940919 960.780486,180.809583 Z M958.154716,167.994262 C959.111114,160.188469 964.377202,153.888329 971.338166,151.287933 C971.116519,150.226763 971,149.126989 971,148 C971,147.861343 971.001764,147.723099 971.00527,147.585287 C963.808994,144.762894 958.709549,138.028885 958.068318,130.197447 C955.723379,135.202509 951.433092,139.051068 946.248036,140.861583 C945.417376,143.469146 943.936365,145.786541 941.995649,147.623121 C941.998544,147.748397 942,147.874028 942,148 C942,150.915749 941.220069,153.649335 939.85745,156.003516 C940.331028,156.012255 940.807602,156.037333 941.286585,156.079239 C948.906728,156.745915 955.186871,161.501088 958.154716,167.994262 Z M845.177746,217.698442 C844.768086,216.884377 844.411444,216.040504 844.111945,215.17174 C841.218497,219.300557 836.424493,222 831,222 C827.453144,222 824.175842,220.845901 821.523137,218.892747 C819.784547,225.84801 813.493929,231 806,231 C805.614422,231 805.23203,230.986361 804.853279,230.959539 C804.825527,231.028645 804.797306,231.097512 804.76862,231.166136 C807.982714,234.09261 810,238.310724 810,243 C810,251.836556 802.836556,259 794,259 C790.227956,259 786.76078,257.694703 784.025524,255.51116 C782.958535,258.419307 781.071349,260.93162 778.644244,262.767819 C780.406979,264.243207 781.912152,266.005936 783.09311,267.97657 C787.25252,263.245532 793.529881,260.488104 800.286585,261.079239 C806.821768,261.650993 812.371367,265.229883 815.691277,270.333242 C816.521457,267.606467 818.060199,265.188426 820.093044,263.293579 C815.815233,260.42169 813,255.539611 813,250 C813,241.163444 820.163444,234 829,234 C829.435036,234 829.866017,234.017362 830.292287,234.051432 C831.653791,226.019964 837.612455,219.732515 845.177746,217.698442 Z M478.222538,250.988123 C479.975144,253.554644 481,256.657638 481,260 C481,260.205632 480.996121,260.410358 480.988432,260.614109 C481.334154,260.445291 481.686864,260.288569 482.04601,260.144493 C482.055576,260.001028 482.066648,259.85733 482.079239,259.713415 C482.430847,255.694517 483.919693,252.048348 486.200958,249.064243 C483.752073,250.214822 481.049878,250.891963 478.222538,250.988123 Z M493.799042,242.935757 C496.964005,241.448737 500.552078,240.752512 504.286585,241.079239 C514.529502,241.975378 522.351248,250.258801 522.96161,260.220755 C523.761681,260.834402 524.513978,261.505085 525.212903,262.226134 C527.524795,257.670977 531.473231,254.138872 536.221456,252.331939 C536.809263,248.830162 538.534543,245.714162 541.004351,243.376879 C541.001456,243.251603 541,243.125972 541,243 C541,235.096838 546.730038,228.531999 554.262291,227.233306 C555.271469,220.939743 559.098991,215.698619 564.319842,212.705664 C561.039132,211.481254 558.179996,209.44899 555.960639,206.868921 C555.986734,207.242557 556,207.619729 556,208 C556,216.836556 548.836556,224 540,224 C536.504904,224 533.271553,222.87934 530.63967,220.977744 C528.885706,221.638501 526.98507,222 525,222 C524.832022,222 524.664648,221.997411 524.497917,221.992272 C522.72443,228.897106 516.458137,234 509,234 C504.729933,234 500.850552,232.327273 497.981376,229.601335 C498.019042,230.485194 497.999938,231.38159 497.920761,232.286585 C497.569153,236.305483 496.080307,239.951652 493.799042,242.935757 Z M193,544.419769 C195.26465,538.334718 201.126111,534 208,534 C216.836556,534 224,541.163444 224,550 C224,558.836556 216.836556,566 208,566 C201.126111,566 195.26465,561.665282 193,555.580231 C190.73535,561.665282 184.873889,566 178,566 C169.163444,566 162,558.836556 162,550 C162,541.163444 169.163444,534 178,534 C184.873889,534 190.73535,538.334718 193,544.419769 Z M778.974476,237.48884 C779.05543,237.268195 779.141105,237.049829 779.23138,236.833864 C778.83046,236.468821 778.448162,236.083681 778.086078,235.680037 C777.815,235.891002 777.538606,236.09523 777.257161,236.292499 C777.856363,236.654223 778.429924,237.054127 778.974476,237.48884 Z M1019.13713,188.891733 C1013.20093,186.552779 1009,180.766979 1009,174 C1009,165.163444 1016.16344,158 1025,158 C1025.97403,158 1026.92773,158.087037 1027.85376,158.253757 C1032.00947,153.353633 1038.39898,150.476651 1045.28659,151.079239 C1056.56466,152.065942 1064.90746,162.00851 1063.92076,173.286585 C1063.57105,177.283778 1062.09636,180.912258 1059.83593,183.88735 C1060.01838,185.318416 1060.05163,186.790754 1059.92076,188.286585 C1058.93406,199.56466 1048.99149,207.907465 1037.71341,206.920761 C1027.85431,206.058202 1020.23833,198.351606 1019.13713,188.891733 Z M172.285294,469.285948 C172.779099,468.640585 173.320927,468.033918 173.905441,467.471282 C172.745223,467.165038 171.636609,466.731747 170.595382,466.187192 C171.244256,467.166363 171.81054,468.202833 172.285294,469.285948 Z M227.04671,318.943463 C222.907851,323.10745 217.019395,325.472463 210.713415,324.920761 C199.43534,323.934058 191.092535,313.99149 192.079239,302.713415 C192.967346,292.562308 201.110902,284.789163 210.95329,284.056537 C215.092149,279.89255 220.980605,277.527537 227.286585,278.079239 C234.209536,278.684918 240.026473,282.66518 243.258432,288.257464 C244.934291,277.72652 254.499568,270.135497 265.286585,271.079239 C271.034836,271.582146 276.02057,274.411584 279.397161,278.558585 C279.13724,277.414151 279,276.223102 279,275 C279,266.163444 286.163444,259 295,259 C303.836556,259 311,266.163444 311,275 C311,283.836556 303.836556,291 295,291 C290.792744,291 286.964765,289.376121 284.108642,286.720941 C284.686093,288.373735 285,290.150209 285,292 C285,296.515831 283.129183,300.59471 280.120312,303.503875 C276.032575,309.152384 269.164456,312.572643 261.713415,311.920761 C254.790464,311.315082 248.973527,307.33482 245.741568,301.742536 C244.240793,311.173265 236.412975,318.246278 227.04671,318.943463 Z M1147.81147,103.131199 C1145.21393,106.044367 1141.80781,108.195578 1137.98308,109.257609 C1137.99432,109.503664 1138,109.751169 1138,110 C1138,118.836556 1130.83656,126 1122,126 C1113.16344,126 1106,118.836556 1106,110 C1106,104.387462 1108.88984,99.4498837 1113.26275,96.5940479 C1112.24609,93.8428765 1111.80665,90.8291088 1112.07924,87.7134149 C1113.06594,76.4353399 1123.00851,68.092535 1134.28659,69.0792387 C1135.75528,69.2077332 1137.1742,69.4881083 1138.52922,69.9035346 C1140.33872,63.0516251 1146.57942,58 1154,58 C1162.83656,58 1170,65.163444 1170,74 C1170,82.836556 1162.83656,90 1154,90 C1153.66216,90 1153.32677,89.9895293 1152.99413,89.9688948 C1152.98371,90.4057718 1152.95938,90.8451555 1152.92076,91.2865851 C1152.64666,94.41952 1151.68147,97.3259482 1150.18853,99.8688013 C1154.34818,95.2037187 1160.58135,92.4926066 1167.28659,93.0792387 C1178.56466,94.0659425 1186.90746,104.00851 1185.92076,115.286585 C1184.93406,126.56466 1174.99149,134.907465 1163.71341,133.920761 C1152.43534,132.934058 1144.09254,122.99149 1145.07924,111.713415 C1145.35334,108.58048 1146.31853,105.674052 1147.81147,103.131199 Z M1045.52687,54.0219331 C1043.32046,51.279376 1042,47.7938932 1042,44 C1042,41.7425287 1042.46752,39.5942526 1043.31102,37.6467128 C1042.17955,37.8601213 1041.01812,37.9796825 1039.83601,37.9976283 C1040.58663,39.8511345 1041,41.8772938 1041,44 C1041,48.5868422 1039.06988,52.7228817 1035.97753,55.6402428 C1035.74901,56.2467663 1035.48471,56.8357494 1035.18719,57.404618 C1038.19582,55.4108706 1041.74541,54.1968569 1045.52687,54.0219331 Z M694.074208,360.999832 C694.049485,360.999944 694.024749,361 694,361 C686.953005,361 680.970072,356.44421 678.835791,350.11722 C674.702726,347.224326 672,342.427791 672,337 C672,333.089039 673.40321,329.505816 675.733638,326.726322 C670.011464,324.288312 666,318.61262 666,312 C666,303.163444 673.163444,296 682,296 C690.836556,296 698,303.163444 698,312 C698,315.910961 696.59679,319.494184 694.266362,322.273678 C697.314267,323.572279 699.876819,325.789456 701.60633,328.577518 C704.568521,327.338873 707.866132,326.779988 711.286585,327.079239 C722.56466,328.065942 730.907465,338.00851 729.920761,349.286585 C728.934058,360.56466 718.99149,368.907465 707.713415,367.920761 C702.227009,367.440763 697.435234,364.841362 694.074208,360.999832 Z M471.23565,419.83775 C468.019073,416.911126 466,412.691353 466,408 C466,400.541208 471.10379,394.27447 478.009538,392.501618 C480.747265,390.31039 484.220603,389 488,389 C496.836556,389 504,396.163444 504,405 C504,410.310008 501.4133,415.015859 497.431237,417.926217 C499.662814,420.676631 501,424.182157 501,428 C501,436.836556 493.836556,444 485,444 C476.163444,444 469,436.836556 469,428 C469,425.018479 469.815514,422.227431 471.23565,419.83775 Z M182.205178,436.558343 C184.359399,437.143608 186.332959,438.167627 188.023964,439.528506 C188.037002,439.257661 188.055397,438.985928 188.079239,438.713415 C188.305642,436.125613 189.003565,433.692351 190.080948,431.490875 C188.129299,433.736407 185.561923,435.432516 182.641695,436.316331 C182.49724,436.398729 182.351724,436.479408 182.205178,436.558343 Z M287.131539,356.0612 C287.130699,356.063027 287.12986,356.064854 287.129019,356.06668 C287.130021,356.066113 287.131023,356.065546 287.132025,356.064979 C287.131863,356.063719 287.131701,356.06246 287.131539,356.0612 Z M103.43368,433.765573 C107.571301,428.555291 114.1625,425.455962 121.286585,426.079239 C132.56466,427.065942 140.907465,437.00851 139.920761,448.286585 C138.934058,459.56466 128.99149,467.907465 117.713415,466.920761 C108.038718,466.074335 100.524017,458.637502 99.2057276,449.420675 C96.3192305,452.253181 92.363611,454 88,454 C79.163444,454 72,446.836556 72,438 C72,429.163444 79.163444,422 88,422 C95.3706844,422 101.577311,426.983924 103.43368,433.765573 Z M1207.89136,38.7209415 C1205.71945,40.7400468 1202.98554,42.1627828 1199.95022,42.7285691 C1199.9832,43.1480397 1200,43.5720578 1200,44 C1200,52.836556 1192.83656,60 1184,60 C1175.16344,60 1168,52.836556 1168,44 C1168,36.1713331 1173.62253,29.6558774 1181.04978,28.2714309 C1181.0168,27.8519603 1181,27.4279422 1181,27 C1181,18.163444 1188.16344,11 1197,11 C1201.0091,11 1204.67381,12.4745154 1207.48139,14.9108151 C1207.16698,13.6592354 1207,12.3491174 1207,11 C1207,2.163444 1214.16344,-5 1223,-5 C1227.19104,-5 1231.00573,-3.38861273 1233.85829,-0.75159277 C1238.01412,-5.64846062 1244.40149,-8.52312946 1251.28659,-7.92076126 C1262.56466,-6.93405755 1270.90746,3.00851009 1269.92076,14.2865851 C1268.93406,25.5646601 1258.99149,33.907465 1247.71341,32.9207613 C1241.27916,32.357837 1235.80028,28.8799443 1232.46413,23.9021105 C1229.81368,25.8495896 1226.54118,27 1223,27 C1218.9909,27 1215.32619,25.5254846 1212.51861,23.0891849 C1212.83302,24.3407646 1213,25.6508826 1213,27 C1213,28.849791 1212.68609,30.6262651 1212.10864,32.2790585 C1214.96476,29.6238792 1218.79274,28 1223,28 C1231.83656,28 1239,35.163444 1239,44 C1239,52.836556 1231.83656,60 1223,60 C1214.16344,60 1207,52.836556 1207,44 C1207,42.150209 1207.31391,40.3737349 1207.89136,38.7209415 Z M623.251476,259.001936 C620.146919,257.280235 617.67527,254.555994 616.273678,251.266362 C615.410539,251.990049 614.469894,252.62432 613.465997,253.154921 C614.449699,255.230151 615,257.550811 615,260 C615,260.391696 614.985925,260.780106 614.958253,261.164749 C617.32105,259.788405 620.068454,259 623,259 C623.083979,259 623.167807,259.000647 623.251478,259.001936 Z M746.443107,227.0642 C746.41157,226.984927 746.380516,226.905424 746.349949,226.825694 C746.16115,226.892744 745.971149,226.957086 745.779999,227.01868 C746.002254,227.029348 746.223321,227.044552 746.443107,227.0642 Z M637.009697,303.000003 C633.349343,299.338305 631.091451,294.319704 631.002716,288.857913 C630.093663,289.38401 629.128046,289.823227 628.11722,290.164209 C625.224326,294.297274 620.427791,297 615,297 C609.644882,297 604.904229,294.369164 602,290.32945 C601.34383,291.242167 600.593915,292.082965 599.76435,292.83775 C601.184486,295.227431 602,298.018479 602,301 C602,306.058569 599.65247,310.568842 595.9874,313.500832 C599.239264,314.334965 602.091733,316.165525 604.200123,318.647829 C605.6989,307.914768 615.366735,300.123876 626.286585,301.079239 C629.041117,301.320229 631.620555,302.095456 633.931737,303.293895 C634.924764,303.10103 635.950584,303 637,303 C637.003232,303 637.006465,303.000001 637.009697,303.000003 Z M689.831221,190.10365 C689.701535,189.718052 689.586139,189.325889 689.485665,188.927789 C688.579804,189.370565 687.638019,189.748075 686.666957,190.054741 C687.106507,190.018487 687.551095,190 688,190 C688.619253,190 689.23029,190.03518 689.831221,190.10365 Z M722.464132,218.90211 C722.075714,219.187509 721.673936,219.45579 721.259912,219.70584 C726.848592,223.627038 730.329416,230.240039 729.975304,237.486586 C731.582791,233.107322 735.050269,229.625949 739.42046,227.999743 C738.855555,227.996922 738.286208,227.970874 737.713415,227.920761 C731.279161,227.357837 725.800284,223.879944 722.464132,218.90211 Z M551.4928,189.026976 C550.194358,188.550973 548.97478,187.911481 547.859004,187.133436 C547.572712,189.282076 546.860004,191.295909 545.808757,193.087058 C547.85493,193.884648 549.696543,195.09121 551.233151,196.6063 C550.991476,195.021012 550.933272,193.381827 551.079239,191.713415 C551.159377,190.797431 551.298591,189.90081 551.4928,189.026976 Z M571.026799,250.703521 C570.222862,252.164241 569.19739,253.485863 567.995649,254.623121 C567.998544,254.748397 568,254.874028 568,255 C568,259.40864 566.216944,263.400824 563.332642,266.294744 C563.506547,266.957244 563.647878,267.631894 563.754959,268.316698 C567.552922,271.242123 570,275.835289 570,281 C570,283.981521 569.184486,286.772569 567.76435,289.16225 C569.321114,290.578682 570.597377,292.298019 571.5,294.227122 C572.402623,292.298019 573.678886,290.578682 575.23565,289.16225 C573.815514,286.772569 573,283.981521 573,281 C573,273.882528 577.647371,267.850508 584.073137,265.772914 C583.380079,263.982116 583,262.035444 583,260 C583,257.550811 583.550301,255.230151 584.534003,253.154921 C583.026154,252.35796 581.661001,251.327121 580.486845,250.110705 C578.042328,250.857871 575.416222,251.157226 572.713415,250.920761 C572.143437,250.870895 571.580957,250.798154 571.026799,250.703521 Z M593.613773,223.080374 C595.528856,223.272181 597.344407,223.801688 599,224.608466 C600.526125,223.864778 602.188169,223.356692 603.938802,223.131539 C600.782766,221.681212 598.079618,219.460044 596.047637,216.72817 C591.334786,215.849023 587.348796,212.90391 585.065196,208.868359 C584.023359,209.78767 582.889115,210.601278 581.680158,211.294336 C587.194412,213.352338 591.517668,217.692629 593.613773,223.080374 Z M613.624653,122.96688 C609.610921,120.059806 607,115.33481 607,110 C607,101.163444 614.163444,94 623,94 C631.836556,94 639,101.163444 639,110 C639,112.523432 638.41583,114.910425 637.375347,117.03312 C640.378932,119.208562 642.596951,122.402029 643.523137,126.107253 C646.175842,124.154099 649.453144,123 653,123 C661.836556,123 669,130.163444 669,139 C669,147.836556 661.836556,155 653,155 C645.506071,155 639.215453,149.84801 637.476863,142.892747 C634.824158,144.845901 631.546856,146 628,146 C619.163444,146 612,138.836556 612,130 C612,127.476568 612.58417,125.089575 613.624653,122.96688 Z M1359.5,-75.4420639 C1357.03726,-73.8948187 1354.12313,-73 1351,-73 C1342.16344,-73 1335,-80.163444 1335,-89 C1335,-97.836556 1342.16344,-105 1351,-105 C1354.12313,-105 1357.03726,-104.105181 1359.5,-102.557936 C1361.96274,-104.105181 1364.87687,-105 1368,-105 C1376.83656,-105 1384,-97.836556 1384,-89 C1384,-80.163444 1376.83656,-73 1368,-73 C1364.87687,-73 1361.96274,-73.8948187 1359.5,-75.4420639 Z M131.185217,509.94549 C133.572253,504.11072 139.306071,500 146,500 C154.836556,500 162,507.163444 162,516 C162,524.836556 154.836556,532 146,532 C138.929745,532 132.930587,527.414085 130.814783,521.05451 C128.427747,526.88928 122.693929,531 116,531 C107.163444,531 100,523.836556 100,515 C100,508.947562 103.360598,503.680033 108.317623,500.961585 C102.286266,498.669617 98,492.835364 98,486 C98,477.163444 105.163444,470 114,470 C122.836556,470 130,477.163444 130,486 C130,492.052438 126.639402,497.319967 121.682377,500.038415 C126.155194,501.738124 129.668278,505.385953 131.185217,509.94549 Z M832.877464,112.473051 C835.570376,107.430976 840.884514,104 847,104 C855.836556,104 863,111.163444 863,120 C863,128.836556 855.836556,136 847,136 C845.662861,136 844.364032,135.835975 843.122536,135.526949 C840.429624,140.569024 835.115486,144 829,144 C820.163444,144 813,136.836556 813,128 C813,119.163444 820.163444,112 829,112 C830.337139,112 831.635968,112.164025 832.877464,112.473051 Z M842.602017,87.4495939 C842.068802,85.3053987 841.875884,83.0377698 842.079239,80.7134149 C843.065942,69.4353399 853.00851,61.092535 864.286585,62.0792387 C864.890352,62.1320615 865.485707,62.2105514 866.071669,62.3135392 C868.931687,59.6379447 872.774562,58 877,58 C885.836556,58 893,65.163444 893,74 C893,81.1416263 888.321032,87.1904211 881.861381,89.248101 C878.851165,97.9054344 870.26083,103.756052 860.713415,102.920761 C852.884587,102.235828 846.470158,97.2353955 843.608945,90.4684102 C843.864909,91.6045755 844,92.7865116 844,94 C844,102.836556 836.836556,110 828,110 C819.163444,110 812,102.836556 812,94 C812,85.163444 819.163444,78 828,78 C834.502654,78 840.099283,81.8791545 842.602017,87.4495939 Z M395.910046,364.527503 C396.079748,364.482764 396.250553,364.440743 396.422412,364.40149 C396.318087,364.302803 396.214819,364.203048 396.112622,364.102244 C396.046666,364.244934 395.979133,364.386694 395.910046,364.527503 Z M82,291 C73.163444,291 66,283.836556 66,275 C66,266.163444 73.163444,259 82,259 C90.836556,259 98,266.163444 98,275 C98,283.836556 90.836556,291 82,291 Z M757.286585,394.079239 C768.56466,395.065942 776.907465,405.00851 775.920761,416.286585 C774.934058,427.56466 764.99149,435.907465 753.713415,434.920761 C742.43534,433.934058 734.092535,423.99149 735.079239,412.713415 C736.065942,401.43534 746.00851,393.092535 757.286585,394.079239 Z M891,-8 C882.163444,-8 875,-15.163444 875,-24 C875,-32.836556 882.163444,-40 891,-40 C899.836556,-40 907,-32.836556 907,-24 C907,-15.163444 899.836556,-8 891,-8 Z M1435,-73 C1426.16344,-73 1419,-80.163444 1419,-89 C1419,-97.836556 1426.16344,-105 1435,-105 C1443.83656,-105 1451,-97.836556 1451,-89 C1451,-80.163444 1443.83656,-73 1435,-73 Z M1317,-40 C1308.16344,-40 1301,-47.163444 1301,-56 C1301,-64.836556 1308.16344,-72 1317,-72 C1325.83656,-72 1333,-64.836556 1333,-56 C1333,-47.163444 1325.83656,-40 1317,-40 Z M391,259 C382.163444,259 375,251.836556 375,243 C375,234.163444 382.163444,227 391,227 C399.836556,227 407,234.163444 407,243 C407,251.836556 399.836556,259 391,259 Z M1284.28659,59.0792387 C1295.56466,60.0659425 1303.90746,70.0085101 1302.92076,81.2865851 C1301.93406,92.5646601 1291.99149,100.907465 1280.71341,99.9207613 C1269.43534,98.9340575 1261.09254,88.9914899 1262.07924,77.7134149 C1263.06594,66.4353399 1273.00851,58.092535 1284.28659,59.0792387 Z M860,353 C851.163444,353 844,345.836556 844,337 C844,328.163444 851.163444,321 860,321 C868.836556,321 876,328.163444 876,337 C876,345.836556 868.836556,353 860,353 Z M82,421 C73.163444,421 66,413.836556 66,405 C66,396.163444 73.163444,389 82,389 C90.836556,389 98,396.163444 98,405 C98,413.836556 90.836556,421 82,421 Z M1142.28659,217.079239 C1153.56466,218.065942 1161.90746,228.00851 1160.92076,239.286585 C1159.93406,250.56466 1149.99149,258.907465 1138.71341,257.920761 C1127.43534,256.934058 1119.09254,246.99149 1120.07924,235.713415 C1121.06594,224.43534 1131.00851,216.092535 1142.28659,217.079239 Z M178,353 C169.163444,353 162,345.836556 162,337 C162,328.163444 169.163444,321 178,321 C186.836556,321 194,328.163444 194,337 C194,345.836556 186.836556,353 178,353 Z M1311,-4 C1302.16344,-4 1295,-11.163444 1295,-20 C1295,-28.836556 1302.16344,-36 1311,-36 C1319.83656,-36 1327,-28.836556 1327,-20 C1327,-11.163444 1319.83656,-4 1311,-4 Z M1288,27 C1279.16344,27 1272,19.836556 1272,11 C1272,2.163444 1279.16344,-5 1288,-5 C1296.83656,-5 1304,2.163444 1304,11 C1304,19.836556 1296.83656,27 1288,27 Z M1223,126 C1214.16344,126 1207,118.836556 1207,110 C1207,101.163444 1214.16344,94 1223,94 C1231.83656,94 1239,101.163444 1239,110 C1239,118.836556 1231.83656,126 1223,126 Z M-12.7134149,444.079239 C-1.43533987,445.065942 6.90746497,455.00851 5.92076126,466.286585 C4.93405755,477.56466 -5.00851009,485.907465 -16.2865851,484.920761 C-27.5646601,483.934058 -35.907465,473.99149 -34.9207613,462.713415 C-33.9340575,451.43534 -23.9914899,443.092535 -12.7134149,444.079239 Z M48,699 C39.163444,699 32,691.836556 32,683 C32,674.163444 39.163444,667 48,667 C56.836556,667 64,674.163444 64,683 C64,691.836556 56.836556,699 48,699 Z M1001,-35 C1009.83656,-35 1017,-27.836556 1017,-19 C1017,-10.163444 1009.83656,-3 1001,-3 C992.163444,-3 985,-10.163444 985,-19 C985,-27.836556 992.163444,-35 1001,-35 Z M114,566 C105.163444,566 98,558.836556 98,550 C98,541.163444 105.163444,534 114,534 C122.836556,534 130,541.163444 130,550 C130,558.836556 122.836556,566 114,566 Z M-51,566 C-59.836556,566 -67,558.836556 -67,550 C-67,541.163444 -59.836556,534 -51,534 C-42.163444,534 -35,541.163444 -35,550 C-35,558.836556 -42.163444,566 -51,566 Z M1154,27 C1145.16344,27 1138,19.836556 1138,11 C1138,2.163444 1145.16344,-5 1154,-5 C1162.83656,-5 1170,2.163444 1170,11 C1170,19.836556 1162.83656,27 1154,27 Z M1184,190 C1175.16344,190 1168,182.836556 1168,174 C1168,165.163444 1175.16344,158 1184,158 C1192.83656,158 1200,165.163444 1200,174 C1200,182.836556 1192.83656,190 1184,190 Z M423,502 C414.163444,502 407,494.836556 407,486 C407,477.163444 414.163444,470 423,470 C431.836556,470 439,477.163444 439,486 C439,494.836556 431.836556,502 423,502 Z M-69.7134149,402.079239 C-58.4353399,403.065942 -50.092535,413.00851 -51.0792387,424.286585 C-52.0659425,435.56466 -62.0085101,443.907465 -73.2865851,442.920761 C-84.5646601,441.934058 -92.907465,431.99149 -91.9207613,420.713415 C-90.9340575,409.43534 -80.9914899,401.092535 -69.7134149,402.079239 Z M263,566 C254.163444,566 247,558.836556 247,550 C247,541.163444 254.163444,534 263,534 C271.836556,534 279,541.163444 279,550 C279,558.836556 271.836556,566 263,566 Z M1122,-40 C1113.16344,-40 1106,-47.163444 1106,-56 C1106,-64.836556 1113.16344,-72 1122,-72 C1130.83656,-72 1138,-64.836556 1138,-56 C1138,-47.163444 1130.83656,-40 1122,-40 Z M114,353 C105.163444,353 98,345.836556 98,337 C98,328.163444 105.163444,321 114,321 C122.836556,321 130,328.163444 130,337 C130,345.836556 122.836556,353 114,353 Z M391,222 C382.163444,222 375,214.836556 375,206 C375,197.163444 382.163444,190 391,190 C399.836556,190 407,197.163444 407,206 C407,214.836556 399.836556,222 391,222 Z M1252,-73 C1243.16344,-73 1236,-80.163444 1236,-89 C1236,-97.836556 1243.16344,-105 1252,-105 C1260.83656,-105 1268,-97.836556 1268,-89 C1268,-80.163444 1260.83656,-73 1252,-73 Z M82,566 C73.163444,566 66,558.836556 66,550 C66,541.163444 73.163444,534 82,534 C90.836556,534 98,541.163444 98,550 C98,558.836556 90.836556,566 82,566 Z M1368,27 C1359.16344,27 1352,19.836556 1352,11 C1352,2.163444 1359.16344,-5 1368,-5 C1376.83656,-5 1384,2.163444 1384,11 C1384,19.836556 1376.83656,27 1368,27 Z M1501,-107 C1492.16344,-107 1485,-114.163444 1485,-123 C1485,-131.836556 1492.16344,-139 1501,-139 C1509.83656,-139 1517,-131.836556 1517,-123 C1517,-114.163444 1509.83656,-107 1501,-107 Z M713,317 C704.163444,317 697,309.836556 697,301 C697,292.163444 704.163444,285 713,285 C721.836556,285 729,292.163444 729,301 C729,309.836556 721.836556,317 713,317 Z M1120.28659,21.0792387 C1131.56466,22.0659425 1139.90746,32.0085101 1138.92076,43.2865851 C1137.93406,54.5646601 1127.99149,62.907465 1116.71341,61.9207613 C1105.43534,60.9340575 1097.09254,50.9914899 1098.07924,39.7134149 C1099.06594,28.4353399 1109.00851,20.092535 1120.28659,21.0792387 Z M778,353 C769.163444,353 762,345.836556 762,337 C762,328.163444 769.163444,321 778,321 C786.836556,321 794,328.163444 794,337 C794,345.836556 786.836556,353 778,353 Z M837,390 C828.163444,390 821,382.836556 821,374 C821,365.163444 828.163444,358 837,358 C845.836556,358 853,365.163444 853,374 C853,382.836556 845.836556,390 837,390 Z M48,437 C39.163444,437 32,429.836556 32,421 C32,412.163444 39.163444,405 48,405 C56.836556,405 64,412.163444 64,421 C64,429.836556 56.836556,437 48,437 Z M384.394408,454.061845 C393.196808,454.831955 399.708265,462.592008 398.938155,471.394408 C398.168045,480.196808 390.407992,486.708265 381.605592,485.938155 C372.803192,485.168045 366.291735,477.407992 367.061845,468.605592 C367.831955,459.803192 375.592008,453.291735 384.394408,454.061845 Z M445.286585,184.079239 C456.56466,185.065942 464.907465,195.00851 463.920761,206.286585 C462.934058,217.56466 452.99149,225.907465 441.713415,224.920761 C430.43534,223.934058 422.092535,213.99149 423.079239,202.713415 C424.065942,191.43534 434.00851,183.092535 445.286585,184.079239 Z M146,600 C137.163444,600 130,592.836556 130,584 C130,575.163444 137.163444,568 146,568 C154.836556,568 162,575.163444 162,584 C162,592.836556 154.836556,600 146,600 Z M-18,566 C-26.836556,566 -34,558.836556 -34,550 C-34,541.163444 -26.836556,534 -18,534 C-9.163444,534 -2,541.163444 -2,550 C-2,558.836556 -9.163444,566 -18,566 Z M1025,-75 C1033.83656,-75 1041,-67.836556 1041,-59 C1041,-50.163444 1033.83656,-43 1025,-43 C1016.16344,-43 1009,-50.163444 1009,-59 C1009,-67.836556 1016.16344,-75 1025,-75 Z M82,632 C73.163444,632 66,624.836556 66,616 C66,607.163444 73.163444,600 82,600 C90.836556,600 98,607.163444 98,616 C98,624.836556 90.836556,632 82,632 Z M-84,600 C-92.836556,600 -100,592.836556 -100,584 C-100,575.163444 -92.836556,568 -84,568 C-75.163444,568 -68,575.163444 -68,584 C-68,592.836556 -75.163444,600 -84,600 Z M1190,7 C1181.16344,7 1174,-0.163444003 1174,-9 C1174,-17.836556 1181.16344,-25 1190,-25 C1198.83656,-25 1206,-17.836556 1206,-9 C1206,-0.163444003 1198.83656,7 1190,7 Z M1351,-8 C1342.16344,-8 1335,-15.163444 1335,-24 C1335,-32.836556 1342.16344,-40 1351,-40 C1359.83656,-40 1367,-32.836556 1367,-24 C1367,-15.163444 1359.83656,-8 1351,-8 Z M1411,29 C1402.16344,29 1395,21.836556 1395,13 C1395,4.163444 1402.16344,-3 1411,-3 C1419.83656,-3 1427,4.163444 1427,13 C1427,21.836556 1419.83656,29 1411,29 Z M525,421 C516.163444,421 509,413.836556 509,405 C509,396.163444 516.163444,389 525,389 C533.836556,389 541,396.163444 541,405 C541,413.836556 533.836556,421 525,421 Z M745,353 C736.163444,353 729,345.836556 729,337 C729,328.163444 736.163444,321 745,321 C753.836556,321 761,328.163444 761,337 C761,345.836556 753.836556,353 745,353 Z M339.286585,210.079239 C350.56466,211.065942 358.907465,221.00851 357.920761,232.286585 C356.934058,243.56466 346.99149,251.907465 335.713415,250.920761 C324.43534,249.934058 316.092535,239.99149 317.079239,228.713415 C318.065942,217.43534 328.00851,209.092535 339.286585,210.079239 Z M358,566 C349.163444,566 342,558.836556 342,550 C342,541.163444 349.163444,534 358,534 C366.836556,534 374,541.163444 374,550 C374,558.836556 366.836556,566 358,566 Z" id="Combined-Shape"></path>
                </g>
            </g>
        </g>
    </g>
</svg>