<?xml version="1.0" encoding="UTF-8"?>
<svg width="100px" height="100px" viewBox="0 0 200 200" version="1.1" xmlns="http://www.w3.org/2000/svg" xmlns:xlink="http://www.w3.org/1999/xlink">
    <!-- Generator: Sketch 54.1 (76490) - https://sketchapp.com -->
    <title>ar-logo2</title>
    <desc>Created with Sketch.</desc>
    <defs>
        <filter x="-8.5%" y="-8.5%" width="116.9%" height="117.2%" filterUnits="objectBoundingBox" id="filter-1">
            <feOffset dx="2" dy="2" in="SourceAlpha" result="shadowOffsetOuter1"></feOffset>
            <feGaussianBlur stdDeviation="2" in="shadowOffsetOuter1" result="shadowBlurOuter1"></feGaussianBlur>
            <feColorMatrix values="0 0 0 0 0   0 0 0 0 0   0 0 0 0 0  0 0 0 0.0579381556 0" type="matrix" in="shadowBlurOuter1" result="shadowMatrixOuter1"></feColorMatrix>
            <feMerge>
                <feMergeNode in="shadowMatrixOuter1"></feMergeNode>
                <feMergeNode in="SourceGraphic"></feMergeNode>
            </feMerge>
        </filter>
    </defs>
    <g id="Page-1" stroke="none" stroke-width="1" fill="none" fill-rule="evenodd">
        <g id="Artboard" transform="translate(-167.000000, -101.000000)">
            <g id="ar-logo2" filter="url(#filter-1)" transform="translate(168.000000, 103.000000)">
                <rect id="Rectangle" fill="#2F5E83" x="1.21367521" y="0.613743952" width="138.358974" height="138.358974"></rect>
                <g id="ar-logo" transform="translate(0.981470, 0.572307)" fill="#FFFFFF" fill-rule="nonzero">
                    <polygon id="Path" points="17.3630972 0 0.251722543 0 0.251722543 53.746195"></polygon>
                    <path d="M65.0472723,78.4360897 C65.0472723,67.6494357 59.0767997,65.3328923 46.3278503,65.3328923 L43.7446258,65.3328923 L43.7446258,90.4646098 L46.3278503,90.464602 C58.8101185,90.4685823 65.0472723,88.9520822 65.0472723,78.4360897 Z" id="Path"></path>
                    <polygon id="Path" points="42.8530352 139.311029 72.621812 139.311029 44.4571022 101.521917 42.8530352 101.521917"></polygon>
                    <polygon id="Path" points="34.8327003 53.0337186 24.85007 20.4986229 15.1381011 53.0337186"></polygon>
                    <path d="M32.6952711,0 L50.1648741,53.1212856 C59.2559138,53.1212856 65.9428432,53.9253092 71.1968592,58.0210535 C76.4548555,62.208345 79.6669698,69.0743885 79.6669698,77.2698574 C79.6669698,91.3561926 72.8009262,99.2849803 59.6101619,100.889047 L88.7580095,139.311029 L139.650319,139.311029 L139.650319,0 L32.6952711,0 Z" id="Path"></path>
                    <polygon id="Path" points="29.574704 67.8285499 29.574704 67.8285499 10.6801482 67.8285499 0.251722543 101.788598 0.251722543 139.311029 29.574704 139.311029"></polygon>
                </g>
            </g>
        </g>
    </g>
</svg>