<?xml version="1.0" encoding="UTF-8"?>
<svg width="240px" height="128px" viewBox="0 0 122 128" version="1.1" xmlns="http://www.w3.org/2000/svg" xmlns:xlink="http://www.w3.org/1999/xlink">
    <!-- Generator: Sketch 54.1 (76490) - https://sketchapp.com -->
    <title>logo2</title>
    <desc>Created with Sketch.</desc>
    <defs>
        <linearGradient x1="0%" y1="49.9965713%" x2="77.7265605%" y2="50.0527375%" id="linearGradient-1">
            <stop stop-color="#032664" offset="0%"></stop>
            <stop stop-color="#115992" offset="100%"></stop>
        </linearGradient>
        <linearGradient x1="0%" y1="49.9804911%" x2="77.7265605%" y2="50.3000678%" id="linearGradient-2">
            <stop stop-color="#032664" offset="0%"></stop>
            <stop stop-color="#115992" offset="100%"></stop>
        </linearGradient>
        <linearGradient x1="13.4227233%" y1="97.6092193%" x2="91.5440239%" y2="30.0766291%" id="linearGradient-3">
            <stop stop-color="#032664" offset="0%"></stop>
            <stop stop-color="#28B0E1" offset="51.6528179%"></stop>
            <stop stop-color="#2CD2A4" offset="100%"></stop>
        </linearGradient>
    </defs>
    <g id="Page-1" stroke="none" stroke-width="1" fill="none" fill-rule="evenodd">
        <g id="Artboard" transform="translate(-17.000000, -29.000000)">
            <g id="logo2" transform="translate(20.000000, 28.000000)">
                <path d="M-59.3484722,64.6374881 L61.4103466,64.6989398" id="Line-Copy" stroke="url(#linearGradient-1)" stroke-width="6.2" stroke-linecap="round" stroke-linejoin="round" transform="translate(1.030937, 64.668214) rotate(-90.000000) translate(-1.030937, -64.668214) "></path>
                <path d="M1.01121081,124.049786 L115.341054,126.308134" id="Line-Copy-2" stroke="url(#linearGradient-2)" stroke-width="6.2" stroke-linecap="round" stroke-linejoin="round" transform="translate(58.176132, 125.178960) rotate(-1.000000) translate(-58.176132, -125.178960) "></path>
                <path d="M49.9713181,74.9558909 C50.3606581,79.4688464 47.020445,83.4515242 42.5107433,83.8514507 C38.0010416,84.2513771 34.0295836,80.9171083 33.6402436,76.4041527 C33.2509036,71.8911972 36.5911168,67.9085194 41.1008185,67.5085929 C45.6105202,67.1086665 49.5819781,70.4429353 49.9713181,74.9558909 Z M35.5286451,103.669858 C35.6386011,104.915794 34.7302114,106.012317 33.4996999,106.119009 C32.2691885,106.225703 31.1825248,105.302163 31.0725688,104.056227 C30.9626128,102.810291 31.8710024,101.713768 33.1015139,101.607075 C34.3320254,101.500382 35.418689,102.423921 35.5286451,103.669858 Z M13.5482033,94.1134474 C13.6581593,95.3593837 12.7497696,96.4559067 11.5192582,96.5625998 C10.2887467,96.6692929 9.20208305,95.7457537 9.092127,94.4998173 C8.98217096,93.2538809 9.89056061,92.1573581 11.1210721,92.050665 C12.3515835,91.9439719 13.4382473,92.867511 13.5482033,94.1134474 Z M48.6572217,95.8149529 C48.9523101,99.2338252 46.4226337,102.250809 43.0070313,102.553574 C39.591429,102.85634 36.5833199,100.330237 36.2882315,96.911364 C35.9931431,93.4924916 38.5228195,90.475508 41.9384218,90.1727424 C45.3540242,89.8699769 48.3621334,92.3960805 48.6572217,95.8149529 Z M16.4364121,67.6396933 C16.5097161,68.4703177 15.904123,69.2013329 15.083782,69.2724616 C14.263441,69.3435903 13.5389986,68.7278976 13.4656945,67.8972733 C13.3923906,67.0666491 13.9979836,66.3356338 14.8183247,66.2645051 C15.6386656,66.1933764 16.363108,66.8090691 16.4364121,67.6396933 Z M57.2868394,86.2618416 C57.4700995,88.3384024 55.9561168,90.1659405 53.9052643,90.3437623 C51.8544118,90.5215841 50.0433057,88.9823523 49.8600456,86.9057916 C49.6767855,84.829231 51.1907683,83.0016928 53.2416207,82.8238709 C55.2924732,82.6460491 57.1035793,84.185281 57.2868394,86.2618416 Z M53.5865677,36.5214414 C53.6965238,37.7673778 52.7881341,38.8639006 51.5576227,38.9705938 C50.3271112,39.0772869 49.2404475,38.1537478 49.1304914,36.9078114 C49.0205354,35.661875 49.9289251,34.5653521 51.1594366,34.4586589 C52.389948,34.3519658 53.4766117,35.275505 53.5865677,36.5214414 Z M111.369145,15.0273276 C111.442448,15.8579518 110.836855,16.5889671 110.016515,16.6600959 C109.196174,16.7312246 108.471731,16.1155319 108.398427,15.2849076 C108.325123,14.4542833 108.930716,13.7232681 109.751057,13.6521394 C110.571398,13.5810105 111.29584,14.1967034 111.369145,15.0273276 Z M45.9119677,50.79427 C45.9852716,51.6248944 45.3796786,52.3559096 44.5593375,52.4270383 C43.7389966,52.498167 43.0145542,51.8824743 42.9412501,51.05185 C42.8679461,50.2212258 43.4735392,49.4902105 44.2938801,49.4190818 C45.1142212,49.3479531 45.8386636,49.9636458 45.9119677,50.79427 Z M39.5157342,47.6564254 C39.6256902,48.9023618 38.7173006,49.9988846 37.4867891,50.1055777 C36.2562776,50.2122708 35.169614,49.2887317 35.059658,48.0427954 C34.9497019,46.7968589 35.8580915,45.700336 37.088603,45.5936429 C38.3191145,45.4869498 39.4057781,46.410489 39.5157342,47.6564254 Z M74.1591271,53.9430731 C74.5176986,58.0981762 71.4429271,61.7649225 67.2914327,62.1329802 C63.1399382,62.5010378 59.4838073,59.4310309 59.1252358,55.2759277 C58.7666642,51.1208246 61.8414358,47.4540783 65.9929302,47.0860206 C70.1444247,46.717963 73.8005556,49.7879699 74.1591271,53.9430731 Z M36.5543428,86.3478437 C36.8351685,89.5453796 34.4962449,92.3611512 31.3302104,92.6370456 C28.164176,92.9129401 25.3699436,90.5444819 25.0891177,87.346946 C24.8082918,84.1494102 27.1472155,81.3336386 30.31325,81.0577442 C33.4792845,80.7818497 36.2735169,83.150308 36.5543428,86.3478437 Z M21.0825105,112.89028 C21.1924666,114.136216 20.2840769,115.232739 19.0535655,115.339432 C17.823054,115.446126 16.7363903,114.522586 16.6264342,113.27665 C16.5164782,112.030714 17.4248679,110.934191 18.6553793,110.827497 C19.8858908,110.720804 20.9725545,111.644343 21.0825105,112.89028 Z M81.7121526,50.6596798 C81.8221087,51.9056162 80.9137191,53.0021392 79.6832076,53.1088323 C78.4526961,53.2155254 77.3660325,52.2919862 77.2560763,51.0460498 C77.1461203,49.8001134 78.05451,48.7035906 79.2850215,48.5968975 C80.515533,48.4902043 81.6021966,49.4137434 81.7121526,50.6596798 Z M55.6532416,96.2808353 C55.7265457,97.1114596 55.1209526,97.8424748 54.3006116,97.9136036 C53.4802706,97.9847323 52.7558281,97.3690396 52.6825242,96.5384152 C52.6092201,95.707791 53.2148132,94.9767758 54.0351542,94.9056471 C54.8554952,94.8345182 55.5799376,95.4502111 55.6532416,96.2808353 Z M46.5366352,111.047216 C46.6099391,111.87784 46.0043461,112.608855 45.184005,112.679983 C44.363664,112.751112 43.6392216,112.135419 43.5659176,111.304795 C43.4926136,110.474171 44.0982067,109.743156 44.9185476,109.672027 C45.7388887,109.600898 46.4633311,110.216591 46.5366352,111.047216 Z M99.9665221,41.4933561 C100.039826,42.3239805 99.4342331,43.0549957 98.613892,43.1261244 C97.7935511,43.1972532 97.0691087,42.5815604 96.9958046,41.7509362 C96.9225005,40.9203119 97.5280937,40.1892966 98.3484346,40.1181679 C99.1687756,40.0470392 99.8932181,40.6627319 99.9665221,41.4933561 Z M67.3045371,33.5643002 C67.4899713,35.6654954 65.9580278,37.5147138 63.8828459,37.6946451 C61.807664,37.8745765 59.9750725,36.3170845 59.7896384,34.2158894 C59.6042042,32.1146942 61.1361475,30.2654758 63.2113296,30.0855444 C65.2865115,29.9056131 67.119103,31.463105 67.3045371,33.5643002 Z M58.3356498,49.4038193 C58.5210839,51.5050145 56.9891406,53.3542329 54.9139586,53.5341643 C52.8387766,53.7140958 51.0061852,52.1566037 50.8207511,50.0554086 C50.6353169,47.9542133 52.1672603,46.1049949 54.2424423,45.9250636 C56.3176242,45.7451322 58.1502157,47.3026242 58.3356498,49.4038193 Z M75.0722393,94.3164112 C75.1821954,95.5623475 74.2738056,96.6588705 73.0432941,96.7655636 C71.8127827,96.8722567 70.726119,95.9487175 70.616163,94.7027811 C70.506207,93.4568447 71.4145966,92.3603219 72.6451081,92.2536288 C73.8756196,92.1469357 74.9622832,93.0704748 75.0722393,94.3164112 Z M102.354825,13.1457772 C102.538085,15.2223379 101.024102,17.0498761 98.97325,17.2276979 C96.9223976,17.4055197 95.1112915,15.8662878 94.9280314,13.7897272 C94.7447713,11.7131666 96.2587541,9.88562836 98.3096066,9.70780653 C100.360459,9.52998469 102.171565,11.0692166 102.354825,13.1457772 Z M81.4179389,17.817709 C81.5278949,19.0636454 80.6195052,20.1601682 79.3889937,20.2668614 C78.1584823,20.3735545 77.0718186,19.4500154 76.9618626,18.204079 C76.8519065,16.9581426 77.7602961,15.8616197 78.9908076,15.7549265 C80.2213191,15.6482334 81.3079827,16.5717726 81.4179389,17.817709 Z M65.4019214,70.7586671 C65.6951376,74.0811643 63.2727651,77.0052252 59.9914011,77.2897401 C56.7100372,77.5742552 53.8122675,75.1114841 53.5190513,71.7889871 C53.2258352,68.4664899 55.6482077,65.542429 58.9295716,65.257914 C62.2109356,64.973399 65.1087053,67.4361701 65.4019214,70.7586671 Z M90.6075521,53.695376 C90.7908121,55.7719366 89.2768294,57.5994748 87.2259769,57.7772967 C85.1751244,57.9551185 83.3640184,56.4158866 83.1807584,54.3393259 C82.9974983,52.2627652 84.511481,50.4352271 86.5623335,50.2574053 C88.6131859,50.0795835 90.424292,51.6188154 90.6075521,53.695376 Z M76.7756293,79.7691508 C76.9955414,82.2610236 75.178762,84.4540694 72.717739,84.6674556 C70.2567161,84.8808419 68.0833888,83.0337636 67.8634768,80.5418908 C67.6435647,78.050018 69.460344,75.8569722 71.9213669,75.643586 C74.3823899,75.4301997 76.5557172,77.277278 76.7756293,79.7691508 Z M30.94138,72.3585464 C31.1559898,74.844999 29.3162251,77.039169 26.8321507,77.2593622 C24.3480762,77.4795553 22.1603604,75.642389 21.9457507,73.1559364 C21.731141,70.6694837 23.5709056,68.4753138 26.0549801,68.2551206 C28.5390545,68.0349276 30.7267703,69.8720937 30.94138,72.3585464 Z M29.3679424,98.2351264 C29.609363,101.032387 27.5396145,103.500818 24.7450295,103.748519 C21.9504445,103.996222 19.4892758,101.929396 19.2478551,99.1321358 C19.0064345,96.3348753 21.0761831,93.8664452 23.8707681,93.6187428 C26.6653529,93.3710405 29.1265218,95.4378659 29.3679424,98.2351264 Z M36.5949917,63.5785308 C36.6682956,64.4091551 36.0627026,65.1401703 35.2423616,65.2112991 C34.4220206,65.2824278 33.6975782,64.6667351 33.6242741,63.8361108 C33.5509701,63.0054866 34.1565632,62.2744713 34.9769041,62.2033426 C35.7972452,62.1322138 36.5216876,62.7479066 36.5949917,63.5785308 Z M17.1203789,79.595606 C17.230335,80.8415424 16.3219454,81.9380653 15.0914339,82.0447583 C13.8609224,82.1514515 12.7742588,81.2279124 12.6643027,79.981976 C12.5543467,78.7360396 13.4627363,77.6395166 14.6932478,77.5328235 C15.9237593,77.4261305 17.0104229,78.3496696 17.1203789,79.595606 Z M100.403557,60.2099394 C100.476861,61.0405636 99.8712677,61.7715789 99.0509268,61.8427077 C98.2305857,61.9138364 97.5061433,61.2981437 97.4328392,60.4675194 C97.3595353,59.6368951 97.9651283,58.9058799 98.7854694,58.8347512 C99.6058103,58.7636224 100.330253,59.3793152 100.403557,60.2099394 Z M115.204894,5.91980164 C115.278199,6.75042587 114.672606,7.48144113 113.852265,7.55256995 C113.031923,7.62369866 112.307481,7.00800593 112.234177,6.1773816 C112.160873,5.34675737 112.766466,4.61574211 113.586808,4.5446134 C114.407149,4.47348458 115.131591,5.08917742 115.204894,5.91980164 Z M86.8045765,64.3452254 C87.0728387,67.4532911 84.7731329,70.1960036 81.6680398,70.471245 C78.5629468,70.7464865 75.828302,68.4500286 75.56004,65.3419628 C75.2917778,62.233897 77.5914836,59.4911847 80.6965767,59.2159432 C83.8016697,58.9407018 86.5363144,61.2371596 86.8045765,64.3452254 Z M108.350652,28.5914619 C108.423957,29.4220861 107.818364,30.1531014 106.998023,30.2242302 C106.177682,30.2953589 105.453239,29.6796662 105.379935,28.8490418 C105.306631,28.0184176 105.912224,27.2874024 106.732566,27.2162736 C107.552907,27.1451448 108.277349,27.7608377 108.350652,28.5914619 Z M54.7083557,59.7097368 C54.9282679,62.2016096 53.1114886,64.3946554 50.6504656,64.6080415 C48.1894426,64.8214278 46.0161154,62.9743495 45.7962032,60.4824767 C45.5762911,57.9906039 47.3930704,55.7975581 49.8540934,55.5841719 C52.3151163,55.3707858 54.4884436,57.2178641 54.7083557,59.7097368 Z M77.3718408,41.3578431 C77.5551009,43.4344037 76.0411181,45.2619419 73.9902656,45.4397638 C71.9394131,45.6175856 70.1283071,44.0783537 69.945047,42.0017931 C69.761787,39.9252324 71.2757697,38.0976942 73.3266222,37.9198724 C75.3774746,37.7420506 77.1885807,39.2812825 77.3718408,41.3578431 Z M85.0610504,26.4092625 C85.2443105,28.4858232 83.7303278,30.3133613 81.6794753,30.4911831 C79.6286229,30.6690051 77.8175167,29.1297731 77.6342567,27.0532124 C77.4509966,24.9766518 78.9649794,23.1491137 81.0158319,22.9712918 C83.0666843,22.7934699 84.8777903,24.3327019 85.0610504,26.4092625 Z M91.2484796,37.1107277 C91.4967836,39.9346051 89.4328402,42.4209655 86.6385331,42.6641692 C83.844226,42.9073728 81.3777023,40.8153233 81.1293984,37.9914459 C80.8810945,35.1675685 82.9450378,32.6812081 85.739345,32.4380044 C88.5336522,32.1948008 91.0001757,34.2868502 91.2484796,37.1107277 Z M99.6843092,29.9962583 C99.8675693,32.0728189 98.3535866,33.900357 96.3027341,34.078179 C94.2518816,34.2560008 92.4407755,32.7167689 92.2575154,30.6402082 C92.0742553,28.5636475 93.5882382,26.7361094 95.6390907,26.5582876 C97.6899431,26.3804656 99.5010491,27.9196976 99.6843092,29.9962583 Z" id="Combined-Shape" fill="url(#linearGradient-3)" fill-rule="nonzero" transform="translate(62.147008, 59.943421) rotate(-4.000000) translate(-62.147008, -59.943421) "></path>
            </g>
        </g>
    </g>
</svg>