<?xml version="1.0" encoding="UTF-8"?>
<svg width="142px" height="100px" viewBox="0 0 142 100" version="1.1" xmlns="http://www.w3.org/2000/svg" xmlns:xlink="http://www.w3.org/1999/xlink">
    <!-- Generator: Sketch 53.2 (72643) - https://sketchapp.com -->
    <title>Group</title>
    <desc>Created with Sketch.</desc>
    <defs>
        <linearGradient x1="0%" y1="49.9961354%" x2="77.7265605%" y2="50.0594418%" id="linearGradient-1">
            <stop stop-color="#032664" offset="0%"></stop>
            <stop stop-color="#115992" offset="100%"></stop>
        </linearGradient>
        <linearGradient x1="0%" y1="49.9804911%" x2="77.7265605%" y2="50.3000678%" id="linearGradient-2">
            <stop stop-color="#032664" offset="0%"></stop>
            <stop stop-color="#115992" offset="100%"></stop>
        </linearGradient>
        <linearGradient x1="13.4227233%" y1="97.6092193%" x2="91.5440239%" y2="30.0766291%" id="linearGradient-3">
            <stop stop-color="#032664" offset="0%"></stop>
            <stop stop-color="#28B0E1" offset="51.6528179%"></stop>
            <stop stop-color="#2CD2A4" offset="100%"></stop>
        </linearGradient>
    </defs>
    <g id="Page-1" stroke="none" stroke-width="1" fill="none" fill-rule="evenodd">
        <g id="SEDA-logomark-9-Copy-16-JAMES" transform="translate(-586.000000, -471.000000)">
            <g id="Group" transform="translate(589.000000, 471.000000)">
                <path d="M-55.9014658,67.3421652 L57.8435832,67.4000478" id="Line-Copy" stroke="url(#linearGradient-1)" stroke-width="6.2" stroke-linecap="round" stroke-linejoin="round" transform="translate(0.971059, 67.371106) rotate(-90.000000) translate(-0.971059, -67.371106) "></path>
                <path d="M0.952478861,123.303749 L108.641952,125.43093" id="Line-Copy-2" stroke="url(#linearGradient-2)" stroke-width="6.2" stroke-linecap="round" stroke-linejoin="round" transform="translate(54.797215, 124.367339) rotate(-361.000000) translate(-54.797215, -124.367339) "></path>
                <path d="M47.0689436,77.0612666 C47.4356704,81.312106 44.2894596,85.0634667 40.041685,85.4401651 C35.7939104,85.8168635 32.0531179,82.6762517 31.6863911,78.4254122 C31.3196643,74.1745728 34.4658752,70.4232121 38.7136498,70.0465137 C42.9614243,69.6698153 46.7022168,72.8104271 47.0689436,77.0612666 Z M33.4651127,104.107503 C33.5686824,105.281074 32.7130527,106.31391 31.5540103,106.414406 C30.394968,106.514903 29.3714186,105.645003 29.2678489,104.471432 C29.1642792,103.297861 30.0199088,102.265025 31.1789512,102.164528 C32.3379936,102.064032 33.3615429,102.933931 33.4651127,104.107503 Z M12.7613127,95.1061367 C12.8648824,96.2797081 12.0092527,97.3125441 10.8502104,97.4130404 C9.69116798,97.5135367 8.66761864,96.6436374 8.56404893,95.470066 C8.46047922,94.2964946 9.31610887,93.2636587 10.4751513,93.1631624 C11.6341936,93.0626661 12.657743,93.9325653 12.7613127,95.1061367 Z M45.831171,96.7088174 C46.1091204,99.9291189 43.7263696,102.770874 40.5091482,103.056054 C37.2919268,103.341235 34.4585311,100.96185 34.1805817,97.7415481 C33.9026323,94.5212466 36.285383,91.6794918 39.5026044,91.3943111 C42.7198258,91.1091304 45.5532216,93.4885159 45.831171,96.7088174 Z M15.481772,70.1699997 C15.5508185,70.9523807 14.9803987,71.640938 14.2077038,71.7079355 C13.4350088,71.774933 12.7526426,71.1950002 12.6835961,70.4126192 C12.6145497,69.6302383 13.1849694,68.941681 13.9576644,68.8746835 C14.7303593,68.807686 15.4127255,69.3876188 15.481772,70.1699997 Z M53.9595735,87.7105586 C54.1321897,89.666511 52.7061403,91.3879042 50.774403,91.555398 C48.8426657,91.7228918 47.1367501,90.2730598 46.9641339,88.3171074 C46.7915177,86.3611551 48.2175671,84.6397618 50.1493044,84.472268 C52.0810417,84.3047742 53.7869573,85.7546063 53.9595735,87.7105586 Z M50.4742166,40.859121 C50.5777863,42.0326924 49.7221566,43.0655283 48.5631143,43.1660246 C47.4040719,43.2665209 46.3805225,42.3966217 46.2769528,41.2230503 C46.1733831,40.0494789 47.0290128,39.0166429 48.1880552,38.9161466 C49.3470975,38.8156503 50.3706469,39.6855496 50.4742166,40.859121 Z M104.900735,20.6134027 C104.969781,21.3957836 104.399361,22.0843409 103.626667,22.1513385 C102.853972,22.218336 102.171605,21.6384032 102.102559,20.8560222 C102.033512,20.0736413 102.603932,19.385084 103.376627,19.3180865 C104.149322,19.2510889 104.831688,19.8310218 104.900735,20.6134027 Z M43.2453635,54.3029722 C43.3144099,55.0853532 42.7439902,55.7739105 41.9712952,55.840908 C41.1986003,55.9079055 40.5162341,55.3279727 40.4471876,54.5455917 C40.3781412,53.7632108 40.9485609,53.0746535 41.7212558,53.007656 C42.4939508,52.9406585 43.176317,53.5205913 43.2453635,54.3029722 Z M37.2206284,51.3473761 C37.3241981,52.5209475 36.4685685,53.5537834 35.3095261,53.6542797 C34.1504837,53.754776 33.1269344,52.8848768 33.0233647,51.7113054 C32.919795,50.5377339 33.7754246,49.504898 34.934467,49.4044017 C36.0935094,49.3039054 37.1170587,50.1738047 37.2206284,51.3473761 Z M69.8519051,57.2688902 C70.1896505,61.1826616 67.2934642,64.6364403 63.3830919,64.9831209 C59.4727196,65.3298014 56.0289397,62.438103 55.6911943,58.5243316 C55.3534489,54.6105602 58.2496352,51.1567815 62.1600075,50.8101009 C66.0703798,50.4634204 69.5141597,53.3551188 69.8519051,57.2688902 Z M34.431237,87.7915656 C34.6957522,90.803386 32.4926751,93.4556153 29.5105265,93.7154856 C26.5283779,93.9753559 23.8964368,91.7444596 23.6319215,88.7326392 C23.3674062,85.7208189 25.5704833,83.0685896 28.552632,82.8087193 C31.5347806,82.548849 34.1667217,84.7797453 34.431237,87.7915656 Z M19.8580213,112.792396 C19.961591,113.965967 19.1059613,114.998803 17.946919,115.099299 C16.7878766,115.199796 15.7643272,114.329896 15.6607575,113.156325 C15.5571878,111.982754 16.4128175,110.949918 17.5718598,110.849421 C18.7309022,110.748925 19.7544516,111.618824 19.8580213,112.792396 Z M76.9662448,54.1761991 C77.0698145,55.3497705 76.2141849,56.3826065 75.0551425,56.4831028 C73.8961001,56.5835991 72.8725508,55.7136998 72.768981,54.5401284 C72.6654113,53.366557 73.521041,52.3337211 74.6800834,52.2332248 C75.8391258,52.1327285 76.8626751,53.0026277 76.9662448,54.1761991 Z M52.4208564,97.147641 C52.4899029,97.930022 51.9194831,98.6185792 51.1467882,98.6855768 C50.3740933,98.7525743 49.691727,98.1726415 49.6226806,97.3902605 C49.5536341,96.6078796 50.1240539,95.9193223 50.8967488,95.8523248 C51.6694437,95.7853272 52.3518099,96.3652601 52.4208564,97.147641 Z M43.8337498,111.056378 C43.9027962,111.838759 43.3323765,112.527316 42.5596815,112.594313 C41.7869866,112.661311 41.1046204,112.081378 41.0355739,111.298997 C40.9665275,110.516616 41.5369472,109.828059 42.3096421,109.761061 C43.0823371,109.694064 43.7647033,110.273997 43.8337498,111.056378 Z M94.1603857,45.5422629 C94.2294322,46.3246439 93.6590125,47.0132012 92.8863175,47.0801987 C92.1136226,47.1471962 91.4312564,46.5672634 91.3622099,45.7848825 C91.2931634,45.0025015 91.8635832,44.3139442 92.6362781,44.2469467 C93.408973,44.1799492 94.0913393,44.759882 94.1603857,45.5422629 Z M63.3954352,38.0737329 C63.5700992,40.052889 62.1271323,41.7947033 60.1724786,41.9641841 C58.2178249,42.1336649 56.4916718,40.6666333 56.3170079,38.6874773 C56.1423439,36.7083212 57.5853107,34.9665069 59.5399645,34.7970261 C61.4946182,34.6275453 63.2207713,36.0945769 63.3954352,38.0737329 Z M54.9474681,52.99328 C55.1221321,54.9724361 53.6791653,56.7142504 51.7245115,56.8837312 C49.7698578,57.0532121 48.0437048,55.5861804 47.8690408,53.6070244 C47.6943768,51.6278683 49.1373437,49.886054 51.0919974,49.7165732 C53.0466511,49.5470924 54.7728042,51.014124 54.9474681,52.99328 Z M70.711983,95.2973122 C70.8155527,96.4708836 69.959923,97.5037196 68.8008806,97.6042159 C67.6418383,97.7047122 66.6182889,96.8348129 66.5147192,95.6612415 C66.4111495,94.4876701 67.2667791,93.4548342 68.4258215,93.3543379 C69.5848639,93.2538416 70.6084132,94.1237408 70.711983,95.2973122 Z M96.4099742,18.8411343 C96.5825904,20.7970866 95.156541,22.5184799 93.2248037,22.6859737 C91.2930664,22.8534675 89.5871508,21.4036354 89.4145346,19.4476831 C89.2419184,17.4917308 90.6679679,15.7703375 92.5997052,15.6028437 C94.5314425,15.4353499 96.237358,16.885182 96.4099742,18.8411343 Z M76.6891192,23.2417165 C76.7926889,24.4152879 75.9370592,25.4481238 74.7780168,25.5486201 C73.6189745,25.6491164 72.5954251,24.7792172 72.4918554,23.6056458 C72.3882857,22.4320744 73.2439153,21.3992384 74.4029577,21.2987421 C75.5620001,21.1982458 76.5855494,22.0681451 76.6891192,23.2417165 Z M61.603325,73.107821 C61.8795109,76.2373448 59.5978318,78.9915739 56.5070521,79.259564 C53.4162724,79.5275542 50.6868075,77.2078228 50.4106216,74.0782991 C50.1344357,70.9487753 52.4161148,68.1945462 55.5068945,67.926556 C58.5976742,67.6585659 61.3271391,69.9782973 61.603325,73.107821 Z M85.3449923,57.0355796 C85.5176084,58.9915319 84.091559,60.7129252 82.1598217,60.880419 C80.2280844,61.0479128 78.5221689,59.5980807 78.3495527,57.6421284 C78.1769365,55.686176 79.6029859,53.9647828 81.5347232,53.797289 C83.4664605,53.6297952 85.1723761,55.0796273 85.3449923,57.0355796 Z M72.3164387,81.5949685 C72.5235781,83.9421113 70.8123188,86.0077832 68.494234,86.2087758 C66.1761493,86.4097684 64.1290506,84.6699699 63.9219112,82.3228271 C63.7147718,79.9756843 65.4260311,77.9100124 67.7441158,77.7090198 C70.0622006,77.5080272 72.1092993,79.2478257 72.3164387,81.5949685 Z M29.1442797,74.614778 C29.3464247,76.9568154 27.6135151,79.0235462 25.2737177,79.2309504 C22.9339203,79.4383545 20.8732688,77.7078923 20.6711238,75.3658549 C20.4689788,73.0238174 22.2018884,70.9570867 24.5416858,70.7496825 C26.8814832,70.5422784 28.9421347,72.2727405 29.1442797,74.614778 Z M27.6622286,98.9884253 C27.8896273,101.623219 25.9400914,103.948281 23.3078182,104.181596 C20.675545,104.414912 18.3573229,102.468129 18.1299241,99.8333357 C17.9025254,97.1985423 19.8520614,94.8734806 22.4843346,94.640165 C25.1166077,94.4068494 27.4348299,96.3536319 27.6622286,98.9884253 Z M34.469525,66.3447128 C34.5385714,67.1270937 33.9681517,67.815651 33.1954568,67.8826486 C32.4227618,67.9496461 31.7403956,67.3697133 31.6713491,66.5873323 C31.6023027,65.8049514 32.1727224,65.1163941 32.9454173,65.0493966 C33.7181123,64.982399 34.4004785,65.5623319 34.469525,66.3447128 Z M16.1260135,81.4315033 C16.2295832,82.6050747 15.3739536,83.6379107 14.2149112,83.7384069 C13.0558688,83.8389032 12.0323195,82.969004 11.9287498,81.7954326 C11.8251801,80.6218612 12.6808097,79.5890252 13.8398521,79.4885289 C14.9988945,79.3880327 16.0224438,80.2579319 16.1260135,81.4315033 Z M94.5720371,63.1717719 C94.6410835,63.9541528 94.0706638,64.6427101 93.2979689,64.7097077 C92.5252739,64.7767052 91.8429077,64.1967724 91.7738612,63.4143914 C91.7048148,62.6320105 92.2752345,61.9434532 93.0479295,61.8764557 C93.8206244,61.8094581 94.5029906,62.389391 94.5720371,63.1717719 Z M108.513701,12.0348492 C108.582748,12.8172301 108.012328,13.5057874 107.239633,13.572785 C106.466938,13.6397825 105.784572,13.0598497 105.715525,12.2774687 C105.646479,11.4950878 106.216899,10.8065305 106.989594,10.739533 C107.762289,10.6725354 108.444655,11.2524683 108.513701,12.0348492 Z M81.7628966,67.0668771 C82.0155779,69.9944239 79.8494408,72.5778374 76.9246941,72.8370926 C73.9999474,73.0963478 71.424133,70.93327 71.1714518,68.0057232 C70.9187705,65.0781764 73.0849075,62.494763 76.0096543,62.2355078 C78.934401,61.9762526 81.5102153,64.1393303 81.7628966,67.0668771 Z M102.057559,33.3897211 C102.126606,34.172102 101.556186,34.8606593 100.783491,34.9276569 C100.010796,34.9946544 99.3284298,34.4147216 99.2593834,33.6323406 C99.1903369,32.8499597 99.7607567,32.1614024 100.533452,32.0944049 C101.306147,32.0274073 101.988513,32.6073402 102.057559,33.3897211 Z M51.5308502,62.7006215 C51.7379897,65.0477643 50.0267304,67.1134362 47.7086456,67.3144287 C45.3905608,67.5154213 43.3434622,65.7756228 43.1363227,63.42848 C42.9291833,61.0813372 44.6404426,59.0156653 46.9585274,58.8146727 C49.2766121,58.6136802 51.3237108,60.3534787 51.5308502,62.7006215 Z M72.8780218,45.4146206 C73.050638,47.3705729 71.6245885,49.0919662 69.6928512,49.25946 C67.7611139,49.4269538 66.0551984,47.9771217 65.8825822,46.0211694 C65.709966,44.0652171 67.1360154,42.3438238 69.0677527,42.17633 C70.99949,42.0088362 72.7054056,43.4586683 72.8780218,45.4146206 Z M80.1206359,31.3342656 C80.2932521,33.290218 78.8672027,35.0116112 76.9354654,35.179105 C75.0037281,35.3465989 73.2978125,33.8967668 73.1251963,31.9408144 C72.9525801,29.9848621 74.3786296,28.2634689 76.3103669,28.095975 C78.2421042,27.9284812 79.9480197,29.3783133 80.1206359,31.3342656 Z M85.9486942,41.4141811 C86.1825765,44.0740454 84.2385086,46.415996 81.6064971,46.6450742 C78.9744856,46.8741523 76.6512196,44.9036108 76.4173374,42.2437464 C76.1834552,39.5838821 78.127523,37.2419315 80.7595346,37.0128533 C83.3915461,36.7837752 85.714812,38.7543167 85.9486942,41.4141811 Z M93.894564,34.7129258 C94.0671802,36.6688781 92.6411308,38.3902713 90.7093935,38.5577652 C88.7776562,38.725259 87.0717406,37.2754269 86.8991244,35.3194746 C86.7265082,33.3635222 88.1525577,31.642129 90.084295,31.4746352 C92.0160323,31.3071413 93.7219478,32.7569734 93.894564,34.7129258 Z" id="Combined-Shape" fill="url(#linearGradient-3)" transform="translate(58.537460, 62.920733) rotate(-4.000000) translate(-58.537460, -62.920733) "></path>
                
            </g>
        </g>
    </g>
</svg>